<svg width="276" height="226" viewBox="0 0 276 226" fill="none" xmlns="http://www.w3.org/2000/svg">
<g clip-path="url(#clip0_4_130)">
<mask id="path-1-inside-1_4_130" fill="white">
<path d="M0.157059 211.406H390V221.104H0.157059V211.406Z"/>
</mask>
<path d="M0.157059 211.406H390V221.104H0.157059V211.406Z" fill="#4B4B4B"/>
<path d="M0.157059 211.406V208.406H-2.84294V211.406H0.157059ZM0.157059 214.406H390V208.406H0.157059V214.406ZM3.15706 221.104V211.406H-2.84294V221.104H3.15706Z" fill="black" mask="url(#path-1-inside-1_4_130)"/>
<path d="M0.157059 221.104H390L385.143 226.276H5.54349L0.157059 221.104Z" fill="black"/>
<rect x="27.3107" width="336.183" height="211.407" rx="5.81855" fill="#1A1B1D"/>
<rect x="28.6034" y="1.29272" width="333.597" height="210.114" rx="5.81855" fill="black"/>
<rect x="32.4826" y="5.81836" width="325.192" height="201.71" fill="white"/>
<rect x="49" y="65" width="16" height="31" rx="3" fill="#1A1B1D"/>
<rect x="171" y="65" width="16" height="31" rx="3" fill="#878787"/>
<rect x="145" y="53" width="16" height="43" rx="3" fill="#1A1B1D"/>
<rect x="121" y="13" width="16" height="83" rx="3" fill="#878787"/>
<rect x="97" y="33" width="16" height="63" rx="3" fill="#1A1B1D"/>
<rect x="73" y="51" width="16" height="45" rx="3" fill="#878787"/>
<rect x="49" y="116" width="136" height="75" rx="6" fill="#D9D9D9"/>
<path d="M59.5 180L95.5 154" stroke="black" stroke-width="3"/>
<path d="M110.5 166.5L95.9999 154" stroke="black" stroke-width="3"/>
<path d="M141 140L173.5 132" stroke="black" stroke-width="3"/>
<path d="M110 166.5L141.5 139.5" stroke="black" stroke-width="3"/>
<circle cx="60" cy="180" r="4" fill="#1A1B1D"/>
<circle cx="173" cy="132" r="4" fill="#1A1B1D"/>
<circle cx="141" cy="140" r="4" fill="#1A1B1D"/>
<circle cx="110" cy="166" r="4" fill="#1A1B1D"/>
<circle cx="96" cy="154" r="4" fill="#1A1B1D"/>
<rect x="208" y="31" width="136" height="9" rx="2" fill="#D9D9D9"/>
<rect x="208" y="73" width="136" height="9" rx="2" fill="#D9D9D9"/>
<rect x="208" y="52" width="136" height="9" rx="2" fill="#D9D9D9"/>
<path d="M311 149C311 141.106 309.053 133.335 305.332 126.373C301.611 119.411 296.231 113.475 289.667 109.089C283.104 104.704 275.56 102.005 267.705 101.231C259.849 100.457 251.924 101.633 244.631 104.654C237.338 107.675 230.903 112.447 225.895 118.549C220.888 124.651 217.462 131.894 215.922 139.636C214.382 147.378 214.775 155.38 217.067 162.934C219.358 170.487 223.477 177.359 229.059 182.941L245.65 166.349C242.797 163.496 240.692 159.984 239.521 156.122C238.349 152.261 238.148 148.171 238.936 144.213C239.723 140.256 241.474 136.554 244.033 133.435C246.593 130.316 249.883 127.876 253.611 126.332C257.338 124.788 261.389 124.187 265.405 124.582C269.42 124.978 273.276 126.357 276.631 128.599C279.986 130.841 282.737 133.875 284.639 137.434C286.541 140.992 287.536 144.965 287.536 149H311Z" fill="#D9D9D9"/>
<path d="M264.5 97C257.08 97 249.733 98.4485 242.878 101.263C236.023 104.077 229.795 108.202 224.548 113.402L244.078 132.759C246.76 130.101 249.944 127.992 253.448 126.554C256.952 125.115 260.707 124.375 264.5 124.375V97Z" fill="#1A1B1D"/>
<path d="M229.059 182.941C235.772 189.654 244.325 194.226 253.636 196.078C262.947 197.93 272.598 196.979 281.369 193.346C290.14 189.713 297.636 183.561 302.911 175.667C308.185 167.774 311 158.493 311 149L287.536 149C287.536 153.853 286.097 158.597 283.401 162.631C280.705 166.666 276.873 169.811 272.389 171.668C267.906 173.525 262.973 174.011 258.213 173.064C253.454 172.118 249.082 169.781 245.651 166.349L229.059 182.941Z" fill="#878787"/>
</g>
<defs>
<clipPath id="clip0_4_130">
<rect width="276" height="226" fill="white"/>
</clipPath>
</defs>
</svg>
