<svg width="71" height="70" viewBox="0 0 71 70" fill="none" xmlns="http://www.w3.org/2000/svg">
<path d="M55.5202 16.7962C55.5081 15.5322 54.9982 14.3239 54.1012 13.4334C53.2041 12.5428 51.9922 12.0417 50.7281 12.0387L20.3231 11.9426C19.0603 11.9429 17.8492 12.4438 16.9552 13.3357C16.0612 14.2275 15.5573 15.4374 15.554 16.7001V48.0659C15.554 50.6887 17.6945 52.6774 20.3231 52.6774H46.2973L45.0483 48.4502L55.5202 58.0575V16.7962ZM42.1325 42.0912C42.1325 42.0912 41.2948 41.093 40.5953 40.2351C43.6447 39.3762 44.8081 37.4979 44.8081 37.4979C43.9706 38.0535 43.0731 38.5128 42.1325 38.867C41.0465 39.3179 39.9159 39.6525 38.7594 39.8652C36.7668 40.2312 34.7235 40.2234 32.7337 39.8421C31.5633 39.6248 30.4178 39.29 29.3145 38.843C28.7308 38.6194 28.1633 38.3559 27.6159 38.0542C27.5458 38.0081 27.4766 37.985 27.4065 37.938C27.3594 37.9149 27.3364 37.8918 27.3104 37.8918C26.8915 37.6594 26.6591 37.497 26.6591 37.497C26.6591 37.497 27.7754 39.331 30.7306 40.212C30.0322 41.0939 29.1714 42.1152 29.1714 42.1152C24.0305 41.9528 22.0764 38.6114 22.0764 38.6114C22.0764 31.2081 25.4264 25.1978 25.4264 25.1978C28.7765 22.7143 31.9402 22.7844 31.9402 22.7844L32.1727 23.063C27.9849 24.2466 26.0778 26.0797 26.0778 26.0797C26.0778 26.0797 26.5889 25.8011 27.4497 25.4293C29.939 24.3389 31.9171 24.0603 32.7337 23.968C32.8641 23.941 32.9965 23.9252 33.1295 23.921C34.6884 23.7187 36.2659 23.7032 37.8285 23.8748C40.2819 24.1567 42.6588 24.9051 44.8312 26.0797C44.8312 26.0797 42.9933 24.336 39.038 23.1543L39.3637 22.7835C39.3637 22.7835 42.5504 22.7133 45.8784 25.2007C45.8784 25.2007 49.2284 31.211 49.2284 38.6143C49.2284 38.5874 47.2734 41.9288 42.1325 42.0912Z" fill="black"/>
<path d="M31.3147 31.3491C29.9889 31.3491 28.9417 32.4866 28.9417 33.9018C28.9417 35.3169 30.012 36.4544 31.3147 36.4544C32.6405 36.4544 33.6877 35.3179 33.6877 33.9018C33.7117 32.4837 32.6405 31.3491 31.3147 31.3491ZM39.8056 31.3491C38.4798 31.3491 37.4326 32.4866 37.4326 33.9018C37.4326 35.3169 38.5029 36.4544 39.8056 36.4544C41.1324 36.4544 42.1786 35.3179 42.1786 33.9018C42.1786 32.4857 41.1093 31.3491 39.8056 31.3491Z" fill="black"/>
<circle cx="35.5371" cy="35" r="33.5753" stroke="black" stroke-width="2.84934"/>
</svg>
