<svg width="70" height="70" viewBox="0 0 70 70" fill="none" xmlns="http://www.w3.org/2000/svg">
<path d="M50.682 18.5938H20.2639C18.9198 18.5952 17.6311 19.1298 16.6807 20.0802C15.7303 21.0307 15.1957 22.3193 15.1942 23.6634V45.3906C15.1957 46.7347 15.7303 48.0234 16.6807 48.9738C17.6311 49.9243 18.9198 50.4589 20.2639 50.4603H50.682C52.0261 50.4589 53.3148 49.9243 54.2652 48.9738C55.2157 48.0234 55.7502 46.7347 55.7517 45.3906V23.6634C55.7502 22.3193 55.2157 21.0307 54.2652 20.0802C53.3148 19.1298 52.0261 18.5952 50.682 18.5938ZM49.3983 26.9795L36.362 37.1189C36.1078 37.3165 35.7949 37.4238 35.473 37.4238C35.151 37.4238 34.8382 37.3165 34.584 37.1189L21.5476 26.9795C21.3945 26.8639 21.2658 26.7189 21.1692 26.5531C21.0725 26.3873 21.0098 26.2039 20.9846 26.0136C20.9594 25.8234 20.9723 25.63 21.0225 25.4447C21.0727 25.2595 21.1592 25.0861 21.277 24.9345C21.3949 24.783 21.5416 24.6564 21.7088 24.5621C21.8759 24.4678 22.0602 24.4076 22.2508 24.3851C22.4414 24.3626 22.6346 24.3783 22.8191 24.4311C23.0036 24.4839 23.1758 24.5728 23.3256 24.6928L35.473 34.1405L47.6203 24.6928C47.924 24.4634 48.3059 24.3628 48.6832 24.4127C49.0605 24.4626 49.4031 24.6591 49.6367 24.9596C49.8703 25.2601 49.9763 25.6404 49.9317 26.0184C49.8871 26.3964 49.6955 26.7417 49.3983 26.9795Z" fill="black"/>
<circle cx="35" cy="35" r="33.5753" stroke="black" stroke-width="2.84934"/>
</svg>
