<svg width="49" height="49" viewBox="0 0 49 49" fill="none" xmlns="http://www.w3.org/2000/svg">
<g clip-path="url(#clip0_99_421)">
<path d="M42.3999 5.74512H6.3999C4.80913 5.74682 3.28399 6.37951 2.15914 7.50436C1.03429 8.62921 0.401604 10.1543 0.399902 11.7451V37.4594C0.401604 39.0502 1.03429 40.5753 2.15914 41.7002C3.28399 42.825 4.80913 43.4577 6.3999 43.4594H42.3999C43.9907 43.4577 45.5158 42.825 46.6407 41.7002C47.7655 40.5753 48.3982 39.0502 48.3999 37.4594V11.7451C48.3982 10.1543 47.7655 8.62921 46.6407 7.50436C45.5158 6.37951 43.9907 5.74682 42.3999 5.74512ZM40.8806 15.6698L25.452 27.6698C25.1512 27.9036 24.781 28.0306 24.3999 28.0306C24.0188 28.0306 23.6486 27.9036 23.3478 27.6698L7.91919 15.6698C7.73792 15.5329 7.58566 15.3613 7.47126 15.1651C7.35686 14.9688 7.28261 14.7518 7.25281 14.5266C7.22301 14.3014 7.23827 14.0726 7.29769 13.8533C7.35711 13.6341 7.45951 13.4288 7.59894 13.2495C7.73837 13.0702 7.91205 12.9203 8.10988 12.8087C8.30772 12.6971 8.52576 12.6259 8.75135 12.5993C8.97694 12.5726 9.20557 12.5911 9.42395 12.6536C9.64234 12.7161 9.84613 12.8214 10.0235 12.9633L24.3999 24.1448L38.7763 12.9633C39.1358 12.6919 39.5877 12.5728 40.0343 12.6319C40.4809 12.691 40.8863 12.9235 41.1628 13.2791C41.4393 13.6347 41.5647 14.0849 41.5119 14.5323C41.4591 14.9797 41.2323 15.3883 40.8806 15.6698Z" fill="#FFFDF1"/>
</g>
<defs>
<clipPath id="clip0_99_421">
<rect width="48" height="48" fill="white" transform="translate(0.399902 0.400391)"/>
</clipPath>
</defs>
</svg>
