<svg width="70" height="70" viewBox="0 0 70 70" fill="none" xmlns="http://www.w3.org/2000/svg">
<path fill-rule="evenodd" clip-rule="evenodd" d="M56.5794 34.6545C56.5794 22.9989 47.1286 13.5481 35.473 13.5481C23.8173 13.5481 14.3665 22.9989 14.3665 34.6545C14.3665 45.1889 22.0836 53.9207 32.1751 55.5056V40.7575H26.8146V34.6545H32.1751V30.0045C32.1751 24.7157 35.3269 21.7918 40.1475 21.7918C42.4569 21.7918 44.8729 22.2046 44.8729 22.2046V27.3992H42.2101C39.5897 27.3992 38.7699 29.0255 38.7699 30.6971V34.6545H44.6232L43.6885 40.7575H38.7708V55.5075C48.8624 53.9235 56.5794 45.1917 56.5794 34.6545Z" fill="black"/>
<circle cx="35" cy="35" r="33.5" stroke="black" stroke-width="3"/>
</svg>
