<svg width="70" height="70" viewBox="0 0 70 70" fill="none" xmlns="http://www.w3.org/2000/svg">
<path d="M42.4198 29.4722C44.2622 29.4722 46.0291 28.7403 47.3319 27.4375C48.6347 26.1348 49.3666 24.3678 49.3666 22.5254C49.3666 20.683 48.6347 18.9161 47.3319 17.6133C46.0291 16.3105 44.2622 15.5786 42.4198 15.5786H28.5262C26.6838 15.5786 24.9168 16.3105 23.6141 17.6133C22.3113 18.9161 21.5794 20.683 21.5794 22.5254C21.5794 24.3678 22.3113 26.1348 23.6141 27.4375C24.9168 28.7403 26.6838 29.4722 28.5262 29.4722C26.6838 29.4722 24.9168 30.2041 23.6141 31.5069C22.3113 32.8096 21.5794 34.5766 21.5794 36.419C21.5794 38.2614 22.3113 40.0283 23.6141 41.3311C24.9168 42.6339 26.6838 43.3658 28.5262 43.3658C27.1522 43.3658 25.8091 43.7732 24.6668 44.5365C23.5244 45.2998 22.634 46.3848 22.1082 47.6541C21.5824 48.9235 21.4448 50.3203 21.7129 51.6678C21.9809 53.0154 22.6425 54.2532 23.6141 55.2247C24.5856 56.1962 25.8234 56.8578 27.1709 57.1259C28.5185 57.3939 29.9152 57.2564 31.1846 56.7306C32.454 56.2048 33.5389 55.3144 34.3022 54.172C35.0656 53.0296 35.473 51.6865 35.473 50.3126V29.4722H42.4198Z" fill="black"/>
<path d="M42.4198 43.3657C46.2564 43.3657 49.3666 40.2556 49.3666 36.419C49.3666 32.5824 46.2564 29.4722 42.4198 29.4722C38.5832 29.4722 35.473 32.5824 35.473 36.419C35.473 40.2556 38.5832 43.3657 42.4198 43.3657Z" fill="black"/>
<circle cx="35" cy="35" r="33.5" stroke="black" stroke-width="3"/>
</svg>
