<svg width="50" height="50" viewBox="0 0 50 50" fill="none" xmlns="http://www.w3.org/2000/svg">
<g clip-path="url(#clip0_99_413)">
<path d="M25.0001 0.599609C11.5256 0.599609 0.600098 11.8084 0.600098 25.6205C0.600098 36.6768 7.59331 46.0446 17.288 49.356C17.4239 49.3856 17.5627 49.4002 17.7019 49.3996C18.606 49.3996 18.9546 48.7351 18.9546 48.1578C18.9546 47.5587 18.9328 45.9901 18.9219 43.8987C18.1148 44.0879 17.2891 44.1866 16.4601 44.1928C11.7653 44.1928 10.6978 40.5437 10.6978 40.5437C9.5867 37.6571 7.98546 36.8837 7.98546 36.8837C5.86135 35.3914 7.97456 35.3478 8.13795 35.3478H8.14885C10.5997 35.5657 11.8851 37.9403 11.8851 37.9403C13.1051 40.0753 14.739 40.6744 16.1987 40.6744C17.1638 40.6551 18.114 40.4324 18.9872 40.0209C19.2051 38.4087 19.8369 37.3085 20.534 36.6768C15.1203 36.045 9.42331 33.8991 9.42331 24.3134C9.42331 21.5793 10.371 19.3462 11.9287 17.6034C11.6781 16.9716 10.8394 14.4226 12.1683 10.9805C12.3466 10.9378 12.5298 10.9195 12.713 10.926C13.5953 10.926 15.5887 11.2637 18.8783 13.5512C22.8755 12.4329 27.1029 12.4329 31.1001 13.5512C34.3897 11.2637 36.3831 10.926 37.2655 10.926C37.4486 10.9195 37.6318 10.9378 37.8101 10.9805C39.139 14.4226 38.3003 16.9716 38.0497 17.6034C39.6074 19.3571 40.5551 21.5901 40.5551 24.3134C40.5551 33.9209 34.8472 36.0341 29.4117 36.655C30.2831 37.4284 31.0674 38.9534 31.0674 41.2844C31.0674 44.6285 31.0347 47.33 31.0347 48.1469C31.0347 48.7351 31.3724 49.3996 32.2765 49.3996C32.4229 49.4003 32.5689 49.3857 32.7122 49.356C42.4178 46.0446 49.4001 36.6659 49.4001 25.6205C49.4001 11.8084 38.4746 0.599609 25.0001 0.599609Z" fill="#FFFDF1"/>
</g>
<defs>
<clipPath id="clip0_99_413">
<rect width="48.8" height="48.8" fill="white" transform="translate(0.600098 0.599609)"/>
</clipPath>
</defs>
</svg>
