<svg width="70" height="70" viewBox="0 0 70 70" fill="none" xmlns="http://www.w3.org/2000/svg">
<path d="M34.5674 10.1147C21.0639 10.1147 10.1148 21.3477 10.1148 35.1896C10.1148 46.2697 17.1231 55.6577 26.8387 58.9763C26.9749 59.0059 27.114 59.0205 27.2535 59.0199C28.1596 59.0199 28.5089 58.354 28.5089 57.7755C28.5089 57.1751 28.487 55.6031 28.4761 53.5072C27.6673 53.6968 26.8398 53.7957 26.009 53.8019C21.3041 53.8019 20.2343 50.145 20.2343 50.145C19.1208 47.2521 17.5161 46.4771 17.5161 46.4771C15.3874 44.9815 17.5052 44.9379 17.669 44.9379H17.6799C20.136 45.1562 21.4242 47.5359 21.4242 47.5359C22.6468 49.6755 24.2843 50.2759 25.747 50.2759C26.7143 50.2566 27.6665 50.0334 28.5416 49.621C28.76 48.0053 29.3931 46.9028 30.0917 46.2697C24.6663 45.6365 18.9571 43.486 18.9571 33.8796C18.9571 31.1396 19.9068 28.9018 21.4678 27.1551C21.2168 26.522 20.3762 23.9676 21.708 20.518C21.8866 20.4753 22.0702 20.4569 22.2538 20.4634C23.138 20.4634 25.1357 20.8018 28.4325 23.0943C32.4383 21.9735 36.6748 21.9735 40.6806 23.0943C43.9773 20.8018 45.975 20.4634 46.8592 20.4634C47.0428 20.4569 47.2264 20.4753 47.4051 20.518C48.7368 23.9676 47.8963 26.522 47.6452 27.1551C49.2062 28.9127 50.156 31.1505 50.156 33.8796C50.156 43.5078 44.4358 45.6256 38.9886 46.2478C39.8619 47.0229 40.6478 48.5512 40.6478 50.8873C40.6478 54.2386 40.6151 56.9458 40.6151 57.7646C40.6151 58.354 40.9535 59.0199 41.8596 59.0199C42.0062 59.0206 42.1526 59.0059 42.2962 58.9763C52.0227 55.6577 59.02 46.2587 59.02 35.1896C59.02 21.3477 48.0709 10.1147 34.5674 10.1147Z" fill="black"/>
<circle cx="35" cy="35" r="33.5" stroke="black" stroke-width="3"/>
</svg>
