<svg width="385" height="455" viewBox="0 0 385 455" fill="none" xmlns="http://www.w3.org/2000/svg">
<path d="M101.188 26.7945C111.005 18.9775 121.96 12.7079 133.672 8.20308C147.77 2.7807 162.746 0 177.851 0H199L201.203 0.28897C238.796 5.21919 272.802 25.1298 295.5 55.5L313.923 84.5401C321.083 95.8254 324.082 109.254 322.403 122.513L322.174 124.323C320.763 135.473 323.005 146.78 328.565 156.547L329.544 158.266C335.307 168.39 337.09 180.299 334.545 191.667C332.249 201.923 333.469 212.654 338.009 222.133L340.135 226.57C341.709 229.855 343.573 232.992 345.706 235.945L346.288 236.75C356.423 250.78 361.175 267.988 359.676 285.231L358.485 298.927C358.162 302.632 357.455 306.294 356.375 309.853L354.374 316.444C351.269 326.672 352.615 337.734 358.082 346.918C360.668 351.262 362.361 356.079 363.062 361.086L369 403.5L369.928 415.384C370.951 428.474 375.995 440.927 384.37 451.039H13L14.6592 412.014C14.8858 406.687 15.6797 401.398 17.0277 396.239L25.185 365.016C27.8038 354.992 24.2102 344.371 16.043 337.997C11.4791 334.435 8.23727 329.449 6.83313 323.833L4.53825 314.653C1.64014 303.061 3.61828 290.787 10.0117 280.692L10.6929 279.617C16.04 271.174 18.0651 261.047 16.3762 251.197C14.2485 238.789 18.0324 226.098 26.6078 216.881L31.157 211.991C40.6902 201.745 44.2141 187.271 40.4683 173.786C37.9083 164.57 38.7159 154.736 42.7498 146.063C45.2201 140.752 46.5 134.965 46.5 129.108V109.474C46.5 104.501 46.9426 99.5382 47.8225 94.6437C52.0689 71.0232 66.2366 50.356 86.7367 37.8776L89 36.5L101.188 26.7945Z" fill="white"/>
<rect x="157.939" y="282.14" width="84.2333" height="62.2902" fill="#D9D9D9"/>
<path d="M93.974 65.4097L124.67 33.6873L103.801 40.566C91.0609 44.7654 79.7452 52.437 71.1277 62.7177L70.2994 63.7058C59.9573 76.0439 54.2893 91.6292 54.2893 107.728V125.678C54.2893 132.533 52.9043 139.317 50.2176 145.624L48.3024 150.12C44.7747 158.4 44.327 167.67 47.0401 176.252C51.4612 190.237 47.3677 205.516 36.5472 215.417L35.2373 216.616C24.9148 226.062 20.2035 240.169 22.7787 253.922L23.294 256.674C25.1671 266.677 22.986 277.015 17.2314 285.408C14.6638 289.153 13.1275 293.508 12.7769 298.035L12.5958 300.374C11.0923 319.787 23.6788 337.501 42.506 342.469L43.8137 342.814C47.8817 343.887 52.0712 344.43 56.2784 344.43H62.9929C68.2568 344.43 73.5096 343.949 78.6859 342.993L93.974 340.168V65.4097Z" fill="black"/>
<path d="M361.734 438.744L368.227 452.73H24.5109V433.457C24.5109 416.771 26.4548 400.142 30.3032 383.907L33.7899 369.197C35.0482 363.889 37.4371 358.915 40.7935 354.614C44.5553 349.795 49.4269 345.956 54.9929 343.426L92.6585 326.305C95.4729 325.026 98.1584 323.481 100.679 321.69L134.58 297.602V319.302V320.571L135.783 320.978L205.859 344.691L206.429 344.884L206.998 344.689L236.02 334.78L237.218 334.371V333.105V300.276L327.121 334.338C339.987 339.213 349.365 350.463 351.845 363.996L356.148 387.487L359.735 431.179C359.95 433.799 360.627 436.36 361.734 438.744Z" fill="#4B4B4B" stroke="black" stroke-width="3.53921"/>
<path d="M99.8962 397.873L101.356 407.926C102.503 415.833 102.865 423.834 102.436 431.812L101.312 452.73" stroke="black" stroke-width="3.53921"/>
<path d="M118.3 405.718L116.931 408.273C111.536 418.347 107.594 429.134 105.224 440.313L102.631 452.54" stroke="black" stroke-width="3.53921"/>
<path d="M329.591 395.041L328.527 403.02C328.294 404.771 327.818 406.48 327.114 408.1V408.1C325.464 411.894 324.098 415.805 323.026 419.801L321.876 424.088C321.122 426.897 320.618 429.767 320.368 432.665L318.621 452.983" stroke="black" stroke-width="3.53921"/>
<path d="M118.654 430.787L110.514 452.023" stroke="black" stroke-width="3.53921"/>
<path d="M335.962 413.091V413.091C332.665 420.156 328.818 426.956 324.461 433.42L319.327 441.035" stroke="black" stroke-width="3.53921"/>
<line x1="134.934" y1="265.152" x2="134.934" y2="320.364" stroke="black" stroke-width="3.53921"/>
<line x1="236.864" y1="282.14" x2="236.864" y2="334.521" stroke="black" stroke-width="3.53921"/>
<path d="M257.484 307.241L285.32 318.171L259.35 343.155L259.317 343.187L259.286 343.22L225.505 379.231L226.365 372.479C227.177 366.094 227.27 359.637 226.641 353.231C225.844 345.114 218.119 340.108 210.818 341.741L238.283 300.543L257.484 307.241Z" fill="white" stroke="black" stroke-width="3.53921"/>
<path d="M186.713 325.431C192.651 330.075 197.743 335.687 201.781 342.017C196.042 340.891 189.785 344.455 188.636 351.032L188.31 352.897C188.107 354.057 188.075 355.24 188.215 356.409L191.398 382.976L100.723 323.351L122.514 305.546C127.928 301.123 132.112 295.398 134.685 288.923L155.797 301.255L186.713 325.431Z" fill="white" stroke="black" stroke-width="3.53921"/>
<path d="M87.1549 51.0295C102.747 31.5396 124.429 17.8465 148.728 12.1436L154.346 10.8251C171.653 6.76332 189.615 6.3463 207.092 9.60056L213.979 10.883C225.856 13.0947 237.306 17.183 247.898 22.9946C263.676 31.6513 277.176 43.9253 287.292 58.8096L296.676 72.6187L305.269 85.4051C312.546 96.2329 315.491 109.399 313.52 122.295C311.944 132.611 313.506 143.164 318.003 152.581L321.823 160.582C326.363 170.088 327.371 180.899 324.669 191.08C321.511 202.977 323.438 215.652 329.989 226.073L333.492 231.645C339.443 241.111 343.82 251.48 346.453 262.347L348.579 271.121C350.3 278.221 350.747 285.57 349.901 292.826L349.486 296.382C345.657 329.204 315.352 352.292 282.691 347.269L277.466 346.556C268.365 345.314 259.74 341.738 252.429 336.178L251.975 335.832C247.3 332.277 243.587 327.61 241.173 322.256C238.111 315.465 236.527 308.102 236.527 300.653V285.679L276.168 225.683L87.1549 51.0295Z" fill="black"/>
<path d="M290.66 154.657C290.66 196.694 283.311 230.84 268.586 254.418C253.928 277.888 231.912 290.988 202.122 290.988C172.29 290.988 139.865 275.382 114.369 250.409C88.8904 225.452 70.5259 191.326 68.6056 154.564C64.5683 77.2757 119.762 22.0079 179.457 22.0079C239.059 22.0079 290.66 79.5625 290.66 154.657Z" fill="#D9D9D9" stroke="black" stroke-width="3.53921"/>
<path d="M103.588 166.128C106.57 178.55 106.613 190.344 104.354 199.339C102.071 208.428 97.598 214.166 91.951 215.522C86.3041 216.878 79.7136 213.795 73.5534 206.734C67.456 199.745 62.1404 189.217 59.1581 176.795C56.1758 164.373 56.1325 152.579 58.3923 143.583C60.6754 134.495 65.1479 128.756 70.7949 127.401C76.4418 126.045 83.0323 129.128 89.1925 136.189C95.2899 143.178 100.605 153.706 103.588 166.128Z" fill="#D9D9D9" stroke="black" stroke-width="3.53921"/>
<ellipse cx="100.739" cy="173.753" rx="15.5725" ry="28.1227" transform="rotate(-11.8187 100.739 173.753)" fill="#D9D9D9"/>
<path d="M78.1813 210.996L75.4273 209.635L75.3079 209.949C74.9213 210.965 74.6951 212.036 74.6373 213.121C74.5807 214.185 74.8777 215.237 75.482 216.114L75.5364 216.193C76.0934 217.001 76.935 217.569 77.8929 217.783L78.4245 217.902C79.4937 218.141 80.6018 218.146 81.6733 217.918L81.7603 217.899C83.0713 217.619 84.185 216.76 84.7888 215.564C85.158 214.832 85.3293 214.016 85.2857 213.198L85.2668 212.843C85.2063 211.706 84.9715 210.585 84.5708 209.518L84.2033 208.541H81.2916L81.795 210.715C81.9926 211.568 82.1252 212.436 82.1916 213.309C82.2652 214.276 81.5336 215.117 80.5654 215.178L80.328 215.192C79.2657 215.259 78.3418 214.471 78.2392 213.412L78.1839 212.841L78.1813 212.815V212.788V210.996Z" fill="white" stroke="black" stroke-width="1.08182"/>
<path d="M66.9823 156.51L67.5032 150.773C67.8093 147.401 70.6363 144.819 74.0221 144.819V144.819C76.0544 144.819 77.9713 145.763 79.2104 147.373L80.2521 148.728C85.16 155.108 87.5974 163.047 87.1153 171.082L86.8011 176.318L82.505 175.602C80.1685 175.212 77.9468 176.754 77.4947 179.08L77.1967 180.612C76.3342 185.048 77.5707 189.633 80.5464 193.034L80.6515 193.154C82.2404 194.97 84.746 195.686 87.0543 194.983V194.983C89.6374 194.197 91.4029 191.814 91.4029 189.114L91.4029 185.166" stroke="black" stroke-width="3.53921"/>
<path d="M154.754 168.456C154.754 163.809 158.062 159.82 162.629 158.961L168.004 157.949C177.976 156.072 188.203 155.989 198.204 157.703L199.081 157.853C203.12 158.546 206.073 162.048 206.073 166.146C206.073 167.993 205.465 169.789 204.342 171.257L203.106 172.873C202.355 173.856 201.48 174.738 200.504 175.497L198.592 176.984C196.844 178.344 194.933 179.479 192.902 180.364L190.393 181.458C185.488 183.596 180.05 184.202 174.794 183.195L171.621 182.588C168.595 182.008 165.683 180.939 163.001 179.423L161.315 178.47C160.063 177.763 158.937 176.85 157.985 175.772L157.171 174.849C155.613 173.083 154.754 170.81 154.754 168.456Z" fill="white" stroke="black" stroke-width="3.53921"/>
<path d="M236.51 167.909C236.51 164.067 238.495 160.497 241.76 158.471L244.806 156.58C245.391 156.217 246.032 155.952 246.702 155.795C252.706 154.395 258.888 153.914 265.037 154.369L270.59 154.78C272.756 154.941 274.792 155.874 276.327 157.409C278.026 159.108 278.98 161.412 278.98 163.815V165.929C278.98 170.359 276.907 174.534 273.377 177.212L271.57 178.583C270.264 179.574 268.834 180.389 267.316 181.007L265.388 181.793C262.272 183.062 258.903 183.589 255.548 183.331L254.524 183.252C250.148 182.915 245.974 181.269 242.546 178.527L242.324 178.349C241.625 177.79 240.977 177.172 240.385 176.501L239.289 175.259C237.498 173.229 236.51 170.616 236.51 167.909Z" fill="white" stroke="black" stroke-width="3.53921"/>
<circle cx="187.315" cy="165.346" r="3.53921" fill="black"/>
<circle cx="257.391" cy="164.638" r="3.53921" fill="black"/>
<ellipse cx="220.937" cy="213.479" rx="3.18529" ry="2.12353" fill="black"/>
<path d="M228.187 241.929C228.95 242.238 229.427 242.538 229.676 242.758L229.658 242.796V243.209C229.658 243.211 229.657 243.216 229.655 243.226C229.652 243.237 229.646 243.257 229.631 243.288C229.6 243.353 229.53 243.462 229.385 243.605C229.086 243.901 228.563 244.249 227.774 244.58C226.205 245.238 223.914 245.686 221.291 245.686C218.669 245.686 216.377 245.238 214.808 244.58C214.019 244.249 213.496 243.901 213.197 243.605C213.053 243.462 212.983 243.353 212.951 243.288C212.936 243.257 212.93 243.237 212.927 243.226C212.925 243.216 212.925 243.211 212.925 243.209V242.872L212.822 242.612C212.826 242.608 212.829 242.604 212.833 242.6C213.015 242.395 213.473 242.073 214.347 241.749C216.05 241.116 218.62 240.731 221.291 240.731C223.9 240.731 226.465 241.231 228.187 241.929ZM212.778 242.672C212.778 242.672 212.779 242.672 212.779 242.671C212.779 242.672 212.778 242.672 212.778 242.672ZM229.835 242.925C229.836 242.926 229.836 242.927 229.836 242.927L229.835 242.925Z" stroke="black" stroke-width="3.53921"/>
<path d="M153.057 147.296L177.392 144.951C180.746 144.627 184.122 144.603 187.48 144.878L197.236 145.678C201.667 146.041 206.109 145.129 210.038 143.049V143.049" stroke="black" stroke-width="3.53921"/>
<path d="M275.297 144.343L257.335 144.695C254.884 144.743 252.44 144.971 250.022 145.378L242.773 146.597C239.639 147.124 236.423 146.891 233.397 145.916V145.916" stroke="black" stroke-width="3.53921"/>
<path d="M225.806 176.294L226.485 196.336C226.599 199.702 227.237 203.031 228.375 206.201V206.201C229.206 208.514 230.372 210.693 231.835 212.667L232.83 214.009C233.036 214.288 233.045 214.666 232.851 214.953V214.953C232.051 216.139 230.922 217.065 229.603 217.619L227.662 218.434" stroke="black" stroke-width="3.53921"/>
<line x1="106.267" y1="120.398" x2="140.243" y2="120.398" stroke="black" stroke-width="3.53921"/>
<line x1="70.1667" y1="201.8" x2="170.68" y2="201.8" stroke="black" stroke-width="3.53921"/>
<line x1="71.5825" y1="92.0844" x2="157.939" y2="92.0844" stroke="black" stroke-width="3.53921"/>
<line x1="75.8295" y1="73.6804" x2="164.31" y2="73.6804" stroke="black" stroke-width="3.53921"/>
<line x1="133.873" y1="286.033" x2="201.118" y2="286.033" stroke="black" stroke-width="3.53921"/>
<line x1="131.041" y1="296.651" x2="193.331" y2="296.651" stroke="black" stroke-width="3.53921"/>
<line x1="123.255" y1="304.437" x2="196.871" y2="304.437" stroke="black" stroke-width="3.53921"/>
<line x1="114.761" y1="311.516" x2="178.467" y2="311.516" stroke="black" stroke-width="3.53921"/>
<line x1="104.143" y1="318.594" x2="155.108" y2="318.594" stroke="black" stroke-width="3.53921"/>
<line x1="91.402" y1="325.673" x2="158.647" y2="325.673" stroke="black" stroke-width="3.53921"/>
<line x1="75.8295" y1="333.459" x2="165.018" y2="333.459" stroke="black" stroke-width="3.53921"/>
<line x1="56.7178" y1="342.661" x2="165.018" y2="342.661" stroke="black" stroke-width="3.53921"/>
<line x1="45.3923" y1="349.739" x2="144.49" y2="349.739" stroke="black" stroke-width="3.53921"/>
<line x1="39.0217" y1="356.818" x2="135.288" y2="356.818" stroke="black" stroke-width="3.53921"/>
<line x1="34.0668" y1="366.02" x2="135.288" y2="366.02" stroke="black" stroke-width="3.53921"/>
<path d="M32 373.098L155.816 373.098" stroke="black" stroke-width="3.53921"/>
<line x1="31.2354" y1="382.3" x2="162.894" y2="382.3" stroke="black" stroke-width="3.53921"/>
<line x1="28.4041" y1="391.502" x2="155.108" y2="391.502" stroke="black" stroke-width="3.53921"/>
<line x1="26.2805" y1="402.827" x2="162.186" y2="402.827" stroke="black" stroke-width="3.53921"/>
<line x1="24.8648" y1="412.029" x2="155.108" y2="412.029" stroke="black" stroke-width="3.53921"/>
<line x1="24.8648" y1="421.231" x2="150.153" y2="421.231" stroke="black" stroke-width="3.53921"/>
<line x1="24.8648" y1="432.557" x2="81.4922" y2="432.557" stroke="black" stroke-width="3.53921"/>
<line x1="24" y1="442.23" x2="78.5039" y2="442.23" stroke="black" stroke-width="3.53921"/>
<line x1="24.8648" y1="450.961" x2="84.3236" y2="450.961" stroke="black" stroke-width="3.53921"/>
<line x1="104.851" y1="436.096" x2="152.984" y2="436.096" stroke="black" stroke-width="3.53921"/>
<line x1="102.02" y1="447.422" x2="155.816" y2="447.422" stroke="black" stroke-width="3.53921"/>
<line x1="133.873" y1="274" x2="194.747" y2="274" stroke="black" stroke-width="3.53921"/>
<line x1="135.288" y1="265.506" x2="175.635" y2="265.506" stroke="black" stroke-width="3.53921"/>
<line x1="121.839" y1="253.473" x2="162.186" y2="253.473" stroke="black" stroke-width="3.53921"/>
<line x1="114.761" y1="245.686" x2="166.433" y2="245.686" stroke="black" stroke-width="3.53921"/>
<line x1="106.975" y1="237.192" x2="175.635" y2="237.192" stroke="black" stroke-width="3.53921"/>
<line x1="100.604" y1="227.99" x2="164.31" y2="227.99" stroke="black" stroke-width="3.53921"/>
<line x1="95.6492" y1="220.912" x2="179.882" y2="220.912" stroke="black" stroke-width="3.53921"/>
<line x1="77.9531" y1="211.002" x2="175.635" y2="211.002" stroke="black" stroke-width="3.53921"/>
<line x1="71.5825" y1="92.0844" x2="157.939" y2="92.0844" stroke="black" stroke-width="3.53921"/>
<path d="M61 190.475L174.928 190.475" stroke="black" stroke-width="3.53921"/>
<line x1="60.257" y1="179.149" x2="155.108" y2="179.149" stroke="black" stroke-width="3.53921"/>
<line x1="57.4256" y1="168.531" x2="148.737" y2="168.531" stroke="black" stroke-width="3.53921"/>
<line x1="56.0099" y1="157.206" x2="155.108" y2="157.206" stroke="black" stroke-width="3.53921"/>
<line x1="57.4256" y1="147.296" x2="148.737" y2="147.296" stroke="black" stroke-width="3.53921"/>
<line x1="60.257" y1="138.802" x2="164.31" y2="138.802" stroke="black" stroke-width="3.53921"/>
<line x1="66.6276" y1="129.6" x2="155.108" y2="129.6" stroke="black" stroke-width="3.53921"/>
<line x1="68.0432" y1="121.106" x2="132.457" y2="121.106" stroke="black" stroke-width="3.53921"/>
<line x1="68.0432" y1="109.78" x2="140.243" y2="109.78" stroke="black" stroke-width="3.53921"/>
<line x1="69.459" y1="100.578" x2="148.737" y2="100.578" stroke="black" stroke-width="3.53921"/>
<line x1="73.706" y1="83.5902" x2="179.882" y2="83.5902" stroke="black" stroke-width="3.53921"/>
<path d="M90.6941 77.5736H141.385L129.821 130.166C128.088 138.046 128.861 146.271 132.032 153.69L132.657 155.152C135.897 162.734 136.309 171.228 133.816 179.088C129.756 191.888 133.51 205.88 143.431 214.929L144.663 216.052C154.143 224.699 158.471 237.637 156.102 250.247L155.637 252.721C153.915 261.89 155.919 271.367 161.206 279.053C163.564 282.482 164.975 286.472 165.298 290.62L165.465 292.767C166.845 310.536 155.318 326.749 138.082 331.282L136.761 331.63C133.037 332.609 129.202 333.105 125.351 333.105H117.872C113.892 333.105 109.92 332.742 106.006 332.021C95.9782 330.175 86.6214 325.697 78.8928 319.046L75.8294 316.41L84.3235 216.923L95.8954 200.517C101.032 193.235 103.789 184.542 103.789 175.631V173.105C103.789 162.941 101.372 152.922 96.738 143.876C92.8785 136.342 86.0998 130.719 77.9823 128.318L65.5657 124.645L75.8294 84.7285L90.6941 77.5736Z" fill="black"/>
<path d="M99.8438 46.6367L135.47 26.3174L179.561 15.9912L232.824 26.3174L272.646 57.6528L287.498 84.6103L293.845 126.415H248.973V106.191H245.086V126.415H206.574V106.191H203.041V126.415H179.015V106.191H175.481V126.415H139.442V106.191H129.902V126.415L89.9673 117.921L84.3235 74.6173L99.8438 46.6367Z" fill="black"/>
</svg>
