<svg width="804" height="846" viewBox="0 0 804 846" fill="none" xmlns="http://www.w3.org/2000/svg">
<path d="M0.827637 572.136H390.393L446.22 613.859C461.374 625.185 477.961 634.456 495.548 641.43L515.551 649.362C532.422 656.052 550.406 659.488 568.554 659.488V659.488C578.367 659.488 588.155 660.492 597.763 662.486L634.192 670.044C665.875 676.617 694.451 693.594 715.376 718.275V718.275L796.518 826.326H0.827637V572.136Z" fill="url(#paint0_linear_246_70)"/>
<path d="M460.04 614.955L553.644 692.017L493.861 696.579C467.464 698.593 442.395 708.962 422.287 726.182L378.156 763.975L389.581 721.801C399.582 684.887 392.848 645.264 371.391 613.627L376.925 561.843L460.04 614.955Z" fill="white" stroke="black" stroke-width="2.48394"/>
<path d="M170.239 437.641L385.094 552.83C378.729 568.546 375.086 585.235 374.324 602.179L373.746 615.042C372.755 637.101 376.356 659.114 384.307 679.689L175.915 575.492L170.239 437.641Z" fill="#D9D9D9" stroke="black" stroke-width="2.48394"/>
<path d="M475.261 0H520.386L548.595 34.2671C569.875 60.1172 579.001 93.8746 573.646 126.926V126.926C569.705 151.25 573.579 176.198 584.712 198.181L596.036 220.541C607.91 243.988 610.548 271.039 603.426 296.338V296.338C595.127 325.817 600.129 357.45 617.117 382.931L626.981 397.725C642.549 421.074 654.067 446.882 661.052 474.062L662.465 479.558C669.69 507.673 669.238 537.294 661.202 565.189V565.189C642.44 630.318 585.453 677.388 517.932 683.281L503.185 684.568C496.082 685.187 488.934 685.041 481.862 684.131L477.184 683.529C454.09 680.556 432.095 671.896 413.173 658.326L410.389 656.33C398.653 647.913 389.233 636.669 383.002 623.64V623.64C374.772 606.432 370.5 587.599 370.5 568.524V546.5L475.261 382.527V0Z" fill="black"/>
<path d="M374.815 758.668L376.257 761.057L323.605 719.338C312.045 710.179 297.15 706.336 282.602 708.761C269.493 710.946 257.71 718.049 249.657 728.621L162.651 842.838L86.6436 642.602L153.811 517.223L270.667 658.792C283.335 674.139 298.375 687.361 315.218 697.957C339.55 713.265 359.96 734.057 374.815 758.668Z" fill="white" stroke="black" stroke-width="2.48394"/>
<path d="M196.797 578.618L162.121 466.898L380.371 562.846C377.411 572.95 375.302 583.285 374.066 593.743L373.934 594.866L361.444 593.607C334.656 590.908 308.493 583.836 283.993 572.672L228.679 547.465C224.312 545.476 219.349 545.238 214.813 546.802C209.213 548.732 204.856 553.198 203.066 558.845L196.797 578.618Z" fill="#878787" stroke="black" stroke-width="0.827982"/>
<path d="M107.768 422.723L107.693 422.631L107.601 422.555L43.469 369.523V215.275V1.24197H92.7339H469.409L512.733 126.685C525.674 164.154 530.396 203.97 526.577 243.427L525.526 254.285C524.307 266.884 524.116 279.562 524.955 292.192L529.459 359.954C531.36 388.571 525.04 417.134 511.242 442.277C500.781 461.339 486.733 478.198 469.871 491.925L431.008 523.563L430.973 523.592L430.94 523.623L402.322 550.612C388.402 563.74 369.512 570.253 350.46 568.492L347.537 568.222C319.377 565.62 291.828 558.449 265.974 546.989L243.177 536.885C233.559 532.622 224.362 527.467 215.705 521.489L184.42 499.883C164.255 485.957 146.122 469.295 130.543 450.377L107.768 422.723Z" fill="#D9D9D9" stroke="black" stroke-width="2.48394"/>
<ellipse cx="209.479" cy="245.083" rx="48.0229" ry="57.9587" fill="url(#paint1_linear_246_70)"/>
<ellipse cx="209.479" cy="230.593" rx="33.9472" ry="43.469" fill="black"/>
<ellipse cx="223.969" cy="209.48" rx="19.4576" ry="21.5275" fill="white"/>
<path d="M271.749 204.02L268.391 194.576C264.89 184.734 258.83 176.002 250.834 169.281V169.281C245.185 164.532 238.691 160.89 231.694 158.545L230.344 158.093C224.228 156.044 217.846 154.898 211.399 154.693L210.343 154.659C201.583 154.38 192.765 155.832 184.545 158.871V158.871C176.095 161.995 168.272 166.824 161.719 173.006V173.006C154.583 179.737 149.013 187.953 145.402 197.074L142.142 205.307C139.953 210.835 138.373 216.584 137.428 222.453L134.024 243.594" stroke="black" stroke-width="9.1078"/>
<path d="M264.991 167.569L260.178 163.434C251.396 155.888 240.96 150.517 229.716 147.754V147.754C221.012 145.616 211.992 145.082 203.097 146.179L202.075 146.305C192.977 147.427 184.164 150.217 176.079 154.537L165.728 160.067" stroke="black" stroke-width="0.827982"/>
<path d="M258.368 113.506L253.555 109.371C244.772 101.826 234.336 96.4541 223.092 93.6916V93.6916C214.389 91.5533 205.368 91.0194 196.473 92.1161L190.686 92.8297C184.709 93.5667 178.843 95.0255 173.217 97.1742L163.677 100.818C157.259 103.269 151.211 106.596 145.705 110.704L140.618 114.499C132.248 120.743 125.283 128.678 120.177 137.787L112.605 151.293" stroke="black" stroke-width="4.13991"/>
<path d="M148.414 191.459L146.827 192.123C140.973 194.572 134.477 195.03 128.337 193.425V193.425" stroke="black" stroke-width="2.48394"/>
<path d="M175.944 160.632L174.277 161.056C168.127 162.619 161.633 162.117 155.796 159.628V159.628" stroke="black" stroke-width="2.48394"/>
<ellipse cx="446.956" cy="260.813" rx="38.7614" ry="51.3349" fill="url(#paint2_linear_246_70)"/>
<ellipse cx="446.956" cy="247.98" rx="27.4003" ry="38.5011" fill="black"/>
<ellipse cx="458.651" cy="229.28" rx="15.705" ry="19.0672" fill="white"/>
<path d="M400.508 226.191L403.925 217.072C406.941 209.022 411.956 201.871 418.497 196.292V196.292C423.47 192.05 429.217 188.81 435.421 186.75L435.655 186.673C440.817 184.959 446.217 184.066 451.656 184.027L451.944 184.025C459.197 183.974 466.38 185.452 473.024 188.362V188.362C479.71 191.292 485.699 195.606 490.595 201.02L491.122 201.603C496.45 207.496 500.446 214.468 502.836 222.044L505.235 229.647C506.909 234.952 508.038 240.414 508.606 245.948L510.475 264.168" stroke="black" stroke-width="9.1078"/>
<path d="M391.987 135.928L396.423 131.256C402.654 124.694 410.581 119.988 419.325 117.659V117.659C425.263 116.078 431.446 115.629 437.55 116.335L441.715 116.817C450.748 117.863 459.496 120.633 467.484 124.977L467.884 125.195C475.232 129.192 481.843 134.415 487.43 140.639L487.666 140.902C493.237 147.108 497.727 154.206 500.949 161.898L506.31 174.703" stroke="black" stroke-width="4.13991"/>
<path d="M491.385 191.263L486.292 186.039C479.708 179.286 471.48 174.361 462.417 171.748L461.612 171.515C454.582 169.488 447.197 169.01 439.965 170.114V170.114C431.644 171.385 423.772 174.711 417.062 179.793L409.023 185.882" stroke="black" stroke-width="0.827982"/>
<path d="M502.941 202.222L502.24 202.582C497.965 204.779 492.936 204.967 488.509 203.095V203.095" stroke="black" stroke-width="2.48394"/>
<path d="M519.592 240.812L518.811 240.917C514.047 241.555 509.246 240.049 505.701 236.802V236.802" stroke="black" stroke-width="2.48394"/>
<line x1="364.897" y1="345.467" x2="373.177" y2="331.391" stroke="black" stroke-width="2.48394"/>
<path d="M399.501 463.104C399.501 466.507 397.791 469.873 394.467 473.064C391.142 476.257 386.281 479.188 380.224 481.676C368.116 486.649 351.464 489.751 333.473 489.751C315.481 489.751 298.303 486.649 285.666 481.669C279.344 479.178 274.222 476.241 270.701 473.041C267.178 469.838 265.368 466.478 265.368 463.104C265.368 459.801 267.103 457.174 270.525 455.03C273.994 452.858 279.079 451.27 285.429 450.14C298.111 447.882 315.34 447.524 333.473 447.524C351.607 447.524 368.311 447.882 380.469 450.138C386.556 451.268 391.374 452.851 394.642 455.014C397.857 457.14 399.501 459.765 399.501 463.104Z" fill="white" stroke="black" stroke-width="2.48394"/>
<line x1="121.427" y1="317.646" x2="141.298" y2="298.603" stroke="black" stroke-width="0.827982"/>
<line x1="236.518" y1="352.42" x2="253.077" y2="336.688" stroke="black" stroke-width="0.827982"/>
<line x1="430.247" y1="349.127" x2="450.946" y2="326.771" stroke="black" stroke-width="0.827982"/>
<line x1="508.132" y1="377.228" x2="528.004" y2="362.325" stroke="black" stroke-width="0.827982"/>
<line x1="513.045" y1="359.062" x2="533.744" y2="336.707" stroke="black" stroke-width="0.827982"/>
<line x1="489.902" y1="370.616" x2="523.021" y2="343.293" stroke="black" stroke-width="0.827982"/>
<line x1="499.826" y1="352.41" x2="521.354" y2="333.366" stroke="black" stroke-width="0.827982"/>
<line x1="487.377" y1="349.127" x2="508.077" y2="326.771" stroke="black" stroke-width="0.827982"/>
<line x1="461.762" y1="362.327" x2="518.065" y2="319.272" stroke="black" stroke-width="0.827982"/>
<line x1="468.371" y1="345.78" x2="505.63" y2="314.317" stroke="black" stroke-width="0.827982"/>
<line x1="442.677" y1="359.051" x2="476.625" y2="325.104" stroke="black" stroke-width="0.827982"/>
<line x1="430.314" y1="349.068" x2="468.401" y2="322.573" stroke="black" stroke-width="0.827982"/>
<line x1="214.192" y1="354.878" x2="233.236" y2="339.974" stroke="black" stroke-width="0.827982"/>
<line x1="216.645" y1="349.109" x2="236.516" y2="330.066" stroke="black" stroke-width="0.827982"/>
<line x1="204.225" y1="344.142" x2="224.096" y2="325.098" stroke="black" stroke-width="0.827982"/>
<line x1="184.377" y1="356.54" x2="225.776" y2="322.593" stroke="black" stroke-width="0.827982"/>
<line x1="192.622" y1="339.185" x2="216.633" y2="314.345" stroke="black" stroke-width="0.827982"/>
<line x1="155.379" y1="357.384" x2="198.434" y2="317.641" stroke="black" stroke-width="0.827982"/>
<line x1="178.557" y1="330.893" x2="198.429" y2="311.85" stroke="black" stroke-width="0.827982"/>
<line x1="155.376" y1="336.688" x2="186.011" y2="307.708" stroke="black" stroke-width="0.827982"/>
<line x1="128.069" y1="345.781" x2="171.952" y2="308.522" stroke="black" stroke-width="0.827982"/>
<line x1="128.025" y1="340.857" x2="161.144" y2="302.77" stroke="black" stroke-width="0.827982"/>
<line x1="115.621" y1="336.699" x2="148.74" y2="302.752" stroke="black" stroke-width="0.827982"/>
<path d="M135.307 125.367L108.651 181.846L106.354 105.511L106.353 -15H529.004L551.979 20.386C565.82 41.7041 576.819 64.7381 584.695 88.904L588.761 101.378C595.589 122.323 600.393 143.875 603.109 165.737V165.737C604.367 175.865 604.66 186.09 603.985 196.274L601.783 229.5L588.455 170.815L588.381 171.964C587.221 189.775 581.894 207.065 572.83 222.44V222.44L553.982 175.985L540.66 194.104L537.885 180.963L531.779 191.44L529.004 180.963L517.22 199.937L509.657 156.098C506.436 137.434 501.147 119.186 493.887 101.694L480.453 69.3293L483.081 93.2918C484.39 105.235 484.55 117.275 483.558 129.249L483.473 130.267C482.401 143.209 477.69 155.583 469.883 165.961V165.961L467.585 150.077L458.853 165.961V165.961C452.626 160.837 448.443 153.649 447.064 145.704L434.036 70.653L432.178 109.301C431.582 121.703 429.09 133.942 424.79 145.59L422.939 150.604C419.963 158.666 415.101 165.898 408.759 171.697V171.697V171.697C403.739 168.012 400.311 162.554 399.172 156.432L381.643 62.2694L374.53 90.5361C368.317 115.223 356.785 138.255 340.74 158.019V158.019V150.077L336.604 158.019L333.847 132.868L329.251 142.575L320.519 59.6219L315.47 87.4036C310.89 112.602 303.007 137.087 292.025 160.225V160.225V136.398L283.293 158.019L277.778 131.103L270.424 162.873L258.612 111.074C255.156 95.9163 250.516 81.0536 244.735 66.6221L232.739 36.6774L229.759 73.8634C228.991 83.4565 227.1 92.9265 224.126 102.079L220.505 113.227C215.589 128.356 206.437 141.758 194.134 151.841V151.841V138.163L188.159 148.312L186.78 128.014L178.508 153.165L172.074 111.247L164.72 69.7705L160.644 87.9153C156.628 105.794 151.181 123.321 144.355 140.328L135.307 162.873V125.367Z" fill="black"/>
<path d="M0 0H141.585L109.293 144.976C104.45 166.72 106.608 189.439 115.459 209.883L117.201 213.909C126.248 234.805 127.396 258.276 120.431 279.955V279.955C109.119 315.165 119.522 353.737 147.005 378.484L150.759 381.864C177.191 405.664 189.273 441.541 182.624 476.482L181.424 482.791C176.597 508.158 182.197 534.399 196.958 555.586V555.586C203.534 565.025 207.476 576.045 208.378 587.513L208.849 593.489C212.696 642.377 180.913 686.98 133.448 699.303L128.449 700.601C118.191 703.264 107.636 704.612 97.0383 704.612H73.9831C64.1481 704.612 54.3331 703.727 44.6567 701.968L0 693.849V0Z" fill="black"/>
<path d="M386.667 452.078L394.82 454.933L397.877 458.195L399.915 463.089L397.877 470.022L391.763 476.139L386.667 479.402L386.787 478.592C388.08 469.798 388.04 460.86 386.667 452.078V452.078Z" fill="black"/>
<path d="M211.549 584.969L379.216 671.079L388.323 690.536L233.491 611.878L211.549 584.969Z" fill="#D9D9D9"/>
<path d="M570.715 657.078L615.19 666.939L639.05 673.053C656.412 677.501 672.89 684.871 687.779 694.848V694.848C699.473 702.685 709.795 712.395 718.331 723.589L781.2 806.041" stroke="black" stroke-width="2.48394"/>
<path d="M715.743 721.363L705.832 745.885C699.791 760.832 692.213 775.111 683.22 788.491L672.688 804.161" stroke="black" stroke-width="0.827982"/>
<defs>
<linearGradient id="paint0_linear_246_70" x1="355.204" y1="713.721" x2="358.515" y2="860.273" gradientUnits="userSpaceOnUse">
<stop stop-color="#D9D9D9"/>
<stop offset="1" stop-color="#D9D9D9" stop-opacity="0"/>
</linearGradient>
<linearGradient id="paint1_linear_246_70" x1="209.479" y1="245.083" x2="209.479" y2="303.041" gradientUnits="userSpaceOnUse">
<stop/>
<stop offset="1" stop-opacity="0"/>
</linearGradient>
<linearGradient id="paint2_linear_246_70" x1="446.956" y1="260.813" x2="446.956" y2="312.148" gradientUnits="userSpaceOnUse">
<stop/>
<stop offset="1" stop-opacity="0"/>
</linearGradient>
</defs>
</svg>
