<svg width="487" height="538" viewBox="0 0 487 538" fill="none" xmlns="http://www.w3.org/2000/svg">
<g clip-path="url(#clip0_79_2)">
<path d="M98.7374 35.0001L47.2135 153.365C46.9034 162.942 50.3109 172.268 56.7224 179.389L60.0881 183.127C76.076 200.884 77.1291 227.517 62.5932 246.481L47.0511 266.758C37.0963 279.746 36.7867 297.711 46.2881 311.033C54.6851 322.808 55.5056 338.379 48.3927 350.97L40.154 365.555C33.9084 376.611 32.8853 389.867 37.3604 401.751L38.027 403.521C50.7682 437.355 93.2556 448.243 120.698 424.705L123.662 422.163C141.119 407.19 166.277 405.289 185.786 417.469C226.288 442.754 278.65 412.824 277.414 365.093L275.964 309.085C275.486 290.62 269.47 272.726 258.695 257.724L98.7374 35.0001Z" fill="black"/>
<path d="M188.846 539.365L254.748 409.151L406.385 268.966H413.639C440.26 268.966 466.418 275.9 489.538 289.079V539.365H188.846Z" fill="#4B4B4B" stroke="black" stroke-width="2.76417"/>
<path d="M141 26L192 -0.5L293 -0.499998L294.009 0.0579195C310.629 9.24394 324.592 22.5696 334.545 38.742L339.103 46.1502C347.213 59.3284 352.945 73.8287 356.037 88.9902L358.604 101.577C363.595 126.049 382.942 145.042 407.502 149.581L409.258 149.905C411.656 150.348 414.01 151.004 416.293 151.863V151.863C438.261 160.137 454.783 178.647 460.519 201.41L462.856 210.686C465.77 222.253 464.597 234.471 459.534 245.272L454.557 255.89C446.2 273.718 428.287 285.105 408.597 285.105L351.363 285.105L299.5 194L141 26Z" fill="black"/>
<path d="M319.82 306.968L286.22 354.933L272.85 337.744C263.19 325.323 251.418 314.7 238.074 306.361L224.375 297.801L255.078 257.565L319.82 306.968Z" fill="#878787" stroke="black" stroke-width="2.76417"/>
<path d="M297.705 392.354L320.981 387.633C328.568 386.094 336.322 385.542 344.05 385.99L349.106 386.283C365.801 387.251 381.695 393.761 394.273 404.782V404.782C402.972 412.404 409.794 421.932 414.207 432.624L415.717 436.281C421.447 450.162 423.693 465.233 422.26 480.182L422.031 482.578C421.005 493.274 418.292 503.741 413.991 513.588L402.751 539.322" stroke="black" stroke-width="2.76417"/>
<path d="M253.64 411.935L228.585 338.847L356.793 236.416L394.157 283.183L253.64 411.935Z" fill="white" stroke="black" stroke-width="2.76417"/>
<path d="M70.0404 201.001L69.2347 201.687C66.2624 204.218 62.5406 205.703 58.6421 205.912V205.912" stroke="black" stroke-width="1.53093"/>
<path d="M159.07 342.147L131.124 326.659L113.825 314.165C109.044 310.712 104.993 306.346 101.907 301.321L92.9311 286.702C91.2638 283.987 88.546 282.084 85.4243 281.445L76.5224 279.624C72.2047 278.741 68.2415 276.609 65.1252 273.493L64.1447 272.512C62.7282 271.096 62.435 268.906 63.4289 267.167L68.2068 258.806C69.725 256.149 70.9648 253.342 71.9068 250.431C74.3957 242.738 74.7401 234.512 72.9027 226.637L71.1647 219.189C69.8245 213.445 67.7835 207.888 65.0877 202.642L52.073 177.316L44.7684 160.661C42.0169 154.388 39.7428 147.916 37.9655 141.3C34.3138 127.708 33.0324 113.588 34.1775 99.5605L34.2069 99.2009L130.156 45.7952L189.125 103.067C192.008 105.867 195.235 108.29 198.729 110.277L217.074 120.708L218.411 121.468L219.025 120.058L223.49 109.787C226.464 102.946 231.416 97.1516 237.709 93.147L239.217 92.1871C241.517 90.7236 244.032 89.6299 246.671 88.9458C251.757 87.6272 257.138 87.8814 262.082 89.6665C267.348 91.5683 271.881 95.1141 274.986 99.7714L278.306 104.752C284.173 113.552 287.812 123.646 288.911 134.165C289.886 143.493 288.838 152.922 285.838 161.809L279.104 181.761C278.391 183.876 277.862 186.049 277.524 188.256L276.406 195.569C273.535 214.341 267.584 232.511 258.793 249.344C253.364 259.741 246.888 269.557 239.467 278.64L228.482 292.084C222.825 299.007 216.587 305.436 209.836 311.298L176.408 340.328C171.584 344.517 164.657 345.243 159.07 342.147Z" fill="#D9D9D9" stroke="black" stroke-width="2.76417"/>
<line x1="107.98" y1="239.377" x2="110.739" y2="234.739" stroke="black" stroke-width="0.762894"/>
<line x1="82.996" y1="274.655" x2="87.5947" y2="271.856" stroke="black" stroke-width="1.84278"/>
<line x1="111.646" y1="240.322" x2="118.084" y2="227.406" stroke="black" stroke-width="0.762894"/>
<line x1="114.408" y1="244.915" x2="125.445" y2="223.721" stroke="black" stroke-width="0.762894"/>
<line x1="118.084" y1="247.68" x2="131.88" y2="220.047" stroke="black" stroke-width="0.762894"/>
<line x1="128.201" y1="234.804" x2="134.639" y2="221.887" stroke="black" stroke-width="0.762894"/>
<line x1="126.421" y1="231.038" x2="136.538" y2="219.961" stroke="black" stroke-width="0.762894"/>
<line x1="135.566" y1="227.431" x2="140.165" y2="219.114" stroke="black" stroke-width="0.762894"/>
<line x1="131.897" y1="240.291" x2="148.452" y2="213.579" stroke="black" stroke-width="0.762894"/>
<line x1="149.364" y1="224.67" x2="157.641" y2="209.914" stroke="black" stroke-width="0.762894"/>
<line x1="161.296" y1="218.285" x2="164.055" y2="210.887" stroke="black" stroke-width="0.762894"/>
<ellipse cx="105.628" cy="190.021" rx="13.7961" ry="31.9749" transform="rotate(-12.3458 105.628 190.021)" fill="url(#paint0_linear_79_2)"/>
<ellipse cx="104.664" cy="187.69" rx="11.3051" ry="27.3265" transform="rotate(-13.9461 104.664 187.69)" fill="black"/>
<ellipse cx="99.0472" cy="192.951" rx="7.35791" ry="19.3432" transform="rotate(-14.2506 99.0472 192.951)" fill="white"/>
<path d="M84.8547 186.647L85.5955 178.099C86.1493 171.708 88.3645 165.572 92.0212 160.301V160.301C94.7576 156.357 98.2393 152.986 102.27 150.378L102.384 150.305C105.703 148.158 109.351 146.566 113.183 145.594L115.007 145.132C118.989 144.121 123.145 144.002 127.178 144.783V144.783C133.487 146.004 139.449 148.599 144.643 152.383L145.06 152.687C147.516 154.477 149.767 156.533 151.77 158.818V158.818C153.905 161.251 155.565 164.062 156.666 167.106L158.413 171.935" stroke="black" stroke-width="5.61341"/>
<path d="M138.2 117.667L132.622 118.559C128.693 119.188 124.862 120.325 121.225 121.941L120.21 122.392C116.28 124.139 112.616 126.428 109.323 129.194L106.827 131.29C104.144 133.544 101.728 136.098 99.6256 138.901L94.512 145.719V145.719C88.8941 155.181 79.9183 162.179 69.3724 165.321L64.1606 166.873" stroke="black" stroke-width="2.55155"/>
<path d="M84.855 173.771L83.6426 178.455C82.7505 181.902 79.6769 184.337 76.1172 184.416V184.416" stroke="black" stroke-width="1.53093"/>
<path d="M152.895 150.556L151.869 150.817C148.085 151.779 144.09 151.47 140.499 149.939V149.939" stroke="black" stroke-width="1.53093"/>
<path d="M92.7019 156.718V156.718C89.9128 160.323 85.8949 162.776 81.4137 163.61L81.176 163.654" stroke="black" stroke-width="1.53093"/>
<path d="M64 5.43049e-05L48.8198 14.2297C34.2038 27.9304 23.0057 44.8689 16.1254 63.6838L13.1836 71.7286C11.6133 76.0225 10.5007 80.4702 9.86418 84.9978L8.29263 96.176C6.31577 110.237 6.56832 124.522 9.04101 138.505L9.94673 143.626C12.3609 157.278 16.7034 170.518 22.8439 182.948C26.1539 189.648 30.5396 195.76 35.8267 201.042L40.3859 205.597L38.0865 199.159L47.2839 205.597L40.3859 189.501L46.3642 197.779L53.0174 202.378L38.0865 173.406L38.809 174.971C43.7727 185.726 51.2541 195.126 60.6201 202.378L54.3205 189.161C42.957 165.32 35.4592 139.823 32.1082 113.626L36.9187 130.465C39.2171 138.51 42.7112 146.164 47.2839 153.172C52.1789 160.514 57.737 167.392 63.8883 173.719L70.7373 180.764L67.5182 174.785L72.7392 178.464L67.5182 171.106L75.7958 176.921L63.3426 142.601L59.2405 128.139L66.2719 139.981C70.5654 147.211 75.775 153.857 81.7713 159.753L90.5116 168.347L85.0418 158.747C73.7255 138.886 65.3448 117.491 60.1602 95.2279L63.4713 98.677C83.2315 119.261 105.895 136.845 130.742 150.872L124.542 144.894L134.404 149.493L130.742 144.894L142.477 147.653L114.885 117.4L124.542 123.74C139.191 132.896 155.006 140.038 171.561 144.976L199.041 153.172L117.26 66.0226L156.733 38.2041L195 5.32734e-05L64 5.43049e-05Z" fill="black"/>
<path d="M149.696 20.6347L98.4862 76.5455L155.359 120.174C166.051 128.376 172.981 140.545 174.579 153.925C175.828 164.375 180.341 174.165 187.477 181.901L206.336 202.348C217.694 214.663 224 230.802 224 247.554C224 257.717 226.323 267.745 230.792 276.873L237.826 291.241C244.212 304.284 253.125 315.928 264.048 325.498L271.014 331.601C291.237 349.319 319.723 354.118 344.635 344.005C398.262 322.235 413.618 253.591 374.378 211.047L360.5 196L304 187L149.696 20.6347Z" fill="black"/>
<path d="M420.95 538.236L423.22 536.639C436.371 527.388 448.281 516.488 458.659 504.206V504.206" stroke="black" stroke-width="2.76417"/>
<path d="M121.976 319.361L115.416 314.481L178.49 261.39L182.611 269.907C187.869 280.774 183.615 293.854 172.97 299.548L165.13 303.741C155.369 308.962 145.051 313.068 134.371 315.98L121.976 319.361Z" fill="white" stroke="black" stroke-width="3"/>
<path d="M176 274L169.927 285.506C167.717 289.694 164.07 292.945 159.656 294.661V294.661C158.277 295.198 157.172 296.266 156.589 297.627L156.377 298.119C156.127 298.704 155.96 299.32 155.881 299.951L155.5 303L152.126 301.735C151.71 301.579 151.279 301.463 150.84 301.39V301.39C149.324 301.137 147.766 301.399 146.416 302.135L119 317.063" stroke="black" stroke-width="2"/>
</g>
<defs>
<linearGradient id="paint0_linear_79_2" x1="105.628" y1="190.021" x2="105.628" y2="221.996" gradientUnits="userSpaceOnUse">
<stop/>
<stop offset="1" stop-opacity="0"/>
</linearGradient>
<clipPath id="clip0_79_2">
<rect width="487" height="538" fill="white"/>
</clipPath>
</defs>
</svg>
