<svg width="1056" xmlns="http://www.w3.org/2000/svg" height="1693" fill="none"><defs><clipPath id="a" class="frame-clip frame-clip-def"><rect rx="0" ry="0" width="1056" height="1693"/></clipPath></defs><g clip-path="url(#a)"><g class="fills"><rect rx="0" ry="0" width="1056" height="1693" class="frame-background"/></g><g style="fill: rgb(0, 0, 0);" class="frame-children"><g clip-path="url(#b)" style="fill: rgb(0, 0, 0);"><defs><clipPath id="b" class="svg-def" transform="translate(16.611 22)"><rect width="1229" height="1671" fill="#fff"/></clipPath></defs><path d="M1052.611 22v1673" fill="none" style="fill: none;" class="fills"/><g fill="none" class="strokes"><path d="M1052.611 22v1673" style="fill: none; stroke-width: 5; stroke: rgb(0, 0, 0); stroke-opacity: 1;" class="stroke-shape"/></g><path d="M517.609 623.499h-35.651l-21.732 27.792a101.361 101.361 0 0 0-20.334 77.858 101.362 101.362 0 0 1-8.84 59.36l-8.779 18.25a91.334 91.334 0 0 0-5.928 63.189 91.336 91.336 0 0 1-11.073 72.463l-7.372 11.64a213.543 213.543 0 0 0-27.045 63.615l-1.47 6.024a136.783 136.783 0 0 0 .949 68.54c15.051 55 62.643 94.9 119.429 100.12l6.36.58a69.25 69.25 0 0 0 15.696-.34l5.198-.7a82.734 82.734 0 0 0 46.365-22.49l1.87-1.81a27.488 27.488 0 0 0 3.032-3.47l14.322-19.48c8.902-12.11 26.924-12.33 36.113-.43 14.147 18.31 39.728 23.21 59.638 11.41l17.26-10.23v-74l-52.124-70.89-125.884-58.839V623.499Z" style="fill: rgb(0, 0, 0);" class="fills"/><path d="M821.435 924.894v-54.449L652.996 1028.79a259.166 259.166 0 0 1 5.131 101.17l-4.825 32.81 196.702-124.2-11.968-29.253a222.95 222.95 0 0 1-16.601-84.423Z" style="fill: rgb(217, 217, 217);" class="fills"/><g class="strokes"><path d="M821.435 924.894v-54.449L652.996 1028.79a259.166 259.166 0 0 1 5.131 101.17l-4.825 32.81 196.702-124.2-11.968-29.253a222.95 222.95 0 0 1-16.601-84.423Z" style="fill: none; stroke-width: 3.197; stroke: rgb(0, 0, 0); stroke-opacity: 1;" class="stroke-shape"/></g><path d="m658.974 1057.27-5.746-25.85 142.707-106.043c27.931 35.08 26.722 85.208-2.997 118.913l-44.105 50.01-89.859-37.03Z" style="fill: rgb(135, 135, 135);" class="fills"/><g class="strokes"><path d="m658.974 1057.27-5.746-25.85 142.707-106.043c27.931 35.08 26.722 85.208-2.997 118.913l-44.105 50.01-89.859-37.03Z" style="fill: none; stroke-width: 2; stroke: rgb(0, 0, 0); stroke-opacity: 1;" class="stroke-shape"/></g><path d="m687.229 1130.73.768.24.551-.59 7.773-8.26 154.568-49.83h200.432v735.42H336.107l-23.189-300.26 101.633-244.72a87.338 87.338 0 0 1 32.864-39.6l4.972-3.25a218.182 218.182 0 0 1 30.073-16.46l12.593-5.67a117.33 117.33 0 0 1 30.011-8.9 119.453 119.453 0 0 0 33.51-10.42l110.683-53.29 17.972 5.59Z" style="fill: rgb(75, 75, 75);" class="fills"/><g class="strokes"><path d="m687.229 1130.73.768.24.551-.59 7.773-8.26 154.568-49.83h200.432v735.42H336.107l-23.189-300.26 101.633-244.72a87.338 87.338 0 0 1 32.864-39.6l4.972-3.25a218.182 218.182 0 0 1 30.073-16.46l12.593-5.67a117.33 117.33 0 0 1 30.011-8.9 119.453 119.453 0 0 0 33.51-10.42l110.683-53.29 17.972 5.59Z" style="fill: none; stroke-width: 2.574; stroke: rgb(0, 0, 0); stroke-opacity: 1;" class="stroke-shape"/></g><path d="m652.028 1230.34 13.879 5.24-4.184-24.83a174.076 174.076 0 0 1 .354-59.89l.659-3.65c1.964-10.87 11.864-18.23 22.553-17.35l-23.824-55.39-6.502 4.59a93.65 93.65 0 0 0-22.971 23.18l-46.505 67.12a121.443 121.443 0 0 0 66.541 60.98Z" style="fill: rgb(255, 255, 255);" class="fills"/><g class="strokes"><path d="m652.028 1230.34 13.879 5.24-4.184-24.83a174.076 174.076 0 0 1 .354-59.89l.659-3.65c1.964-10.87 11.864-18.23 22.553-17.35l-23.824-55.39-6.502 4.59a93.65 93.65 0 0 0-22.971 23.18l-46.505 67.12a121.443 121.443 0 0 0 66.541 60.98Z" style="fill: none; stroke-width: 3.197; stroke: rgb(0, 0, 0); stroke-opacity: 1;" class="stroke-shape"/></g><path d="m861.488 991.852-44.617 22.477a293.643 293.643 0 0 0-70.971 50.151l-22.62 21.66a174.566 174.566 0 0 0-31.331 40.37c12.975-6.73 29.937-.32 34.29 14.85l8.238 28.69.017.06.013.06 18.633 90.68 161.127-195.25-29.807-35.85a149.716 149.716 0 0 1-22.462-36.708l1.469-.629-1.469.629-.51-1.19Z" style="fill: rgb(255, 255, 255);" class="fills"/><g class="strokes"><path d="m861.488 991.852-44.617 22.477a293.643 293.643 0 0 0-70.971 50.151l-22.62 21.66a174.566 174.566 0 0 0-31.331 40.37c12.975-6.73 29.937-.32 34.29 14.85l8.238 28.69.017.06.013.06 18.633 90.68 161.127-195.25-29.807-35.85a149.716 149.716 0 0 1-22.462-36.708l1.469-.629-1.469.629-.51-1.19Z" style="fill: none; stroke-width: 3.197; stroke: rgb(0, 0, 0); stroke-opacity: 1;" class="stroke-shape"/></g><path d="M798.905 860.665Zl6.147-127.88 141.689-56.853v23.232a96.614 96.614 0 0 0 46.721 82.735c39.189 23.63 56.049 71.768 40.189 114.687l-5.66 15.298a116.358 116.358 0 0 0 4.27 90.742l7.55 15.699c34.34 71.425-7.14 156.175-84.622 172.865l-3.81.82-.026.01-27.105 4.66a141.598 141.598 0 0 1-87.437-12.96l-1.397-.7a105.614 105.614 0 0 1-46.305-45.55 116.165 116.165 0 0 1 .552-108.56l11.202-20.936a68.752 68.752 0 0 0 .1-64.685 78.938 78.938 0 0 1-7.875-51.558l5.817-31.066Z" style="fill: rgb(0, 0, 0);" class="fills"/><g class="strokes"><path d="M798.905 860.665Zl6.147-127.88 141.689-56.853v23.232a96.614 96.614 0 0 0 46.721 82.735c39.189 23.63 56.049 71.768 40.189 114.687l-5.66 15.298a116.358 116.358 0 0 0 4.27 90.742l7.55 15.699c34.34 71.425-7.14 156.175-84.622 172.865l-3.81.82-.026.01-27.105 4.66a141.598 141.598 0 0 1-87.437-12.96l-1.397-.7a105.614 105.614 0 0 1-46.305-45.55 116.165 116.165 0 0 1 .552-108.56l11.202-20.936a68.752 68.752 0 0 0 .1-64.685 78.938 78.938 0 0 1-7.875-51.558l5.817-31.066Z" style="fill: none; stroke-width: 1.287; stroke: rgb(0, 0, 0); stroke-opacity: 1;" class="stroke-shape"/></g><path d="M475.9 578.574a263.6 263.6 0 0 1 81.132-75.467l8.137-4.851a219.376 219.376 0 0 1 137.834-29.443l6.134.718c26.452 3.098 52.55 10.166 76.981 20.768 42.522 18.453 80.169 47.456 108.681 84.003l18.447 23.646a187.995 187.995 0 0 1 31.309 171.396l-2.471 7.955c-10.744 24.26-39.914 34.172-63.214 21.482L475.535 579.097l.365-.523Z" style="fill: rgb(0, 0, 0);" class="fills"/><path d="m612.691 1019.295-78.038-45.596a165.435 165.435 0 0 1-78.375-108.509l-10.618-50.054A176.33 176.33 0 0 1 443.833 752l.783-5.146a176.353 176.353 0 0 0 1.517-39.735l-.629-8.384a153.208 153.208 0 0 1 22.78-92.532l7.319-11.736a176.34 176.34 0 0 1 40.866-45.489l9.63-7.545a176.31 176.31 0 0 1 63.148-31.53l10.227-2.738a176.305 176.305 0 0 1 74.199-3.663l21.438 3.524a139.348 139.348 0 0 1 113.123 105.937l14.566 62.629 8.083-8.545a37.492 37.492 0 0 1 34.996-10.917c8.352 1.767 15.898 6.388 21.304 12.996 16.946 20.711 26.351 46.827 26.351 73.588v11.194a85.333 85.333 0 0 1-13.172 45.547 71.164 71.164 0 0 1-36.556 29.142l-.528.186a41.358 41.358 0 0 1-22.166 1.475l-4.156-.866-.262 1.995a176.318 176.318 0 0 1-24.54 69.29l-2.914 4.749a176.383 176.383 0 0 1-29.097 35.857l-33.58 31.775a176.35 176.35 0 0 1-19.888 16.244l-38.235 26.838a70.225 70.225 0 0 1-75.749 3.155Z" style="fill: rgb(217, 217, 217);" class="fills"/><g class="strokes"><path d="m612.691 1019.295-78.038-45.596a165.435 165.435 0 0 1-78.375-108.509l-10.618-50.054A176.33 176.33 0 0 1 443.833 752l.783-5.146a176.353 176.353 0 0 0 1.517-39.735l-.629-8.384a153.208 153.208 0 0 1 22.78-92.532l7.319-11.736a176.34 176.34 0 0 1 40.866-45.489l9.63-7.545a176.31 176.31 0 0 1 63.148-31.53l10.227-2.738a176.305 176.305 0 0 1 74.199-3.663l21.438 3.524a139.348 139.348 0 0 1 113.123 105.937l14.566 62.629 8.083-8.545a37.492 37.492 0 0 1 34.996-10.917c8.352 1.767 15.898 6.388 21.304 12.996 16.946 20.711 26.351 46.827 26.351 73.588v11.194a85.333 85.333 0 0 1-13.172 45.547 71.164 71.164 0 0 1-36.556 29.142l-.528.186a41.358 41.358 0 0 1-22.166 1.475l-4.156-.866-.262 1.995a176.318 176.318 0 0 1-24.54 69.29l-2.914 4.749a176.383 176.383 0 0 1-29.097 35.857l-33.58 31.775a176.35 176.35 0 0 1-19.888 16.244l-38.235 26.838a70.225 70.225 0 0 1-75.749 3.155Z" style="fill: none; stroke-width: 6.435; stroke: rgb(0, 0, 0); stroke-opacity: 1;" class="stroke-shape"/></g><path d="m460.894 821.535 7.722-16.787" fill="none" style="fill: none;" class="fills"/><g fill="none" class="strokes"><path d="m460.894 821.535 7.722-16.787" style="fill: none; stroke-width: 1.066; stroke: rgb(0, 0, 0); stroke-opacity: 1;" class="stroke-shape"/></g><path d="m697.817 748.904 25.741-25.396" fill="none" style="fill: none;" class="fills"/><g fill="none" class="strokes"><path d="m697.817 748.904 25.741-25.396" style="fill: none; stroke-width: 1.066; stroke: rgb(0, 0, 0); stroke-opacity: 1;" class="stroke-shape"/></g><path d="m723.614 741.936 43.759-32.633" fill="none" style="fill: none;" class="fills"/><g fill="none" class="strokes"><path d="m723.614 741.936 43.759-32.633" style="fill: none; stroke-width: 1.066; stroke: rgb(0, 0, 0); stroke-opacity: 1;" class="stroke-shape"/></g><path d="m781.552 750.93 10.296-6.893" fill="none" style="fill: none;" class="fills"/><g fill="none" class="strokes"><path d="m781.552 750.93 10.296-6.893" style="fill: none; stroke-width: 1.066; stroke: rgb(0, 0, 0); stroke-opacity: 1;" class="stroke-shape"/></g><path d="m776.45 745.297 19.305-10.296" fill="none" style="fill: none;" class="fills"/><g fill="none" class="strokes"><path d="m776.45 745.297 19.305-10.296" style="fill: none; stroke-width: 1.066; stroke: rgb(0, 0, 0); stroke-opacity: 1;" class="stroke-shape"/></g><path d="m759.647 749.661 19.306-14.615" fill="none" style="fill: none;" class="fills"/><g fill="none" class="strokes"><path d="m759.647 749.661 19.306-14.615" style="fill: none; stroke-width: 1.066; stroke: rgb(0, 0, 0); stroke-opacity: 1;" class="stroke-shape"/></g><path d="m754.513 746.619 30.889-21.879" fill="none" style="fill: none;" class="fills"/><g fill="none" class="strokes"><path d="m754.513 746.619 30.889-21.879" style="fill: none; stroke-width: 1.066; stroke: rgb(0, 0, 0); stroke-opacity: 1;" class="stroke-shape"/></g><path d="m736.493 745.334 36.037-25.741" fill="none" style="fill: none;" class="fills"/><g fill="none" class="strokes"><path d="m736.493 745.334 36.037-25.741" style="fill: none; stroke-width: 1.066; stroke: rgb(0, 0, 0); stroke-opacity: 1;" class="stroke-shape"/></g><path d="m733.92 742.759 48.907-34.75" fill="none" style="fill: none;" class="fills"/><g fill="none" class="strokes"><path d="m733.92 742.759 48.907-34.75" style="fill: none; stroke-width: 1.066; stroke: rgb(0, 0, 0); stroke-opacity: 1;" class="stroke-shape"/></g><path d="m721.024 740.841 29.602-23.804" fill="none" style="fill: none;" class="fills"/><g fill="none" class="strokes"><path d="m721.024 740.841 29.602-23.804" style="fill: none; stroke-width: 1.066; stroke: rgb(0, 0, 0); stroke-opacity: 1;" class="stroke-shape"/></g><path d="m513.72 804.651 7.722-10.296" fill="none" style="fill: none;" class="fills"/><g fill="none" class="strokes"><path d="m513.72 804.651 7.722-10.296" style="fill: none; stroke-width: 1.066; stroke: rgb(0, 0, 0); stroke-opacity: 1;" class="stroke-shape"/></g><path d="m697.835 744.14 25.74-23.222" fill="none" style="fill: none;" class="fills"/><g fill="none" class="strokes"><path d="m697.835 744.14 25.74-23.222" style="fill: none; stroke-width: 1.066; stroke: rgb(0, 0, 0); stroke-opacity: 1;" class="stroke-shape"/></g><path d="m674.675 741.56 29.602-25.796" fill="none" style="fill: none;" class="fills"/><g fill="none" class="strokes"><path d="m674.675 741.56 29.602-25.796" style="fill: none; stroke-width: 1.066; stroke: rgb(0, 0, 0); stroke-opacity: 1;" class="stroke-shape"/></g><path d="m660.456 744.074 11.583-14.09" fill="none" style="fill: none;" class="fills"/><g fill="none" class="strokes"><path d="m660.456 744.074 11.583-14.09" style="fill: none; stroke-width: 1.066; stroke: rgb(0, 0, 0); stroke-opacity: 1;" class="stroke-shape"/></g><path d="m499.552 814.961 18.019-25.74" fill="none" style="fill: none;" class="fills"/><g fill="none" class="strokes"><path d="m499.552 814.961 18.019-25.74" style="fill: none; stroke-width: 1.066; stroke: rgb(0, 0, 0); stroke-opacity: 1;" class="stroke-shape"/></g><path d="m485.334 831.476 10.296-26.697" fill="none" style="fill: none;" class="fills"/><g fill="none" class="strokes"><path d="m485.334 831.476 10.296-26.697" style="fill: none; stroke-width: 1.066; stroke: rgb(0, 0, 0); stroke-opacity: 1;" class="stroke-shape"/></g><path d="m485.34 825.413 10.296-24.51" fill="none" style="fill: none;" class="fills"/><g fill="none" class="strokes"><path d="m485.34 825.413 10.296-24.51" style="fill: none; stroke-width: 1.066; stroke: rgb(0, 0, 0); stroke-opacity: 1;" class="stroke-shape"/></g><path d="m478.915 827.908 12.87-27.028" fill="none" style="fill: none;" class="fills"/><g fill="none" class="strokes"><path d="m478.915 827.908 12.87-27.028" style="fill: none; stroke-width: 1.066; stroke: rgb(0, 0, 0); stroke-opacity: 1;" class="stroke-shape"/></g><path d="m462.21 841.063 16.731-27.361" fill="none" style="fill: none;" class="fills"/><g fill="none" class="strokes"><path d="m462.21 841.063 16.731-27.361" style="fill: none; stroke-width: 1.066; stroke: rgb(0, 0, 0); stroke-opacity: 1;" class="stroke-shape"/></g><path d="m464.73 849.97 14.158-45.159" fill="none" style="fill: none;" class="fills"/><g fill="none" class="strokes"><path d="m464.73 849.97 14.158-45.159" style="fill: none; stroke-width: 1.066; stroke: rgb(0, 0, 0); stroke-opacity: 1;" class="stroke-shape"/></g><path d="m462.184 831.701 12.87-26.96" fill="none" style="fill: none;" class="fills"/><g fill="none" class="strokes"><path d="m462.184 831.701 12.87-26.96" style="fill: none; stroke-width: 1.066; stroke: rgb(0, 0, 0); stroke-opacity: 1;" class="stroke-shape"/></g><path d="m820.459 683.047 2.545-3.532a75.943 75.943 0 0 1 29.631-24.484l-30.785-55.906c-10.579-19.211-24.62-36.599-41.116-51.051-21.944-19.225-48.36-33.247-76.618-40.499a186.061 186.061 0 0 0-60.345-5.306l-10.763.817c-39.567 3.005-78.158 16.173-111.439 37.78-15.938 10.347-30.733 22.749-43.663 36.672l-5.718 6.157a160.74 160.74 0 0 0-36.317 63.658 217.416 217.416 0 0 0-8.392 45.863l-1.571 21.322a194.301 194.301 0 0 0 .361 32.826l2.933 30.579 7.078-32.819 2.574 10.939 14.801 50.838-1.93-101.675 4.504 16.452 15.445-31.897 7.722 19.8 12.227-41.362 12.226 27.705 16.088-37.675a158.923 158.923 0 0 0 17.76 42.322l1.196 1.986 10.517 14.048 3.347-42.912 11.583 22.231 16.621-63.604 16.842 35.899 23.166-89.122 11.584 28.958 19.949-5.781v-32.187l18.018 37.968 23.81-23.81 27.671 18.029 45.047 65.945-12.227-60.164 16.731 24.265 7.722-7.414c9.78 8 17.967 17.769 24.133 28.797l8.116 14.516 8.936 14.828Z" style="fill: rgb(0, 0, 0);" class="fills"/><path d="M535.163 893.959c-8.527-32.014-3.418-57.652 9.235-76.744 12.677-19.131 33.037-31.854 55.27-37.776 44.377-11.82 109.755 11.005 126.748 74.802 8.522 31.997 2.939 56.971-10.171 75.414-13.147 18.495-33.992 30.599-56.266 36.532-22.483 5.988-47.754 10.046-70.318 1.652-22.428-8.344-42.587-29.161-54.498-73.88Z" style="fill: rgb(255, 255, 255);" class="fills"/><g class="strokes"><path d="M535.163 893.959c-8.527-32.014-3.418-57.652 9.235-76.744 12.677-19.131 33.037-31.854 55.27-37.776 44.377-11.82 109.755 11.005 126.748 74.802 8.522 31.997 2.939 56.971-10.171 75.414-13.147 18.495-33.992 30.599-56.266 36.532-22.483 5.988-47.754 10.046-70.318 1.652-22.428-8.344-42.587-29.161-54.498-73.88Z" style="fill: none; stroke-width: 3.197; stroke: rgb(0, 0, 0); stroke-opacity: 1;" class="stroke-shape"/></g><path d="m537.447 897.741-2.764-10.267c39.443-45.743 98.597-69.567 158.744-63.917l19.858 1.865 4.55 9.513a105.01 105.01 0 0 1 10.21 41.557l.461 12.913c-49.768-39.961-123.396-27.716-157.489 26.448l-15.047 23.906a151.432 151.432 0 0 1-18.523-42.018Z" style="fill: rgb(135, 135, 135);" class="fills"/><g class="strokes"><path d="m537.447 897.741-2.764-10.267c39.443-45.743 98.597-69.567 158.744-63.917l19.858 1.865 4.55 9.513a105.01 105.01 0 0 1 10.21 41.557l.461 12.913c-49.768-39.961-123.396-27.716-157.489 26.448l-15.047 23.906a151.432 151.432 0 0 1-18.523-42.018Z" style="fill: none; stroke-width: 1.066; stroke: rgb(0, 0, 0); stroke-opacity: 1;" class="stroke-shape"/></g><path d="m542.461 779.874-12.227-12.871.644-6.435" fill="none" style="fill: none;" class="fills"/><g fill="none" class="strokes"><path d="m542.461 779.874-12.227-12.871.644-6.435" style="fill: none; stroke-width: 3.197; stroke: rgb(0, 0, 0); stroke-opacity: 1;" class="stroke-shape"/></g><path d="M533.924 888.965Za174.006 174.006 0 0 1 145.523-65.297l34.621 1.882" fill="none" style="fill: none;" class="fills"/><g fill="none" class="strokes"><path d="M533.924 888.965Za174.006 174.006 0 0 1 145.523-65.297l34.621 1.882" style="fill: none; stroke-width: 2.574; stroke: rgb(0, 0, 0); stroke-opacity: 1;" class="stroke-shape"/></g><defs><linearGradient x1="478.888" y1="722.418" x2="478.888" y2="769.706" id="c" gradientUnits="userSpaceOnUse" gradientTransform="translate(53.611 408)"><stop/><stop offset="1" stop-opacity="0"/></linearGradient></defs><ellipse cx="495.499" cy="744.418" rx="31.753" ry="47.288" transform="rotate(2.922 495.51 744.421)" fill="url(#c)" style="fill: url(&quot;#c&quot;);" class="fills"/><ellipse cx="494.84" cy="743.837" rx="21.88" ry="31.532" style="fill: rgb(0, 0, 0);" class="fills"/><ellipse cx="488.203" cy="733.147" rx="10.89" ry="17.208" transform="rotate(16.126 488.201 733.147)" style="fill: rgb(255, 255, 255);" class="fills"/><ellipse cx="480.683" cy="753.472" rx="7.281" ry="7.255" transform="rotate(16.126 480.681 753.472)" style="fill: rgb(255, 255, 255);" class="fills"/><path d="m536.794 729.001-2.312-7.234a36.983 36.983 0 0 0-9.414-15.224l-.214-.208a35.462 35.462 0 0 0-11.556-7.52l-.134-.054a34.612 34.612 0 0 0-11.066-2.438l-.192-.01a33.777 33.777 0 0 0-14.684 2.522 33.775 33.775 0 0 0-12.35 8.802l-2.806 3.167a38.982 38.982 0 0 0-5.966 8.982l-3.263 6.799a40.955 40.955 0 0 0-3.122 9.133 73.313 73.313 0 0 0-.749 26.672l3.031 19.414" fill="none" style="fill: none;" class="fills"/><g fill="none" class="strokes"><path d="m536.794 729.001-2.312-7.234a36.983 36.983 0 0 0-9.414-15.224l-.214-.208a35.462 35.462 0 0 0-11.556-7.52l-.134-.054a34.612 34.612 0 0 0-11.066-2.438l-.192-.01a33.777 33.777 0 0 0-14.684 2.522 33.775 33.775 0 0 0-12.35 8.802l-2.806 3.167a38.982 38.982 0 0 0-5.966 8.982l-3.263 6.799a40.955 40.955 0 0 0-3.122 9.133 73.313 73.313 0 0 0-.749 26.672l3.031 19.414" style="fill: none; stroke-width: 5.124; stroke: rgb(0, 0, 0); stroke-opacity: 1;" class="stroke-shape"/></g><path d="m537.818 706.471-2.927-2.039a54.353 54.353 0 0 0-43.916-8.216" fill="none" style="fill: none;" class="fills"/><g fill="none" class="strokes"><path d="m537.818 706.471-2.927-2.039a54.353 54.353 0 0 0-43.916-8.216" style="fill: none; stroke-width: 1.066; stroke: rgb(0, 0, 0); stroke-opacity: 1;" class="stroke-shape"/></g><path d="m532.162 695.239-54.057-13.823" fill="none" style="fill: none;" class="fills"/><g fill="none" class="strokes"><path d="m532.162 695.239-54.057-13.823" style="fill: none; stroke-width: 5.328; stroke: rgb(0, 0, 0); stroke-opacity: 1;" class="stroke-shape"/></g><path d="M462.021 731.373Za6.48 6.48 0 0 1-8.457.847l-1.196-.846" fill="none" style="fill: none;" class="fills"/><g fill="none" class="strokes"><path d="M462.021 731.373Za6.48 6.48 0 0 1-8.457.847l-1.196-.846" style="fill: none; stroke-width: 3.197; stroke: rgb(0, 0, 0); stroke-opacity: 1;" class="stroke-shape"/></g><path d="M459.357 760.09Za6.755 6.755 0 0 1-5.902 3.47h-2.374" fill="none" style="fill: none;" class="fills"/><g fill="none" class="strokes"><path d="M459.357 760.09Za6.755 6.755 0 0 1-5.902 3.47h-2.374" style="fill: none; stroke-width: 3.197; stroke: rgb(0, 0, 0); stroke-opacity: 1;" class="stroke-shape"/></g><path d="m476.176 708.293-.537.207a16.597 16.597 0 0 1-15.549-1.931" fill="none" style="fill: none;" class="fills"/><g fill="none" class="strokes"><path d="m476.176 708.293-.537.207a16.597 16.597 0 0 1-15.549-1.931" style="fill: none; stroke-width: 3.197; stroke: rgb(0, 0, 0); stroke-opacity: 1;" class="stroke-shape"/></g><defs><linearGradient x1="657.009" y1="646.087" x2="657.009" y2="700.109" id="d" gradientUnits="userSpaceOnUse" gradientTransform="translate(53.611 408)"><stop/><stop offset="1" stop-opacity="0"/></linearGradient></defs><ellipse cx="673.62" cy="668.087" rx="43.904" ry="54.023" transform="rotate(2.922 673.631 668.088)" fill="url(#d)" style="fill: url(&quot;#d&quot;);" class="fills"/><ellipse cx="673.738" cy="657.701" rx="32.176" ry="42.472" style="fill: rgb(0, 0, 0);" class="fills"/><ellipse cx="661.859" cy="654.224" rx="14.898" ry="21.547" transform="rotate(16.126 661.857 654.224)" style="fill: rgb(255, 255, 255);" class="fills"/><ellipse cx="650.571" cy="679.563" rx="7.281" ry="7.255" transform="rotate(16.126 650.57 679.563)" style="fill: rgb(255, 255, 255);" class="fills"/><path d="m621.613 683.973 1.418-18.344a46.087 46.087 0 0 1 2.884-12.865l1.014-2.662a46.134 46.134 0 0 1 4.468-8.775l1.659-2.545a46.125 46.125 0 0 1 13.391-13.406l5.778-3.778a27.74 27.74 0 0 1 6.068-2.983l2.555-.889a66.998 66.998 0 0 1 18.575-3.63l.592-.03a56.89 56.89 0 0 1 28.356 5.931l.591.296a51.834 51.834 0 0 1 14.033 10.279l5.794 5.975a55.648 55.648 0 0 1 12.69 20.69 112.285 112.285 0 0 1 5.145 22.042l1.118 8.668" fill="none" style="fill: none;" class="fills"/><g fill="none" class="strokes"><path d="m621.613 683.973 1.418-18.344a46.087 46.087 0 0 1 2.884-12.865l1.014-2.662a46.134 46.134 0 0 1 4.468-8.775l1.659-2.545a46.125 46.125 0 0 1 13.391-13.406l5.778-3.778a27.74 27.74 0 0 1 6.068-2.983l2.555-.889a66.998 66.998 0 0 1 18.575-3.63l.592-.03a56.89 56.89 0 0 1 28.356 5.931l.591.296a51.834 51.834 0 0 1 14.033 10.279l5.794 5.975a55.648 55.648 0 0 1 12.69 20.69 112.285 112.285 0 0 1 5.145 22.042l1.118 8.668" style="fill: none; stroke-width: 5.124; stroke: rgb(0, 0, 0); stroke-opacity: 1;" class="stroke-shape"/></g><path d="m613.247 671.799 1.726-4.627a95.897 95.897 0 0 1 27.125-39.031l5.256-4.546" fill="none" style="fill: none;" class="fills"/><g fill="none" class="strokes"><path d="m613.247 671.799 1.726-4.627a95.897 95.897 0 0 1 27.125-39.031l5.256-4.546" style="fill: none; stroke-width: 1.066; stroke: rgb(0, 0, 0); stroke-opacity: 1;" class="stroke-shape"/></g><path d="m674.382 585.627-74.005 72.074" fill="none" style="fill: none;" class="fills"/><g fill="none" class="strokes"><path d="m674.382 585.627-74.005 72.074" style="fill: none; stroke-width: 5.328; stroke: rgb(0, 0, 0); stroke-opacity: 1;" class="stroke-shape"/></g><path d="m626.005 653.423-.401.413a16.597 16.597 0 0 1-14.931 4.75" fill="none" style="fill: none;" class="fills"/><g fill="none" class="strokes"><path d="m626.005 653.423-.401.413a16.597 16.597 0 0 1-14.931 4.75" style="fill: none; stroke-width: 3.197; stroke: rgb(0, 0, 0); stroke-opacity: 1;" class="stroke-shape"/></g><path d="M693.687 606.22Za16.46 16.46 0 0 1-14.801 9.258" fill="none" style="fill: none;" class="fills"/><g fill="none" class="strokes"><path d="M693.687 606.22Za16.46 16.46 0 0 1-14.801 9.258" style="fill: none; stroke-width: 3.197; stroke: rgb(0, 0, 0); stroke-opacity: 1;" class="stroke-shape"/></g><path d="M734.154 626.812Zc-3.18 3.439-8.041 4.851-12.582 3.706" fill="none" style="fill: none;" class="fills"/><g fill="none" class="strokes"><path d="M734.154 626.812Zc-3.18 3.439-8.041 4.851-12.582 3.706" style="fill: none; stroke-width: 3.197; stroke: rgb(0, 0, 0); stroke-opacity: 1;" class="stroke-shape"/></g><path d="M754.579 671.652Zc-4.648-.566-8.639-3.682-10.368-8.034" fill="none" style="fill: none;" class="fills"/><g fill="none" class="strokes"><path d="M754.579 671.652Zc-4.648-.566-8.639-3.682-10.368-8.034" style="fill: none; stroke-width: 3.197; stroke: rgb(0, 0, 0); stroke-opacity: 1;" class="stroke-shape"/></g><path d="m875.426 1553.92 175.035-51.2v175.03l-25.74-61.41-87.517-25.74-46.977-19.95-14.801-16.73Z" style="fill: rgb(135, 135, 135);" class="fills"/><path d="m872.852 1400.76 9.653-12.87 17.375-3.22 10.94 3.22 4.504-12.23 8.366-11.58 11.583-9.01 13.514-3.22 12.87 9.01 5.148-9.01 18.662-12.87v-18.02l7.723-11.58 12.226-5.15 44.785 2.21v198.85l-19.31 17.38-29.979 3.57-28.315 13.52h-32.176l-29.601 17.37-10.94 2.58-1.83-.17a61.713 61.713 0 0 1-23.267-6.91l-5.792-22.52-3.218-32.18-2.574-34.75v-39.25l9.653-23.17Z" style="fill: rgb(217, 217, 217);" class="fills"/><path d="m1052.131 1680.97-28.05-64.63-88.808-25.74-39.283-17.51a42.194 42.194 0 0 1-24.197-30.26 508.84 508.84 0 0 1-9.881-99.78v-7.32c0-8.61 2.005-17.1 5.857-24.81l6.053-12.1a26.34 26.34 0 0 1 17.342-13.81 26.3 26.3 0 0 1 17.973 2.04l1.683.84" fill="none" style="fill: none;" class="fills"/><g fill="none" class="strokes"><path d="m1052.131 1680.97-28.05-64.63-88.808-25.74-39.283-17.51a42.194 42.194 0 0 1-24.197-30.26 508.84 508.84 0 0 1-9.881-99.78v-7.32c0-8.61 2.005-17.1 5.857-24.81l6.053-12.1a26.34 26.34 0 0 1 17.342-13.81 26.3 26.3 0 0 1 17.973 2.04l1.683.84" style="fill: none; stroke-width: 2.574; stroke: rgb(0, 0, 0); stroke-opacity: 1;" class="stroke-shape"/></g><path d="m925.663 1511.12-12.269-63.38-3.882-42.27a52.767 52.767 0 0 1 10.932-37.27l2.362-3.03a25.018 25.018 0 0 1 6.84-6.06l6.39-3.84c8.431-5.07 19.378-2.26 24.334 6.23" fill="none" style="fill: none;" class="fills"/><g fill="none" class="strokes"><path d="m925.663 1511.12-12.269-63.38-3.882-42.27a52.767 52.767 0 0 1 10.932-37.27l2.362-3.03a25.018 25.018 0 0 1 6.84-6.06l6.39-3.84c8.431-5.07 19.378-2.26 24.334 6.23" style="fill: none; stroke-width: 2.574; stroke: rgb(0, 0, 0); stroke-opacity: 1;" class="stroke-shape"/></g><path d="m1011.852 1353.68 3.495-9.38a27.84 27.84 0 0 1 9.744-12.84 27.916 27.916 0 0 1 16.44-5.35h7" fill="none" style="fill: none;" class="fills"/><g fill="none" class="strokes"><path d="m1011.852 1353.68 3.495-9.38a27.84 27.84 0 0 1 9.744-12.84 27.916 27.916 0 0 1 16.44-5.35h7" style="fill: none; stroke-width: 2.574; stroke: rgb(0, 0, 0); stroke-opacity: 1;" class="stroke-shape"/></g><path d="M984.824 1340.32v-13.19c0-10.43 7.102-19.53 17.225-22.06 2.232-.55 4.536-.77 6.832-.64l40.94 2.38" fill="none" style="fill: none;" class="fills"/><g fill="none" class="strokes"><path d="M984.824 1340.32v-13.19c0-10.43 7.102-19.53 17.225-22.06 2.232-.55 4.536-.77 6.832-.64l40.94 2.38" style="fill: none; stroke-width: 2.574; stroke: rgb(0, 0, 0); stroke-opacity: 1;" class="stroke-shape"/></g><path d="m987.747 1482.7-5.85-19.98a632.463 632.463 0 0 1-20.16-95.88l-.133-1.02a16.347 16.347 0 0 1 6.401-15.19l8.127-6.1a28.772 28.772 0 0 1 10.714-4.98l3.137-.72c4.831-1.11 9.903.2 13.58 3.53a37.11 37.11 0 0 1 10.624 16.79l29.844 98.88" fill="none" style="fill: none;" class="fills"/><g fill="none" class="strokes"><path d="m987.747 1482.7-5.85-19.98a632.463 632.463 0 0 1-20.16-95.88l-.133-1.02a16.347 16.347 0 0 1 6.401-15.19l8.127-6.1a28.772 28.772 0 0 1 10.714-4.98l3.137-.72c4.831-1.11 9.903.2 13.58 3.53a37.11 37.11 0 0 1 10.624 16.79l29.844 98.88" style="fill: none; stroke-width: 2.574; stroke: rgb(0, 0, 0); stroke-opacity: 1;" class="stroke-shape"/></g><path d="M897.308 1560.35Zc5.885 0 11.65-1.67 16.625-4.81l17.8-11.24a36.042 36.042 0 0 1 24.444-5.19l4.926.71a35.994 35.994 0 0 0 23.836-4.81l11.301-6.83a27.124 27.124 0 0 1 18.374-3.56 27.13 27.13 0 0 0 23.817-7.89l10.74-11.08" fill="none" style="fill: none;" class="fills"/><g fill="none" class="strokes"><path d="M897.308 1560.35Zc5.885 0 11.65-1.67 16.625-4.81l17.8-11.24a36.042 36.042 0 0 1 24.444-5.19l4.926.71a35.994 35.994 0 0 0 23.836-4.81l11.301-6.83a27.124 27.124 0 0 1 18.374-3.56 27.13 27.13 0 0 0 23.817-7.89l10.74-11.08" style="fill: none; stroke-width: 2.574; stroke: rgb(0, 0, 0); stroke-opacity: 1;" class="stroke-shape"/></g><path d="M300.952 1453.56a27.664 27.664 0 0 1 7.231-2.51l34.726-6.84 19.071-3.76a27.507 27.507 0 0 1 28.299 11.87l44.572 67.81a27.516 27.516 0 0 1 4.32 11.8l12.648 104.26c.5 4.12.059 8.31-1.29 12.24l-11.659 33.96a21.865 21.865 0 0 1-3.628 6.59c-7.058 8.81-19.649 10.81-29.088 4.62l-103.497-67.78a27.443 27.443 0 0 1-11.162-14.74l-34.436-109.29c-4.029-12.78 1.75-26.61 13.68-32.73l30.213-15.5Z" style="fill: rgb(255, 255, 255);" class="fills"/><g class="strokes"><path d="M300.952 1453.56a27.664 27.664 0 0 1 7.231-2.51l34.726-6.84 19.071-3.76a27.507 27.507 0 0 1 28.299 11.87l44.572 67.81a27.516 27.516 0 0 1 4.32 11.8l12.648 104.26c.5 4.12.059 8.31-1.29 12.24l-11.659 33.96a21.865 21.865 0 0 1-3.628 6.59c-7.058 8.81-19.649 10.81-29.088 4.62l-103.497-67.78a27.443 27.443 0 0 1-11.162-14.74l-34.436-109.29c-4.029-12.78 1.75-26.61 13.68-32.73l30.213-15.5Z" style="fill: none; stroke-width: 5; stroke: rgb(0, 0, 0); stroke-opacity: 1;" class="stroke-shape"/></g><path d="M128.72 1538.22a25.498 25.498 0 0 1 17.986-19.99l176.631-51.3a25.477 25.477 0 0 1 15.684.47l9.41 3.36a25.462 25.462 0 0 1 11.924 8.84l65.883 88.99a25.483 25.483 0 0 1 4.851 12.37l3.536 31.97c.302 2.73.161 5.49-.419 8.18l-16.205 75.1c-.892 4.13-2.8 7.98-5.551 11.2l-34.817 40.69a25.534 25.534 0 0 1-15.671 8.65l-110.526 16.23c-6.17.91-12.459-.48-17.676-3.89l-63.972-41.9a25.858 25.858 0 0 1-4.315-3.56l-25.536-26.27a25.533 25.533 0 0 1-3.667-4.8l-22.214-37.58a25.501 25.501 0 0 1-3.147-17.48l17.811-99.28Z" style="fill: rgb(255, 255, 255);" class="fills"/><g class="strokes"><path d="M128.72 1538.22a25.498 25.498 0 0 1 17.986-19.99l176.631-51.3a25.477 25.477 0 0 1 15.684.47l9.41 3.36a25.462 25.462 0 0 1 11.924 8.84l65.883 88.99a25.483 25.483 0 0 1 4.851 12.37l3.536 31.97c.302 2.73.161 5.49-.419 8.18l-16.205 75.1c-.892 4.13-2.8 7.98-5.551 11.2l-34.817 40.69a25.534 25.534 0 0 1-15.671 8.65l-110.526 16.23c-6.17.91-12.459-.48-17.676-3.89l-63.972-41.9a25.858 25.858 0 0 1-4.315-3.56l-25.536-26.27a25.533 25.533 0 0 1-3.667-4.8l-22.214-37.58a25.501 25.501 0 0 1-3.147-17.48l17.811-99.28Z" style="fill: none; stroke-width: 5; stroke: rgb(0, 0, 0); stroke-opacity: 1;" class="stroke-shape"/></g><path d="M119.738 1507.23a25.5 25.5 0 0 1 17.698-20.09l148.848-45.39a25.51 25.51 0 0 1 26.859 7.87l19.86 23.34a64.434 64.434 0 0 1 9.126 14.1l21.355 44.91a64.658 64.658 0 0 1 4.233 11.7l4.378 17.1a64.42 64.42 0 0 1 2.016 16v55.38c0 4.25-.42 8.49-1.255 12.66l-5.392 26.94a64.511 64.511 0 0 1-4.03 12.9l-4.051 9.39a34.497 34.497 0 0 1-30.58 20.8l-102.149 3.24c-7.92.25-15.659-2.4-21.761-7.45l-68.879-57.05a64.696 64.696 0 0 1-11.589-12.53l-15.639-22.2a27.52 27.52 0 0 1-4.625-20.47l15.577-91.15Z" style="fill: rgb(255, 255, 255);" class="fills"/><g class="strokes"><path d="M119.738 1507.23a25.5 25.5 0 0 1 17.698-20.09l148.848-45.39a25.51 25.51 0 0 1 26.859 7.87l19.86 23.34a64.434 64.434 0 0 1 9.126 14.1l21.355 44.91a64.658 64.658 0 0 1 4.233 11.7l4.378 17.1a64.42 64.42 0 0 1 2.016 16v55.38c0 4.25-.42 8.49-1.255 12.66l-5.392 26.94a64.511 64.511 0 0 1-4.03 12.9l-4.051 9.39a34.497 34.497 0 0 1-30.58 20.8l-102.149 3.24c-7.92.25-15.659-2.4-21.761-7.45l-68.879-57.05a64.696 64.696 0 0 1-11.589-12.53l-15.639-22.2a27.52 27.52 0 0 1-4.625-20.47l15.577-91.15Z" style="fill: none; stroke-width: 5; stroke: rgb(0, 0, 0); stroke-opacity: 1;" class="stroke-shape"/></g><path d="m65.296 1062.49 45.046-53.408 21.236-25.098 16.732-14.8h14.801l14.157 6.435 15.444 18.018 12.871-1.93 10.939 7.078 21.88-8.365h9.009l8.366 3.217 4.504 12.227-1.287 12.227-5.791 11.579 10.296 16.09v13.52l12.227 3.21 9.653 12.23 9.009 19.95-5.792 26.38-21.879 34.75-16.732 10.94-16.731 49.55 53.412 222.66 16.088 42.47 34.106 93.31 1.93 18.02v34.75l-5.791 32.18-8.366 19.95-10.94 14.8-14.157 9.65-14.801 5.79-17.375 1.29-16.088-1.29-16.731-3.22-16.088-6.43-14.157-8.37-12.871-10.94-9.652-12.87-8.366-18.02-15.445-83.01-27.027-304.38-12.227-37.97L55 1101.75v-18.66l10.296-20.6Z" style="fill: rgb(217, 217, 217);" class="fills"/><path d="m259.638 1135.21-23.238 72.04a30.882 30.882 0 0 0-.851 15.74l9.932 48 41.185 167.96 42.761 111.18a147.99 147.99 0 0 1 9.451 64.2l-2.098 27.96a78.089 78.089 0 0 1-8.697 30.4l-2.984 5.69a61.15 61.15 0 0 1-32.444 28.79 61.07 61.07 0 0 1-21.72 3.99h-7.648a97.721 97.721 0 0 1-50.729-14.21l-3.988-2.42a80.527 80.527 0 0 1-23.458-21.69 80.403 80.403 0 0 1-13.758-31.95l-12.748-66.8-26.856-300.3a124.856 124.856 0 0 0-7.078-31.7l-6.6-18.07-57.509-109.9a46.974 46.974 0 0 1-4.598-30.19 47.032 47.032 0 0 1 10.445-22.05l71.362-83.861a23.17 23.17 0 0 1 21.699-7.796l3.14.559a34.754 34.754 0 0 1 20.888 12.3l8.576 10.556" fill="none" style="fill: none;" class="fills"/><g fill="none" class="strokes"><path d="m259.638 1135.21-23.238 72.04a30.882 30.882 0 0 0-.851 15.74l9.932 48 41.185 167.96 42.761 111.18a147.99 147.99 0 0 1 9.451 64.2l-2.098 27.96a78.089 78.089 0 0 1-8.697 30.4l-2.984 5.69a61.15 61.15 0 0 1-32.444 28.79 61.07 61.07 0 0 1-21.72 3.99h-7.648a97.721 97.721 0 0 1-50.729-14.21l-3.988-2.42a80.527 80.527 0 0 1-23.458-21.69 80.403 80.403 0 0 1-13.758-31.95l-12.748-66.8-26.856-300.3a124.856 124.856 0 0 0-7.078-31.7l-6.6-18.07-57.509-109.9a46.974 46.974 0 0 1-4.598-30.19 47.032 47.032 0 0 1 10.445-22.05l71.362-83.861a23.17 23.17 0 0 1 21.699-7.796l3.14.559a34.754 34.754 0 0 1 20.888 12.3l8.576 10.556" style="fill: none; stroke-width: 2.574; stroke: rgb(0, 0, 0); stroke-opacity: 1;" class="stroke-shape"/></g><path d="m96.352 1072.24 26.263-27.2a212.4 212.4 0 0 1 38.343-31.379l29.397-18.801a20.016 20.016 0 0 1 27.011 5.143l6.595 9.132a21.892 21.892 0 0 1 4.145 12.817" fill="none" style="fill: none;" class="fills"/><g fill="none" class="strokes"><path d="m96.352 1072.24 26.263-27.2a212.4 212.4 0 0 1 38.343-31.379l29.397-18.801a20.016 20.016 0 0 1 27.011 5.143l6.595 9.132a21.892 21.892 0 0 1 4.145 12.817" style="fill: none; stroke-width: 2.574; stroke: rgb(0, 0, 0); stroke-opacity: 1;" class="stroke-shape"/></g><path d="m192.712 1113.33 34.75-30.24 23.744-17.81a22.658 22.658 0 0 1 21.169-3.23 22.663 22.663 0 0 1 12.599 11.05l6.347 12.43a29.6 29.6 0 0 1 2.4 20.46l-.492 2.02a73.458 73.458 0 0 1-8.659 20.88l-7.808 12.79a73.388 73.388 0 0 1-24.88 24.7l-3.827 2.29" fill="none" style="fill: none;" class="fills"/><g fill="none" class="strokes"><path d="m192.712 1113.33 34.75-30.24 23.744-17.81a22.658 22.658 0 0 1 21.169-3.23 22.663 22.663 0 0 1 12.599 11.05l6.347 12.43a29.6 29.6 0 0 1 2.4 20.46l-.492 2.02a73.458 73.458 0 0 1-8.659 20.88l-7.808 12.79a73.388 73.388 0 0 1-24.88 24.7l-3.827 2.29" style="fill: none; stroke-width: 2.574; stroke: rgb(0, 0, 0); stroke-opacity: 1;" class="stroke-shape"/></g><path d="m150.851 1085.58 26.621-26.55a212.715 212.715 0 0 1 30.228-25.02l13.621-9.3a22.81 22.81 0 0 1 22.363-1.89 22.93 22.93 0 0 1 6.626 4.6l3.662 3.67a33.33 33.33 0 0 1 9.527 27.54" fill="none" style="fill: none;" class="fills"/><g fill="none" class="strokes"><path d="m150.851 1085.58 26.621-26.55a212.715 212.715 0 0 1 30.228-25.02l13.621-9.3a22.81 22.81 0 0 1 22.363-1.89 22.93 22.93 0 0 1 6.626 4.6l3.662 3.67a33.33 33.33 0 0 1 9.527 27.54" style="fill: none; stroke-width: 2.574; stroke: rgb(0, 0, 0); stroke-opacity: 1;" class="stroke-shape"/></g><path d="m215.88 998.142 4.046-1.686a75.28 75.28 0 0 1 23.715-5.609c8.424-.588 15.684 5.867 16.085 14.302l.043.897a42.91 42.91 0 0 1-4.118 20.484l-1.805 3.79" fill="none" style="fill: none;" class="fills"/><g fill="none" class="strokes"><path d="m215.88 998.142 4.046-1.686a75.28 75.28 0 0 1 23.715-5.609c8.424-.588 15.684 5.867 16.085 14.302l.043.897a42.91 42.91 0 0 1-4.118 20.484l-1.805 3.79" style="fill: none; stroke-width: 2.574; stroke: rgb(0, 0, 0); stroke-opacity: 1;" class="stroke-shape"/></g><path d="m102.142 1127.03-3.031-11.59c-3.267-12.5 4.851-25.12 17.577-27.32" fill="none" style="fill: none;" class="fills"/><g fill="none" class="strokes"><path d="m102.142 1127.03-3.031-11.59c-3.267-12.5 4.851-25.12 17.577-27.32" style="fill: none; stroke-width: 2.574; stroke: rgb(0, 0, 0); stroke-opacity: 1;" class="stroke-shape"/></g><path d="m258.994 1136.5 18.511-26.21" fill="none" style="fill: none;" class="fills"/><g fill="none" class="strokes"><path d="m258.994 1136.5 18.511-26.21" style="fill: none; stroke-width: 2.574; stroke: rgb(0, 0, 0); stroke-opacity: 1;" class="stroke-shape"/></g><path d="m160.537 1014.23 4.307-3.295a10.695 10.695 0 0 0 4.058-10.219" fill="none" style="fill: none;" class="fills"/><g fill="none" class="strokes"><path d="m160.537 1014.23 4.307-3.295a10.695 10.695 0 0 0 4.058-10.219" style="fill: none; stroke-width: 2.574; stroke: rgb(0, 0, 0); stroke-opacity: 1;" class="stroke-shape"/></g><path d="m139.485 1154.55-1.178-14.39c-.883-10.79 5.556-20.83 15.724-24.52" fill="none" style="fill: none;" class="fills"/><g fill="none" class="strokes"><path d="m139.485 1154.55-1.178-14.39c-.883-10.79 5.556-20.83 15.724-24.52" style="fill: none; stroke-width: 2.574; stroke: rgb(0, 0, 0); stroke-opacity: 1;" class="stroke-shape"/></g><path d="m165.111 1632 36.5 34.5 57 12 31.5-8.5 27.5-20 28-49 6 86-58.5 26.5h-59.5l-54-26.5-14.5-55Z" style="fill: rgb(255, 255, 255);" class="fills"/><path d="m154.606 1610.33 16.703 24.64a92.987 92.987 0 0 0 60.678 39.38l4.271.76a89.22 89.22 0 0 0 59.512-10.13l2.102-1.19a82.594 82.594 0 0 0 36.654-42.68 82.563 82.563 0 0 0 5.06-22.27l3.234-38.14" fill="none" style="fill: none;" class="fills"/><g fill="none" class="strokes"><path d="m154.606 1610.33 16.703 24.64a92.987 92.987 0 0 0 60.678 39.38l4.271.76a89.22 89.22 0 0 0 59.512-10.13l2.102-1.19a82.594 82.594 0 0 0 36.654-42.68 82.563 82.563 0 0 0 5.06-22.27l3.234-38.14" style="fill: none; stroke-width: 3; stroke: rgb(0, 0, 0); stroke-opacity: 1;" class="stroke-shape"/></g><path d="m563.906 1373.46-5.348 27.83a431.914 431.914 0 0 0-7.324 62.12l-3.328 74.05L523.111 1695" fill="none" style="fill: none;" class="fills"/><g fill="none" class="strokes"><path d="m563.906 1373.46-5.348 27.83a431.914 431.914 0 0 0-7.324 62.12l-3.328 74.05L523.111 1695" style="fill: none; stroke-width: 3; stroke: rgb(0, 0, 0); stroke-opacity: 1;" class="stroke-shape"/></g><path d="M528.141 1427Za276.91 276.91 0 0 1 22.794 120.16l-2.794 79.34" fill="none" style="fill: none;" class="fills"/><g fill="none" class="strokes"><path d="M528.141 1427Za276.91 276.91 0 0 1 22.794 120.16l-2.794 79.34" style="fill: none; stroke-width: 3; stroke: rgb(0, 0, 0); stroke-opacity: 1;" class="stroke-shape"/></g><rect rx="0" ry="0" x="80.914" y="1044.725" transform="rotate(40.643 96.111 1050.334)" width="30.394" height="11.217" style="fill: rgb(255, 255, 255);" class="fills"/><g class="strokes"><rect rx="0" ry="0" x="80.914" y="1044.725" transform="rotate(40.643 96.111 1050.334)" width="30.394" height="11.217" style="fill: none; stroke-width: 2; stroke: rgb(0, 0, 0); stroke-opacity: 1;" class="stroke-shape"/></g><rect rx="0" ry="0" x="981.571" y="1450.725" transform="rotate(-16.683 1012.128 1457.695)" width="61.11" height="13.939" style="fill: rgb(255, 255, 255);" class="fills"/><g class="strokes"><rect rx="0" ry="0" x="981.571" y="1450.725" transform="rotate(-16.683 1012.128 1457.695)" width="61.11" height="13.939" style="fill: none; stroke-width: 2; stroke: rgb(0, 0, 0); stroke-opacity: 1;" class="stroke-shape"/></g><rect rx="0" ry="0" x="976.596" y="1432.379" transform="rotate(-16.177 1006.802 1439.35)" width="60.406" height="13.939" style="fill: rgb(255, 255, 255);" class="fills"/><g class="strokes"><rect rx="0" ry="0" x="976.596" y="1432.379" transform="rotate(-16.177 1006.802 1439.35)" width="60.406" height="13.939" style="fill: none; stroke-width: 2; stroke: rgb(0, 0, 0); stroke-opacity: 1;" class="stroke-shape"/></g><rect rx="0" ry="0" x="971.945" y="1413.033" transform="rotate(-15.77 1001.62 1420.003)" width="59.352" height="13.939" style="fill: rgb(255, 255, 255);" class="fills"/><g class="strokes"><rect rx="0" ry="0" x="971.945" y="1413.033" transform="rotate(-15.77 1001.62 1420.003)" width="59.352" height="13.939" style="fill: none; stroke-width: 2; stroke: rgb(0, 0, 0); stroke-opacity: 1;" class="stroke-shape"/></g><rect rx="0" ry="0" x="156.624" y="1084.383" transform="rotate(45.496 181.373 1089.992)" width="49.496" height="11.217" style="fill: rgb(255, 255, 255);" class="fills"/><g class="strokes"><rect rx="0" ry="0" x="156.624" y="1084.383" transform="rotate(45.496 181.373 1089.992)" width="49.496" height="11.217" style="fill: none; stroke-width: 2; stroke: rgb(0, 0, 0); stroke-opacity: 1;" class="stroke-shape"/></g><path d="m886.176 712.331-2.378-12.002a14.205 14.205 0 0 0-26.007-4.721l-1.895 3.058a71.865 71.865 0 0 0-9.803 49.631l1.815 10.917 9.212-2.549a9.358 9.358 0 0 1 11.442 6.273l.953 3.104a31.535 31.535 0 0 1-4.44 27.526l-.174.244a13.296 13.296 0 0 1-24.059-6.317l-.87-8.315" fill="none" style="fill: none;" class="fills"/><g fill="none" class="strokes"><path d="m886.176 712.331-2.378-12.002a14.205 14.205 0 0 0-26.007-4.721l-1.895 3.058a71.865 71.865 0 0 0-9.803 49.631l1.815 10.917 9.212-2.549a9.358 9.358 0 0 1 11.442 6.273l.953 3.104a31.535 31.535 0 0 1-4.44 27.526l-.174.244a13.296 13.296 0 0 1-24.059-6.317l-.87-8.315" style="fill: none; stroke-width: 3; stroke: rgb(0, 0, 0); stroke-opacity: 1;" class="stroke-shape"/></g><path d="M848.319 819h8.551l-1.492 6.865a49.983 49.983 0 0 0-1.014 7.057 4.5 4.5 0 0 0 4.188 4.81l.297.019a4.792 4.792 0 0 0 5.093-4.349l.165-1.811.004-.046v-5.441l7.946-4.182.48 1.343a32.03 32.03 0 0 1 1.819 9.15 14.942 14.942 0 0 1-2.367 8.842 11.475 11.475 0 0 1-6.975 4.929l-.906.215a19.89 19.89 0 0 1-9.015.047 12.206 12.206 0 0 1-8.326-6.678l-.165-.347-.903.428.903-.428a13.768 13.768 0 0 1-1.307-6.577l.061-1.223c.163-3.268.8-6.495 1.889-9.58l1.074-3.043Z" style="fill: rgb(255, 255, 255);" class="fills"/><g class="strokes"><path d="M848.319 819h8.551l-1.492 6.865a49.983 49.983 0 0 0-1.014 7.057 4.5 4.5 0 0 0 4.188 4.81l.297.019a4.792 4.792 0 0 0 5.093-4.349l.165-1.811.004-.046v-5.441l7.946-4.182.48 1.343a32.03 32.03 0 0 1 1.819 9.15 14.942 14.942 0 0 1-2.367 8.842 11.475 11.475 0 0 1-6.975 4.929l-.906.215a19.89 19.89 0 0 1-9.015.047 12.206 12.206 0 0 1-8.326-6.678l-.165-.347-.903.428.903-.428a13.768 13.768 0 0 1-1.307-6.577l.061-1.223c.163-3.268.8-6.495 1.889-9.58l1.074-3.043Z" style="fill: none; stroke-width: 2; stroke: rgb(0, 0, 0); stroke-opacity: 1;" class="stroke-shape"/></g><circle cx="881.611" cy="792" style="fill: rgb(255, 255, 255);" r="5" class="fills"/><g class="strokes"><circle cx="881.611" cy="792" style="fill: none; stroke-width: 2; stroke: rgb(0, 0, 0); stroke-opacity: 1;" r="5" class="stroke-shape"/></g></g></g></g></svg>