<svg width="43" height="43" viewBox="0 0 43 43" fill="none" xmlns="http://www.w3.org/2000/svg">
<g clip-path="url(#clip0_99_417)">
<path d="M38.8727 0.599609H4.15442C2.25735 0.599609 0.599854 1.96461 0.599854 3.83939V38.6348C0.599854 40.5198 2.25735 42.1995 4.15442 42.1995H38.8625C40.7698 42.1995 42.1998 40.5086 42.1998 38.6348V3.83939C42.2109 1.96461 40.7698 0.599609 38.8727 0.599609ZM13.4949 35.2752H7.53534V16.7456H13.4949V35.2752ZM10.7213 13.9283H10.6786C8.77127 13.9283 7.53627 12.5085 7.53627 10.7312C7.53627 8.92145 8.80377 7.5351 10.7538 7.5351C12.7038 7.5351 13.897 8.91124 13.9397 10.7312C13.9388 12.5085 12.7038 13.9283 10.7213 13.9283ZM35.2754 35.2752H29.3159V25.1436C29.3159 22.7163 28.4486 21.0579 26.2925 21.0579C24.6452 21.0579 23.6702 22.1721 23.2365 23.2576C23.074 23.6476 23.0304 24.1788 23.0304 24.7211V35.2752H17.0708V16.7456H23.0304V19.3242C23.8977 18.0892 25.2525 16.3119 28.405 16.3119C32.317 16.3119 35.2764 18.8906 35.2764 24.4499L35.2754 35.2752Z" fill="#FFFDF1"/>
</g>
<defs>
<clipPath id="clip0_99_417">
<rect width="41.6" height="41.6" fill="white" transform="translate(0.599854 0.599609)"/>
</clipPath>
</defs>
</svg>
