<svg width="71" height="70" viewBox="0 0 71 70" fill="none" xmlns="http://www.w3.org/2000/svg">
<path d="M50.6548 16.7905H20.2605C18.5997 16.7905 17.1486 17.9855 17.1486 19.6268V50.0886C17.1486 51.7389 18.5997 53.2094 20.2605 53.2094H50.6459C52.3156 53.2094 53.5675 51.7291 53.5675 50.0886V19.6268C53.5773 17.9855 52.3156 16.7905 50.6548 16.7905ZM28.4377 47.1475H23.2203V30.9256H28.4377V47.1475ZM26.0095 28.4592H25.9721C24.3023 28.4592 23.2211 27.2163 23.2211 25.6603C23.2211 24.0759 24.3308 22.8622 26.0379 22.8622C27.7451 22.8622 28.7897 24.067 28.8271 25.6603C28.8262 27.2163 27.7451 28.4592 26.0095 28.4592ZM47.5056 47.1475H42.2882V38.2777C42.2882 36.1527 41.529 34.7008 39.6414 34.7008C38.1992 34.7008 37.3457 35.6763 36.966 36.6266C36.8238 36.9681 36.7856 37.4331 36.7856 37.9078V47.1475H31.5682V30.9256H36.7856V33.1831C37.5448 32.1019 38.7309 30.546 41.4908 30.546C44.9156 30.546 47.5064 32.8035 47.5064 37.6704L47.5056 47.1475Z" fill="black"/>
<circle cx="35.3581" cy="35" r="33.5753" stroke="black" stroke-width="2.84934"/>
</svg>
