<svg width="70" height="70" viewBox="0 0 70 70" fill="none" xmlns="http://www.w3.org/2000/svg">
<path d="M54.924 29.2629C54.924 20.2208 48.9967 17.5706 48.9967 17.5706C46.0061 16.1995 40.8741 15.622 35.5425 15.5786H35.4114C30.0797 15.622 24.9512 16.1995 21.9624 17.5706C21.9624 17.5706 16.0342 20.2208 16.0342 29.2629C16.0342 31.3339 15.9942 33.8087 16.0593 36.4346C16.2747 45.2761 17.6814 53.9918 25.8621 56.1557C29.6334 57.1534 32.8723 57.3618 35.48 57.2185C40.2099 56.958 42.8609 55.5322 42.8609 55.5322L42.7055 52.1022C42.7055 52.1022 39.325 53.1677 35.5295 53.0374C31.7686 52.9089 27.8012 52.6319 27.1933 48.0175C27.1347 47.5888 27.1057 47.1564 27.1065 46.7237C29.8588 47.3381 32.6594 47.7114 35.4765 47.8395C38.3377 47.9706 41.02 47.6719 43.7449 47.3472C48.9706 46.7237 53.5208 43.5056 54.0922 40.5662C54.997 35.9345 54.924 29.2629 54.924 29.2629ZM47.9303 40.9127H43.5886V30.2867C43.5886 28.0464 42.6456 26.9097 40.7595 26.9097C38.6755 26.9097 37.6283 28.2582 37.6283 30.9249V36.7429H33.316V30.9249C33.316 28.2582 32.274 26.9097 30.1848 26.9097C28.2987 26.9097 27.3557 28.0464 27.3557 30.2867V40.9127H23.0139V29.9646C23.0139 27.7271 23.5856 25.9502 24.7289 24.6338C25.9099 23.3182 27.4555 22.6435 29.3755 22.6435C31.5967 22.6435 33.2787 23.4962 34.3902 25.2034L35.473 27.0139L36.5541 25.2034C37.6665 23.4962 39.3476 22.6435 41.5688 22.6435C43.4887 22.6435 45.0344 23.3182 46.2154 24.6338C47.361 25.949 47.9327 27.7259 47.9303 29.9646V40.9127Z" fill="black"/>
<circle cx="35" cy="35" r="33.5" stroke="black" stroke-width="3"/>
</svg>
