<svg width="825" height="151" viewBox="0 0 825 151" fill="none" xmlns="http://www.w3.org/2000/svg">
<g clip-path="url(#clip0_64_563)">
<path d="M16.4136 73.95L11.6136 53.55L64.7136 -7.15256e-06H92.0136L16.4136 73.95ZM-0.536401 105V-7.15256e-06H21.9636V105H-0.536401ZM67.5636 105L28.2636 52.8L43.7136 39.45L94.2636 105H67.5636ZM97.6093 105L138.709 -7.15256e-06H158.809L199.759 105H176.659L155.509 48.45C154.909 46.85 154.159 44.8 153.259 42.3C152.459 39.8 151.609 37.15 150.709 34.35C149.809 31.55 148.959 28.9 148.159 26.4C147.359 23.8 146.759 21.65 146.359 19.95L150.409 19.8C149.809 22.1 149.109 24.5 148.309 27C147.609 29.4 146.859 31.9 146.059 34.5C145.259 37 144.409 39.45 143.509 41.85C142.609 44.25 141.759 46.6 140.959 48.9L119.809 105H97.6093ZM116.659 82.95L124.009 64.8H172.159L179.659 82.95H116.659ZM214.503 105V-7.15256e-06H261.003C267.503 -7.15256e-06 273.403 1.49999 278.703 4.5C284.003 7.4 288.153 11.35 291.153 16.35C294.253 21.35 295.803 27.05 295.803 33.45C295.803 39.75 294.253 45.5 291.153 50.7C288.153 55.8 284.003 59.85 278.703 62.85C273.403 65.85 267.503 67.35 261.003 67.35H236.253V105H214.503ZM274.053 105L247.353 57.6L270.453 53.85L300.153 105.15L274.053 105ZM236.253 49.05H259.953C262.653 49.05 265.003 48.45 267.003 47.25C269.103 45.95 270.703 44.2 271.803 42C272.903 39.7 273.453 37.15 273.453 34.35C273.453 31.35 272.803 28.75 271.503 26.55C270.203 24.35 268.303 22.65 265.803 21.45C263.303 20.15 260.403 19.5 257.103 19.5H236.253V49.05ZM319.532 105V-7.15256e-06H339.632L397.682 78.45H393.482C393.082 75.35 392.732 72.35 392.432 69.45C392.132 66.45 391.832 63.45 391.532 60.45C391.332 57.35 391.132 54.2 390.932 51C390.832 47.7 390.732 44.25 390.632 40.65C390.532 36.95 390.482 32.95 390.482 28.65V-7.15256e-06H412.532V105H392.132L332.882 25.8L338.582 25.95C339.082 31.15 339.482 35.6 339.782 39.3C340.182 42.9 340.482 46.05 340.682 48.75C340.882 51.45 341.032 53.8 341.132 55.8C341.332 57.8 341.432 59.7 341.432 61.5C341.532 63.3 341.582 65.2 341.582 67.2V105H319.532ZM437.096 105V85.65H454.646V19.35H437.096V-7.15256e-06H494.696V19.35H477.146V85.65H494.696V105H437.096ZM536.287 73.95L531.487 53.55L584.587 -7.15256e-06H611.887L536.287 73.95ZM519.337 105V-7.15256e-06H541.837V105H519.337ZM587.437 105L548.137 52.8L563.587 39.45L614.137 105H587.437ZM617.482 105L658.582 -7.15256e-06H678.682L719.632 105H696.532L675.382 48.45C674.782 46.85 674.032 44.8 673.132 42.3C672.332 39.8 671.482 37.15 670.582 34.35C669.682 31.55 668.832 28.9 668.032 26.4C667.232 23.8 666.632 21.65 666.232 19.95L670.282 19.8C669.682 22.1 668.982 24.5 668.182 27C667.482 29.4 666.732 31.9 665.932 34.5C665.132 37 664.282 39.45 663.382 41.85C662.482 44.25 661.632 46.6 660.832 48.9L639.682 105H617.482ZM636.532 82.95L643.882 64.8H692.032L699.532 82.95H636.532ZM721.926 105L763.026 -7.15256e-06H783.126L824.076 105H800.976L779.826 48.45C779.226 46.85 778.476 44.8 777.576 42.3C776.776 39.8 775.926 37.15 775.026 34.35C774.126 31.55 773.276 28.9 772.476 26.4C771.676 23.8 771.076 21.65 770.676 19.95L774.726 19.8C774.126 22.1 773.426 24.5 772.626 27C771.926 29.4 771.176 31.9 770.376 34.5C769.576 37 768.726 39.45 767.826 41.85C766.926 44.25 766.076 46.6 765.276 48.9L744.126 105H721.926ZM740.976 82.95L748.326 64.8H796.476L803.976 82.95H740.976Z" fill="black"/>
<path d="M16.4136 119.95L11.6136 99.55L64.7136 46H92.0136L16.4136 119.95ZM-0.536401 151V46H21.9636V151H-0.536401ZM67.5636 151L28.2636 98.8L43.7136 85.45L94.2636 151H67.5636ZM97.6093 151L138.709 46H158.809L199.759 151H176.659L155.509 94.45C154.909 92.85 154.159 90.8 153.259 88.3C152.459 85.8 151.609 83.15 150.709 80.35C149.809 77.55 148.959 74.9 148.159 72.4C147.359 69.8 146.759 67.65 146.359 65.95L150.409 65.8C149.809 68.1 149.109 70.5 148.309 73C147.609 75.4 146.859 77.9 146.059 80.5C145.259 83 144.409 85.45 143.509 87.85C142.609 90.25 141.759 92.6 140.959 94.9L119.809 151H97.6093ZM116.659 128.95L124.009 110.8H172.159L179.659 128.95H116.659ZM214.503 151V46H261.003C267.503 46 273.403 47.5 278.703 50.5C284.003 53.4 288.153 57.35 291.153 62.35C294.253 67.35 295.803 73.05 295.803 79.45C295.803 85.75 294.253 91.5 291.153 96.7C288.153 101.8 284.003 105.85 278.703 108.85C273.403 111.85 267.503 113.35 261.003 113.35H236.253V151H214.503ZM274.053 151L247.353 103.6L270.453 99.85L300.153 151.15L274.053 151ZM236.253 95.05H259.953C262.653 95.05 265.003 94.45 267.003 93.25C269.103 91.95 270.703 90.2 271.803 88C272.903 85.7 273.453 83.15 273.453 80.35C273.453 77.35 272.803 74.75 271.503 72.55C270.203 70.35 268.303 68.65 265.803 67.45C263.303 66.15 260.403 65.5 257.103 65.5H236.253V95.05ZM319.532 151V46H339.632L397.682 124.45H393.482C393.082 121.35 392.732 118.35 392.432 115.45C392.132 112.45 391.832 109.45 391.532 106.45C391.332 103.35 391.132 100.2 390.932 97C390.832 93.7 390.732 90.25 390.632 86.65C390.532 82.95 390.482 78.95 390.482 74.65V46H412.532V151H392.132L332.882 71.8L338.582 71.95C339.082 77.15 339.482 81.6 339.782 85.3C340.182 88.9 340.482 92.05 340.682 94.75C340.882 97.45 341.032 99.8 341.132 101.8C341.332 103.8 341.432 105.7 341.432 107.5C341.532 109.3 341.582 111.2 341.582 113.2V151H319.532ZM437.096 151V131.65H454.646V65.35H437.096V46H494.696V65.35H477.146V131.65H494.696V151H437.096ZM536.287 119.95L531.487 99.55L584.587 46H611.887L536.287 119.95ZM519.337 151V46H541.837V151H519.337ZM587.437 151L548.137 98.8L563.587 85.45L614.137 151H587.437ZM617.482 151L658.582 46H678.682L719.632 151H696.532L675.382 94.45C674.782 92.85 674.032 90.8 673.132 88.3C672.332 85.8 671.482 83.15 670.582 80.35C669.682 77.55 668.832 74.9 668.032 72.4C667.232 69.8 666.632 67.65 666.232 65.95L670.282 65.8C669.682 68.1 668.982 70.5 668.182 73C667.482 75.4 666.732 77.9 665.932 80.5C665.132 83 664.282 85.45 663.382 87.85C662.482 90.25 661.632 92.6 660.832 94.9L639.682 151H617.482ZM636.532 128.95L643.882 110.8H692.032L699.532 128.95H636.532ZM721.926 151L763.026 46H783.126L824.076 151H800.976L779.826 94.45C779.226 92.85 778.476 90.8 777.576 88.3C776.776 85.8 775.926 83.15 775.026 80.35C774.126 77.55 773.276 74.9 772.476 72.4C771.676 69.8 771.076 67.65 770.676 65.95L774.726 65.8C774.126 68.1 773.426 70.5 772.626 73C771.926 75.4 771.176 77.9 770.376 80.5C769.576 83 768.726 85.45 767.826 87.85C766.926 90.25 766.076 92.6 765.276 94.9L744.126 151H721.926ZM740.976 128.95L748.326 110.8H796.476L803.976 128.95H740.976Z" fill="black"/>
<rect x="-92.7786" y="46" width="957.675" height="59" fill="#FFFDF1"/>
<path d="M101.052 79.2344C100.584 81.4219 99.9118 83.4688 99.0368 85.375C98.1618 87.25 97.2243 88.8906 96.2243 90.2969C95.2556 91.7031 94.2712 92.8125 93.2712 93.625C92.2712 94.4375 91.4118 94.875 90.6931 94.9375C89.8806 94.9375 88.9743 94.5312 87.9743 93.7188C87.0056 92.9062 86.0681 91.7812 85.1618 90.3438C84.2868 88.875 83.5524 87.1406 82.9587 85.1406C82.3649 83.1406 82.0681 80.9688 82.0681 78.625C82.0681 76.5625 82.2399 75 82.5837 73.9375C82.9587 72.875 83.1931 72.2656 83.2868 72.1094C83.4431 71.8281 83.6462 71.6094 83.8962 71.4531C84.1774 71.2969 84.4899 71.2188 84.8337 71.2188C85.3649 71.2188 85.7868 71.4062 86.0993 71.7812C86.4118 72.125 86.5681 72.5156 86.5681 72.9531C86.5681 73.2656 86.5056 73.5312 86.3806 73.75C86.3493 73.8125 86.2087 74.2344 85.9587 75.0156C85.7087 75.7969 85.5837 76.9688 85.5837 78.5312C85.5837 80.375 85.7712 82.0781 86.1462 83.6406C86.5212 85.2031 86.9743 86.5469 87.5056 87.6719C88.0368 88.7969 88.5837 89.6875 89.1462 90.3438C89.7399 90.9688 90.2243 91.2812 90.5993 91.2812C90.8493 91.2812 91.2087 91.0469 91.6774 90.5781C92.1774 90.1094 92.6931 89.4688 93.2243 88.6562C93.7868 87.8438 94.3493 86.875 94.9118 85.75C95.5056 84.625 96.0368 83.4062 96.5056 82.0938C97.0056 80.75 97.3962 79.3438 97.6774 77.875C97.9899 76.375 98.1462 74.8594 98.1462 73.3281C98.1462 73.0156 98.1306 72.7188 98.0993 72.4375C98.0993 72.125 98.0993 71.8125 98.0993 71.5C98.0993 70.9688 98.2556 70.5312 98.5681 70.1875C98.9118 69.8125 99.3493 69.625 99.8806 69.625C100.287 69.625 100.646 69.75 100.959 70C101.302 70.25 101.521 70.5938 101.615 71.0312C101.615 71 101.677 71.25 101.802 71.7812C101.927 72.3125 102.131 73 102.412 73.8438C102.724 74.6562 103.099 75.5469 103.537 76.5156C104.006 77.4844 104.552 78.3906 105.177 79.2344C105.834 80.0469 106.584 80.7344 107.427 81.2969C108.271 81.8594 109.24 82.1406 110.334 82.1406C110.927 82.1406 111.443 82.0156 111.881 81.7656C112.318 81.5156 112.677 81.2344 112.959 80.9219C113.24 80.6094 113.443 80.3125 113.568 80.0312C113.724 79.75 113.802 79.5938 113.802 79.5625C113.927 79.2188 114.131 78.9531 114.412 78.7656C114.724 78.5469 115.068 78.4375 115.443 78.4375C115.943 78.4375 116.365 78.625 116.709 79C117.052 79.3438 117.224 79.75 117.224 80.2188C117.224 80.4375 117.177 80.6562 117.084 80.875C116.896 81.3125 116.615 81.8125 116.24 82.375C115.896 82.9375 115.443 83.4688 114.881 83.9688C114.318 84.4688 113.646 84.8906 112.865 85.2344C112.115 85.5469 111.271 85.7031 110.334 85.7031C109.24 85.7031 108.224 85.5156 107.287 85.1406C106.349 84.7344 105.49 84.2344 104.709 83.6406C103.959 83.0156 103.271 82.3281 102.646 81.5781C102.021 80.7969 101.49 80.0156 101.052 79.2344ZM172.274 88.8438C172.931 89.75 173.774 90.4844 174.806 91.0469C175.837 91.5781 177.102 91.8438 178.602 91.8438C180.134 91.8438 181.524 91.4844 182.774 90.7656C184.024 90.0156 185.165 89.0469 186.196 87.8594C187.227 86.6719 188.149 85.3438 188.962 83.875C189.774 82.4062 190.509 80.9375 191.165 79.4688C191.321 79.125 191.54 78.875 191.821 78.7188C192.102 78.5312 192.415 78.4375 192.759 78.4375C193.29 78.4375 193.712 78.625 194.024 79C194.368 79.375 194.54 79.7812 194.54 80.2188C194.54 80.375 194.524 80.5156 194.493 80.6406C194.462 80.7344 194.415 80.8438 194.352 80.9688C192.196 85.7188 189.837 89.2969 187.274 91.7031C184.743 94.1094 181.868 95.3438 178.649 95.4062C176.587 95.4062 174.806 95 173.306 94.1875C171.806 93.4062 170.571 92.3906 169.602 91.1406C168.634 89.8594 167.915 88.4219 167.446 86.8281C166.977 85.2344 166.743 83.6406 166.743 82.0469C166.743 80.4531 166.931 78.9844 167.306 77.6406C167.712 76.2969 168.274 75.125 168.993 74.125C169.743 73.125 170.618 72.3438 171.618 71.7812C172.649 71.2188 173.774 70.9375 174.993 70.9375C175.712 70.9375 176.415 71.0938 177.102 71.4062C177.821 71.6875 178.462 72.1094 179.024 72.6719C179.587 73.2031 180.04 73.8594 180.384 74.6406C180.727 75.4219 180.899 76.3125 180.899 77.3125C180.899 78.5938 180.681 79.7969 180.243 80.9219C179.806 82.0469 179.196 83.0938 178.415 84.0625C177.665 85.0312 176.759 85.9219 175.696 86.7344C174.634 87.5469 173.493 88.25 172.274 88.8438ZM170.868 85.7969C171.837 85.3906 172.712 84.875 173.493 84.25C174.306 83.625 174.993 82.9375 175.556 82.1875C176.118 81.4375 176.556 80.6562 176.868 79.8438C177.181 79 177.337 78.1562 177.337 77.3125C177.337 76.375 177.102 75.6719 176.634 75.2031C176.165 74.7031 175.618 74.4531 174.993 74.4531C174.149 74.4531 173.431 74.6875 172.837 75.1562C172.243 75.625 171.759 76.2344 171.384 76.9844C171.009 77.7344 170.727 78.5781 170.54 79.5156C170.384 80.4219 170.306 81.3281 170.306 82.2344C170.306 82.7969 170.352 83.3906 170.446 84.0156C170.571 84.6406 170.712 85.2344 170.868 85.7969ZM270.684 81.0156C270.34 81.7344 269.902 82.5938 269.371 83.5938C268.871 84.5625 268.293 85.5781 267.637 86.6406C266.981 87.7031 266.246 88.7656 265.434 89.8281C264.621 90.8594 263.731 91.7969 262.762 92.6406C261.824 93.4531 260.809 94.1094 259.715 94.6094C258.652 95.1406 257.512 95.4062 256.293 95.4062C254.418 95.4062 252.809 94.8281 251.465 93.6719C250.121 92.5156 248.981 91 248.043 89.125C247.106 87.25 246.34 85.125 245.746 82.75C245.184 80.3438 244.746 77.9062 244.434 75.4375C244.121 72.9375 243.902 70.5156 243.777 68.1719C243.684 65.8281 243.637 63.75 243.637 61.9375C243.637 59.3125 243.715 56.5938 243.871 53.7812C244.059 50.9688 244.34 48.2188 244.715 45.5312C245.09 42.8438 245.559 40.2969 246.121 37.8906C246.715 35.4844 247.402 33.375 248.184 31.5625C248.996 29.75 249.918 28.3125 250.949 27.25C251.981 26.1875 253.152 25.6562 254.465 25.6562C255.496 25.6562 256.418 25.9062 257.231 26.4062C258.074 26.875 258.777 27.6563 259.34 28.75C259.902 29.8437 260.34 31.2656 260.652 33.0156C260.965 34.7656 261.121 36.9062 261.121 39.4375C261.121 42.5625 260.793 45.7969 260.137 49.1406C259.481 52.4531 258.59 55.7969 257.465 59.1719C256.34 62.5469 255.012 65.9219 253.481 69.2969C251.949 72.6406 250.309 75.9062 248.559 79.0938C249.34 83.0625 250.387 86.1875 251.699 88.4688C253.012 90.7188 254.59 91.8438 256.434 91.8438C257.684 91.8438 258.887 91.3594 260.043 90.3906C261.199 89.3906 262.262 88.2188 263.231 86.875C264.199 85.5312 265.043 84.1719 265.762 82.7969C266.512 81.3906 267.09 80.2656 267.496 79.4219C267.652 79.1094 267.871 78.875 268.152 78.7188C268.434 78.5312 268.746 78.4375 269.09 78.4375C269.621 78.4375 270.043 78.625 270.356 79C270.699 79.375 270.871 79.7969 270.871 80.2656C270.871 80.4531 270.809 80.7031 270.684 81.0156ZM247.199 62.1719C247.199 64.1719 247.246 66.0938 247.34 67.9375C247.434 69.7812 247.559 71.5469 247.715 73.2344C249.027 70.7031 250.277 68.0156 251.465 65.1719C252.652 62.2969 253.699 59.4062 254.606 56.5C255.512 53.5625 256.231 50.6562 256.762 47.7812C257.324 44.875 257.606 42.1094 257.606 39.4844C257.606 35.7969 257.309 33.1562 256.715 31.5625C256.121 29.9688 255.324 29.1719 254.324 29.1719C253.668 29.1719 253.027 29.625 252.402 30.5312C251.809 31.4375 251.246 32.6719 250.715 34.2344C250.184 35.7969 249.699 37.6406 249.262 39.7656C248.824 41.8906 248.449 44.1719 248.137 46.6094C247.856 49.0469 247.621 51.5938 247.434 54.25C247.277 56.9062 247.199 59.5469 247.199 62.1719ZM335.906 88.75C334.812 90.5312 333.531 91.9375 332.062 92.9688C330.624 94 329.171 94.5156 327.702 94.5156C326.515 94.5156 325.452 94.2969 324.515 93.8594C323.577 93.4219 322.765 92.8125 322.077 92.0312C321.39 91.2188 320.859 90.25 320.484 89.125C320.14 88 319.968 86.7344 319.968 85.3281C319.968 83.1406 320.171 81.2031 320.577 79.5156C321.015 77.8281 321.484 76.4219 321.984 75.2969C322.484 74.1406 322.952 73.2656 323.39 72.6719C323.827 72.0781 324.046 71.7812 324.046 71.7812C324.202 71.5938 324.39 71.4531 324.609 71.3594C324.859 71.2656 325.109 71.2188 325.359 71.2188C325.859 71.2188 326.265 71.4062 326.577 71.7812C326.921 72.125 327.093 72.5312 327.093 73C327.093 73.1875 327.046 73.375 326.952 73.5625C326.89 73.75 326.812 73.9375 326.718 74.125C326.562 74.4062 326.312 74.8438 325.968 75.4375C325.624 76 325.265 76.75 324.89 77.6875C324.515 78.625 324.187 79.7344 323.906 81.0156C323.624 82.2656 323.484 83.7031 323.484 85.3281C323.484 87.1719 323.843 88.5781 324.562 89.5469C325.312 90.4844 326.359 90.9531 327.702 90.9531C328.265 90.9531 328.906 90.7812 329.624 90.4375C330.374 90.0625 331.093 89.5 331.781 88.75C332.499 88 333.124 87.0469 333.656 85.8906C334.187 84.7344 334.531 83.375 334.687 81.8125L335.39 73.75C335.452 73.2812 335.656 72.8906 335.999 72.5781C336.343 72.2656 336.749 72.1094 337.218 72.1094C337.749 72.1094 338.171 72.3125 338.484 72.7188C338.796 73.0938 338.952 73.5312 338.952 74.0312L338.343 81.8125C338.281 82.4688 338.296 83.3281 338.39 84.3906C338.515 85.4531 338.749 86.5 339.093 87.5312C339.437 88.5625 339.952 89.4531 340.64 90.2031C341.327 90.9219 342.234 91.2812 343.359 91.2812C344.171 91.2812 344.968 91.0781 345.749 90.6719C346.531 90.2344 347.281 89.6719 347.999 88.9844C348.718 88.2969 349.374 87.5312 349.968 86.6875C350.593 85.8125 351.156 84.9375 351.656 84.0625C352.187 83.1875 352.64 82.3594 353.015 81.5781C353.39 80.7656 353.702 80.0781 353.952 79.5156C354.109 79.1719 354.327 78.9062 354.609 78.7188C354.89 78.5312 355.202 78.4375 355.546 78.4375C356.109 78.4375 356.546 78.625 356.859 79C357.171 79.375 357.327 79.7812 357.327 80.2188C357.327 80.4688 357.281 80.7031 357.187 80.9219C357.062 81.1719 356.812 81.7031 356.437 82.5156C356.093 83.2969 355.624 84.2031 355.031 85.2344C354.468 86.2344 353.781 87.2969 352.968 88.4219C352.156 89.5469 351.249 90.5938 350.249 91.5625C349.249 92.5 348.156 93.2812 346.968 93.9062C345.812 94.5 344.562 94.7969 343.218 94.7969C341.374 94.7969 339.843 94.2812 338.624 93.25C337.406 92.1875 336.499 90.6875 335.906 88.75ZM417.627 89.8281C418.096 88.8906 418.69 87.7344 419.409 86.3594C420.159 84.9531 420.924 83.5469 421.706 82.1406C422.518 80.7344 423.299 79.4062 424.049 78.1562C424.831 76.9062 425.487 75.9531 426.018 75.2969C426.924 74.2031 427.862 73.4219 428.831 72.9531C429.799 72.4844 430.69 72.25 431.502 72.25C432.315 72.25 433.002 72.4219 433.565 72.7656C434.159 73.1094 434.643 73.5781 435.018 74.1719C435.393 74.7344 435.674 75.4062 435.862 76.1875C436.049 76.9375 436.143 77.75 436.143 78.625C436.143 79.125 436.112 79.7812 436.049 80.5938C436.018 81.4062 435.971 82.2812 435.909 83.2188C435.877 84.1562 435.831 85.125 435.768 86.125C435.737 87.125 435.706 88.0625 435.674 88.9375C436.143 88 436.674 86.9688 437.268 85.8438C437.862 84.6875 438.456 83.5469 439.049 82.4219C439.674 81.2969 440.268 80.25 440.831 79.2812C441.393 78.2812 441.909 77.4688 442.377 76.8438C443.721 75 444.971 73.7656 446.127 73.1406C447.315 72.5156 448.362 72.2031 449.268 72.2031C450.331 72.2031 451.206 72.4062 451.893 72.8125C452.581 73.1875 453.112 73.6875 453.487 74.3125C453.893 74.9062 454.174 75.5781 454.331 76.3281C454.487 77.0781 454.565 77.7969 454.565 78.4844C454.565 79.5469 454.487 80.6562 454.331 81.8125C454.174 82.9688 454.096 84.3438 454.096 85.9375C454.096 86.5938 454.127 87.25 454.19 87.9062C454.252 88.5625 454.377 89.1406 454.565 89.6406C454.784 90.1406 455.112 90.5469 455.549 90.8594C455.987 91.1719 456.581 91.3281 457.331 91.3281C458.143 91.3281 458.94 91.125 459.721 90.7188C460.502 90.2812 461.252 89.7188 461.971 89.0312C462.69 88.3438 463.362 87.5625 463.987 86.6875C464.643 85.8125 465.237 84.9375 465.768 84.0625C466.299 83.1875 466.768 82.3594 467.174 81.5781C467.581 80.7656 467.909 80.0781 468.159 79.5156C468.315 79.1719 468.534 78.9062 468.815 78.7188C469.096 78.5312 469.409 78.4375 469.752 78.4375C470.284 78.4375 470.706 78.6406 471.018 79.0469C471.362 79.4219 471.534 79.8281 471.534 80.2656C471.534 80.4844 471.487 80.7031 471.393 80.9219C471.268 81.1719 471.018 81.7031 470.643 82.5156C470.268 83.2969 469.768 84.2031 469.143 85.2344C468.518 86.2344 467.784 87.2969 466.94 88.4219C466.127 89.5469 465.221 90.5938 464.221 91.5625C463.221 92.5 462.143 93.2812 460.987 93.9062C459.831 94.5 458.612 94.7969 457.331 94.7969C455.956 94.7969 454.831 94.5469 453.956 94.0469C453.112 93.5781 452.424 92.9375 451.893 92.125C451.393 91.3125 451.049 90.375 450.862 89.3125C450.674 88.25 450.581 87.1406 450.581 85.9844C450.581 84.4531 450.659 83.0469 450.815 81.7656C450.971 80.4531 451.049 79.4375 451.049 78.7188C451.049 77.9375 450.971 77.3438 450.815 76.9375C450.69 76.5312 450.518 76.25 450.299 76.0938C450.112 75.9062 449.924 75.8125 449.737 75.8125C449.549 75.7812 449.409 75.7656 449.315 75.7656C448.565 75.7656 447.768 76.1875 446.924 77.0312C446.112 77.8438 445.268 78.9375 444.393 80.3125C443.518 81.6875 442.612 83.25 441.674 85C440.768 86.75 439.846 88.5312 438.909 90.3438C438.377 91.3438 437.924 92.1719 437.549 92.8281C437.206 93.4844 436.862 94 436.518 94.375C436.206 94.75 435.893 95.0156 435.581 95.1719C435.268 95.3281 434.924 95.4062 434.549 95.4062C433.737 95.4062 433.112 95.125 432.674 94.5625C432.268 94 432.065 93.2656 432.065 92.3594C432.065 91.8906 432.081 91.2656 432.112 90.4844C432.143 89.7031 432.174 88.8438 432.206 87.9062C432.237 86.9688 432.284 86 432.346 85C432.409 84 432.456 83.0469 432.487 82.1406C432.518 81.2031 432.549 80.375 432.581 79.6562C432.612 78.9375 432.627 78.3906 432.627 78.0156C432.627 77.2031 432.487 76.625 432.206 76.2812C431.924 75.9062 431.596 75.7188 431.221 75.7188C430.877 75.7188 430.487 75.8438 430.049 76.0938C429.643 76.3438 429.159 76.8281 428.596 77.5469C428.159 78.1094 427.596 78.9375 426.909 80.0312C426.252 81.0938 425.549 82.2812 424.799 83.5938C424.049 84.9062 423.299 86.25 422.549 87.625C421.831 89 421.206 90.2344 420.674 91.3281C420.018 92.6406 419.362 93.5312 418.706 94C418.049 94.5 417.409 94.75 416.784 94.75C415.877 94.75 415.206 94.4844 414.768 93.9531C414.331 93.3906 414.112 92.6562 414.112 91.75C414.112 91.6562 414.127 91.0938 414.159 90.0625C414.221 89.0312 414.284 87.7812 414.346 86.3125C414.409 84.8125 414.471 83.2188 414.534 81.5312C414.627 79.8438 414.706 78.2656 414.768 76.7969C414.799 76.0156 414.768 75.2969 414.674 74.6406C414.581 73.9844 414.456 73.5938 414.299 73.4688C414.049 73.5312 413.549 74.1094 412.799 75.2031C412.081 76.2969 411.159 78.2031 410.034 80.9219C409.877 81.2656 409.643 81.5312 409.331 81.7188C409.018 81.9062 408.69 82 408.346 82C407.815 82 407.393 81.8281 407.081 81.4844C406.768 81.1094 406.612 80.6875 406.612 80.2188C406.612 80 406.659 79.7656 406.752 79.5156C408.159 76.1719 409.502 73.7188 410.784 72.1562C412.065 70.5625 413.315 69.7656 414.534 69.7656C415.252 69.7656 415.846 69.9375 416.315 70.2812C416.815 70.5938 417.206 71.0156 417.487 71.5469C417.768 72.0469 417.971 72.625 418.096 73.2812C418.221 73.9375 418.284 74.5781 418.284 75.2031C418.284 77.9844 418.206 80.5312 418.049 82.8438C417.924 85.1562 417.784 87.4844 417.627 89.8281ZM557.24 80.9219C557.115 81.1719 556.849 81.7031 556.443 82.5156C556.068 83.2969 555.568 84.2031 554.943 85.2344C554.349 86.2656 553.646 87.3438 552.834 88.4688C552.021 89.5938 551.115 90.625 550.115 91.5625C549.115 92.5 548.037 93.2812 546.881 93.9062C545.724 94.5 544.506 94.7969 543.224 94.7969C541.412 94.7969 539.881 94.2188 538.631 93.0625C537.412 91.9062 536.521 90.4531 535.959 88.7031C534.896 90.4844 533.631 91.9062 532.162 92.9688C530.693 94 529.224 94.5156 527.756 94.5156C526.599 94.5156 525.552 94.3125 524.615 93.9062C523.677 93.4688 522.881 92.875 522.224 92.125C521.568 91.3438 521.052 90.4375 520.677 89.4062C520.334 88.375 520.162 87.25 520.162 86.0312C520.162 83.5938 520.568 81.4531 521.381 79.6094C522.224 77.7344 523.287 76.1719 524.568 74.9219C525.849 73.6719 527.256 72.7344 528.787 72.1094C530.349 71.4844 531.849 71.1719 533.287 71.1719C534.256 71.1719 535.146 71.3125 535.959 71.5938C536.771 71.8438 537.459 72.125 538.021 72.4375C538.615 72.75 539.068 73.0469 539.381 73.3281C539.693 73.5781 539.865 73.7188 539.896 73.75C540.24 74.1562 540.412 74.5781 540.412 75.0156C540.412 75.4844 540.24 75.9062 539.896 76.2812C539.552 76.625 539.146 76.7969 538.677 76.7969C538.177 76.7969 537.756 76.625 537.412 76.2812C537.349 76.2188 537.209 76.1094 536.99 75.9531C536.771 75.7656 536.474 75.5781 536.099 75.3906C535.724 75.2031 535.271 75.0469 534.74 74.9219C534.24 74.7656 533.662 74.6875 533.006 74.6875C532.037 74.6875 531.006 74.9062 529.912 75.3438C528.818 75.7812 527.818 76.4688 526.912 77.4062C526.006 78.3125 525.24 79.4688 524.615 80.875C524.021 82.25 523.724 83.8906 523.724 85.7969C523.724 86.3906 523.787 87 523.912 87.625C524.037 88.2188 524.256 88.7656 524.568 89.2656C524.881 89.7656 525.302 90.1719 525.834 90.4844C526.365 90.7969 527.021 90.9531 527.802 90.9531C528.365 90.9531 529.006 90.7656 529.724 90.3906C530.474 90.0156 531.177 89.4375 531.834 88.6562C532.521 87.875 533.131 86.8906 533.662 85.7031C534.224 84.5156 534.615 83.1094 534.834 81.4844C534.896 81.0469 535.099 80.6875 535.443 80.4062C535.787 80.0938 536.193 79.9375 536.662 79.9375C537.099 79.9375 537.474 80.1094 537.787 80.4531C538.131 80.7969 538.318 81.1875 538.349 81.625C538.381 82.2188 538.443 83.0625 538.537 84.1562C538.631 85.2188 538.834 86.2812 539.146 87.3438C539.49 88.4062 539.99 89.3281 540.646 90.1094C541.302 90.8906 542.209 91.2812 543.365 91.2812C544.115 91.2812 544.849 91.0781 545.568 90.6719C546.318 90.2656 547.037 89.7344 547.724 89.0781C548.443 88.3906 549.115 87.625 549.74 86.7812C550.396 85.9062 550.99 85.0312 551.521 84.1562C552.052 83.2812 552.521 82.4375 552.927 81.625C553.334 80.8125 553.677 80.1094 553.959 79.5156C554.115 79.1719 554.334 78.9062 554.615 78.7188C554.927 78.5312 555.256 78.4375 555.599 78.4375C556.131 78.4375 556.552 78.6406 556.865 79.0469C557.209 79.4219 557.381 79.8281 557.381 80.2656C557.381 80.4844 557.334 80.7031 557.24 80.9219ZM617.212 89.7812C617.712 88.75 618.29 87.625 618.946 86.4062C619.602 85.1562 620.306 83.9062 621.056 82.6562C621.806 81.375 622.587 80.1094 623.399 78.8594C624.243 77.6094 625.118 76.4219 626.024 75.2969C626.931 74.2031 627.837 73.4219 628.743 72.9531C629.681 72.4531 630.556 72.2031 631.368 72.2031C632.993 72.2031 634.196 72.7969 634.977 73.9844C635.759 75.1719 636.149 76.6406 636.149 78.3906C636.149 78.7969 636.118 79.2969 636.056 79.8906C636.024 80.4531 635.977 81.0625 635.915 81.7188C635.884 82.375 635.837 83.0469 635.774 83.7344C635.743 84.3906 635.727 85.0156 635.727 85.6094C635.727 86.3594 635.759 87.0781 635.821 87.7656C635.915 88.4531 636.071 89.0625 636.29 89.5938C636.509 90.0938 636.821 90.5 637.227 90.8125C637.634 91.0938 638.165 91.2344 638.821 91.2344C640.009 91.2344 641.165 90.7812 642.29 89.875C643.415 88.9375 644.446 87.8438 645.384 86.5938C646.352 85.3125 647.181 84.0156 647.868 82.7031C648.587 81.3906 649.118 80.3281 649.462 79.5156C649.618 79.1719 649.837 78.9062 650.118 78.7188C650.431 78.5312 650.759 78.4375 651.102 78.4375C651.634 78.4375 652.056 78.6406 652.368 79.0469C652.712 79.4219 652.884 79.8281 652.884 80.2656C652.884 80.4844 652.837 80.7031 652.743 80.9219C652.618 81.1719 652.368 81.6875 651.993 82.4688C651.618 83.25 651.118 84.1562 650.493 85.1875C649.899 86.1875 649.196 87.2656 648.384 88.4219C647.571 89.5469 646.665 90.5781 645.665 91.5156C644.696 92.4531 643.634 93.2344 642.477 93.8594C641.352 94.4844 640.165 94.7969 638.915 94.7969C637.509 94.7969 636.368 94.5312 635.493 94C634.618 93.4375 633.931 92.7188 633.431 91.8438C632.931 90.9375 632.587 89.9531 632.399 88.8906C632.243 87.7969 632.165 86.7031 632.165 85.6094C632.165 85.1406 632.181 84.6094 632.212 84.0156C632.274 83.4219 632.337 82.7969 632.399 82.1406C632.493 81.4844 632.556 80.8281 632.587 80.1719C632.649 79.5156 632.681 78.8906 632.681 78.2969C632.681 77.2969 632.524 76.625 632.212 76.2812C631.899 75.9062 631.618 75.7188 631.368 75.7188C630.868 75.7188 630.29 76.0156 629.634 76.6094C629.009 77.1719 628.337 77.9219 627.618 78.8594C626.931 79.7969 626.212 80.8594 625.462 82.0469C624.743 83.2031 624.056 84.3594 623.399 85.5156C622.774 86.6719 622.181 87.7812 621.618 88.8438C621.087 89.875 620.665 90.7344 620.352 91.4219C619.727 92.7344 619.102 93.6094 618.477 94.0469C617.852 94.5156 617.212 94.75 616.556 94.75C615.649 94.75 614.915 94.4844 614.352 93.9531C613.821 93.3906 613.556 92.6094 613.556 91.6094C613.556 91.3906 613.587 90.9688 613.649 90.3438C613.712 89.6875 613.79 88.9219 613.884 88.0469C613.977 87.1406 614.071 86.1719 614.165 85.1406C614.259 84.1094 614.352 83.0938 614.446 82.0938C614.54 81.0625 614.618 80.1094 614.681 79.2344C614.743 78.3594 614.774 77.625 614.774 77.0312C614.774 76.25 614.743 75.5 614.681 74.7812C614.618 74.0625 614.493 73.625 614.306 73.4688C614.024 73.5625 613.524 74.1562 612.806 75.25C612.087 76.3125 611.165 78.2031 610.04 80.9219C609.884 81.2656 609.649 81.5312 609.337 81.7188C609.024 81.9062 608.696 82 608.352 82C607.821 82 607.399 81.8281 607.087 81.4844C606.774 81.1094 606.618 80.6875 606.618 80.2188C606.618 80 606.665 79.7656 606.759 79.5156C608.165 76.1719 609.477 73.7188 610.696 72.1562C611.946 70.5625 613.181 69.7656 614.399 69.7656C615.118 69.7656 615.727 69.9531 616.227 70.3281C616.727 70.6719 617.118 71.1406 617.399 71.7344C617.712 72.3281 617.931 72.9844 618.056 73.7031C618.212 74.4219 618.29 75.1562 618.29 75.9062C618.29 76.4688 618.243 77.3438 618.149 78.5312C618.087 79.7188 617.993 81 617.868 82.375C617.743 83.7188 617.618 85.0625 617.493 86.4062C617.399 87.75 617.306 88.875 617.212 89.7812ZM709.996 57.2031C709.996 58.3906 709.574 59.4062 708.731 60.25C707.918 61.0625 706.918 61.4688 705.731 61.4688C704.543 61.4688 703.527 61.0625 702.684 60.25C701.871 59.4062 701.465 58.3906 701.465 57.2031C701.465 56.6094 701.574 56.0625 701.793 55.5625C702.012 55.0312 702.309 54.5781 702.684 54.2031C703.09 53.7969 703.543 53.4844 704.043 53.2656C704.574 53.0469 705.137 52.9375 705.731 52.9375C706.324 52.9375 706.871 53.0469 707.371 53.2656C707.902 53.4844 708.356 53.7969 708.731 54.2031C709.137 54.5781 709.449 55.0312 709.668 55.5625C709.887 56.0625 709.996 56.6094 709.996 57.2031ZM702.402 84.6719C702.402 80.1719 702.684 75.6875 703.246 71.2188C703.309 70.7812 703.496 70.4062 703.809 70.0938C704.152 69.75 704.59 69.5781 705.121 69.5781C705.59 69.5781 705.981 69.7656 706.293 70.1406C706.606 70.4844 706.762 70.8906 706.762 71.3594C706.762 71.5469 706.715 72.1094 706.621 73.0469C706.559 73.9844 706.465 75.1094 706.34 76.4219C706.246 77.7031 706.152 79.0781 706.059 80.5469C705.996 81.9844 705.965 83.3125 705.965 84.5312C705.965 86.1875 706.121 87.5312 706.434 88.5625C706.777 89.5625 707.199 90.3438 707.699 90.9062C708.231 91.4688 708.777 91.8438 709.34 92.0312C709.934 92.2188 710.496 92.3125 711.027 92.3125C711.902 92.3125 712.809 92 713.746 91.375C714.684 90.75 715.637 89.875 716.606 88.75C717.606 87.625 718.606 86.2812 719.606 84.7188C720.606 83.125 721.59 81.3594 722.559 79.4219C722.715 79.1094 722.934 78.875 723.215 78.7188C723.496 78.5312 723.809 78.4375 724.152 78.4375C724.652 78.4375 725.059 78.625 725.371 79C725.715 79.375 725.887 79.7812 725.887 80.2188C725.887 80.5312 725.824 80.7969 725.699 81.0156C725.324 81.7344 724.856 82.6094 724.293 83.6406C723.731 84.6719 723.09 85.7344 722.371 86.8281C721.652 87.9219 720.856 89.0156 719.981 90.1094C719.137 91.1719 718.231 92.1406 717.262 93.0156C716.293 93.8594 715.277 94.5469 714.215 95.0781C713.152 95.6094 712.074 95.875 710.981 95.875C709.574 95.875 708.34 95.5781 707.277 94.9844C706.215 94.3906 705.309 93.5938 704.559 92.5938C703.84 91.5938 703.293 90.4219 702.918 89.0781C702.574 87.7031 702.402 86.2344 702.402 84.6719ZM707.371 57.2031C707.371 56.7656 707.199 56.3906 706.856 56.0781C706.543 55.7344 706.168 55.5625 705.731 55.5625C705.293 55.5625 704.918 55.7344 704.606 56.0781C704.293 56.3906 704.137 56.7656 704.137 57.2031C704.137 57.6406 704.293 58.0156 704.606 58.3281C704.918 58.6406 705.293 58.7969 705.731 58.7969C706.168 58.7969 706.543 58.6406 706.856 58.3281C707.199 58.0156 707.371 57.6406 707.371 57.2031Z" fill="black"/>
</g>
<defs>
<clipPath id="clip0_64_563">
<rect width="825" height="151" fill="white"/>
</clipPath>
</defs>
</svg>
