<svg width="50" height="50" viewBox="0 0 50 50" fill="none" xmlns="http://www.w3.org/2000/svg">
<g clip-path="url(#clip0_103_514)">
<path d="M39.4616 49.0088C37.3698 49.0088 34.4313 48.2522 30.0311 45.7939C24.6804 42.7933 20.5417 40.0231 15.2199 34.7152C10.0888 29.5873 7.5919 26.2674 4.09725 19.9082C0.149305 12.7282 0.822299 8.96456 1.5746 7.35602C2.47049 5.43348 3.79291 4.28361 5.50218 3.1423C6.47304 2.50621 7.50045 1.96094 8.57138 1.5134C8.67855 1.46732 8.77821 1.42338 8.86716 1.38373C9.39762 1.14475 10.2014 0.783605 11.2194 1.1694C11.8988 1.42445 12.5054 1.94634 13.4549 2.88403C15.4021 4.80443 18.063 9.08137 19.0446 11.1818C19.7037 12.5974 20.1398 13.5319 20.1409 14.58C20.1409 15.807 19.5236 16.7533 18.7745 17.7746C18.6342 17.9664 18.4948 18.1497 18.3598 18.3275C17.5443 19.3992 17.3653 19.7089 17.4832 20.2619C17.7222 21.3732 19.5043 24.6813 22.4331 27.6037C25.362 30.5261 28.5748 32.1957 29.6903 32.4336C30.2669 32.5569 30.583 32.3704 31.689 31.526C31.8476 31.4049 32.0105 31.2795 32.1809 31.1541C33.3232 30.3043 34.2256 29.7031 35.4237 29.7031H35.4301C36.4728 29.7031 37.3655 30.1553 38.8444 30.9012C40.7733 31.8742 45.1789 34.5009 47.111 36.4502C48.0509 37.3975 48.5749 38.0019 48.831 38.6803C49.2168 39.7016 48.8535 40.5021 48.6167 41.0379C48.5771 41.1269 48.5331 41.2244 48.487 41.3326C48.036 42.4016 47.4875 43.4269 46.8485 44.3954C45.7093 46.0993 44.5552 47.4185 42.6283 48.3155C41.6389 48.7835 40.5561 49.0205 39.4616 49.0088Z" fill="#FFFDF1"/>
</g>
<defs>
<clipPath id="clip0_103_514">
<rect width="48.8" height="48.8" fill="white" transform="translate(0.600098 0.599609)"/>
</clipPath>
</defs>
</svg>
