<svg width="71" height="70" viewBox="0 0 71 70" fill="none" xmlns="http://www.w3.org/2000/svg">
<path d="M45.1558 53.4456C43.7132 53.4456 41.6868 52.9238 38.6524 51.2285C34.9625 49.1592 32.1084 47.2489 28.4384 43.5885C24.9 40.0523 23.1781 37.7628 20.7681 33.3775C18.0456 28.426 18.5097 25.8306 19.0285 24.7213C19.6463 23.3955 20.5583 22.6025 21.737 21.8155C22.4065 21.3768 23.115 21.0008 23.8535 20.6922C23.9274 20.6604 23.9962 20.6301 24.0575 20.6028C24.4233 20.438 24.9776 20.1889 25.6797 20.455C26.1482 20.6308 26.5665 20.9907 27.2213 21.6374C28.5641 22.9617 30.399 25.9111 31.076 27.3596C31.5305 28.3359 31.8313 28.9803 31.832 29.7031C31.832 30.5492 31.4063 31.2018 30.8898 31.9061C30.7929 32.0384 30.6969 32.1647 30.6038 32.2874C30.0414 33.0264 29.9179 33.24 29.9992 33.6213C30.164 34.3877 31.393 36.6691 33.4128 38.6844C35.4325 40.6997 37.6481 41.8511 38.4174 42.0151C38.815 42.1001 39.033 41.9715 39.7957 41.3892C39.9051 41.3057 40.0174 41.2192 40.1349 41.1327C40.9227 40.5467 41.5449 40.1321 42.3712 40.1321H42.3756C43.0947 40.1321 43.7103 40.444 44.7301 40.9583C46.0604 41.6294 49.0985 43.4407 50.4309 44.785C51.079 45.4383 51.4404 45.8551 51.6171 46.3229C51.8831 47.0272 51.6326 47.5792 51.4692 47.9487C51.4419 48.0101 51.4116 48.0773 51.3798 48.152C51.0688 48.8892 50.6905 49.5962 50.2499 50.2641C49.4643 51.4391 48.6684 52.3488 47.3396 52.9674C46.6573 53.2901 45.9106 53.4536 45.1558 53.4456Z" fill="black"/>
<circle cx="35.179" cy="35" r="33.5753" stroke="black" stroke-width="2.84934"/>
</svg>
