<svg width="70" height="70" viewBox="0 0 70 70" fill="none" xmlns="http://www.w3.org/2000/svg">
<path d="M35.4778 13.5391C23.3651 13.5391 13.5437 23.3605 13.5437 35.4732C13.5437 44.4525 18.9489 52.1686 26.6748 55.5664C26.6161 54.0389 26.665 52.198 27.0567 50.5333C27.4778 48.7512 29.8768 38.5773 29.8768 38.5773C29.8768 38.5773 29.1718 37.177 29.1718 35.1109C29.1718 31.8599 31.0519 29.4315 33.4019 29.4315C35.3995 29.4315 36.3591 30.9297 36.3591 32.7216C36.3591 34.729 35.0764 37.7253 34.4203 40.5063C33.872 42.8368 35.5856 44.7266 37.8867 44.7266C42.0385 44.7266 44.839 39.39 44.839 33.0643C44.839 28.2565 41.5979 24.6628 35.7129 24.6628C29.0641 24.6628 24.9123 29.6273 24.9123 35.1696C24.9123 37.0791 25.4802 38.4304 26.3615 39.4683C26.763 39.9481 26.8217 40.144 26.6748 40.6923C26.5671 41.0938 26.3321 42.0632 26.2244 42.4549C26.0775 43.013 25.6271 43.2089 25.1277 43.0032C22.0628 41.7499 20.6332 38.401 20.6332 34.6213C20.6332 28.3936 25.8915 20.9222 36.3102 20.9222C44.6823 20.9222 50.1953 26.9835 50.1953 33.4854C50.1953 42.0926 45.407 48.5162 38.3567 48.5162C35.987 48.5162 33.7642 47.2334 33.0005 45.7842C33.0005 45.7842 31.7275 50.8369 31.4533 51.8161C30.9931 53.5101 30.0824 55.1943 29.2501 56.5162C31.2691 57.1119 33.363 57.4152 35.4681 57.4171C47.5808 57.4171 57.4022 47.5957 57.4022 35.483C57.4022 23.3702 47.5906 13.5391 35.4778 13.5391Z" fill="black"/>
<circle cx="35" cy="35" r="33.5" stroke="black" stroke-width="3"/>
</svg>
