<svg width="886" height="572" viewBox="0 0 886 572" fill="none" xmlns="http://www.w3.org/2000/svg">
<circle cx="453.712" cy="275" r="254" fill="#8D402F"/>
<path d="M201.5 239.5L263.307 194.497C328.2 147.246 401.332 112.504 478.956 92.0509L593 62.0005L615.5 78.4998L635.5 97.0005L465.823 145.932C418.542 159.567 373.574 180.218 332.42 207.195L200 294V294C198.009 278.406 198.145 262.613 200.403 247.055L201.5 239.5Z" fill="#BE794F"/>
<path d="M254.5 432L446.368 361.449C489.665 345.529 531.132 325.016 570.06 300.263L701 217L698.5 205L693.5 190L541.928 280.63C513.714 297.501 483.88 311.501 452.873 322.421L232.8 399.928L233.779 401.753C239.576 412.553 246.523 422.694 254.5 432V432Z" fill="#BE794F"/>
<path d="M204 322L452 209.5L646.999 109L656.09 120.615C667.98 135.807 677.848 152.479 685.447 170.211L689 178.5L555.073 256.343C498.817 289.041 439.597 316.351 378.204 337.908L227 391L220.176 375.152C214.404 361.745 209.872 347.838 206.637 333.605L204 322Z" fill="#5E1A20"/>
<path d="M363 512L486.458 440.891C519.271 421.991 550.587 400.605 580.131 376.918L708.5 274L708.5 284.443C708.5 335.263 691.023 384.538 659 424V424L593.777 456.348C554.669 475.745 513.923 491.647 472.015 503.871L403 524L400.94 523.719C387.737 521.919 374.919 517.959 363 512V512Z" fill="#5E1A20"/>
<path d="M409.479 277.715C351.754 314.726 291.136 323.172 258.711 272.599C226.286 222.027 246.795 151.026 304.521 114.015C362.246 77.0036 435.327 87.997 467.753 138.569C500.178 189.142 467.204 240.703 409.479 277.715Z" fill="#D9D9D9" fill-opacity="0.3"/>
<path d="M472.082 455.686C526.13 450.533 570.848 455.829 572.967 478.051C575.085 500.274 532.988 522.466 478.941 527.619C424.893 532.772 379.361 518.934 377.242 496.712C375.123 474.489 418.035 460.839 472.082 455.686Z" fill="#D9D9D9" fill-opacity="0.3"/>
<path fill-rule="evenodd" clip-rule="evenodd" d="M883.04 46.7503C910.775 116.411 736.222 275.892 493.164 402.961C250.106 530.031 30.5843 576.569 2.84894 506.909C-12.0143 469.578 32.2058 411.286 113.86 345.664C93.7745 369.25 84.843 388.585 90.1027 401.047C106.728 440.438 310.478 389.916 481.5 296C652.521 202.084 726.052 100.339 709.426 60.9481C705.409 51.4298 693.48 46.7924 675.285 46.5579C787.078 10.7196 866.91 6.23779 883.04 46.7503Z" fill="#D2D2D2" fill-opacity="0.5"/>
</svg>
