<svg width="70" height="70" viewBox="0 0 70 70" fill="none" xmlns="http://www.w3.org/2000/svg">
<path d="M41.629 34.5271C40.9844 34.5271 40.3543 34.7182 39.8184 35.0764C39.2824 35.4345 38.8647 35.9435 38.618 36.539C38.3713 37.1345 38.3068 37.7898 38.4326 38.422C38.5583 39.0542 38.8687 39.6349 39.3245 40.0907C39.7803 40.5465 40.361 40.8569 40.9932 40.9826C41.6254 41.1084 42.2807 41.0438 42.8762 40.7972C43.4717 40.5505 43.9807 40.1328 44.3388 39.5968C44.697 39.0609 44.8881 38.4308 44.8881 37.7862C44.8881 36.9218 44.5447 36.0929 43.9335 35.4817C43.3223 34.8705 42.4934 34.5271 41.629 34.5271Z" fill="black"/>
<path d="M30.5644 40.7968C32.2273 40.108 33.017 38.2015 32.3282 36.5386C31.6394 34.8757 29.7329 34.086 28.07 34.7748C26.4071 35.4636 25.6174 37.37 26.3062 39.033C26.995 40.6959 28.9015 41.4856 30.5644 40.7968Z" fill="black"/>
<path d="M57.2002 34.3251C57.2002 31.5015 54.9243 29.2048 52.1305 29.2048C50.953 29.2047 49.8125 29.6165 48.9067 30.369C45.7382 28.2171 41.5937 26.8999 37.1695 26.6328L39.1612 19.4809L45.1733 20.6759C45.3453 23.0732 47.346 24.9752 49.7586 24.9752C52.2935 24.9752 54.3557 22.893 54.3557 20.3392C54.3557 17.7853 52.221 15.6968 49.6862 15.6968C47.9181 15.6968 46.3991 16.7098 45.6259 18.3013L37.4782 16.6817L34.6627 26.5966L34.2436 26.6084C29.6601 26.8084 25.3409 28.141 22.0429 30.3681C21.1373 29.6128 19.9946 29.2009 18.8155 29.2048C16.019 29.2048 13.7458 31.5015 13.7458 34.3251C13.7418 35.2239 13.975 36.1077 14.4218 36.8876C14.8686 37.6674 15.5132 38.3155 16.2906 38.7665C16.2365 39.1668 16.2095 39.5703 16.21 39.9742C16.22 43.5719 18.246 46.945 21.9134 49.4799C25.5473 51.9785 30.3589 53.3573 35.473 53.3573C40.587 53.3573 45.4096 51.9785 49.0371 49.4744C52.7063 46.9396 54.7269 43.5655 54.7269 39.9633C54.7261 39.5608 54.7007 39.1587 54.6509 38.7593C55.4287 38.3102 56.0741 37.6636 56.5218 36.885C56.9694 36.1064 57.2035 35.2233 57.2002 34.3251ZM49.7767 18.1411C50.2064 18.1411 50.6265 18.2685 50.9838 18.5073C51.3411 18.746 51.6196 19.0853 51.7841 19.4823C51.9485 19.8794 51.9915 20.3162 51.9077 20.7377C51.8239 21.1591 51.6169 21.5463 51.3131 21.8502C51.0092 22.154 50.6221 22.3609 50.2006 22.4448C49.7791 22.5286 49.3423 22.4856 48.9453 22.3211C48.5482 22.1567 48.2089 21.8782 47.9702 21.5209C47.7314 21.1636 47.604 20.7435 47.604 20.3138C47.604 19.7376 47.8329 19.1849 48.2404 18.7775C48.6478 18.37 49.2005 18.1411 49.7767 18.1411ZM16.1648 34.3251C16.1621 33.6155 16.441 32.9338 16.9403 32.4296C17.4396 31.9254 18.1185 31.6398 18.8281 31.6355C19.2584 31.6364 19.6818 31.743 20.0612 31.946C18.6579 33.2505 17.6232 34.699 16.9768 36.2625C16.7205 36.009 16.5169 35.7073 16.3775 35.3748C16.2381 35.0423 16.1658 34.6856 16.1648 34.3251ZM47.6782 47.4728C44.4427 49.6989 40.1099 50.9256 35.4775 50.9256C30.8451 50.9256 26.5105 49.7007 23.2777 47.4728C20.2902 45.4096 18.6389 42.7417 18.6389 39.9588C18.6406 39.1155 18.7923 38.2793 19.0871 37.4892C19.6013 36.0642 20.55 34.7298 21.9071 33.5248C22.3311 33.1503 22.7773 32.8018 23.2433 32.481L23.2705 32.462L23.2922 32.4466C26.5259 30.2268 30.8532 29.0065 35.4784 29.0065C40.1036 29.0065 44.4318 30.2296 47.6656 32.4466L47.6864 32.462L47.7172 32.4847C48.1826 32.8042 48.6285 33.1512 49.0525 33.5239C50.4104 34.7298 51.3592 36.0633 51.8734 37.4901C52.06 38.0079 52.1908 38.5441 52.2636 39.0897C52.2999 39.3795 52.318 39.6713 52.3179 39.9633C52.317 42.7444 50.6693 45.4123 47.6782 47.4728ZM53.9791 36.2543C53.3336 34.69 52.2989 33.2406 50.8948 31.9342C51.2756 31.7333 51.6999 31.6289 52.1305 31.6301C52.84 31.6344 53.5188 31.92 54.018 32.4242C54.5172 32.9285 54.7959 33.6102 54.793 34.3197C54.7923 34.6803 54.7201 35.0372 54.5804 35.3696C54.4406 35.702 54.2363 36.0034 53.9791 36.2561V36.2543Z" fill="black"/>
<path d="M41.5593 44.143C41.5367 44.1656 39.2454 46.5031 35.4802 46.5212C31.678 46.5031 29.4799 44.2371 29.3866 44.143C29.3165 44.0734 29.2216 44.0343 29.1227 44.0343C29.0239 44.0343 28.929 44.0734 28.8589 44.143L27.6186 45.3624C27.5834 45.3973 27.5555 45.4389 27.5365 45.4846C27.5174 45.5304 27.5076 45.5795 27.5076 45.629C27.5076 45.6786 27.5174 45.7277 27.5365 45.7734C27.5555 45.8192 27.5834 45.8607 27.6186 45.8956C27.9264 46.2034 30.76 48.9945 35.4748 49.0144C40.1769 48.9945 43.0232 46.2034 43.331 45.8956C43.3662 45.8606 43.3941 45.819 43.4132 45.7732C43.4322 45.7274 43.442 45.6782 43.442 45.6286C43.442 45.5789 43.4322 45.5298 43.4132 45.4839C43.3941 45.4381 43.3662 45.3965 43.331 45.3615L42.0898 44.1421C42.0198 44.0728 41.9253 44.0339 41.8268 44.0339C41.7283 44.0339 41.6338 44.0728 41.5638 44.1421L41.5593 44.143Z" fill="black"/>
<circle cx="35" cy="35" r="33.5" stroke="black" stroke-width="3"/>
</svg>
