<svg width="430" height="391" viewBox="0 0 430 391" fill="none" xmlns="http://www.w3.org/2000/svg">
<g clip-path="url(#clip0_383_210)">
<rect x="470.178" y="265.534" width="269.811" height="332.811" transform="rotate(150.394 470.178 265.534)" fill="white" stroke="black" stroke-width="3.18901"/>
<path d="M382.925 261.74L391.225 276.346L388.449 277.923L379.149 270.98L380.416 282.488L377.578 284.101L369.278 269.494L371.26 268.368L378.126 280.45L377.036 269.447L378.997 268.333L387.912 274.889L381.047 262.807L382.925 261.74ZM355.367 277.123L359.366 280.371L366.127 276.529L365.407 271.473L367.488 271.201L369.774 288.535L367.604 289.768L353.967 278.884L355.367 277.123ZM366.449 278.555L360.961 281.673L367.679 287.131L366.449 278.555ZM350.01 280.442L357.314 293.296L361.8 290.747L362.796 292.5L351.841 298.725L350.845 296.972L355.332 294.423L348.028 281.569L350.01 280.442ZM341.457 285.303L349.756 299.909L347.774 301.036L344.229 294.797L337.03 298.887L340.575 305.126L338.593 306.253L330.293 291.646L332.275 290.52L336.057 297.176L343.256 293.086L339.474 286.429L341.457 285.303ZM317.467 298.934L324.771 311.788L329.257 309.238L330.253 310.991L319.298 317.216L318.302 315.463L322.789 312.914L315.485 300.06L317.467 298.934ZM308.913 303.794L317.213 318.401L308.449 323.381L307.477 321.67L314.259 317.816L311.733 313.371L305.89 316.691L304.942 315.022L310.785 311.702L307.903 306.632L301.122 310.485L300.149 308.774L308.913 303.794ZM293.566 312.184C294.581 311.607 295.582 311.213 296.566 311.003C297.559 310.807 298.467 310.77 299.291 310.891L299.237 313.129C298.5 312.996 297.742 312.976 296.966 313.067C296.19 313.158 295.385 313.441 294.55 313.915C293.548 314.485 292.874 315.144 292.527 315.893C292.18 316.642 292.208 317.372 292.611 318.081C292.84 318.485 293.125 318.792 293.466 319.003C293.815 319.228 294.316 319.349 294.968 319.364C295.615 319.401 296.504 319.329 297.633 319.147C298.856 318.968 299.877 318.903 300.697 318.952C301.524 319.016 302.212 319.223 302.761 319.574C303.304 319.946 303.773 320.48 304.168 321.176C304.564 321.871 304.732 322.604 304.672 323.374C304.607 324.165 304.3 324.938 303.753 325.69C303.199 326.465 302.394 327.153 301.336 327.753C300.474 328.244 299.65 328.592 298.866 328.798C298.076 329.027 297.263 329.166 296.427 329.218L296.197 327.113C296.828 327.122 297.515 327.036 298.257 326.853C298.994 326.692 299.71 326.414 300.406 326.019C301.324 325.497 301.945 324.905 302.268 324.243C302.591 323.581 302.59 322.965 302.266 322.394C302.061 322.033 301.802 321.756 301.491 321.565C301.18 321.374 300.727 321.272 300.132 321.261C299.522 321.258 298.671 321.346 297.577 321.526C296.263 321.739 295.166 321.801 294.287 321.711C293.394 321.63 292.665 321.4 292.101 321.021C291.544 320.657 291.076 320.141 290.696 319.473C290.183 318.569 289.973 317.666 290.069 316.765C290.15 315.872 290.5 315.03 291.117 314.238C291.72 313.453 292.536 312.768 293.566 312.184ZM282.662 318.71L289.966 331.564L294.452 329.015L295.448 330.768L284.493 336.993L283.497 335.24L287.984 332.691L280.68 319.837L282.662 318.71Z" fill="black"/>
<path d="M402.212 211.959C403.132 212.511 403.949 213.114 404.661 213.765C405.378 214.424 405.98 215.182 406.467 216.04C406.992 216.964 407.348 217.892 407.535 218.822C407.718 219.765 407.805 220.752 407.795 221.785L407.018 221.786C406.939 221.01 406.781 220.18 406.543 219.298C406.303 218.427 405.926 217.541 405.414 216.639C404.905 215.744 404.339 214.97 403.714 214.318C403.081 213.67 402.448 213.106 401.813 212.625L402.212 211.959ZM398.3 215.81C398.861 215.491 399.404 215.309 399.927 215.266C400.451 215.223 400.919 215.299 401.333 215.495C401.744 215.701 402.063 216.004 402.29 216.403C402.563 216.884 402.671 217.375 402.614 217.877C402.549 218.383 402.306 218.918 401.882 219.481C402.396 219.473 402.84 219.549 403.214 219.708C403.585 219.878 403.89 220.175 404.129 220.596C404.344 220.973 404.431 221.359 404.391 221.753C404.355 222.155 404.213 222.534 403.966 222.89C403.711 223.25 403.372 223.55 402.951 223.789C402.492 224.05 402.041 224.194 401.597 224.221C401.157 224.256 400.759 224.184 400.403 224.004C400.039 223.83 399.757 223.565 399.555 223.21C399.299 222.759 399.206 222.328 399.275 221.916C399.345 221.505 399.517 221.094 399.792 220.684C399.115 220.765 398.533 220.714 398.048 220.531C397.566 220.354 397.189 220.026 396.916 219.545C396.663 219.102 396.555 218.645 396.591 218.174C396.632 217.711 396.799 217.274 397.093 216.862C397.387 216.451 397.789 216.1 398.3 215.81ZM400.91 220.533C400.647 220.829 400.463 221.158 400.357 221.522C400.243 221.89 400.279 222.236 400.463 222.562C400.657 222.902 400.946 223.109 401.331 223.184C401.715 223.259 402.1 223.187 402.484 222.968C402.862 222.754 403.115 222.478 403.246 222.14C403.381 221.809 403.358 221.484 403.177 221.166C402.996 220.849 402.703 220.634 402.297 220.522C401.884 220.414 401.422 220.418 400.91 220.533ZM398.793 216.703C398.319 216.972 398.001 217.315 397.836 217.731C397.676 218.155 397.705 218.559 397.923 218.943C398.125 219.298 398.465 219.526 398.942 219.626C399.412 219.731 399.981 219.725 400.649 219.61C400.893 219.384 401.096 219.131 401.26 218.852C401.425 218.573 401.522 218.288 401.552 217.997C401.582 217.705 401.522 217.427 401.37 217.161C401.215 216.887 401 216.681 400.726 216.544C400.445 216.41 400.136 216.356 399.798 216.382C399.46 216.407 399.125 216.514 398.793 216.703ZM387.046 222.249L390.354 223.552L390.918 220.078L391.981 220.295L391.284 223.846L394.556 225.009L394.164 226.126L391.068 224.834L390.601 228.092L389.499 227.882L390.144 224.552L386.657 223.32L387.046 222.249ZM379.964 226.228C380.445 225.955 380.898 225.781 381.325 225.705C381.755 225.636 382.149 225.623 382.505 225.665L382.523 226.755C382.228 226.717 381.91 226.717 381.569 226.754C381.228 226.791 380.862 226.921 380.47 227.144C379.982 227.421 379.671 227.769 379.537 228.188C379.396 228.61 379.434 229.014 379.653 229.398C379.808 229.672 380.023 229.878 380.297 230.015C380.575 230.16 380.909 230.215 381.3 230.179C381.682 230.147 382.118 229.993 382.606 229.716L383.227 229.363L383.687 230.172L383.11 230.5C382.674 230.748 382.353 231.018 382.148 231.311C381.935 231.608 381.82 231.903 381.801 232.198C381.782 232.492 381.84 232.757 381.975 232.994C382.172 233.341 382.465 233.547 382.853 233.61C383.233 233.677 383.616 233.602 384 233.383C384.348 233.186 384.625 232.95 384.831 232.676C385.034 232.414 385.181 232.165 385.271 231.928L386.129 232.482C385.991 232.756 385.789 233.062 385.521 233.4C385.257 233.745 384.893 234.05 384.427 234.315C383.939 234.592 383.475 234.738 383.034 234.754C382.593 234.77 382.199 234.681 381.854 234.486C381.505 234.302 381.234 234.041 381.041 233.7C380.793 233.264 380.696 232.835 380.75 232.413C380.796 231.996 380.964 231.578 381.254 231.158C380.688 231.246 380.176 231.189 379.72 230.989C379.261 230.8 378.901 230.476 378.64 230.018C378.422 229.633 378.308 229.209 378.298 228.745C378.286 228.292 378.412 227.844 378.678 227.399C378.937 226.959 379.365 226.569 379.964 226.228ZM374.256 227.843L375.033 227.842C375.113 228.637 375.274 229.471 375.514 230.341C375.755 231.212 376.129 232.095 376.637 232.99C377.15 233.892 377.719 234.669 378.344 235.321C378.973 235.981 379.604 236.541 380.238 237.003L379.84 237.67C378.94 237.154 378.136 236.574 377.428 235.93C376.724 235.293 376.109 234.512 375.584 233.588C375.096 232.731 374.753 231.825 374.554 230.872C374.359 229.927 374.26 228.917 374.256 227.843ZM369.305 239.518C369.505 239.405 369.72 239.38 369.952 239.444C370.184 239.507 370.357 239.639 370.47 239.839C370.601 240.068 370.637 240.287 370.58 240.496C370.522 240.704 370.379 240.874 370.15 241.004C369.957 241.113 369.745 241.136 369.513 241.072C369.274 241.013 369.098 240.883 368.984 240.683C368.858 240.461 368.826 240.24 368.886 240.02C368.951 239.807 369.091 239.64 369.305 239.518ZM370.074 236.455L370.59 237.365L366.819 239.507L366.303 238.598L370.074 236.455ZM366.721 234.971C366.921 234.857 367.137 234.833 367.369 234.896C367.601 234.96 367.773 235.092 367.887 235.292C368.017 235.521 368.053 235.74 367.996 235.949C367.938 236.157 367.795 236.327 367.566 236.457C367.374 236.566 367.161 236.589 366.93 236.525C366.69 236.465 366.514 236.336 366.4 236.136C366.274 235.914 366.242 235.693 366.302 235.473C366.367 235.26 366.507 235.093 366.721 234.971ZM355.611 240.242L356.55 241.895L359.866 240.01L360.32 240.809L361.065 247.516L359.992 247.642L359.296 241.537L357.067 242.804L358.321 245.011L357.323 245.578L356.069 243.371L355.148 243.894L354.631 242.985L355.552 242.462L354.613 240.809L355.611 240.242ZM351.009 248.652L351.507 249.529L347.137 252.012L346.639 251.135L351.009 248.652ZM349.862 246.634L350.36 247.51L345.99 249.993L345.492 249.117L349.862 246.634ZM336.24 251.073C336.705 250.808 337.203 250.677 337.733 250.68C338.259 250.694 338.779 250.877 339.293 251.231C339.807 251.584 340.276 252.135 340.7 252.881C341.057 253.51 341.312 254.148 341.465 254.795C341.614 255.453 341.644 256.091 341.555 256.709C341.458 257.331 341.232 257.905 340.875 258.431C340.518 258.956 340.011 259.406 339.353 259.78C339.286 259.817 339.214 259.854 339.136 259.888C339.054 259.935 338.982 259.971 338.919 259.997L338.402 259.088C338.465 259.061 338.534 259.027 338.608 258.985C338.686 258.951 338.758 258.914 338.825 258.877C339.631 258.419 340.156 257.793 340.399 256.999C340.639 256.217 340.575 255.364 340.206 254.439C340.112 254.756 339.949 255.088 339.716 255.436C339.488 255.791 339.166 256.086 338.752 256.321C338.338 256.556 337.914 256.67 337.479 256.663C337.045 256.656 336.636 256.531 336.254 256.288C335.868 256.057 335.541 255.705 335.272 255.232C334.966 254.692 334.806 254.152 334.792 253.612C334.775 253.084 334.891 252.598 335.137 252.154C335.384 251.711 335.752 251.35 336.24 251.073ZM336.712 252.008C336.268 252.26 336.006 252.624 335.925 253.101C335.836 253.582 335.928 254.062 336.201 254.543C336.474 255.023 336.824 255.338 337.251 255.487C337.678 255.635 338.106 255.588 338.535 255.344C338.852 255.164 339.112 254.914 339.312 254.595C339.512 254.276 339.649 253.924 339.724 253.539L339.585 253.295C339.176 252.608 338.708 252.155 338.182 251.935C337.653 251.727 337.163 251.752 336.712 252.008Z" fill="black"/>
<path d="M255.893 168.581C256.814 169.134 257.63 169.736 258.343 170.387C259.06 171.046 259.662 171.804 260.149 172.662C260.674 173.586 261.03 174.514 261.217 175.445C261.4 176.387 261.487 177.375 261.477 178.407L260.7 178.408C260.621 177.632 260.462 176.802 260.225 175.92C259.985 175.049 259.608 174.163 259.095 173.261C258.587 172.366 258.02 171.593 257.395 170.94C256.763 170.292 256.13 169.728 255.495 169.248L255.893 168.581ZM253.843 171.551L254.347 172.438L252.761 173.339L255.943 178.94L256.793 176.975L257.759 177.41L256.402 180.367L255.67 180.783L251.763 173.906L250.443 174.656L249.939 173.769L253.843 171.551ZM240.728 178.871L244.036 180.175L244.6 176.7L245.662 176.918L244.966 180.468L248.238 181.631L247.846 182.749L244.75 181.456L244.283 184.715L243.18 184.505L243.826 181.174L240.339 179.943L240.728 178.871ZM235.618 181.906C235.716 182.027 235.805 182.157 235.885 182.298C236.158 182.778 236.32 183.253 236.372 183.723C236.42 184.204 236.399 184.675 236.31 185.137C236.224 185.606 236.109 186.058 235.965 186.492C235.817 186.938 235.683 187.356 235.563 187.747C235.439 188.15 235.364 188.525 235.337 188.873C235.31 189.221 235.374 189.532 235.529 189.806C235.706 190.116 235.965 190.306 236.308 190.376C236.655 190.452 237.009 190.388 237.372 190.182C237.682 190.006 237.931 189.781 238.119 189.508C238.303 189.247 238.447 188.95 238.551 188.617L239.49 188.978C239.346 189.413 239.142 189.812 238.88 190.176C238.61 190.545 238.238 190.863 237.765 191.132C237.329 191.38 236.9 191.512 236.478 191.526C236.06 191.549 235.68 191.466 235.339 191.278C234.99 191.095 234.715 190.826 234.514 190.471C234.312 190.116 234.203 189.743 234.186 189.352C234.169 188.96 234.206 188.562 234.299 188.157C234.392 187.753 234.507 187.345 234.646 186.934C234.788 186.53 234.915 186.125 235.027 185.719C235.138 185.314 235.207 184.918 235.232 184.532C235.25 184.15 235.188 183.784 235.048 183.433L231.632 185.374L231.115 184.465L235.618 181.906ZM227.938 184.466L228.715 184.464C228.795 185.26 228.955 186.093 229.196 186.964C229.436 187.835 229.811 188.717 230.319 189.612C230.832 190.514 231.401 191.291 232.025 191.943C232.655 192.603 233.286 193.164 233.92 193.625L233.521 194.292C232.622 193.776 231.818 193.196 231.11 192.552C230.405 191.915 229.791 191.135 229.266 190.211C228.778 189.353 228.435 188.448 228.236 187.495C228.041 186.549 227.942 185.539 227.938 184.466ZM223.748 186.846C224.668 187.399 225.485 188.001 226.197 188.653C226.914 189.312 227.516 190.07 228.003 190.928C228.529 191.852 228.884 192.779 229.071 193.71C229.254 194.653 229.341 195.64 229.331 196.673L228.554 196.674C228.475 195.898 228.317 195.068 228.079 194.186C227.839 193.315 227.462 192.428 226.95 191.526C226.441 190.632 225.875 189.858 225.25 189.206C224.617 188.558 223.984 187.994 223.349 187.513L223.748 186.846ZM220.224 190.477C220.675 190.221 221.09 190.048 221.47 189.96C221.854 189.878 222.232 189.855 222.603 189.888L222.567 191.038C222.276 191.008 221.976 191.013 221.665 191.052C221.359 191.099 221.047 191.212 220.73 191.393C220.234 191.674 219.915 192.042 219.771 192.495C219.632 192.956 219.688 193.408 219.94 193.851C220.201 194.31 220.572 194.593 221.054 194.701C221.532 194.82 222.064 194.714 222.648 194.382L224.023 193.6L226.241 197.504L222.404 199.685L221.893 198.786L224.788 197.141L223.591 195.034L223.036 195.349C222.46 195.677 221.911 195.857 221.391 195.888C220.864 195.924 220.392 195.825 219.976 195.592C219.552 195.363 219.21 195.019 218.95 194.561C218.668 194.066 218.533 193.561 218.544 193.046C218.551 192.543 218.695 192.065 218.976 191.612C219.261 191.166 219.677 190.788 220.224 190.477ZM211.346 197.767L212.373 199.574L214.07 198.61L214.562 199.475L212.865 200.439L213.892 202.247L212.949 202.783L211.922 200.975L210.236 201.933L209.745 201.068L211.431 200.11L210.403 198.302L211.346 197.767ZM199.885 202.034C200.447 201.715 200.99 201.533 201.513 201.49C202.037 201.447 202.505 201.523 202.919 201.718C203.33 201.925 203.649 202.228 203.876 202.627C204.149 203.108 204.257 203.599 204.2 204.101C204.135 204.607 203.891 205.142 203.468 205.705C203.982 205.697 204.426 205.772 204.8 205.932C205.171 206.102 205.476 206.398 205.715 206.82C205.93 207.197 206.017 207.583 205.977 207.977C205.941 208.379 205.799 208.758 205.552 209.114C205.296 209.474 204.958 209.774 204.537 210.013C204.078 210.274 203.627 210.417 203.183 210.445C202.743 210.48 202.345 210.407 201.989 210.228C201.625 210.053 201.343 209.789 201.141 209.434C200.885 208.983 200.792 208.551 200.861 208.14C200.931 207.729 201.103 207.318 201.378 206.907C200.701 206.989 200.119 206.938 199.633 206.754C199.152 206.578 198.775 206.25 198.501 205.769C198.249 205.326 198.141 204.869 198.177 204.398C198.217 203.935 198.385 203.498 198.679 203.086C198.973 202.674 199.375 202.324 199.885 202.034ZM202.496 206.757C202.233 207.052 202.049 207.382 201.943 207.746C201.829 208.114 201.864 208.46 202.049 208.786C202.243 209.126 202.532 209.333 202.916 209.408C203.301 209.483 203.686 209.411 204.07 209.192C204.447 208.978 204.701 208.702 204.832 208.364C204.967 208.033 204.944 207.708 204.763 207.39C204.582 207.072 204.289 206.858 203.883 206.746C203.47 206.638 203.008 206.642 202.496 206.757ZM200.379 202.927C199.905 203.196 199.586 203.539 199.422 203.955C199.262 204.379 199.291 204.783 199.509 205.167C199.711 205.522 200.05 205.75 200.528 205.85C200.998 205.955 201.567 205.949 202.235 205.834C202.478 205.607 202.682 205.355 202.846 205.076C203.01 204.797 203.108 204.511 203.138 204.22C203.168 203.929 203.108 203.651 202.956 203.385C202.801 203.111 202.586 202.905 202.312 202.768C202.031 202.634 201.722 202.58 201.384 202.605C201.046 202.631 200.711 202.738 200.379 202.927ZM194.687 203.359L195.464 203.358C195.545 204.153 195.705 204.986 195.946 205.857C196.186 206.728 196.56 207.611 197.069 208.505C197.581 209.407 198.15 210.184 198.775 210.837C199.404 211.496 200.036 212.057 200.67 212.518L200.271 213.185C199.371 212.669 198.567 212.089 197.859 211.445C197.155 210.809 196.54 210.028 196.015 209.104C195.528 208.246 195.185 207.341 194.985 206.388C194.791 205.442 194.691 204.433 194.687 203.359ZM191.39 212.832L191.888 213.708L187.519 216.191L187.021 215.315L191.39 212.832ZM190.244 210.814L190.741 211.69L186.372 214.173L185.874 213.296L190.244 210.814ZM179.092 214.025C179.19 214.145 179.279 214.276 179.359 214.416C179.632 214.897 179.794 215.372 179.846 215.841C179.894 216.322 179.874 216.794 179.784 217.256C179.698 217.725 179.583 218.177 179.439 218.611C179.291 219.057 179.157 219.475 179.037 219.866C178.914 220.269 178.839 220.644 178.811 220.992C178.784 221.34 178.848 221.651 179.004 221.924C179.18 222.235 179.44 222.425 179.782 222.494C180.129 222.571 180.484 222.507 180.846 222.301C181.157 222.124 181.406 221.9 181.593 221.627C181.777 221.366 181.921 221.069 182.025 220.736L182.964 221.097C182.82 221.531 182.616 221.931 182.354 222.295C182.084 222.663 181.712 222.982 181.239 223.251C180.803 223.499 180.374 223.63 179.952 223.645C179.534 223.667 179.155 223.584 178.813 223.397C178.465 223.214 178.19 222.945 177.988 222.59C177.786 222.235 177.677 221.862 177.66 221.47C177.643 221.079 177.681 220.681 177.774 220.276C177.866 219.871 177.982 219.463 178.12 219.052C178.262 218.648 178.389 218.244 178.501 217.838C178.613 217.432 178.681 217.036 178.706 216.65C178.724 216.268 178.663 215.902 178.522 215.552L175.106 217.493L174.59 216.583L179.092 214.025ZM169.971 219.031C170.437 218.767 170.935 218.636 171.464 218.638C171.99 218.652 172.511 218.836 173.024 219.189C173.538 219.543 174.007 220.093 174.432 220.84C174.789 221.468 175.044 222.106 175.196 222.753C175.345 223.411 175.375 224.05 175.286 224.668C175.19 225.29 174.963 225.863 174.607 226.389C174.25 226.914 173.742 227.364 173.084 227.738C173.018 227.776 172.946 227.812 172.867 227.847C172.786 227.893 172.714 227.929 172.65 227.955L172.134 227.046C172.197 227.02 172.266 226.985 172.34 226.943C172.418 226.909 172.49 226.873 172.557 226.835C173.362 226.377 173.887 225.751 174.131 224.957C174.371 224.175 174.307 223.322 173.938 222.397C173.844 222.714 173.681 223.047 173.448 223.394C173.219 223.749 172.898 224.044 172.484 224.279C172.07 224.515 171.645 224.629 171.211 224.621C170.776 224.614 170.368 224.489 169.985 224.246C169.6 224.016 169.273 223.664 169.004 223.19C168.697 222.651 168.537 222.111 168.524 221.571C168.507 221.042 168.622 220.556 168.869 220.113C169.116 219.669 169.483 219.309 169.971 219.031ZM170.444 219.966C170 220.218 169.737 220.583 169.656 221.059C169.567 221.54 169.66 222.021 169.933 222.501C170.206 222.982 170.556 223.296 170.983 223.445C171.409 223.594 171.837 223.546 172.266 223.303C172.584 223.122 172.843 222.872 173.043 222.553C173.243 222.234 173.381 221.882 173.456 221.497L173.317 221.253C172.907 220.566 172.439 220.113 171.914 219.894C171.385 219.686 170.895 219.71 170.444 219.966Z" fill="black"/>
<path d="M185.621 84.5204C186.087 84.2557 186.585 84.1245 187.114 84.1269C187.64 84.1408 188.161 84.3246 188.674 84.6781C189.188 85.0317 189.657 85.5818 190.082 86.3286C190.439 86.9571 190.694 87.5948 190.846 88.2417C190.995 88.9003 191.025 89.5385 190.936 90.1564C190.84 90.7785 190.613 91.3523 190.257 91.8778C189.9 92.4033 189.392 92.853 188.734 93.2269C188.668 93.2647 188.595 93.3009 188.517 93.3355C188.436 93.3817 188.364 93.4179 188.3 93.4442L187.784 92.5347C187.847 92.5085 187.916 92.4744 187.989 92.4324C188.068 92.3978 188.14 92.3615 188.206 92.3237C189.012 91.8658 189.537 91.24 189.781 90.4463C190.021 89.6642 189.956 88.8107 189.587 87.8859C189.494 88.2031 189.331 88.5355 189.098 88.883C188.869 89.2379 188.548 89.533 188.134 89.7683C187.72 90.0036 187.295 90.1175 186.861 90.1101C186.426 90.1027 186.018 89.9778 185.635 89.7353C185.25 89.5045 184.923 89.1524 184.654 88.6792C184.347 88.1395 184.187 87.5995 184.174 87.0595C184.157 86.531 184.272 86.045 184.519 85.6015C184.766 85.158 185.133 84.7977 185.621 84.5204ZM186.094 85.455C185.65 85.7071 185.387 86.0714 185.306 86.548C185.217 87.0288 185.31 87.5095 185.583 87.99C185.856 88.4706 186.206 88.7853 186.633 88.934C187.059 89.0827 187.487 89.0352 187.916 88.7916C188.234 88.6109 188.493 88.361 188.693 88.0419C188.893 87.7228 189.031 87.3708 189.105 86.986L188.967 86.742C188.557 86.0554 188.089 85.6023 187.564 85.3826C187.035 85.1746 186.545 85.1987 186.094 85.455ZM178.235 91.1819L179.186 91.4342L178.533 93.7711L180.881 94.4176L180.617 95.3742L178.274 94.7103L177.645 97.0631L176.688 96.7997L177.335 94.4517L174.993 93.8163L175.263 92.8708L177.594 93.5125L178.235 91.1819ZM165.092 96.3613L166.031 98.0138L169.347 96.1295L169.801 96.928L170.546 103.635L169.473 103.761L168.777 97.6565L166.548 98.9232L167.802 101.13L166.804 101.697L165.55 99.4904L164.629 100.013L164.112 99.104L165.033 98.5809L164.094 96.9284L165.092 96.3613ZM160.49 104.772L160.988 105.648L156.618 108.131L156.12 107.255L160.49 104.772ZM159.343 102.753L159.841 103.629L155.471 106.112L154.973 105.236L159.343 102.753ZM148.192 105.964C148.29 106.085 148.378 106.215 148.458 106.356C148.731 106.836 148.894 107.311 148.945 107.781C148.994 108.262 148.973 108.733 148.883 109.195C148.798 109.664 148.683 110.116 148.538 110.55C148.391 110.996 148.257 111.415 148.137 111.806C148.013 112.208 147.938 112.584 147.911 112.932C147.884 113.28 147.948 113.59 148.103 113.864C148.28 114.174 148.539 114.364 148.882 114.434C149.229 114.511 149.583 114.446 149.945 114.24C150.256 114.064 150.505 113.839 150.692 113.566C150.876 113.305 151.021 113.008 151.125 112.675L152.064 113.037C151.919 113.471 151.716 113.87 151.453 114.234C151.183 114.603 150.812 114.922 150.339 115.19C149.902 115.438 149.473 115.57 149.051 115.584C148.634 115.607 148.254 115.524 147.913 115.336C147.564 115.153 147.289 114.884 147.087 114.529C146.886 114.174 146.776 113.801 146.759 113.41C146.742 113.018 146.78 112.62 146.873 112.215C146.966 111.811 147.081 111.403 147.219 110.992C147.362 110.588 147.489 110.183 147.6 109.777C147.712 109.372 147.781 108.976 147.806 108.59C147.824 108.208 147.762 107.842 147.622 107.491L144.206 109.432L143.689 108.523L148.192 105.964ZM138.492 111.476L139.431 113.128L142.747 111.244L143.201 112.043L143.945 118.75L142.872 118.875L142.177 112.771L139.948 114.038L141.202 116.245L140.204 116.812L138.949 114.605L138.029 115.128L137.512 114.219L138.433 113.696L137.494 112.043L138.492 111.476Z" fill="black"/>
<path d="M225.651 125.038L226.155 125.925L224.569 126.826L227.751 132.427L228.601 130.463L229.567 130.897L228.21 133.854L227.478 134.27L223.571 127.394L222.251 128.144L221.747 127.256L225.651 125.038ZM217.14 129.698C217.701 129.379 218.244 129.198 218.767 129.155C219.291 129.112 219.759 129.188 220.173 129.383C220.584 129.589 220.903 129.892 221.13 130.292C221.403 130.772 221.511 131.264 221.454 131.766C221.389 132.272 221.145 132.806 220.722 133.37C221.236 133.361 221.68 133.437 222.054 133.596C222.425 133.767 222.73 134.063 222.969 134.484C223.184 134.861 223.271 135.247 223.231 135.642C223.195 136.043 223.053 136.422 222.806 136.778C222.551 137.138 222.212 137.438 221.791 137.677C221.332 137.938 220.881 138.082 220.437 138.109C219.997 138.144 219.599 138.072 219.243 137.893C218.879 137.718 218.597 137.453 218.395 137.098C218.139 136.647 218.046 136.216 218.115 135.805C218.185 135.394 218.357 134.983 218.632 134.572C217.955 134.654 217.373 134.603 216.888 134.419C216.406 134.243 216.029 133.914 215.756 133.434C215.503 132.99 215.395 132.533 215.431 132.063C215.471 131.6 215.639 131.162 215.933 130.751C216.227 130.339 216.629 129.988 217.14 129.698ZM219.75 134.421C219.487 134.717 219.303 135.047 219.197 135.41C219.083 135.778 219.119 136.125 219.303 136.45C219.497 136.79 219.786 136.998 220.171 137.072C220.555 137.147 220.94 137.075 221.324 136.857C221.702 136.642 221.955 136.366 222.086 136.028C222.221 135.697 222.198 135.373 222.017 135.055C221.836 134.737 221.543 134.522 221.137 134.41C220.724 134.303 220.262 134.306 219.75 134.421ZM217.633 130.592C217.159 130.861 216.841 131.203 216.676 131.619C216.516 132.043 216.545 132.447 216.763 132.832C216.965 133.187 217.305 133.414 217.782 133.514C218.252 133.619 218.821 133.613 219.489 133.498C219.733 133.272 219.936 133.019 220.1 132.74C220.265 132.461 220.362 132.176 220.392 131.885C220.422 131.594 220.362 131.315 220.21 131.049C220.055 130.775 219.84 130.57 219.566 130.432C219.285 130.298 218.976 130.244 218.638 130.27C218.3 130.295 217.965 130.403 217.633 130.592ZM210.316 140.809C210.515 140.695 210.731 140.67 210.963 140.734C211.195 140.798 211.367 140.93 211.481 141.13C211.611 141.359 211.648 141.578 211.59 141.786C211.533 141.995 211.389 142.165 211.16 142.295C210.968 142.404 210.756 142.427 210.524 142.363C210.285 142.303 210.108 142.174 209.995 141.974C209.869 141.752 209.836 141.531 209.897 141.311C209.962 141.098 210.101 140.931 210.316 140.809ZM211.084 137.746L211.601 138.655L207.83 140.798L207.313 139.888L211.084 137.746ZM207.732 136.262C207.931 136.148 208.147 136.123 208.379 136.187C208.611 136.251 208.784 136.383 208.897 136.582C209.027 136.812 209.064 137.031 209.006 137.239C208.949 137.448 208.805 137.617 208.576 137.748C208.384 137.857 208.172 137.88 207.94 137.816C207.701 137.756 207.524 137.626 207.411 137.427C207.285 137.205 207.252 136.984 207.313 136.764C207.378 136.551 207.517 136.383 207.732 136.262ZM199.672 139.8C199.769 139.92 199.858 140.051 199.938 140.191C200.211 140.672 200.373 141.147 200.425 141.616C200.473 142.097 200.453 142.569 200.363 143.031C200.278 143.5 200.163 143.952 200.018 144.386C199.87 144.832 199.736 145.25 199.616 145.641C199.493 146.044 199.418 146.419 199.39 146.767C199.363 147.115 199.427 147.426 199.583 147.699C199.759 148.01 200.019 148.2 200.361 148.269C200.708 148.346 201.063 148.282 201.425 148.076C201.736 147.899 201.985 147.675 202.172 147.402C202.356 147.141 202.5 146.844 202.605 146.511L203.543 146.872C203.399 147.306 203.195 147.706 202.933 148.07C202.663 148.438 202.292 148.757 201.818 149.026C201.382 149.274 200.953 149.405 200.531 149.42C200.113 149.442 199.734 149.36 199.393 149.172C199.044 148.989 198.769 148.72 198.567 148.365C198.365 148.01 198.256 147.637 198.239 147.245C198.222 146.854 198.26 146.456 198.353 146.051C198.445 145.646 198.561 145.238 198.699 144.827C198.841 144.424 198.968 144.019 199.08 143.613C199.192 143.207 199.26 142.811 199.285 142.425C199.303 142.043 199.242 141.677 199.101 141.327L195.686 143.268L195.169 142.358L199.672 139.8ZM188.7 148.103L189.727 149.911L191.424 148.946L191.915 149.812L190.218 150.776L191.246 152.584L190.303 153.119L189.276 151.311L187.59 152.269L187.098 151.404L188.784 150.446L187.757 148.639L188.7 148.103ZM178.535 151.81C179.018 152.66 179.391 153.446 179.654 154.167C179.914 154.9 180.088 155.593 180.176 156.247C180.256 156.906 180.262 157.553 180.193 158.189C180.124 158.825 180.001 159.477 179.823 160.145L183.56 158.021L184.077 158.931L179.153 161.729L178.699 160.93C178.928 160.145 179.078 159.419 179.149 158.753C179.225 158.094 179.217 157.443 179.125 156.8C179.038 156.165 178.852 155.493 178.567 154.785C178.286 154.084 177.902 153.304 177.414 152.447L178.535 151.81ZM172.069 161.279L172.567 162.155L168.197 164.638L167.699 163.762L172.069 161.279ZM170.922 159.261L171.42 160.137L167.05 162.62L166.552 161.744L170.922 159.261ZM159.15 162.825L159.654 163.712L158.068 164.613L161.251 170.214L162.1 168.249L163.066 168.684L161.709 171.641L160.977 172.056L157.07 165.18L155.75 165.93L155.246 165.043L159.15 162.825ZM150.65 167.479C151.116 167.214 151.613 167.083 152.143 167.085C152.669 167.099 153.189 167.283 153.703 167.636C154.217 167.99 154.686 168.54 155.11 169.287C155.468 169.915 155.722 170.553 155.875 171.2C156.024 171.858 156.054 172.497 155.965 173.115C155.869 173.737 155.642 174.31 155.285 174.836C154.928 175.361 154.421 175.811 153.763 176.185C153.696 176.223 153.624 176.259 153.546 176.294C153.465 176.34 153.392 176.376 153.329 176.402L152.812 175.493C152.876 175.467 152.944 175.433 153.018 175.391C153.096 175.356 153.169 175.32 153.235 175.282C154.041 174.824 154.566 174.198 154.809 173.404C155.05 172.622 154.985 171.769 154.616 170.844C154.523 171.161 154.359 171.494 154.126 171.841C153.898 172.196 153.576 172.491 153.162 172.726C152.748 172.962 152.324 173.076 151.889 173.068C151.455 173.061 151.046 172.936 150.664 172.693C150.279 172.463 149.951 172.111 149.683 171.637C149.376 171.098 149.216 170.558 149.202 170.018C149.186 169.489 149.301 169.003 149.548 168.56C149.794 168.116 150.162 167.756 150.65 167.479ZM151.122 168.413C150.679 168.665 150.416 169.03 150.335 169.506C150.246 169.987 150.338 170.468 150.611 170.948C150.884 171.429 151.234 171.743 151.661 171.892C152.088 172.041 152.516 171.993 152.945 171.75C153.263 171.569 153.522 171.319 153.722 171C153.922 170.681 154.059 170.329 154.134 169.944L153.996 169.7C153.586 169.014 153.118 168.56 152.592 168.341C152.063 168.133 151.573 168.157 151.122 168.413Z" fill="black"/>
<path d="M289.618 25.3902C289.715 25.5107 289.804 25.6412 289.884 25.7817C290.157 26.2623 290.319 26.7373 290.371 27.2069C290.419 27.688 290.399 28.1594 290.309 28.6212C290.224 29.0904 290.109 29.5421 289.964 29.9763C289.816 30.4221 289.682 30.8405 289.562 31.2316C289.439 31.6342 289.364 32.0095 289.336 32.3576C289.309 32.7056 289.373 33.0164 289.529 33.2899C289.705 33.6005 289.965 33.7904 290.307 33.8598C290.654 33.9366 291.009 33.8721 291.371 33.6662C291.682 33.4898 291.931 33.2652 292.118 32.9924C292.302 32.7313 292.446 32.4342 292.551 32.1011L293.489 32.4626C293.345 32.8968 293.141 33.2961 292.879 33.6604C292.609 34.0289 292.238 34.3476 291.764 34.6165C291.328 34.8644 290.899 34.9957 290.477 35.0105C290.059 35.0327 289.68 34.95 289.339 34.7625C288.99 34.5792 288.715 34.3101 288.513 33.9552C288.311 33.6003 288.202 33.2271 288.185 32.8357C288.168 32.4444 288.206 32.0463 288.299 31.6415C288.391 31.2366 288.507 30.8287 288.645 30.4177C288.787 30.014 288.914 29.6093 289.026 29.2035C289.138 28.7977 289.206 28.4017 289.231 28.0158C289.249 27.634 289.188 27.2678 289.047 26.9173L285.632 28.8582L285.115 27.9488L289.618 25.3902ZM280.873 30.1828C281.324 29.9265 281.74 29.754 282.12 29.6652C282.504 29.5839 282.882 29.56 283.253 29.5936L283.217 30.7438C282.926 30.7136 282.625 30.7181 282.315 30.7574C282.009 30.8041 281.697 30.9178 281.379 31.0985C280.884 31.38 280.564 31.7473 280.421 32.2005C280.281 32.6611 280.338 33.1133 280.59 33.5569C280.85 34.0153 281.221 34.2984 281.703 34.4061C282.182 34.5254 282.713 34.4191 283.297 34.0872L284.673 33.3057L286.891 37.2097L283.053 39.3901L282.543 38.4918L285.438 36.847L284.24 34.7397L283.686 35.0548C283.109 35.3825 282.561 35.5621 282.041 35.5935C281.513 35.6292 281.041 35.5305 280.625 35.2974C280.202 35.0685 279.86 34.7249 279.599 34.2665C279.318 33.7711 279.182 33.266 279.193 32.7513C279.201 32.2482 279.345 31.7702 279.625 31.3173C279.91 30.8718 280.326 30.4936 280.873 30.1828ZM274.43 38.451L274.946 39.3604L271.176 41.503L270.659 40.5936L274.43 38.451ZM261.831 41.1792C262.314 42.0295 262.687 42.8151 262.95 43.5362C263.21 44.2689 263.384 44.9623 263.472 45.6165C263.552 46.2749 263.558 46.922 263.489 47.5579C263.42 48.1938 263.297 48.8458 263.119 49.5142L266.856 47.3904L267.373 48.2999L262.449 51.0979L261.995 50.2994C262.224 49.5141 262.374 48.7882 262.445 48.1218C262.52 47.4627 262.513 46.8119 262.421 46.1693C262.334 45.5341 262.148 44.8622 261.863 44.1538C261.582 43.4527 261.198 42.6733 260.71 41.8157L261.831 41.1792ZM255.365 50.6482L255.863 51.5244L251.493 54.0073L250.995 53.1311L255.365 50.6482ZM254.218 48.6297L254.716 49.5059L250.346 51.9888L249.848 51.1126L254.218 48.6297ZM242.446 52.1938L242.95 53.081L241.364 53.9822L244.547 59.583L245.396 57.6184L246.362 58.0526L245.005 61.0096L244.273 61.4256L240.366 54.5493L239.046 55.2993L238.542 54.412L242.446 52.1938ZM233.935 56.8539C234.497 56.5346 235.039 56.3535 235.562 56.3104C236.086 56.2674 236.554 56.3434 236.968 56.5385C237.379 56.7452 237.698 57.0482 237.925 57.4474C238.198 57.928 238.306 58.4193 238.249 58.9213C238.185 59.4274 237.941 59.9621 237.517 60.5254C238.031 60.5172 238.475 60.5926 238.849 60.7517C239.22 60.9225 239.525 61.2185 239.765 61.64C239.979 62.0171 240.066 62.4028 240.026 62.7972C239.99 63.199 239.848 63.5779 239.601 63.9338C239.346 64.2939 239.007 64.5937 238.586 64.8332C238.128 65.0936 237.676 65.2376 237.232 65.265C236.792 65.2998 236.394 65.2276 236.038 65.0485C235.675 64.8736 235.392 64.6087 235.19 64.2538C234.934 63.8027 234.841 63.3716 234.91 62.9604C234.98 62.5492 235.152 62.1383 235.427 61.7276C234.75 61.8092 234.169 61.7583 233.683 61.5746C233.201 61.3983 232.824 61.0699 232.551 60.5893C232.299 60.1457 232.191 59.6887 232.226 59.2183C232.267 58.7554 232.434 58.318 232.728 57.9063C233.022 57.4946 233.424 57.1438 233.935 56.8539ZM236.545 61.5768C236.283 61.8726 236.098 62.2023 235.992 62.5659C235.878 62.9338 235.914 63.2803 236.099 63.6057C236.292 63.9458 236.581 64.1532 236.966 64.228C237.35 64.3028 237.735 64.2309 238.12 64.0125C238.497 63.7982 238.751 63.5219 238.881 63.1837C239.016 62.8528 238.993 62.5284 238.812 62.2104C238.632 61.8925 238.338 61.6777 237.933 61.5659C237.519 61.4584 237.057 61.462 236.545 61.5768ZM234.428 57.7475C233.955 58.0164 233.636 58.3589 233.471 58.7752C233.311 59.1988 233.34 59.6029 233.558 59.9874C233.76 60.3423 234.1 60.5699 234.577 60.6702C235.047 60.7747 235.617 60.7692 236.284 60.6537C236.528 60.4276 236.731 60.1749 236.895 59.8958C237.06 59.6167 237.157 59.3316 237.187 59.0405C237.217 58.7495 237.157 58.4708 237.006 58.2047C236.85 57.9311 236.635 57.7254 236.362 57.5876C236.08 57.454 235.771 57.4 235.433 57.4256C235.096 57.4511 234.76 57.5584 234.428 57.7475Z" fill="black"/>
<path d="M326.354 68.0279C326.452 68.1484 326.541 68.2789 326.621 68.4194C326.894 68.9 327.056 69.375 327.108 69.8445C327.156 70.3256 327.136 70.7971 327.046 71.2589C326.96 71.728 326.845 72.1797 326.701 72.614C326.553 73.0598 326.419 73.4782 326.299 73.8693C326.176 74.2719 326.1 74.6472 326.073 74.9952C326.046 75.3433 326.11 75.654 326.266 75.9276C326.442 76.2382 326.702 76.4281 327.044 76.4975C327.391 76.5743 327.746 76.5098 328.108 76.3039C328.419 76.1275 328.667 75.9029 328.855 75.6301C329.039 75.369 329.183 75.0719 329.287 74.7388L330.226 75.1002C330.082 75.5345 329.878 75.9337 329.616 76.2981C329.346 76.6666 328.974 76.9853 328.501 77.2542C328.065 77.502 327.636 77.6334 327.214 77.6482C326.796 77.6704 326.417 77.5877 326.075 77.4002C325.727 77.2169 325.451 76.9477 325.25 76.5928C325.048 76.2379 324.939 75.8648 324.922 75.4734C324.905 75.0821 324.943 74.684 325.036 74.2791C325.128 73.8743 325.244 73.4664 325.382 73.0554C325.524 72.6517 325.651 72.247 325.763 71.8412C325.875 71.4353 325.943 71.0394 325.968 70.6534C325.986 70.2716 325.925 69.9055 325.784 69.5549L322.368 71.4959L321.852 70.5865L326.354 68.0279ZM317.61 72.8204C318.061 72.5642 318.477 72.3916 318.857 72.3029C319.241 72.2216 319.618 72.1977 319.99 72.2313L319.954 73.3815C319.663 73.3512 319.362 73.3558 319.052 73.3951C318.746 73.4418 318.434 73.5555 318.116 73.7362C317.62 74.0176 317.301 74.385 317.158 74.8382C317.018 75.2988 317.075 75.7509 317.327 76.1946C317.587 76.653 317.958 76.936 318.44 77.0437C318.919 77.163 319.45 77.0567 320.034 76.7248L321.409 75.9434L323.628 79.8473L319.79 82.0278L319.28 81.1294L322.174 79.4846L320.977 77.3774L320.423 77.6925C319.846 78.0202 319.297 78.1998 318.777 78.2312C318.25 78.2669 317.778 78.1681 317.362 77.9351C316.939 77.7062 316.597 77.3626 316.336 76.9042C316.055 76.4088 315.919 75.9037 315.93 75.389C315.938 74.8859 316.082 74.4079 316.362 73.955C316.647 73.5095 317.063 73.1313 317.61 72.8204ZM310.398 84.1515C310.598 84.038 310.814 84.0133 311.045 84.0771C311.277 84.141 311.45 84.2727 311.563 84.4723C311.694 84.7015 311.73 84.9205 311.673 85.1292C311.615 85.3379 311.472 85.5074 311.243 85.6376C311.05 85.7469 310.838 85.7696 310.606 85.7057C310.367 85.6461 310.191 85.5164 310.077 85.3168C309.951 85.095 309.919 84.8739 309.979 84.6536C310.044 84.4407 310.184 84.2733 310.398 84.1515ZM311.167 81.0886L311.683 81.9981L307.912 84.1407L307.396 83.2313L311.167 81.0886ZM307.814 79.6043C308.014 79.4909 308.23 79.4661 308.462 79.5299C308.694 79.5938 308.866 79.7255 308.98 79.9252C309.11 80.1544 309.146 80.3733 309.089 80.582C309.031 80.7907 308.888 80.9602 308.659 81.0905C308.467 81.1997 308.254 81.2224 308.023 81.1585C307.783 81.0989 307.607 80.9692 307.493 80.7696C307.367 80.5478 307.335 80.3267 307.395 80.1064C307.46 79.8935 307.6 79.7261 307.814 79.6043ZM297.66 84.1564C298.111 83.9001 298.526 83.7276 298.906 83.6389C299.291 83.5575 299.668 83.5337 300.039 83.5673L300.003 84.7174C299.712 84.6872 299.412 84.6917 299.102 84.7311C298.796 84.7778 298.484 84.8915 298.166 85.0721C297.67 85.3536 297.351 85.721 297.207 86.1742C297.068 86.6348 297.124 87.0869 297.376 87.5305C297.637 87.989 298.008 88.272 298.49 88.3797C298.968 88.499 299.5 88.3927 300.084 88.0608L301.459 87.2794L303.677 91.1833L299.84 93.3638L299.33 92.4654L302.224 90.8206L301.027 88.7134L300.472 89.0285C299.896 89.3562 299.347 89.5358 298.827 89.5672C298.3 89.6028 297.828 89.5041 297.412 89.271C296.988 89.0422 296.646 88.6985 296.386 88.2401C296.104 87.7447 295.969 87.2397 295.98 86.725C295.987 86.2219 296.131 85.7439 296.412 85.291C296.697 84.8455 297.113 84.4673 297.66 84.1564ZM288.782 91.4456L289.809 93.2534L291.506 92.2892L291.998 93.1543L290.301 94.1185L291.328 95.9263L290.385 96.4619L289.358 94.6542L287.672 95.612L287.181 94.747L288.867 93.7891L287.839 91.9813L288.782 91.4456ZM277.333 95.7066C277.798 95.442 278.296 95.3108 278.826 95.3131C279.352 95.3271 279.872 95.5108 280.386 95.8644C280.9 96.2179 281.369 96.7681 281.793 97.5149C282.15 98.1433 282.405 98.781 282.558 99.428C282.707 100.087 282.737 100.725 282.648 101.343C282.551 101.965 282.325 102.539 281.968 103.064C281.611 103.59 281.104 104.039 280.446 104.413C280.379 104.451 280.307 104.487 280.229 104.522C280.148 104.568 280.075 104.604 280.012 104.63L279.495 103.721C279.558 103.695 279.627 103.661 279.701 103.619C279.779 103.584 279.851 103.548 279.918 103.51C280.724 103.052 281.249 102.426 281.492 101.633C281.732 100.851 281.668 99.997 281.299 99.0721C281.205 99.3894 281.042 99.7218 280.809 100.069C280.581 100.424 280.259 100.719 279.845 100.955C279.431 101.19 279.007 101.304 278.572 101.296C278.138 101.289 277.729 101.164 277.347 100.922C276.961 100.691 276.634 100.339 276.365 99.8655C276.059 99.3257 275.899 98.7858 275.885 98.2457C275.868 97.7172 275.984 97.2312 276.23 96.7878C276.477 96.3443 276.845 95.9839 277.333 95.7066ZM277.805 96.6413C277.361 96.8934 277.099 97.2577 277.018 97.7343C276.929 98.215 277.021 98.6957 277.294 99.1763C277.567 99.6569 277.917 99.9716 278.344 100.12C278.771 100.269 279.199 100.221 279.628 99.9778C279.945 99.7972 280.205 99.5473 280.405 99.2282C280.605 98.909 280.742 98.5571 280.817 98.1723L280.678 97.9283C280.269 97.2416 279.801 96.7885 279.275 96.5689C278.746 96.3609 278.256 96.385 277.805 96.6413ZM272.152 104.622L272.649 105.498L268.28 107.981L267.782 107.105L272.152 104.622ZM271.005 102.603L271.503 103.48L267.133 105.962L266.635 105.086L271.005 102.603ZM259.233 106.167L259.737 107.055L258.151 107.956L261.333 113.557L262.183 111.592L263.149 112.026L261.792 114.983L261.06 115.399L257.153 108.523L255.833 109.273L255.329 108.386L259.233 106.167ZM252.582 109.946L253.087 110.833L251.501 111.734L254.683 117.335L255.533 115.371L256.498 115.805L255.142 118.762L254.41 119.178L250.503 112.302L249.183 113.052L248.679 112.164L252.582 109.946Z" fill="black"/>
<path d="M349.086 117.22L349.59 118.108L348.004 119.009L351.187 124.61L352.036 122.645L353.002 123.079L351.645 126.036L350.913 126.452L347.006 119.576L345.686 120.326L345.182 119.439L349.086 117.22ZM340.641 121.843C341.506 121.351 342.364 121.328 343.214 121.775C344.068 122.228 344.857 123.091 345.58 124.362C346.306 125.642 346.638 126.759 346.575 127.714C346.504 128.674 346.039 129.398 345.182 129.885C344.317 130.377 343.459 130.399 342.609 129.953C341.759 129.507 340.97 128.644 340.243 127.365C339.517 126.086 339.189 124.967 339.26 124.007C339.323 123.051 339.784 122.33 340.641 121.843ZM341.147 122.758C340.814 122.947 340.584 123.205 340.457 123.532C340.326 123.87 340.326 124.301 340.457 124.823C340.58 125.35 340.858 125.994 341.291 126.755C341.87 127.776 342.456 128.47 343.047 128.839C343.63 129.211 344.173 129.255 344.676 128.969C345.009 128.78 345.24 128.517 345.371 128.178C345.498 127.852 345.5 127.425 345.377 126.898C345.251 126.383 344.969 125.741 344.532 124.972C343.952 123.952 343.371 123.255 342.787 122.883C342.197 122.514 341.65 122.473 341.147 122.758ZM334.519 129.928L335.036 130.838L331.265 132.98L330.748 132.071L334.519 129.928ZM321.92 132.656C322.403 133.507 322.776 134.292 323.039 135.013C323.299 135.746 323.473 136.439 323.561 137.094C323.642 137.752 323.648 138.399 323.579 139.035C323.51 139.671 323.386 140.323 323.208 140.991L326.946 138.868L327.463 139.777L322.538 142.575L322.085 141.777C322.313 140.991 322.463 140.265 322.535 139.599C322.61 138.94 322.602 138.289 322.511 137.646C322.424 137.011 322.238 136.339 321.952 135.631C321.671 134.93 321.287 134.151 320.8 133.293L321.92 132.656ZM313.801 144.327C314 144.214 314.216 144.189 314.448 144.253C314.68 144.316 314.852 144.448 314.966 144.648C315.096 144.877 315.132 145.096 315.075 145.305C315.018 145.513 314.874 145.683 314.645 145.813C314.453 145.922 314.241 145.945 314.009 145.881C313.77 145.822 313.593 145.692 313.48 145.492C313.354 145.27 313.321 145.049 313.382 144.829C313.447 144.616 313.586 144.449 313.801 144.327ZM314.569 141.264L315.086 142.174L311.315 144.316L310.798 143.407L314.569 141.264ZM311.217 139.78C311.416 139.666 311.632 139.642 311.864 139.705C312.096 139.769 312.269 139.901 312.382 140.101C312.512 140.33 312.549 140.549 312.491 140.758C312.434 140.966 312.29 141.136 312.061 141.266C311.869 141.375 311.657 141.398 311.425 141.334C311.186 141.274 311.009 141.145 310.896 140.945C310.77 140.723 310.737 140.502 310.798 140.282C310.863 140.069 311.002 139.902 311.217 139.78ZM301.184 144.263C301.665 143.99 302.118 143.815 302.545 143.739C302.975 143.67 303.369 143.657 303.725 143.699L303.743 144.789C303.448 144.752 303.13 144.751 302.789 144.789C302.448 144.826 302.082 144.956 301.69 145.178C301.202 145.456 300.891 145.803 300.757 146.222C300.616 146.645 300.654 147.048 300.873 147.433C301.028 147.706 301.243 147.912 301.517 148.05C301.795 148.195 302.129 148.249 302.52 148.213C302.903 148.182 303.338 148.027 303.826 147.75L304.447 147.397L304.907 148.207L304.331 148.534C303.894 148.782 303.574 149.052 303.368 149.345C303.155 149.642 303.04 149.938 303.021 150.232C303.002 150.526 303.06 150.792 303.195 151.028C303.392 151.376 303.685 151.581 304.073 151.644C304.454 151.712 304.836 151.636 305.221 151.418C305.568 151.22 305.845 150.985 306.051 150.711C306.255 150.449 306.401 150.199 306.492 149.962L307.349 150.516C307.212 150.79 307.009 151.096 306.741 151.434C306.478 151.779 306.113 152.084 305.647 152.349C305.159 152.626 304.695 152.773 304.254 152.789C303.813 152.804 303.42 152.715 303.074 152.52C302.725 152.337 302.454 152.075 302.261 151.735C302.013 151.299 301.916 150.87 301.97 150.448C302.016 150.03 302.185 149.612 302.475 149.193C301.908 149.28 301.397 149.223 300.94 149.023C300.481 148.834 300.121 148.51 299.86 148.052C299.642 147.667 299.528 147.243 299.519 146.779C299.506 146.326 299.633 145.878 299.898 145.433C300.157 144.993 300.586 144.603 301.184 144.263ZM295.504 153.461L296.002 154.338L291.632 156.82L291.135 155.944L295.504 153.461ZM294.357 151.443L294.855 152.319L290.486 154.802L289.988 153.926L294.357 151.443ZM282.585 155.007L283.089 155.894L281.503 156.795L284.686 162.396L285.536 160.432L286.501 160.866L285.144 163.823L284.412 164.239L280.505 157.363L279.185 158.112L278.681 157.225L282.585 155.007Z" fill="black"/>
<path d="M280.131 219.872C280.615 220.722 280.988 221.508 281.251 222.229C281.511 222.962 281.684 223.655 281.773 224.309C281.853 224.968 281.859 225.615 281.79 226.251C281.721 226.887 281.598 227.539 281.42 228.207L285.157 226.083L285.674 226.993L280.75 229.791L280.296 228.992C280.525 228.207 280.675 227.481 280.746 226.815C280.821 226.156 280.813 225.505 280.722 224.862C280.635 224.227 280.449 223.555 280.164 222.847C279.883 222.146 279.499 221.366 279.011 220.509L280.131 219.872ZM272.773 222.249C273.693 222.802 274.51 223.404 275.222 224.055C275.939 224.714 276.541 225.472 277.029 226.33C277.554 227.254 277.91 228.182 278.096 229.113C278.279 230.055 278.366 231.043 278.356 232.075L277.579 232.076C277.5 231.3 277.342 230.47 277.104 229.588C276.864 228.717 276.487 227.831 275.975 226.929C275.467 226.034 274.9 225.261 274.275 224.608C273.643 223.96 273.009 223.396 272.374 222.915L272.773 222.249ZM269.371 225.81C269.852 225.537 270.305 225.363 270.731 225.287C271.162 225.218 271.555 225.205 271.912 225.247L271.93 226.337C271.634 226.299 271.316 226.299 270.976 226.336C270.635 226.373 270.268 226.503 269.877 226.726C269.389 227.003 269.078 227.351 268.944 227.77C268.802 228.192 268.841 228.596 269.059 228.98C269.215 229.254 269.43 229.46 269.704 229.597C269.982 229.742 270.316 229.797 270.706 229.761C271.089 229.729 271.525 229.575 272.013 229.298L272.634 228.945L273.094 229.754L272.517 230.082C272.081 230.33 271.76 230.6 271.555 230.893C271.342 231.19 271.226 231.485 271.208 231.78C271.189 232.074 271.247 232.339 271.381 232.576C271.579 232.923 271.872 233.129 272.26 233.192C272.64 233.259 273.023 233.184 273.407 232.965C273.755 232.768 274.032 232.532 274.238 232.259C274.441 231.996 274.588 231.747 274.678 231.51L275.536 232.064C275.398 232.338 275.195 232.644 274.928 232.982C274.664 233.327 274.299 233.632 273.834 233.897C273.346 234.174 272.881 234.321 272.44 234.336C271.999 234.352 271.606 234.263 271.261 234.068C270.912 233.884 270.641 233.623 270.448 233.282C270.2 232.846 270.103 232.417 270.157 231.995C270.203 231.578 270.371 231.16 270.661 230.74C270.094 230.828 269.583 230.771 269.127 230.571C268.667 230.382 268.307 230.058 268.047 229.6C267.828 229.215 267.715 228.791 267.705 228.327C267.692 227.874 267.819 227.426 268.085 226.981C268.343 226.541 268.772 226.151 269.371 225.81ZM262.037 237.211C262.236 237.097 262.452 237.072 262.684 237.136C262.916 237.2 263.089 237.332 263.202 237.532C263.332 237.761 263.369 237.98 263.311 238.188C263.254 238.397 263.11 238.567 262.881 238.697C262.689 238.806 262.477 238.829 262.245 238.765C262.006 238.705 261.829 238.576 261.716 238.376C261.59 238.154 261.557 237.933 261.618 237.713C261.683 237.5 261.822 237.333 262.037 237.211ZM262.805 234.148L263.322 235.057L259.551 237.2L259.034 236.29L262.805 234.148ZM259.453 232.663C259.653 232.55 259.868 232.525 260.1 232.589C260.332 232.653 260.505 232.785 260.618 232.984C260.749 233.214 260.785 233.433 260.728 233.641C260.67 233.85 260.527 234.019 260.298 234.15C260.105 234.259 259.893 234.282 259.661 234.218C259.422 234.158 259.246 234.028 259.132 233.829C259.006 233.607 258.973 233.386 259.034 233.166C259.099 232.953 259.239 232.785 259.453 232.663ZM250.772 236.555L251.276 237.442L249.69 238.343L252.872 243.944L253.722 241.979L254.688 242.414L253.331 245.371L252.599 245.786L248.692 238.91L247.372 239.66L246.868 238.773L250.772 236.555ZM243.713 238.761L244.489 238.76C244.57 239.555 244.73 240.389 244.971 241.259C245.211 242.13 245.586 243.013 246.094 243.908C246.606 244.81 247.175 245.587 247.8 246.239C248.429 246.899 249.061 247.459 249.695 247.921L249.296 248.588C248.396 248.072 247.593 247.492 246.884 246.848C246.18 246.211 245.565 245.43 245.04 244.506C244.553 243.649 244.21 242.743 244.011 241.79C243.816 240.845 243.716 239.835 243.713 238.761ZM239.53 247.373L240.047 248.283L236.276 250.425L235.759 249.516L239.53 247.373ZM226.09 250.403C226.519 250.159 226.945 250.015 227.369 249.97C227.798 249.932 228.23 249.969 228.667 250.083L228.434 251.198C227.726 250.985 227.098 251.033 226.551 251.344C226.248 251.516 226.024 251.776 225.879 252.122C225.737 252.477 225.713 252.916 225.806 253.44C225.891 253.969 226.129 254.577 226.52 255.265C226.631 254.927 226.788 254.609 226.989 254.309C227.19 254.008 227.453 253.766 227.778 253.581C228.17 253.358 228.594 253.235 229.05 253.211C229.502 253.198 229.938 253.303 230.358 253.524C230.774 253.757 231.129 254.132 231.423 254.65C231.687 255.116 231.825 255.6 231.837 256.102C231.841 256.608 231.717 257.079 231.466 257.515C231.22 257.959 230.848 258.321 230.353 258.603C229.969 258.821 229.606 258.949 229.265 258.986C228.924 259.023 228.607 258.998 228.313 258.911C228.03 258.827 227.759 258.693 227.497 258.509C227.233 258.336 226.956 258.064 226.666 257.691C226.38 257.325 226.054 256.82 225.688 256.177C225.13 255.194 224.796 254.322 224.687 253.563C224.582 252.81 224.659 252.17 224.916 251.642C225.166 251.119 225.558 250.706 226.09 250.403ZM228.078 254.496C227.797 254.656 227.567 254.88 227.388 255.167C227.202 255.459 227.066 255.761 226.98 256.074L227.169 256.407C227.568 257.109 228.007 257.564 228.487 257.771C228.959 257.982 229.424 257.957 229.882 257.697C230.304 257.457 230.578 257.106 230.706 256.642C230.83 256.19 230.756 255.723 230.483 255.243C230.294 254.91 230.06 254.661 229.781 254.497C229.506 254.341 229.222 254.262 228.929 254.263C228.628 254.267 228.345 254.345 228.078 254.496ZM220.465 259.57L220.963 260.447L216.593 262.929L216.096 262.053L220.465 259.57ZM219.318 257.552L219.816 258.428L215.447 260.911L214.949 260.035L219.318 257.552ZM207.546 261.116L208.05 262.003L206.464 262.904L209.647 268.505L210.497 266.541L211.462 266.975L210.105 269.932L209.373 270.348L205.466 263.472L204.146 264.221L203.642 263.334L207.546 261.116ZM201.517 264.542C201.615 264.662 201.704 264.793 201.784 264.933C202.057 265.414 202.219 265.889 202.271 266.358C202.319 266.839 202.298 267.311 202.209 267.773C202.123 268.242 202.008 268.694 201.864 269.128C201.716 269.574 201.582 269.992 201.462 270.383C201.339 270.786 201.263 271.161 201.236 271.509C201.209 271.857 201.273 272.168 201.428 272.441C201.605 272.752 201.864 272.942 202.207 273.011C202.554 273.088 202.909 273.024 203.271 272.818C203.581 272.641 203.83 272.417 204.018 272.144C204.202 271.883 204.346 271.586 204.45 271.253L205.389 271.614C205.245 272.048 205.041 272.448 204.779 272.812C204.509 273.18 204.137 273.499 203.664 273.768C203.228 274.016 202.799 274.147 202.377 274.162C201.959 274.184 201.579 274.101 201.238 273.914C200.89 273.731 200.614 273.462 200.413 273.107C200.211 272.752 200.102 272.379 200.085 271.987C200.068 271.596 200.106 271.198 200.198 270.793C200.291 270.388 200.407 269.98 200.545 269.569C200.687 269.165 200.814 268.761 200.926 268.355C201.037 267.949 201.106 267.553 201.131 267.167C201.149 266.785 201.088 266.419 200.947 266.069L197.531 268.01L197.014 267.1L201.517 264.542Z" fill="black"/>
<path d="M369.951 168.623L370.89 170.275L374.206 168.391L374.66 169.19L375.405 175.897L374.332 176.022L373.636 169.918L371.407 171.185L372.661 173.392L371.663 173.959L370.409 171.752L369.488 172.275L368.971 171.366L369.892 170.843L368.953 169.19L369.951 168.623ZM364.456 169.941C365.376 170.494 366.193 171.096 366.905 171.747C367.622 172.406 368.224 173.165 368.711 174.022C369.237 174.947 369.592 175.874 369.779 176.805C369.962 177.747 370.049 178.735 370.039 179.767L369.262 179.769C369.183 178.992 369.025 178.163 368.787 177.28C368.547 176.409 368.17 175.523 367.658 174.621C367.149 173.726 366.583 172.953 365.958 172.301C365.325 171.652 364.692 171.088 364.057 170.608L364.456 169.941ZM360.932 173.572C361.383 173.316 361.798 173.143 362.178 173.054C362.562 172.973 362.94 172.949 363.311 172.983L363.275 174.133C362.984 174.103 362.684 174.107 362.373 174.146C362.067 174.193 361.755 174.307 361.438 174.488C360.942 174.769 360.623 175.136 360.479 175.59C360.34 176.05 360.396 176.502 360.648 176.946C360.909 177.404 361.28 177.687 361.762 177.795C362.24 177.914 362.772 177.808 363.356 177.476L364.731 176.695L366.949 180.599L363.112 182.779L362.601 181.881L365.496 180.236L364.299 178.129L363.744 178.444C363.168 178.772 362.619 178.951 362.099 178.983C361.572 179.018 361.1 178.92 360.684 178.686C360.26 178.458 359.918 178.114 359.658 177.656C359.376 177.16 359.241 176.655 359.252 176.14C359.259 175.637 359.403 175.159 359.684 174.706C359.969 174.261 360.385 173.883 360.932 173.572ZM349.29 180.231L352.598 181.535L353.162 178.06L354.225 178.278L353.528 181.828L356.8 182.991L356.408 184.109L353.312 182.817L352.845 186.075L351.743 185.865L352.389 182.534L348.901 181.303L349.29 180.231ZM343.559 183.619L344.064 184.506L342.478 185.408L345.66 191.008L346.51 189.044L347.475 189.478L346.119 192.435L345.387 192.851L341.479 185.975L340.16 186.725L339.655 185.837L343.559 183.619ZM336.5 185.826L337.277 185.824C337.357 186.62 337.518 187.453 337.758 188.324C337.999 189.195 338.373 190.077 338.882 190.972C339.394 191.874 339.963 192.651 340.588 193.304C341.217 193.963 341.849 194.524 342.482 194.985L342.084 195.652C341.184 195.136 340.38 194.556 339.672 193.912C338.968 193.275 338.353 192.495 337.828 191.571C337.341 190.713 336.997 189.808 336.798 188.855C336.603 187.909 336.504 186.899 336.5 185.826ZM333.203 195.299L333.701 196.175L329.331 198.658L328.833 197.782L333.203 195.299ZM332.056 193.28L332.554 194.157L328.184 196.639L327.687 195.763L332.056 193.28ZM320.905 196.492C321.003 196.612 321.092 196.742 321.172 196.883C321.445 197.364 321.607 197.839 321.659 198.308C321.707 198.789 321.686 199.261 321.597 199.722C321.511 200.192 321.396 200.643 321.252 201.078C321.104 201.523 320.97 201.942 320.85 202.333C320.727 202.735 320.651 203.111 320.624 203.459C320.597 203.807 320.661 204.118 320.816 204.391C320.993 204.702 321.252 204.892 321.595 204.961C321.942 205.038 322.296 204.973 322.659 204.768C322.969 204.591 323.218 204.366 323.406 204.094C323.59 203.833 323.734 203.535 323.838 203.202L324.777 203.564C324.633 203.998 324.429 204.397 324.167 204.762C323.897 205.13 323.525 205.449 323.052 205.718C322.616 205.966 322.187 206.097 321.765 206.112C321.347 206.134 320.967 206.051 320.626 205.864C320.277 205.68 320.002 205.411 319.801 205.056C319.599 204.702 319.49 204.328 319.473 203.937C319.456 203.546 319.494 203.148 319.586 202.743C319.679 202.338 319.794 201.93 319.933 201.519C320.075 201.115 320.202 200.711 320.314 200.305C320.425 199.899 320.494 199.503 320.519 199.117C320.537 198.735 320.476 198.369 320.335 198.019L316.919 199.96L316.402 199.05L320.905 196.492ZM311.839 201.467C312.704 200.975 313.562 200.953 314.412 201.399C315.267 201.852 316.055 202.715 316.778 203.987C317.504 205.266 317.836 206.383 317.773 207.338C317.702 208.298 317.237 209.022 316.38 209.509C315.515 210.001 314.657 210.023 313.807 209.577C312.957 209.131 312.168 208.268 311.441 206.989C310.715 205.71 310.387 204.591 310.458 203.631C310.521 202.676 310.982 201.954 311.839 201.467ZM312.345 202.383C312.012 202.572 311.782 202.829 311.655 203.156C311.524 203.494 311.524 203.925 311.655 204.447C311.778 204.974 312.056 205.618 312.489 206.379C313.069 207.4 313.654 208.094 314.245 208.463C314.828 208.835 315.371 208.879 315.874 208.593C316.207 208.404 316.438 208.141 316.569 207.802C316.696 207.476 316.698 207.049 316.575 206.522C316.449 206.007 316.167 205.365 315.73 204.596C315.151 203.576 314.569 202.879 313.985 202.507C313.395 202.138 312.848 202.097 312.345 202.383Z" fill="black"/>
<path d="M301.716 270.902C302.197 270.629 302.65 270.455 303.077 270.379C303.507 270.31 303.901 270.297 304.257 270.339L304.275 271.429C303.98 271.391 303.662 271.391 303.321 271.428C302.98 271.465 302.614 271.595 302.222 271.818C301.734 272.095 301.423 272.443 301.289 272.862C301.148 273.284 301.186 273.688 301.405 274.072C301.56 274.346 301.775 274.551 302.049 274.689C302.327 274.834 302.661 274.889 303.052 274.853C303.435 274.821 303.87 274.667 304.358 274.389L304.979 274.037L305.439 274.846L304.862 275.174C304.426 275.422 304.105 275.692 303.9 275.985C303.687 276.282 303.572 276.577 303.553 276.872C303.534 277.166 303.592 277.431 303.727 277.668C303.924 278.015 304.217 278.221 304.605 278.284C304.986 278.351 305.368 278.276 305.753 278.057C306.1 277.86 306.377 277.624 306.583 277.35C306.786 277.088 306.933 276.839 307.023 276.602L307.881 277.156C307.743 277.43 307.541 277.736 307.273 278.074C307.009 278.419 306.645 278.724 306.179 278.989C305.691 279.266 305.227 279.412 304.786 279.428C304.345 279.444 303.951 279.354 303.606 279.16C303.257 278.976 302.986 278.714 302.793 278.374C302.545 277.938 302.448 277.509 302.502 277.087C302.548 276.67 302.716 276.251 303.006 275.832C302.44 275.92 301.928 275.863 301.472 275.662C301.013 275.474 300.653 275.15 300.392 274.692C300.174 274.307 300.06 273.883 300.05 273.419C300.038 272.966 300.164 272.518 300.43 272.073C300.689 271.633 301.117 271.243 301.716 270.902ZM292.716 278.261L293.744 280.069L295.441 279.104L295.932 279.969L294.235 280.934L295.262 282.741L294.32 283.277L293.293 281.469L291.607 282.427L291.115 281.562L292.801 280.604L291.774 278.796L292.716 278.261ZM281.256 282.528C281.818 282.209 282.36 282.028 282.884 281.985C283.407 281.942 283.876 282.018 284.29 282.213C284.701 282.419 285.019 282.722 285.246 283.122C285.519 283.602 285.627 284.093 285.57 284.595C285.506 285.102 285.262 285.636 284.839 286.2C285.352 286.191 285.796 286.267 286.17 286.426C286.541 286.597 286.846 286.893 287.086 287.314C287.3 287.691 287.387 288.077 287.347 288.471C287.311 288.873 287.17 289.252 286.922 289.608C286.667 289.968 286.329 290.268 285.907 290.507C285.449 290.768 284.997 290.912 284.553 290.939C284.113 290.974 283.715 290.902 283.359 290.723C282.996 290.548 282.713 290.283 282.512 289.928C282.255 289.477 282.162 289.046 282.232 288.635C282.301 288.223 282.473 287.812 282.749 287.402C282.071 287.483 281.49 287.432 281.004 287.249C280.522 287.072 280.145 286.744 279.872 286.263C279.62 285.82 279.512 285.363 279.548 284.892C279.588 284.43 279.755 283.992 280.049 283.58C280.344 283.169 280.746 282.818 281.256 282.528ZM283.866 287.251C283.604 287.547 283.419 287.876 283.313 288.24C283.199 288.608 283.235 288.954 283.42 289.28C283.613 289.62 283.902 289.827 284.287 289.902C284.672 289.977 285.056 289.905 285.441 289.687C285.818 289.472 286.072 289.196 286.202 288.858C286.337 288.527 286.314 288.203 286.133 287.885C285.953 287.567 285.66 287.352 285.254 287.24C284.841 287.133 284.378 287.136 283.866 287.251ZM281.749 283.422C281.276 283.691 280.957 284.033 280.792 284.449C280.632 284.873 280.661 285.277 280.88 285.661C281.081 286.016 281.421 286.244 281.899 286.344C282.369 286.449 282.938 286.443 283.606 286.328C283.849 286.102 284.053 285.849 284.217 285.57C284.381 285.291 284.478 285.006 284.508 284.715C284.539 284.424 284.478 284.145 284.327 283.879C284.171 283.605 283.957 283.4 283.683 283.262C283.401 283.128 283.092 283.074 282.754 283.1C282.417 283.125 282.082 283.233 281.749 283.422ZM270.002 288.967L273.31 290.27L273.874 286.796L274.937 287.014L274.24 290.564L277.512 291.727L277.12 292.844L274.024 291.552L273.557 294.81L272.455 294.6L273.101 291.27L269.613 290.038L270.002 288.967ZM262.421 293.23C262.887 292.965 263.385 292.834 263.914 292.837C264.441 292.85 264.961 293.034 265.475 293.388C265.989 293.741 266.458 294.291 266.882 295.038C267.239 295.667 267.494 296.304 267.646 296.951C267.796 297.61 267.826 298.248 267.737 298.866C267.64 299.488 267.414 300.062 267.057 300.587C266.7 301.113 266.193 301.563 265.535 301.936C265.468 301.974 265.396 302.011 265.318 302.045C265.236 302.091 265.164 302.128 265.101 302.154L264.584 301.244C264.647 301.218 264.716 301.184 264.79 301.142C264.868 301.107 264.94 301.071 265.007 301.033C265.813 300.575 266.337 299.95 266.581 299.156C266.821 298.374 266.757 297.52 266.388 296.595C266.294 296.913 266.131 297.245 265.898 297.593C265.669 297.948 265.348 298.243 264.934 298.478C264.52 298.713 264.096 298.827 263.661 298.82C263.226 298.812 262.818 298.687 262.436 298.445C262.05 298.214 261.723 297.862 261.454 297.389C261.147 296.849 260.987 296.309 260.974 295.769C260.957 295.241 261.072 294.755 261.319 294.311C261.566 293.868 261.934 293.507 262.421 293.23ZM262.894 294.165C262.45 294.417 262.188 294.781 262.106 295.258C262.018 295.738 262.11 296.219 262.383 296.7C262.656 297.18 263.006 297.495 263.433 297.644C263.86 297.792 264.288 297.745 264.716 297.501C265.034 297.321 265.293 297.071 265.493 296.752C265.694 296.432 265.831 296.08 265.906 295.696L265.767 295.452C265.357 294.765 264.89 294.312 264.364 294.092C263.835 293.884 263.345 293.908 262.894 294.165ZM257.24 302.145L257.738 303.021L253.369 305.504L252.871 304.628L257.24 302.145ZM256.094 300.127L256.591 301.003L252.222 303.486L251.724 302.61L256.094 300.127ZM242.848 304.352C243.299 304.095 243.715 303.923 244.095 303.834C244.479 303.753 244.857 303.729 245.228 303.763L245.192 304.913C244.901 304.883 244.6 304.887 244.29 304.926C243.984 304.973 243.672 305.087 243.354 305.267C242.859 305.549 242.539 305.916 242.396 306.37C242.256 306.83 242.313 307.282 242.565 307.726C242.825 308.184 243.196 308.467 243.678 308.575C244.157 308.694 244.688 308.588 245.272 308.256L246.648 307.475L248.866 311.379L245.028 313.559L244.518 312.661L247.413 311.016L246.215 308.909L245.661 309.224C245.084 309.552 244.536 309.731 244.016 309.763C243.488 309.798 243.016 309.699 242.6 309.466C242.177 309.238 241.835 308.894 241.574 308.435C241.293 307.94 241.157 307.435 241.168 306.92C241.176 306.417 241.32 305.939 241.6 305.486C241.885 305.041 242.301 304.663 242.848 304.352ZM237.671 307.469L238.175 308.357L236.589 309.258L239.772 314.859L240.622 312.894L241.587 313.328L240.23 316.285L239.498 316.701L235.591 309.825L234.272 310.575L233.767 309.688L237.671 307.469Z" fill="black"/>
<path d="M311.827 284.079C312.119 286.314 312.439 288.691 312.785 291.212C313.139 293.774 313.57 296.407 314.077 299.11C314.57 301.73 315.079 304.327 315.604 306.899C316.096 309.52 316.614 312.051 317.157 314.493C317.25 314.984 317.094 315.395 316.689 315.725C316.293 316.097 315.808 316.336 315.235 316.444C314.743 316.536 314.253 316.522 313.764 316.402C313.275 316.282 312.907 316.012 312.658 315.592C311.999 312.536 311.428 309.718 310.943 307.139C310.425 304.607 309.936 302.113 309.474 299.656C309.013 297.199 308.633 294.727 308.335 292.239C308.005 289.8 307.615 287.16 307.166 284.319C307.158 283.599 307.328 283.038 307.676 282.633C308.024 282.229 308.464 281.976 308.996 281.876C309.529 281.776 310.1 281.881 310.709 282.191C311.277 282.508 311.631 283.035 311.769 283.772L311.827 284.079ZM293.492 315.122C293.351 315.276 293.186 315.413 292.997 315.533C292.815 315.694 292.601 315.798 292.356 315.844C291.235 315.97 289.969 315.89 288.559 315.604C287.156 315.358 285.813 314.869 284.531 314.134C283.207 313.408 282.026 312.422 280.986 311.175C279.946 309.929 279.25 308.364 278.896 306.48C278.481 304.269 278.499 302.337 278.952 300.683C279.371 299.078 280.086 297.693 281.097 296.528C282.074 295.412 283.241 294.514 284.597 293.836C285.961 293.198 287.36 292.744 288.793 292.475C289.981 292.252 291.289 292.219 292.717 292.374C294.112 292.579 295.468 293.024 296.783 293.709C298.058 294.402 299.191 295.355 300.182 296.568C301.181 297.822 301.857 299.391 302.211 301.275C302.534 302.995 302.486 304.657 302.066 306.262C301.614 307.916 300.996 309.367 300.213 310.616C299.389 311.873 298.482 312.913 297.492 313.735C296.502 314.557 295.618 315.041 294.84 315.187C294.389 315.272 293.94 315.25 293.492 315.122ZM292.443 311.567C293.111 311.06 293.767 310.492 294.412 309.862C295.057 309.232 295.621 308.511 296.104 307.7C296.595 306.929 296.961 306.055 297.202 305.077C297.401 304.107 297.385 303.008 297.154 301.779C296.947 300.674 296.545 299.774 295.948 299.081C295.351 298.387 294.679 297.856 293.932 297.488C293.143 297.127 292.337 296.897 291.513 296.798C290.696 296.739 289.96 296.771 289.305 296.894C288.527 297.04 287.752 297.313 286.979 297.713C286.165 298.12 285.481 298.651 284.925 299.307C284.337 300.011 283.922 300.852 283.682 301.83C283.401 302.815 283.383 303.963 283.629 305.273C283.883 306.625 284.357 307.68 285.051 308.44C285.712 309.249 286.464 309.871 287.309 310.306C288.154 310.741 289.037 311.041 289.959 311.207C290.88 311.373 291.708 311.493 292.443 311.567ZM264.253 320.614C264.112 320.767 263.947 320.904 263.758 321.025C263.576 321.186 263.363 321.29 263.117 321.336C261.996 321.462 260.73 321.381 259.32 321.095C257.917 320.85 256.574 320.36 255.292 319.626C253.968 318.899 252.787 317.913 251.747 316.667C250.708 315.421 250.011 313.856 249.657 311.972C249.242 309.761 249.26 307.828 249.713 306.175C250.132 304.57 250.847 303.185 251.858 302.02C252.835 300.904 254.002 300.006 255.359 299.327C256.723 298.69 258.121 298.236 259.555 297.967C260.742 297.744 262.05 297.71 263.478 297.866C264.873 298.07 266.229 298.515 267.545 299.201C268.819 299.894 269.952 300.847 270.943 302.06C271.942 303.314 272.618 304.883 272.972 306.766C273.295 308.486 273.247 310.149 272.828 311.754C272.375 313.407 271.757 314.859 270.975 316.108C270.151 317.365 269.244 318.405 268.253 319.227C267.263 320.048 266.379 320.532 265.601 320.679C265.15 320.763 264.701 320.742 264.253 320.614ZM263.204 317.059C263.872 316.552 264.528 315.983 265.173 315.354C265.818 314.724 266.382 314.003 266.866 313.192C267.357 312.421 267.722 311.547 267.963 310.569C268.162 309.599 268.146 308.499 267.916 307.271C267.708 306.165 267.306 305.266 266.709 304.572C266.113 303.879 265.441 303.348 264.693 302.98C263.905 302.619 263.098 302.389 262.274 302.289C261.458 302.231 260.722 302.263 260.067 302.386C259.288 302.532 258.513 302.805 257.74 303.204C256.926 303.612 256.242 304.143 255.687 304.798C255.098 305.502 254.684 306.343 254.443 307.321C254.162 308.307 254.145 309.455 254.391 310.765C254.645 312.116 255.118 313.172 255.812 313.932C256.473 314.741 257.226 315.362 258.07 315.797C258.915 316.232 259.798 316.533 260.72 316.699C261.641 316.865 262.469 316.985 263.204 317.059ZM236.249 294.077C236.553 293.893 236.869 293.77 237.197 293.708C237.811 293.593 238.419 293.67 239.02 293.938C239.622 294.207 240.016 294.726 240.203 295.497C240.009 296.042 239.734 296.835 239.379 297.877C238.99 298.968 238.526 300.221 237.986 301.636C237.454 303.093 236.867 304.708 236.225 306.482C235.584 308.256 234.879 310.148 234.112 312.157L229.393 324.617C228.542 326.855 227.716 329.003 226.915 331.061C226.074 333.127 225.265 335.144 224.49 337.112C224.416 337.169 224.256 337.22 224.011 337.266C223.314 337.397 222.564 337.241 221.761 336.798C220.916 336.363 220.428 335.798 220.297 335.102C221.778 331.474 223.259 327.847 224.74 324.22C226.187 320.641 227.602 317.111 228.983 313.629C230.323 310.156 231.617 306.775 232.865 303.489C234.113 300.202 235.241 297.065 236.249 294.077ZM243.9 331.432L243.286 331.547C242.467 331.701 241.588 331.76 240.649 331.724C239.676 331.738 238.754 331.571 237.884 331.226C237.014 330.881 236.248 330.304 235.588 329.495C234.894 328.735 234.416 327.659 234.155 326.267C233.978 325.325 233.993 324.39 234.2 323.46C234.414 322.572 234.767 321.743 235.259 320.972C235.757 320.243 236.382 319.617 237.132 319.094C237.881 318.572 238.727 318.222 239.669 318.045C240.365 317.914 241.064 317.91 241.765 318.033C242.474 318.197 243.117 318.457 243.693 318.816C244.277 319.215 244.79 319.691 245.233 320.243C245.635 320.804 245.905 321.453 246.044 322.19C246.182 322.927 246.227 323.618 246.179 324.263C246.097 324.957 245.976 325.552 245.815 326.048C245.661 326.586 245.488 327.021 245.297 327.354C245.112 327.728 244.946 327.971 244.798 328.083C245.056 328.332 245.22 328.64 245.289 329.009C245.536 330.319 245.073 331.127 243.9 331.432ZM241.887 327.485C241.782 327.378 241.707 327.201 241.661 326.956C241.591 326.587 241.704 326.057 241.998 325.366C242.259 324.724 242.339 324.136 242.239 323.604C242.162 323.194 241.905 322.84 241.467 322.541C240.989 322.249 240.544 322.142 240.135 322.218C239.644 322.311 239.274 322.486 239.026 322.745C238.736 323.011 238.537 323.303 238.427 323.62C238.276 323.945 238.186 324.259 238.158 324.561C238.138 324.904 238.147 325.178 238.186 325.383C238.301 325.997 238.492 326.449 238.758 326.738C238.983 327.035 239.255 327.238 239.572 327.348C239.897 327.499 240.268 327.556 240.686 327.52C241.07 327.533 241.47 327.521 241.887 327.485ZM223.96 311.266C223.346 311.381 222.536 311.47 221.53 311.532C220.532 311.634 219.519 311.549 218.493 311.275C217.474 311.043 216.556 310.558 215.74 309.821C214.89 309.133 214.322 308.031 214.038 306.516C213.838 305.451 213.886 304.467 214.183 303.563C214.446 302.708 214.835 301.957 215.349 301.309C215.871 300.703 216.478 300.207 217.169 299.823C217.811 299.406 218.419 299.143 218.992 299.035C219.811 298.882 220.616 298.879 221.407 299.027C222.198 299.175 222.923 299.421 223.58 299.763C224.246 300.147 224.796 300.595 225.232 301.107C225.675 301.659 225.958 302.263 226.081 302.919C226.142 303.246 226.191 303.619 226.227 304.036C226.263 304.453 226.279 304.874 226.274 305.299C226.269 305.724 226.215 306.115 226.113 306.474C226.018 306.873 225.884 307.174 225.71 307.376L225.126 307.994C225.329 308.168 225.461 308.419 225.522 308.747C225.63 309.32 225.538 309.846 225.246 310.325C224.954 310.804 224.526 311.117 223.96 311.266ZM221.917 307.834C221.812 307.727 221.736 307.55 221.69 307.304C221.628 306.977 221.699 306.561 221.901 306.057C222.062 305.56 222.104 305.107 222.027 304.697C221.904 304.042 221.644 303.561 221.247 303.254C220.809 302.955 220.324 302.855 219.792 302.955C218.973 303.109 218.462 303.438 218.26 303.942C218.025 304.495 217.942 304.956 218.011 305.324C218.25 306.594 218.755 307.368 219.529 307.647C220.261 307.933 221.057 307.996 221.917 307.834Z" fill="#FF0000"/>
<path d="M334 309.999C334 322.273 326.846 333.7 314.639 342.184C302.443 350.66 285.433 355.999 266.5 355.999C247.567 355.999 230.557 350.66 218.361 342.184C206.154 333.7 199 322.273 199 309.999C199 297.725 206.154 286.298 218.361 277.814C230.557 269.338 247.567 263.999 266.5 263.999C285.433 263.999 302.443 269.338 314.639 277.814C326.846 286.298 334 297.725 334 309.999Z" stroke="#FF0000" stroke-width="6"/>
<path d="M3.00049 -0.000976562L53.0005 -0.000976739L53.0005 39.499L57.5005 77.999L73.0005 82.999L99.5005 93.999L121 120.499L135.5 133.999L133.5 137.999L128 139.999L118.5 137.999L135.5 168.499L133.5 173.499L128 175.499L118.5 170.499L126 183.999L125 188.999L118.5 191.499L111 188.999L99.0005 190.999L90.0005 183.999L89.0005 188.999L83.0005 191.499L57.5005 170.499L28.0005 139.999L18.0005 109.999L9.00049 68.999L3.00049 -0.000976562Z" fill="#D9D9D9"/>
<path d="M19.6364 118.013L18.3022 118.291L18.3209 118.38L18.3513 118.466L19.6364 118.013ZM60.2481 173.069L59.2927 174.04L59.3205 174.068L59.3497 174.093L60.2481 173.069ZM53.8207 140.184C53.2711 139.67 52.4087 139.698 51.8945 140.248C51.3803 140.798 51.409 141.66 51.9586 142.174L53.8207 140.184ZM55.6879 143.797L56.6189 142.802L55.6879 143.797ZM78.6805 189.227L77.7821 190.252L78.6805 189.227ZM82.0318 190.997L81.692 192.317L82.0318 190.997ZM89.6852 186.411L88.3224 186.411L89.6852 186.411ZM88.0659 181.527L89.1588 180.713L88.0659 181.527ZM36.8033 150.018L37.7587 149.046L36.8033 150.018ZM83.5557 191.39L83.8955 190.07L83.5557 191.39ZM10.5199 74.2513L11.854 73.9734L10.5199 74.2513ZM1.6283 1.46794L3.34645 30.5998L6.06734 30.4394L4.34918 1.30746L1.6283 1.46794ZM9.1857 74.5293L18.3022 118.291L20.9706 117.735L11.854 73.9734L9.1857 74.5293ZM18.3513 118.466L22.332 129.744L24.9022 128.837L20.9215 117.559L18.3513 118.466ZM35.8478 150.99L59.2927 174.04L61.2036 172.097L37.7587 149.046L35.8478 150.99ZM59.3497 174.093L77.7821 190.252L79.5789 188.203L61.1465 172.044L59.3497 174.093ZM81.692 192.317L83.2159 192.709L83.8955 190.07L82.3716 189.677L81.692 192.317ZM91.048 186.638L91.048 186.411L88.3224 186.411L88.3224 186.638L91.048 186.638ZM89.1588 180.713L82.4166 171.662L80.2308 173.29L86.9729 182.341L89.1588 180.713ZM56.6189 142.802L53.8207 140.184L51.9586 142.174L54.7568 144.792L56.6189 142.802ZM82.4166 171.662C74.6933 161.293 66.0598 151.635 56.6189 142.802L54.7568 144.792C64.0792 153.514 72.6044 163.051 80.2308 173.29L82.4166 171.662ZM77.7821 190.252C78.9057 191.237 80.245 191.944 81.692 192.317L82.3716 189.677C81.3381 189.411 80.3814 188.906 79.5789 188.203L77.7821 190.252ZM91.048 186.411C91.048 184.358 90.3854 182.359 89.1588 180.713L86.9729 182.341C87.8491 183.517 88.3224 184.945 88.3224 186.411L91.048 186.411ZM22.332 129.744C25.162 137.762 29.7847 145.028 35.8478 150.99L37.7587 149.046C31.9914 143.376 27.5942 136.464 24.9022 128.837L22.332 129.744ZM83.2159 192.709C87.1831 193.731 91.048 190.735 91.048 186.638L88.3224 186.638C88.3224 188.954 86.1379 190.647 83.8955 190.07L83.2159 192.709ZM3.34645 30.5998C4.21733 45.366 6.16897 60.0484 9.1857 74.5293L11.854 73.9734C8.86445 59.6228 6.93038 45.0726 6.06734 30.4394L3.34645 30.5998Z" fill="black"/>
<path d="M87.2324 180.43L96.0674 188.961C97.9351 190.764 100.433 191.767 103.029 191.757V191.757C105.643 191.746 108.148 190.709 110.004 188.868L111.587 187.299" stroke="black" stroke-width="2.72561"/>
<path d="M68.9004 129.55L81.3878 144.345L109.662 186.335C110.338 187.34 111.183 188.219 112.159 188.936L113.834 190.166C116.256 191.945 119.513 192.085 122.078 190.52L122.683 190.151C124.874 188.815 126.045 186.291 125.65 183.755V183.755C125.517 182.896 125.208 182.074 124.744 181.339L99.1767 140.882L81.2409 119.109" stroke="black" stroke-width="2.72561" stroke-linecap="round"/>
<path d="M83.2676 92.7701C82.7232 92.2504 81.8605 92.2704 81.3409 92.8149C80.8212 93.3593 80.8412 94.222 81.3857 94.7417L83.2676 92.7701ZM134.175 166.214L132.987 166.882L134.175 166.214ZM130.224 175.294L129.903 173.97L130.224 175.294ZM130.131 175.317L129.81 173.992L130.131 175.317ZM114.157 167.026L123.705 175.056L125.459 172.97L115.911 164.94L114.157 167.026ZM130.452 176.641L130.546 176.619L129.903 173.97L129.81 173.992L130.452 176.641ZM135.363 165.546L110.333 121.022L107.957 122.357L132.987 166.882L135.363 165.546ZM103.072 111.673L83.2676 92.7701L81.3857 94.7417L101.19 113.645L103.072 111.673ZM110.333 121.022C108.389 117.563 105.941 114.413 103.072 111.673L101.19 113.645C103.864 116.198 106.145 119.134 107.957 122.357L110.333 121.022ZM136.188 167.773C136.032 166.992 135.754 166.24 135.363 165.546L132.987 166.882C133.237 167.326 133.415 167.807 133.515 168.307L136.188 167.773ZM130.546 176.619C134.495 175.661 136.985 171.758 136.188 167.773L133.515 168.307C134.025 170.858 132.432 173.357 129.903 173.97L130.546 176.619ZM123.705 175.056C125.574 176.628 128.079 177.217 130.452 176.641L129.81 173.992C128.28 174.363 126.664 173.984 125.459 172.97L123.705 175.056Z" fill="black"/>
<path d="M52.3442 -0.550781L53.479 43.6048L58.0681 79.3104L60.7408 79.3104C63.2924 79.3104 65.8166 79.8372 68.1552 80.858L96.0592 93.0378C97.9709 93.8723 99.7094 95.0577 101.184 96.5327V96.5327C106.955 102.303 112.249 108.532 117.015 115.157L119.993 119.298C120.683 120.257 121.462 121.147 122.321 121.957L134.087 133.057C134.932 133.854 135.228 135.073 134.845 136.169V136.169C134.07 138.384 132.031 139.928 129.69 140.095V140.095C127.241 140.27 124.768 139.818 122.543 138.78L117.759 136.548" stroke="black" stroke-width="2.72561"/>
<path d="M31.3017 88.5583L34.8735 85.7804C38.9662 82.5975 43.8022 80.5094 48.9254 79.7131L53.2873 79.035" stroke="black" stroke-width="1.63537" stroke-linecap="round"/>
<path d="M82.5989 189.425L76.0343 182.204C75.1697 181.253 75.3111 179.764 76.3395 178.993L78.3404 177.492C79.2172 176.834 80.446 176.93 81.2107 177.715L89.4079 186.132" stroke="black" stroke-width="1.63537" stroke-linecap="round"/>
<path d="M117.214 188.607L111.73 180.709C111.01 179.674 111.317 178.245 112.399 177.596L117.214 174.706" stroke="black" stroke-width="1.63537" stroke-linecap="round"/>
<path d="M101.133 190.242L95.8467 184.003C95.0499 183.062 95.1904 181.649 96.1568 180.884L99.2162 178.461C100.135 177.734 101.463 177.862 102.225 178.752L109.037 186.699" stroke="black" stroke-width="1.63537" stroke-linecap="round"/>
<path d="M129.479 175.524L120.058 163.276C119.267 162.248 119.543 160.761 120.651 160.085L123.382 158.419C124.318 157.848 125.533 158.061 126.219 158.917L130.57 164.349" stroke="black" stroke-width="1.63537" stroke-linecap="round"/>
<path d="M325.92 -127.867L281.735 -102.328L301.911 -67.4224L317.599 -31.1017L306.456 -18.7662L288.657 4.49001L283.193 38.8896L277.275 58.2257L281.085 60.7389L286.967 59.6971L294.341 53.0773L294.897 88.7131L299.218 92.11L305.1 91.0682L310.941 81.7973L311.209 97.558L314.646 101.466L321.667 100.355L327.018 94.3148L338.644 89.9528L343.022 79.17L346.459 83.0777L353.038 82.2222L364.846 50.6398L375.337 8.61926L368.85 -22.9993L355.861 -63.8277L325.92 -127.867Z" fill="#D9D9D9"/>
<path d="M371.497 -15.0815L372.792 -15.5085L372.82 -15.4217L372.837 -15.3319L371.497 -15.0815ZM363.731 54.3147L365.044 54.6779L365.034 54.7155L365.021 54.7524L363.731 54.3147ZM352.641 21.9799C352.859 21.2597 353.62 20.8529 354.34 21.0714C355.061 21.29 355.467 22.051 355.249 22.7712L352.641 21.9799ZM355.683 78.0471L356.973 78.4847L356.973 78.4847L355.683 78.0471ZM353.667 81.2565L352.712 80.2839L353.667 81.2565ZM344.504 81.0929L343.324 81.7749L344.504 81.0929ZM343.462 76.0535L342.108 75.8956L343.462 76.0535ZM373.788 -2.82573L372.449 -2.57535L373.788 -2.82573ZM372.744 21.7184L371.431 21.3552L372.744 21.7184ZM352.398 82.5016L351.444 81.529L352.398 82.5016ZM344.714 81.4555L343.534 82.1374L344.714 81.4555ZM340.206 -99.6152L341.424 -100.227L340.206 -99.6152ZM327.857 -127.257L341.424 -100.227L338.988 -99.0038L325.421 -126.034L327.857 -127.257ZM358.352 -59.2711L372.792 -15.5085L370.203 -14.6545L355.764 -58.4171L358.352 -59.2711ZM372.837 -15.3319L375.128 -3.07612L372.449 -2.57535L370.158 -14.8311L372.837 -15.3319ZM374.058 22.0816L365.044 54.6779L362.417 53.9515L371.431 21.3552L374.058 22.0816ZM365.021 54.7524L356.973 78.4847L354.392 77.6094L362.44 53.8771L365.021 54.7524ZM354.621 82.2291L353.353 83.4741L351.444 81.529L352.712 80.2839L354.621 82.2291ZM343.534 82.1374L343.324 81.7749L345.684 80.4109L345.894 80.7735L343.534 82.1374ZM342.108 75.8956L343.496 64.0009L346.203 64.3167L344.816 76.2114L342.108 75.8956ZM351.389 26.105L352.641 21.9799L355.249 22.7712L353.997 26.8963L351.389 26.105ZM343.496 64.0009C344.994 51.1592 347.636 38.4769 351.389 26.105L353.997 26.8963C350.291 39.113 347.682 51.6361 346.203 64.3167L343.496 64.0009ZM356.973 78.4847C356.493 79.8998 355.688 81.1824 354.621 82.2291L352.712 80.2839C353.474 79.5363 354.049 78.6202 354.392 77.6094L356.973 78.4847ZM343.324 81.7749C342.297 79.9971 341.87 77.9352 342.108 75.8956L344.816 76.2114C344.646 77.6683 344.95 79.141 345.684 80.4109L343.324 81.7749ZM375.128 -3.07612C376.69 5.28197 376.324 13.8863 374.058 22.0816L371.431 21.3552C373.586 13.5597 373.934 5.37502 372.449 -2.57535L375.128 -3.07612ZM353.353 83.4741C350.429 86.3438 345.584 85.6842 343.534 82.1374L345.894 80.7735C347.053 82.7781 349.791 83.151 351.444 81.529L353.353 83.4741ZM341.424 -100.227C348.06 -87.0065 353.717 -73.318 358.352 -59.2711L355.764 -58.4171C351.171 -72.3376 345.564 -85.9028 338.988 -99.0038L341.424 -100.227Z" fill="black"/>
<path d="M343.645 74.6025L340.195 86.6541C339.465 89.2017 337.77 91.364 335.471 92.6807V92.6807C333.155 94.0063 330.412 94.3691 327.832 93.6908L325.631 93.1124" stroke="black" stroke-width="2.72561"/>
<path d="M333.856 20.2771L330.378 39.7295L326.84 91.2781C326.756 92.511 326.459 93.72 325.962 94.8518L325.11 96.7944C323.879 99.6034 321.072 101.39 318.006 101.318L317.283 101.301C314.664 101.239 312.34 99.6067 311.394 97.1642V97.1642C311.073 96.3372 310.926 95.4531 310.961 94.5668L312.89 45.756L317.618 17.354" stroke="black" stroke-width="2.72561" stroke-linecap="round"/>
<path d="M302.4 -4.8787C302.612 -5.60109 303.369 -6.0154 304.091 -5.80409C304.813 -5.59278 305.228 -4.83587 305.016 -4.11349L302.4 -4.8787ZM294.276 33.7672L295.639 33.7509L294.276 33.7672ZM294.9 86.0179L296.263 86.0016L294.9 86.0179ZM303.03 92.0239L303.414 93.3313L303.03 92.0239ZM307.361 88.01L306.08 87.546L307.361 88.01ZM303.124 91.9963L302.739 90.6889L303.124 91.9963ZM312.979 76.5008L308.643 88.4741L306.08 87.546L310.416 75.5728L312.979 76.5008ZM303.508 93.3036L303.414 93.3313L302.645 90.7166L302.739 90.6889L303.508 93.3036ZM293.538 86.0342L292.913 33.7835L295.639 33.7509L296.263 86.0016L293.538 86.0342ZM294.522 22.0561L302.4 -4.8787L305.016 -4.11349L297.138 22.8213L294.522 22.0561ZM292.913 33.7835C292.866 29.8163 293.408 25.864 294.522 22.0561L297.138 22.8213C296.1 26.3702 295.594 30.0536 295.639 33.7509L292.913 33.7835ZM293.944 88.4143C293.685 87.6473 293.547 86.844 293.538 86.0342L296.263 86.0016C296.269 86.5249 296.358 87.0439 296.526 87.5395L293.944 88.4143ZM303.414 93.3313C299.45 94.4982 295.271 92.3284 293.944 88.4143L296.526 87.5395C297.383 90.0686 300.083 91.4706 302.645 90.7166L303.414 93.3313ZM308.643 88.4741C307.797 90.8091 305.891 92.6024 303.508 93.3036L302.739 90.6889C304.289 90.2326 305.53 89.0656 306.08 87.546L308.643 88.4741Z" fill="black"/>
<path d="M282.034 -103.148L303.585 -63.5488L317.767 -29.6521L315.336 -28.2469C313.127 -26.97 311.205 -25.2507 309.691 -23.1966L291.207 1.88375C289.943 3.59767 289.013 5.53319 288.463 7.59005V7.59005C286.311 15.6372 284.814 23.8454 283.986 32.1341L283.466 37.3514C283.348 38.5262 283.119 39.6871 282.781 40.8182L278.043 56.6724C277.703 57.8079 278.064 59.0368 278.962 59.8093V59.8093C280.779 61.3708 283.369 61.6942 285.523 60.6462V60.6462C287.777 59.5498 289.731 57.8873 291.167 55.8331L294.254 51.4169" stroke="black" stroke-width="2.72561"/>
<path d="M352.334 80.1843L354.457 70.4017C354.729 69.1456 353.862 67.9274 352.586 67.7742L349.962 67.4595C348.874 67.3289 347.858 68.0265 347.589 69.089L344.634 80.7522" stroke="black" stroke-width="1.63537" stroke-linecap="round"/>
<path d="M321.327 97.143L322.143 87.3145C322.248 86.0576 321.267 84.9744 320.006 84.9538L314.227 84.859" stroke="black" stroke-width="1.63537" stroke-linecap="round"/>
<path d="M336.373 90.3742L337.866 82.1143C338.085 80.9014 337.256 79.748 336.036 79.5691L332.006 78.978C330.847 78.8081 329.761 79.584 329.546 80.7354L327.578 91.2804" stroke="black" stroke-width="1.63537" stroke-linecap="round"/>
<path d="M303.806 91.8458L305.882 76.1608C306.052 74.8748 305.069 73.7255 303.772 73.6948L300.418 73.6153C299.321 73.5893 298.376 74.3821 298.211 75.4666L297.134 82.5276" stroke="black" stroke-width="1.63537" stroke-linecap="round"/>
</g>
<defs>
<clipPath id="clip0_383_210">
<rect width="430" height="391" fill="white"/>
</clipPath>
</defs>
</svg>
