<svg width="430" height="391" viewBox="0 0 430 391" fill="none" xmlns="http://www.w3.org/2000/svg">
<g clip-path="url(#clip0_4_88)">
<rect x="470.179" y="265.535" width="269.811" height="332.811" transform="rotate(150.394 470.179 265.535)" fill="white" stroke="black" stroke-width="3.18901"/>
<path d="M382.925 261.739L391.225 276.346L388.449 277.923L379.149 270.979L380.416 282.488L377.578 284.1L369.278 269.494L371.261 268.367L378.126 280.449L377.036 269.447L378.997 268.333L387.912 274.888L381.047 262.807L382.925 261.739ZM355.367 277.122L359.366 280.371L366.127 276.529L365.407 271.473L367.488 271.201L369.774 288.535L367.604 289.768L353.967 278.884L355.367 277.122ZM366.449 278.554L360.961 281.672L367.679 287.13L366.449 278.554ZM350.01 280.442L357.314 293.296L361.8 290.747L362.796 292.5L351.841 298.724L350.845 296.971L355.332 294.422L348.028 281.568L350.01 280.442ZM341.457 285.302L349.756 299.909L347.774 301.035L344.229 294.796L337.03 298.887L340.575 305.126L338.593 306.252L330.293 291.646L332.275 290.519L336.058 297.176L343.257 293.085L339.474 286.429L341.457 285.302ZM317.467 298.933L324.771 311.787L329.257 309.238L330.253 310.991L319.298 317.216L318.302 315.463L322.789 312.914L315.485 300.06L317.467 298.933ZM308.914 303.794L317.213 318.4L308.449 323.38L307.477 321.669L314.259 317.816L311.733 313.371L305.89 316.691L304.942 315.022L310.785 311.702L307.903 306.631L301.122 310.485L300.15 308.774L308.914 303.794ZM293.566 312.183C294.581 311.606 295.582 311.213 296.566 311.003C297.559 310.807 298.467 310.769 299.291 310.89L299.238 313.129C298.5 312.996 297.743 312.975 296.966 313.067C296.19 313.158 295.385 313.441 294.55 313.915C293.548 314.484 292.874 315.143 292.527 315.893C292.18 316.642 292.208 317.371 292.611 318.081C292.84 318.484 293.125 318.792 293.466 319.003C293.815 319.228 294.316 319.348 294.968 319.364C295.615 319.401 296.504 319.329 297.633 319.147C298.856 318.967 299.877 318.902 300.697 318.952C301.524 319.015 302.212 319.223 302.761 319.573C303.304 319.946 303.773 320.48 304.168 321.175C304.564 321.871 304.732 322.603 304.672 323.373C304.607 324.165 304.3 324.937 303.753 325.69C303.199 326.465 302.394 327.152 301.336 327.753C300.474 328.243 299.65 328.591 298.866 328.798C298.076 329.026 297.263 329.166 296.427 329.218L296.197 327.112C296.828 327.122 297.515 327.035 298.258 326.853C298.994 326.692 299.71 326.414 300.406 326.018C301.324 325.497 301.945 324.905 302.268 324.243C302.591 323.581 302.59 322.964 302.266 322.394C302.061 322.032 301.802 321.756 301.491 321.565C301.18 321.373 300.727 321.272 300.132 321.261C299.522 321.257 298.671 321.345 297.577 321.525C296.263 321.738 295.166 321.8 294.287 321.711C293.394 321.629 292.665 321.399 292.101 321.021C291.544 320.656 291.076 320.14 290.696 319.472C290.183 318.568 289.973 317.666 290.069 316.765C290.15 315.872 290.5 315.03 291.117 314.237C291.72 313.453 292.537 312.768 293.566 312.183ZM282.662 318.71L289.966 331.564L294.452 329.015L295.448 330.768L284.493 336.992L283.497 335.239L287.984 332.69L280.68 319.836L282.662 318.71Z" fill="black"/>
<path d="M402.212 211.959C403.132 212.511 403.949 213.114 404.661 213.765C405.378 214.424 405.98 215.182 406.467 216.04C406.993 216.964 407.348 217.892 407.535 218.822C407.718 219.765 407.805 220.752 407.795 221.785L407.018 221.786C406.939 221.01 406.781 220.18 406.543 219.298C406.303 218.427 405.926 217.541 405.414 216.639C404.905 215.744 404.339 214.97 403.714 214.318C403.082 213.67 402.448 213.106 401.813 212.625L402.212 211.959ZM398.3 215.81C398.862 215.491 399.404 215.309 399.928 215.266C400.451 215.223 400.919 215.299 401.334 215.495C401.744 215.701 402.063 216.004 402.29 216.403C402.563 216.884 402.671 217.375 402.614 217.877C402.55 218.383 402.306 218.918 401.882 219.481C402.396 219.473 402.84 219.549 403.214 219.708C403.585 219.878 403.89 220.175 404.13 220.596C404.344 220.973 404.431 221.359 404.391 221.753C404.355 222.155 404.213 222.534 403.966 222.89C403.711 223.25 403.372 223.55 402.951 223.789C402.493 224.05 402.041 224.194 401.597 224.221C401.157 224.256 400.759 224.184 400.403 224.004C400.04 223.83 399.757 223.565 399.555 223.21C399.299 222.759 399.206 222.328 399.275 221.916C399.345 221.505 399.517 221.094 399.793 220.684C399.115 220.765 398.534 220.714 398.048 220.531C397.566 220.354 397.189 220.026 396.916 219.545C396.664 219.102 396.556 218.645 396.592 218.174C396.632 217.711 396.799 217.274 397.093 216.862C397.387 216.451 397.79 216.1 398.3 215.81ZM400.91 220.533C400.648 220.829 400.463 221.158 400.357 221.522C400.243 221.89 400.279 222.236 400.464 222.562C400.657 222.902 400.946 223.109 401.331 223.184C401.716 223.259 402.1 223.187 402.485 222.968C402.862 222.754 403.116 222.478 403.246 222.14C403.381 221.809 403.358 221.484 403.177 221.166C402.997 220.849 402.703 220.634 402.298 220.522C401.884 220.414 401.422 220.418 400.91 220.533ZM398.793 216.703C398.32 216.972 398.001 217.315 397.836 217.731C397.676 218.155 397.705 218.559 397.923 218.943C398.125 219.298 398.465 219.526 398.942 219.626C399.412 219.731 399.982 219.725 400.65 219.61C400.893 219.384 401.096 219.131 401.261 218.852C401.425 218.573 401.522 218.288 401.552 217.997C401.582 217.705 401.522 217.427 401.371 217.161C401.215 216.887 401.001 216.681 400.727 216.544C400.445 216.41 400.136 216.356 399.798 216.382C399.461 216.407 399.125 216.514 398.793 216.703ZM387.046 222.249L390.354 223.552L390.918 220.078L391.981 220.295L391.284 223.846L394.556 225.009L394.164 226.126L391.068 224.834L390.601 228.092L389.499 227.882L390.145 224.552L386.657 223.32L387.046 222.249ZM379.964 226.228C380.445 225.955 380.898 225.781 381.325 225.705C381.755 225.636 382.149 225.623 382.505 225.665L382.523 226.755C382.228 226.717 381.91 226.717 381.569 226.754C381.228 226.791 380.862 226.921 380.47 227.144C379.982 227.421 379.671 227.769 379.537 228.188C379.396 228.61 379.434 229.014 379.653 229.398C379.808 229.672 380.023 229.878 380.297 230.015C380.575 230.16 380.909 230.215 381.3 230.179C381.683 230.147 382.118 229.993 382.606 229.716L383.227 229.363L383.687 230.172L383.11 230.5C382.674 230.748 382.353 231.018 382.148 231.311C381.935 231.608 381.82 231.903 381.801 232.198C381.782 232.492 381.84 232.757 381.975 232.994C382.172 233.341 382.465 233.547 382.853 233.61C383.234 233.677 383.616 233.602 384.001 233.383C384.348 233.186 384.625 232.95 384.831 232.676C385.035 232.414 385.181 232.165 385.271 231.928L386.129 232.482C385.991 232.756 385.789 233.062 385.521 233.4C385.258 233.745 384.893 234.05 384.427 234.315C383.939 234.592 383.475 234.738 383.034 234.754C382.593 234.77 382.2 234.681 381.854 234.486C381.505 234.302 381.234 234.041 381.041 233.7C380.793 233.264 380.696 232.835 380.75 232.413C380.796 231.996 380.965 231.578 381.255 231.158C380.688 231.246 380.176 231.189 379.72 230.989C379.261 230.8 378.901 230.476 378.64 230.018C378.422 229.633 378.308 229.209 378.299 228.745C378.286 228.292 378.413 227.844 378.678 227.399C378.937 226.959 379.365 226.569 379.964 226.228ZM374.256 227.843L375.033 227.842C375.113 228.637 375.274 229.471 375.514 230.341C375.755 231.212 376.129 232.095 376.638 232.99C377.15 233.892 377.719 234.669 378.344 235.321C378.973 235.981 379.605 236.541 380.238 237.003L379.84 237.67C378.94 237.154 378.136 236.574 377.428 235.93C376.724 235.293 376.109 234.512 375.584 233.588C375.097 232.731 374.753 231.825 374.554 230.872C374.359 229.927 374.26 228.917 374.256 227.843ZM369.305 239.518C369.505 239.405 369.721 239.38 369.953 239.444C370.184 239.507 370.357 239.639 370.471 239.839C370.601 240.068 370.637 240.287 370.58 240.496C370.522 240.704 370.379 240.874 370.15 241.004C369.957 241.113 369.745 241.136 369.513 241.072C369.274 241.013 369.098 240.883 368.984 240.683C368.858 240.461 368.826 240.24 368.886 240.02C368.951 239.807 369.091 239.64 369.305 239.518ZM370.074 236.455L370.59 237.365L366.82 239.507L366.303 238.598L370.074 236.455ZM366.721 234.971C366.921 234.857 367.137 234.833 367.369 234.896C367.601 234.96 367.773 235.092 367.887 235.292C368.017 235.521 368.053 235.74 367.996 235.949C367.938 236.157 367.795 236.327 367.566 236.457C367.374 236.566 367.162 236.589 366.93 236.525C366.69 236.465 366.514 236.336 366.401 236.136C366.275 235.914 366.242 235.693 366.303 235.473C366.367 235.26 366.507 235.093 366.721 234.971ZM355.611 240.242L356.55 241.895L359.866 240.01L360.32 240.809L361.065 247.516L359.992 247.642L359.296 241.537L357.067 242.804L358.321 245.011L357.323 245.578L356.069 243.371L355.148 243.894L354.632 242.985L355.552 242.462L354.613 240.809L355.611 240.242ZM351.009 248.652L351.507 249.529L347.137 252.012L346.639 251.135L351.009 248.652ZM349.862 246.634L350.36 247.51L345.99 249.993L345.492 249.117L349.862 246.634ZM336.24 251.073C336.706 250.808 337.203 250.677 337.733 250.68C338.259 250.694 338.779 250.877 339.293 251.231C339.807 251.584 340.276 252.135 340.7 252.881C341.057 253.51 341.312 254.148 341.465 254.795C341.614 255.453 341.644 256.091 341.555 256.709C341.459 257.331 341.232 257.905 340.875 258.431C340.518 258.956 340.011 259.406 339.353 259.78C339.286 259.817 339.214 259.854 339.136 259.888C339.055 259.935 338.982 259.971 338.919 259.997L338.402 259.088C338.466 259.061 338.534 259.027 338.608 258.985C338.686 258.951 338.759 258.914 338.825 258.877C339.631 258.419 340.156 257.793 340.399 256.999C340.64 256.217 340.575 255.364 340.206 254.439C340.113 254.756 339.949 255.088 339.716 255.436C339.488 255.791 339.166 256.086 338.752 256.321C338.338 256.556 337.914 256.67 337.479 256.663C337.045 256.656 336.636 256.531 336.254 256.288C335.869 256.057 335.541 255.705 335.272 255.232C334.966 254.692 334.806 254.152 334.792 253.612C334.776 253.084 334.891 252.598 335.138 252.154C335.384 251.711 335.752 251.35 336.24 251.073ZM336.712 252.008C336.269 252.26 336.006 252.624 335.925 253.101C335.836 253.582 335.928 254.062 336.201 254.543C336.474 255.023 336.824 255.338 337.251 255.487C337.678 255.635 338.106 255.588 338.535 255.344C338.853 255.164 339.112 254.914 339.312 254.595C339.512 254.276 339.649 253.924 339.724 253.539L339.585 253.295C339.176 252.608 338.708 252.155 338.182 251.935C337.653 251.727 337.163 251.752 336.712 252.008Z" fill="black"/>
<path d="M255.894 168.581C256.814 169.134 257.631 169.736 258.343 170.387C259.06 171.046 259.662 171.805 260.149 172.662C260.674 173.587 261.03 174.514 261.217 175.445C261.4 176.387 261.487 177.375 261.477 178.407L260.7 178.409C260.621 177.632 260.462 176.803 260.225 175.92C259.985 175.049 259.608 174.163 259.096 173.261C258.587 172.366 258.021 171.593 257.396 170.941C256.763 170.292 256.13 169.728 255.495 169.248L255.894 168.581ZM253.843 171.551L254.347 172.438L252.761 173.339L255.943 178.94L256.793 176.975L257.759 177.41L256.402 180.367L255.67 180.783L251.763 173.906L250.443 174.656L249.939 173.769L253.843 171.551ZM240.728 178.871L244.036 180.175L244.6 176.7L245.663 176.918L244.966 180.468L248.238 181.631L247.846 182.749L244.75 181.457L244.283 184.715L243.181 184.505L243.826 181.174L240.339 179.943L240.728 178.871ZM235.618 181.906C235.716 182.027 235.805 182.157 235.885 182.298C236.158 182.778 236.32 183.253 236.372 183.723C236.42 184.204 236.399 184.675 236.31 185.137C236.224 185.606 236.109 186.058 235.965 186.492C235.817 186.938 235.683 187.357 235.563 187.748C235.44 188.15 235.364 188.526 235.337 188.874C235.31 189.222 235.374 189.532 235.529 189.806C235.706 190.116 235.965 190.306 236.308 190.376C236.655 190.453 237.01 190.388 237.372 190.182C237.682 190.006 237.931 189.781 238.119 189.508C238.303 189.247 238.447 188.95 238.551 188.617L239.49 188.979C239.346 189.413 239.142 189.812 238.88 190.176C238.61 190.545 238.238 190.864 237.765 191.132C237.329 191.38 236.9 191.512 236.478 191.526C236.06 191.549 235.68 191.466 235.339 191.278C234.991 191.095 234.715 190.826 234.514 190.471C234.312 190.116 234.203 189.743 234.186 189.352C234.169 188.96 234.207 188.562 234.299 188.157C234.392 187.753 234.508 187.345 234.646 186.934C234.788 186.53 234.915 186.125 235.027 185.719C235.138 185.314 235.207 184.918 235.232 184.532C235.25 184.15 235.189 183.784 235.048 183.433L231.632 185.374L231.115 184.465L235.618 181.906ZM227.938 184.466L228.715 184.464C228.795 185.26 228.956 186.093 229.196 186.964C229.437 187.835 229.811 188.717 230.319 189.612C230.832 190.514 231.401 191.291 232.026 191.944C232.655 192.603 233.286 193.164 233.92 193.625L233.521 194.292C232.622 193.776 231.818 193.196 231.11 192.552C230.406 191.915 229.791 191.135 229.266 190.211C228.778 189.353 228.435 188.448 228.236 187.495C228.041 186.549 227.942 185.539 227.938 184.466ZM223.748 186.847C224.668 187.399 225.485 188.002 226.197 188.653C226.914 189.312 227.516 190.07 228.004 190.928C228.529 191.852 228.885 192.78 229.071 193.71C229.254 194.653 229.341 195.64 229.331 196.673L228.554 196.674C228.475 195.898 228.317 195.068 228.08 194.186C227.839 193.315 227.462 192.429 226.95 191.527C226.442 190.632 225.875 189.858 225.25 189.206C224.618 188.558 223.984 187.994 223.349 187.513L223.748 186.847ZM220.224 190.477C220.675 190.221 221.09 190.049 221.47 189.96C221.855 189.879 222.232 189.855 222.603 189.888L222.567 191.038C222.276 191.008 221.976 191.013 221.666 191.052C221.36 191.099 221.048 191.212 220.73 191.393C220.234 191.675 219.915 192.042 219.771 192.495C219.632 192.956 219.688 193.408 219.94 193.852C220.201 194.31 220.572 194.593 221.054 194.701C221.532 194.82 222.064 194.714 222.648 194.382L224.023 193.6L226.241 197.504L222.404 199.685L221.894 198.786L224.788 197.142L223.591 195.034L223.036 195.349C222.46 195.677 221.911 195.857 221.391 195.888C220.864 195.924 220.392 195.825 219.976 195.592C219.552 195.363 219.21 195.02 218.95 194.561C218.668 194.066 218.533 193.561 218.544 193.046C218.551 192.543 218.695 192.065 218.976 191.612C219.261 191.166 219.677 190.788 220.224 190.477ZM211.346 197.767L212.373 199.574L214.07 198.61L214.562 199.475L212.865 200.439L213.892 202.247L212.949 202.783L211.922 200.975L210.236 201.933L209.745 201.068L211.431 200.11L210.403 198.302L211.346 197.767ZM199.886 202.034C200.448 201.715 200.99 201.533 201.513 201.49C202.037 201.447 202.505 201.523 202.919 201.719C203.33 201.925 203.649 202.228 203.876 202.627C204.149 203.108 204.257 203.599 204.2 204.101C204.135 204.607 203.892 205.142 203.468 205.705C203.982 205.697 204.426 205.773 204.8 205.932C205.171 206.102 205.476 206.399 205.715 206.82C205.93 207.197 206.017 207.583 205.977 207.977C205.941 208.379 205.799 208.758 205.552 209.114C205.297 209.474 204.958 209.774 204.537 210.013C204.078 210.274 203.627 210.418 203.183 210.445C202.743 210.48 202.345 210.408 201.989 210.228C201.626 210.054 201.343 209.789 201.141 209.434C200.885 208.983 200.792 208.552 200.861 208.14C200.931 207.729 201.103 207.318 201.378 206.908C200.701 206.989 200.119 206.938 199.634 206.755C199.152 206.578 198.775 206.25 198.502 205.769C198.25 205.326 198.141 204.869 198.177 204.398C198.218 203.935 198.385 203.498 198.679 203.086C198.973 202.675 199.375 202.324 199.886 202.034ZM202.496 206.757C202.234 207.053 202.049 207.382 201.943 207.746C201.829 208.114 201.865 208.46 202.049 208.786C202.243 209.126 202.532 209.333 202.917 209.408C203.301 209.483 203.686 209.411 204.071 209.192C204.448 208.978 204.701 208.702 204.832 208.364C204.967 208.033 204.944 207.708 204.763 207.39C204.582 207.072 204.289 206.858 203.883 206.746C203.47 206.638 203.008 206.642 202.496 206.757ZM200.379 202.927C199.905 203.196 199.587 203.539 199.422 203.955C199.262 204.379 199.291 204.783 199.509 205.167C199.711 205.522 200.051 205.75 200.528 205.85C200.998 205.955 201.567 205.949 202.235 205.834C202.479 205.608 202.682 205.355 202.846 205.076C203.011 204.797 203.108 204.512 203.138 204.221C203.168 203.929 203.108 203.651 202.957 203.385C202.801 203.111 202.586 202.905 202.312 202.768C202.031 202.634 201.722 202.58 201.384 202.606C201.047 202.631 200.711 202.738 200.379 202.927ZM194.688 203.359L195.464 203.358C195.545 204.153 195.705 204.986 195.946 205.857C196.186 206.728 196.561 207.611 197.069 208.505C197.582 209.407 198.15 210.185 198.775 210.837C199.404 211.497 200.036 212.057 200.67 212.519L200.271 213.185C199.371 212.669 198.568 212.089 197.859 211.445C197.155 210.809 196.54 210.028 196.015 209.104C195.528 208.246 195.185 207.341 194.986 206.388C194.791 205.442 194.691 204.433 194.688 203.359ZM191.391 212.832L191.888 213.708L187.519 216.191L187.021 215.315L191.391 212.832ZM190.244 210.814L190.742 211.69L186.372 214.173L185.874 213.297L190.244 210.814ZM179.093 214.025C179.19 214.145 179.279 214.276 179.359 214.416C179.632 214.897 179.794 215.372 179.846 215.841C179.894 216.323 179.874 216.794 179.784 217.256C179.699 217.725 179.584 218.177 179.439 218.611C179.291 219.057 179.157 219.475 179.037 219.866C178.914 220.269 178.839 220.644 178.811 220.992C178.784 221.34 178.848 221.651 179.004 221.925C179.18 222.235 179.44 222.425 179.782 222.494C180.129 222.571 180.484 222.507 180.846 222.301C181.157 222.124 181.406 221.9 181.593 221.627C181.777 221.366 181.921 221.069 182.026 220.736L182.964 221.097C182.82 221.531 182.616 221.931 182.354 222.295C182.084 222.663 181.713 222.982 181.239 223.251C180.803 223.499 180.374 223.63 179.952 223.645C179.534 223.667 179.155 223.585 178.814 223.397C178.465 223.214 178.19 222.945 177.988 222.59C177.786 222.235 177.677 221.862 177.66 221.47C177.643 221.079 177.681 220.681 177.774 220.276C177.866 219.871 177.982 219.463 178.12 219.052C178.262 218.649 178.389 218.244 178.501 217.838C178.613 217.432 178.681 217.036 178.707 216.65C178.724 216.269 178.663 215.902 178.522 215.552L175.107 217.493L174.59 216.583L179.093 214.025ZM169.971 219.032C170.437 218.767 170.935 218.636 171.464 218.638C171.991 218.652 172.511 218.836 173.025 219.189C173.538 219.543 174.008 220.093 174.432 220.84C174.789 221.468 175.044 222.106 175.196 222.753C175.345 223.412 175.376 224.05 175.286 224.668C175.19 225.29 174.963 225.864 174.607 226.389C174.25 226.914 173.743 227.364 173.085 227.738C173.018 227.776 172.946 227.812 172.867 227.847C172.786 227.893 172.714 227.929 172.65 227.955L172.134 227.046C172.197 227.02 172.266 226.986 172.34 226.944C172.418 226.909 172.49 226.873 172.557 226.835C173.363 226.377 173.887 225.751 174.131 224.958C174.371 224.175 174.307 223.322 173.938 222.397C173.844 222.714 173.681 223.047 173.448 223.394C173.219 223.749 172.898 224.044 172.484 224.28C172.07 224.515 171.645 224.629 171.211 224.621C170.776 224.614 170.368 224.489 169.986 224.247C169.6 224.016 169.273 223.664 169.004 223.19C168.697 222.651 168.537 222.111 168.524 221.571C168.507 221.042 168.622 220.556 168.869 220.113C169.116 219.669 169.483 219.309 169.971 219.032ZM170.444 219.966C170 220.218 169.738 220.583 169.656 221.059C169.568 221.54 169.66 222.021 169.933 222.501C170.206 222.982 170.556 223.297 170.983 223.445C171.41 223.594 171.837 223.546 172.266 223.303C172.584 223.122 172.843 222.872 173.043 222.553C173.243 222.234 173.381 221.882 173.456 221.497L173.317 221.253C172.907 220.567 172.44 220.113 171.914 219.894C171.385 219.686 170.895 219.71 170.444 219.966Z" fill="black"/>
<path d="M185.621 84.52C186.087 84.2553 186.584 84.1242 187.114 84.1265C187.64 84.1404 188.16 84.3242 188.674 84.6777C189.188 85.0313 189.657 85.5814 190.082 86.3282C190.439 86.9567 190.693 87.5944 190.846 88.2414C190.995 88.8999 191.025 89.5382 190.936 90.156C190.84 90.7781 190.613 91.3519 190.256 91.8774C189.9 92.4029 189.392 92.8526 188.734 93.2265C188.668 93.2643 188.595 93.3005 188.517 93.3351C188.436 93.3814 188.363 93.4176 188.3 93.4438L187.783 92.5343C187.847 92.5081 187.915 92.474 187.989 92.432C188.067 92.3974 188.14 92.3612 188.206 92.3234C189.012 91.8654 189.537 91.2396 189.78 90.4459C190.021 89.6639 189.956 88.8104 189.587 87.8855C189.494 88.2028 189.33 88.5351 189.098 88.8827C188.869 89.2376 188.547 89.5327 188.133 89.7679C187.719 90.0032 187.295 90.1171 186.86 90.1098C186.426 90.1024 186.017 89.9774 185.635 89.735C185.25 89.5041 184.923 89.152 184.654 88.6788C184.347 88.1391 184.187 87.5992 184.173 87.0591C184.157 86.5306 184.272 86.0446 184.519 85.6011C184.766 85.1577 185.133 84.7973 185.621 84.52ZM186.093 85.4547C185.65 85.7067 185.387 86.0711 185.306 86.5476C185.217 87.0284 185.309 87.5091 185.582 87.9897C185.856 88.4703 186.206 88.7849 186.632 88.9336C187.059 89.0823 187.487 89.0349 187.916 88.7912C188.234 88.6105 188.493 88.3607 188.693 88.0415C188.893 87.7224 189.031 87.3704 189.105 86.9856L188.967 86.7416C188.557 86.055 188.089 85.6019 187.563 85.3823C187.034 85.1743 186.544 85.1984 186.093 85.4547ZM178.235 91.1816L179.185 91.4339L178.533 93.7708L180.881 94.4173L180.617 95.3739L178.274 94.71L177.645 97.0628L176.688 96.7994L177.335 94.4514L174.993 93.816L175.263 92.8705L177.593 93.5122L178.235 91.1816ZM165.092 96.3609L166.031 98.0134L169.347 96.1291L169.801 96.9277L170.546 103.635L169.473 103.76L168.777 97.6562L166.548 98.9228L167.802 101.13L166.804 101.697L165.55 99.49L164.629 100.013L164.112 99.1036L165.033 98.5806L164.094 96.9281L165.092 96.3609ZM160.49 104.771L160.988 105.647L156.618 108.13L156.12 107.254L160.49 104.771ZM159.343 102.753L159.841 103.629L155.471 106.112L154.973 105.236L159.343 102.753ZM148.192 105.964C148.29 106.084 148.378 106.215 148.458 106.355C148.731 106.836 148.894 107.311 148.945 107.78C148.994 108.262 148.973 108.733 148.883 109.195C148.798 109.664 148.683 110.116 148.538 110.55C148.39 110.996 148.257 111.414 148.136 111.805C148.013 112.208 147.938 112.583 147.911 112.931C147.883 113.279 147.947 113.59 148.103 113.864C148.279 114.174 148.539 114.364 148.882 114.433C149.228 114.51 149.583 114.446 149.945 114.24C150.256 114.063 150.505 113.839 150.692 113.566C150.876 113.305 151.02 113.008 151.125 112.675L152.064 113.036C151.919 113.47 151.716 113.87 151.453 114.234C151.183 114.603 150.812 114.921 150.338 115.19C149.902 115.438 149.473 115.569 149.051 115.584C148.633 115.606 148.254 115.524 147.913 115.336C147.564 115.153 147.289 114.884 147.087 114.529C146.885 114.174 146.776 113.801 146.759 113.409C146.742 113.018 146.78 112.62 146.873 112.215C146.966 111.81 147.081 111.402 147.219 110.991C147.361 110.588 147.488 110.183 147.6 109.777C147.712 109.371 147.78 108.975 147.806 108.589C147.823 108.208 147.762 107.841 147.622 107.491L144.206 109.432L143.689 108.522L148.192 105.964ZM138.492 111.476L139.431 113.128L142.747 111.244L143.201 112.042L143.945 118.749L142.872 118.875L142.177 112.771L139.947 114.037L141.201 116.245L140.203 116.812L138.949 114.605L138.029 115.128L137.512 114.218L138.433 113.695L137.494 112.043L138.492 111.476Z" fill="black"/>
<path d="M225.651 125.038L226.155 125.925L224.569 126.826L227.752 132.427L228.601 130.462L229.567 130.897L228.21 133.854L227.478 134.269L223.571 127.393L222.251 128.143L221.747 127.256L225.651 125.038ZM217.14 129.698C217.702 129.379 218.244 129.197 218.768 129.154C219.291 129.111 219.759 129.187 220.174 129.382C220.584 129.589 220.903 129.892 221.13 130.291C221.403 130.772 221.511 131.263 221.454 131.765C221.39 132.271 221.146 132.806 220.722 133.369C221.236 133.361 221.68 133.437 222.054 133.596C222.425 133.766 222.73 134.062 222.97 134.484C223.184 134.861 223.271 135.247 223.231 135.641C223.195 136.043 223.053 136.422 222.806 136.778C222.551 137.138 222.212 137.438 221.791 137.677C221.333 137.938 220.881 138.082 220.437 138.109C219.997 138.144 219.599 138.072 219.243 137.892C218.88 137.717 218.597 137.453 218.395 137.098C218.139 136.647 218.046 136.216 218.115 135.804C218.185 135.393 218.357 134.982 218.633 134.571C217.955 134.653 217.374 134.602 216.888 134.419C216.406 134.242 216.029 133.914 215.756 133.433C215.504 132.99 215.396 132.533 215.432 132.062C215.472 131.599 215.639 131.162 215.933 130.75C216.227 130.339 216.63 129.988 217.14 129.698ZM219.75 134.421C219.488 134.716 219.303 135.046 219.197 135.41C219.083 135.778 219.119 136.124 219.304 136.45C219.497 136.79 219.786 136.997 220.171 137.072C220.556 137.147 220.94 137.075 221.325 136.856C221.702 136.642 221.956 136.366 222.086 136.028C222.221 135.697 222.198 135.372 222.017 135.054C221.837 134.736 221.543 134.522 221.138 134.41C220.724 134.302 220.262 134.306 219.75 134.421ZM217.633 130.591C217.16 130.86 216.841 131.203 216.676 131.619C216.516 132.043 216.545 132.447 216.763 132.831C216.965 133.186 217.305 133.414 217.782 133.514C218.252 133.619 218.822 133.613 219.49 133.498C219.733 133.271 219.936 133.019 220.101 132.74C220.265 132.461 220.362 132.175 220.392 131.884C220.422 131.593 220.362 131.315 220.211 131.049C220.055 130.775 219.841 130.569 219.567 130.432C219.285 130.298 218.976 130.244 218.638 130.269C218.301 130.295 217.965 130.402 217.633 130.591ZM210.316 140.808C210.515 140.695 210.731 140.67 210.963 140.734C211.195 140.798 211.368 140.93 211.481 141.129C211.611 141.358 211.648 141.577 211.59 141.786C211.533 141.995 211.389 142.164 211.16 142.294C210.968 142.404 210.756 142.426 210.524 142.363C210.285 142.303 210.108 142.173 209.995 141.974C209.869 141.752 209.836 141.531 209.897 141.31C209.962 141.098 210.101 140.93 210.316 140.808ZM211.084 137.745L211.601 138.655L207.83 140.798L207.313 139.888L211.084 137.745ZM207.732 136.261C207.932 136.148 208.147 136.123 208.379 136.187C208.611 136.251 208.784 136.382 208.897 136.582C209.028 136.811 209.064 137.03 209.006 137.239C208.949 137.448 208.806 137.617 208.576 137.747C208.384 137.857 208.172 137.879 207.94 137.815C207.701 137.756 207.525 137.626 207.411 137.426C207.285 137.205 207.252 136.984 207.313 136.763C207.378 136.55 207.518 136.383 207.732 136.261ZM199.672 139.799C199.77 139.92 199.858 140.05 199.938 140.191C200.211 140.671 200.374 141.147 200.425 141.616C200.474 142.097 200.453 142.569 200.363 143.03C200.278 143.5 200.163 143.951 200.018 144.385C199.871 144.831 199.737 145.25 199.616 145.641C199.493 146.043 199.418 146.419 199.391 146.767C199.363 147.115 199.428 147.426 199.583 147.699C199.759 148.01 200.019 148.2 200.362 148.269C200.708 148.346 201.063 148.281 201.425 148.075C201.736 147.899 201.985 147.674 202.172 147.402C202.356 147.14 202.501 146.843 202.605 146.51L203.544 146.872C203.399 147.306 203.196 147.705 202.933 148.07C202.663 148.438 202.292 148.757 201.819 149.026C201.382 149.274 200.953 149.405 200.531 149.42C200.114 149.442 199.734 149.359 199.393 149.172C199.044 148.988 198.769 148.719 198.567 148.364C198.366 148.009 198.256 147.636 198.239 147.245C198.222 146.854 198.26 146.455 198.353 146.051C198.446 145.646 198.561 145.238 198.699 144.827C198.841 144.423 198.969 144.018 199.08 143.613C199.192 143.207 199.26 142.811 199.286 142.425C199.303 142.043 199.242 141.677 199.102 141.326L195.686 143.267L195.169 142.358L199.672 139.799ZM188.7 148.103L189.727 149.91L191.424 148.946L191.915 149.811L190.219 150.775L191.246 152.583L190.303 153.119L189.276 151.311L187.59 152.269L187.099 151.404L188.784 150.446L187.757 148.638L188.7 148.103ZM178.535 151.81C179.018 152.66 179.391 153.446 179.654 154.167C179.914 154.899 180.088 155.593 180.176 156.247C180.257 156.905 180.262 157.553 180.193 158.188C180.124 158.824 180.001 159.476 179.823 160.145L183.561 158.021L184.077 158.93L179.153 161.728L178.699 160.93C178.928 160.145 179.078 159.419 179.149 158.752C179.225 158.093 179.217 157.442 179.126 156.8C179.038 156.165 178.852 155.493 178.567 154.784C178.286 154.083 177.902 153.304 177.415 152.446L178.535 151.81ZM172.069 161.279L172.567 162.155L168.197 164.638L167.7 163.762L172.069 161.279ZM170.922 159.26L171.42 160.136L167.05 162.619L166.553 161.743L170.922 159.26ZM159.15 162.824L159.654 163.712L158.068 164.613L161.251 170.213L162.101 168.249L163.066 168.683L161.709 171.64L160.977 172.056L157.07 165.18L155.75 165.93L155.246 165.043L159.15 162.824ZM150.65 167.478C151.116 167.213 151.613 167.082 152.143 167.085C152.669 167.099 153.189 167.282 153.703 167.636C154.217 167.989 154.686 168.54 155.111 169.286C155.468 169.915 155.722 170.553 155.875 171.2C156.024 171.858 156.054 172.496 155.965 173.114C155.869 173.736 155.642 174.31 155.285 174.836C154.929 175.361 154.421 175.811 153.763 176.185C153.697 176.222 153.624 176.259 153.546 176.293C153.465 176.339 153.393 176.376 153.329 176.402L152.812 175.492C152.876 175.466 152.944 175.432 153.018 175.39C153.096 175.356 153.169 175.319 153.235 175.281C154.041 174.824 154.566 174.198 154.809 173.404C155.05 172.622 154.985 171.769 154.616 170.844C154.523 171.161 154.359 171.493 154.127 171.841C153.898 172.196 153.577 172.491 153.162 172.726C152.748 172.961 152.324 173.075 151.89 173.068C151.455 173.061 151.047 172.936 150.664 172.693C150.279 172.462 149.952 172.11 149.683 171.637C149.376 171.097 149.216 170.557 149.202 170.017C149.186 169.489 149.301 169.003 149.548 168.559C149.795 168.116 150.162 167.755 150.65 167.478ZM151.122 168.413C150.679 168.665 150.416 169.029 150.335 169.506C150.246 169.987 150.338 170.467 150.612 170.948C150.885 171.428 151.235 171.743 151.661 171.892C152.088 172.04 152.516 171.993 152.945 171.749C153.263 171.569 153.522 171.319 153.722 171C153.922 170.681 154.06 170.329 154.134 169.944L153.996 169.7C153.586 169.013 153.118 168.56 152.592 168.34C152.063 168.132 151.573 168.157 151.122 168.413Z" fill="black"/>
<path d="M289.617 25.3906C289.715 25.5111 289.804 25.6416 289.884 25.7821C290.157 26.2627 290.319 26.7377 290.371 27.2072C290.419 27.6883 290.399 28.1598 290.309 28.6216C290.223 29.0907 290.108 29.5424 289.964 29.9767C289.816 30.4225 289.682 30.8409 289.562 31.2319C289.439 31.6346 289.363 32.0099 289.336 32.3579C289.309 32.7059 289.373 33.0167 289.529 33.2903C289.705 33.6008 289.965 33.7908 290.307 33.8602C290.654 33.937 291.009 33.8725 291.371 33.6666C291.681 33.4901 291.93 33.2655 292.118 32.9928C292.302 32.7317 292.446 32.4346 292.55 32.1015L293.489 32.4629C293.345 32.8972 293.141 33.2964 292.879 33.6608C292.609 34.0293 292.237 34.348 291.764 34.6169C291.328 34.8647 290.899 34.9961 290.477 35.0109C290.059 35.0331 289.68 34.9504 289.338 34.7629C288.99 34.5795 288.714 34.3104 288.513 33.9555C288.311 33.6006 288.202 33.2275 288.185 32.8361C288.168 32.4447 288.206 32.0467 288.298 31.6418C288.391 31.237 288.507 30.8291 288.645 30.4181C288.787 30.0144 288.914 29.6097 289.026 29.2038C289.138 28.798 289.206 28.4021 289.231 28.0161C289.249 27.6343 289.188 27.2682 289.047 26.9176L285.631 28.8586L285.115 27.9492L289.617 25.3906ZM280.873 30.1831C281.324 29.9268 281.74 29.7543 282.12 29.6656C282.504 29.5843 282.881 29.5604 283.253 29.594L283.217 30.7442C282.926 30.7139 282.625 30.7185 282.315 30.7578C282.009 30.8045 281.697 30.9182 281.379 31.0989C280.883 31.3803 280.564 31.7477 280.421 32.2009C280.281 32.6615 280.338 33.1136 280.59 33.5573C280.85 34.0157 281.221 34.2987 281.703 34.4064C282.182 34.5257 282.713 34.4194 283.297 34.0875L284.672 33.3061L286.891 37.21L283.053 39.3905L282.543 38.4921L285.437 36.8473L284.24 34.7401L283.686 35.0552C283.109 35.3829 282.56 35.5625 282.04 35.5939C281.513 35.6295 281.041 35.5308 280.625 35.2978C280.202 35.0689 279.86 34.7253 279.599 34.2668C279.318 33.7715 279.182 33.2664 279.193 32.7517C279.201 32.2486 279.345 31.7706 279.625 31.3177C279.91 30.8722 280.326 30.494 280.873 30.1831ZM274.43 38.4513L274.946 39.3608L271.175 41.5034L270.659 40.594L274.43 38.4513ZM261.83 41.1795C262.314 42.0298 262.687 42.8155 262.95 43.5366C263.209 44.2692 263.383 44.9627 263.471 45.6168C263.552 46.2752 263.558 46.9224 263.489 47.5582C263.42 48.1941 263.296 48.8462 263.119 49.5145L266.856 47.3908L267.373 48.3002L262.449 51.0983L261.995 50.2997C262.224 49.5145 262.374 48.7886 262.445 48.1221C262.52 47.4631 262.512 46.8122 262.421 46.1696C262.334 45.5344 262.148 44.8626 261.863 44.1542C261.582 43.4531 261.198 42.6737 260.71 41.816L261.83 41.1795ZM255.365 50.6486L255.863 51.5247L251.493 54.0077L250.995 53.1315L255.365 50.6486ZM254.218 48.6301L254.716 49.5062L250.346 51.9892L249.848 51.113L254.218 48.6301ZM242.446 52.1941L242.95 53.0814L241.364 53.9825L244.546 59.5833L245.396 57.6187L246.362 58.053L245.005 61.01L244.273 61.4259L240.366 54.5497L239.046 55.2996L238.542 54.4124L242.446 52.1941ZM233.934 56.8543C234.496 56.535 235.039 56.3538 235.562 56.3108C236.086 56.2678 236.554 56.3438 236.968 56.5389C237.379 56.7456 237.698 57.0486 237.925 57.4478C238.198 57.9284 238.306 58.4197 238.249 58.9216C238.184 59.4278 237.94 59.9625 237.517 60.5258C238.031 60.5175 238.475 60.593 238.849 60.7521C239.22 60.9228 239.525 61.2189 239.764 61.6404C239.979 62.0174 240.066 62.4032 240.026 62.7976C239.99 63.1994 239.848 63.5782 239.601 63.9341C239.345 64.2943 239.007 64.5941 238.586 64.8335C238.127 65.094 237.676 65.238 237.232 65.2654C236.792 65.3001 236.394 65.228 236.038 65.0489C235.674 64.8739 235.392 64.609 235.19 64.2541C234.934 63.8031 234.841 63.372 234.91 62.9608C234.98 62.5496 235.152 62.1386 235.427 61.7279C234.75 61.8096 234.168 61.7586 233.683 61.575C233.201 61.3987 232.824 61.0703 232.55 60.5897C232.298 60.146 232.19 59.6891 232.226 59.2187C232.266 58.7557 232.434 58.3184 232.728 57.9067C233.022 57.495 233.424 57.1442 233.934 56.8543ZM236.545 61.5772C236.282 61.8729 236.098 62.2026 235.992 62.5663C235.878 62.9341 235.914 63.2807 236.098 63.606C236.292 63.9462 236.581 64.1536 236.965 64.2284C237.35 64.3031 237.735 64.2313 238.119 64.0128C238.497 63.7986 238.75 63.5223 238.881 63.184C239.016 62.8531 238.993 62.5287 238.812 62.2108C238.631 61.8929 238.338 61.678 237.932 61.5663C237.519 61.4588 237.057 61.4624 236.545 61.5772ZM234.428 57.7479C233.954 58.0167 233.635 58.3593 233.471 58.7755C233.311 59.1992 233.34 59.6032 233.558 59.9877C233.76 60.3426 234.099 60.5702 234.577 60.6705C235.047 60.775 235.616 60.7696 236.284 60.6541C236.527 60.4279 236.731 60.1753 236.895 59.8961C237.059 59.617 237.157 59.3319 237.187 59.0409C237.217 58.7498 237.157 58.4712 237.005 58.205C236.85 57.9315 236.635 57.7258 236.361 57.588C236.08 57.4544 235.771 57.4004 235.433 57.4259C235.095 57.4515 234.76 57.5588 234.428 57.7479Z" fill="black"/>
<path d="M326.354 68.0279C326.452 68.1484 326.541 68.2789 326.621 68.4194C326.894 68.9 327.056 69.375 327.108 69.8445C327.156 70.3256 327.136 70.7971 327.046 71.2589C326.96 71.728 326.845 72.1797 326.701 72.614C326.553 73.0598 326.419 73.4782 326.299 73.8693C326.176 74.2719 326.101 74.6472 326.073 74.9952C326.046 75.3433 326.11 75.654 326.266 75.9276C326.442 76.2382 326.702 76.4281 327.044 76.4975C327.391 76.5743 327.746 76.5098 328.108 76.3039C328.419 76.1275 328.668 75.9029 328.855 75.6301C329.039 75.369 329.183 75.0719 329.287 74.7388L330.226 75.1002C330.082 75.5345 329.878 75.9337 329.616 76.2981C329.346 76.6666 328.974 76.9853 328.501 77.2542C328.065 77.502 327.636 77.6334 327.214 77.6482C326.796 77.6704 326.417 77.5877 326.075 77.4002C325.727 77.2169 325.452 76.9477 325.25 76.5928C325.048 76.2379 324.939 75.8648 324.922 75.4734C324.905 75.0821 324.943 74.684 325.036 74.2791C325.128 73.8743 325.244 73.4664 325.382 73.0554C325.524 72.6517 325.651 72.247 325.763 71.8412C325.875 71.4353 325.943 71.0394 325.968 70.6534C325.986 70.2716 325.925 69.9055 325.784 69.5549L322.368 71.4959L321.852 70.5865L326.354 68.0279ZM317.61 72.8204C318.061 72.5642 318.477 72.3916 318.857 72.3029C319.241 72.2216 319.619 72.1977 319.99 72.2313L319.954 73.3815C319.663 73.3512 319.362 73.3558 319.052 73.3951C318.746 73.4418 318.434 73.5555 318.116 73.7362C317.621 74.0176 317.301 74.385 317.158 74.8382C317.018 75.2988 317.075 75.7509 317.327 76.1946C317.587 76.653 317.958 76.936 318.44 77.0437C318.919 77.163 319.45 77.0567 320.034 76.7248L321.409 75.9434L323.628 79.8473L319.79 82.0278L319.28 81.1294L322.175 79.4846L320.977 77.3774L320.423 77.6925C319.846 78.0202 319.298 78.1998 318.777 78.2312C318.25 78.2669 317.778 78.1681 317.362 77.9351C316.939 77.7062 316.597 77.3626 316.336 76.9042C316.055 76.4088 315.919 75.9037 315.93 75.389C315.938 74.8859 316.082 74.4079 316.362 73.955C316.647 73.5095 317.063 73.1313 317.61 72.8204ZM310.398 84.1515C310.598 84.038 310.814 84.0133 311.045 84.0771C311.277 84.141 311.45 84.2727 311.563 84.4723C311.694 84.7015 311.73 84.9205 311.673 85.1292C311.615 85.3379 311.472 85.5074 311.243 85.6376C311.05 85.7469 310.838 85.7696 310.606 85.7057C310.367 85.6461 310.191 85.5164 310.077 85.3168C309.951 85.095 309.919 84.8739 309.979 84.6536C310.044 84.4407 310.184 84.2733 310.398 84.1515ZM311.167 81.0886L311.683 81.9981L307.913 84.1407L307.396 83.2313L311.167 81.0886ZM307.814 79.6043C308.014 79.4909 308.23 79.4661 308.462 79.5299C308.694 79.5938 308.866 79.7255 308.98 79.9252C309.11 80.1544 309.146 80.3733 309.089 80.582C309.031 80.7907 308.888 80.9602 308.659 81.0905C308.467 81.1997 308.255 81.2224 308.023 81.1585C307.783 81.0989 307.607 80.9692 307.494 80.7696C307.368 80.5478 307.335 80.3267 307.395 80.1064C307.46 79.8935 307.6 79.7261 307.814 79.6043ZM297.66 84.1564C298.111 83.9001 298.527 83.7276 298.906 83.6389C299.291 83.5575 299.668 83.5337 300.04 83.5673L300.003 84.7174C299.712 84.6872 299.412 84.6917 299.102 84.7311C298.796 84.7778 298.484 84.8915 298.166 85.0721C297.67 85.3536 297.351 85.721 297.207 86.1742C297.068 86.6348 297.124 87.0869 297.377 87.5305C297.637 87.989 298.008 88.272 298.49 88.3797C298.969 88.499 299.5 88.3927 300.084 88.0608L301.459 87.2794L303.677 91.1833L299.84 93.3638L299.33 92.4654L302.224 90.8206L301.027 88.7134L300.472 89.0285C299.896 89.3562 299.347 89.5358 298.827 89.5672C298.3 89.6028 297.828 89.5041 297.412 89.271C296.988 89.0422 296.646 88.6985 296.386 88.2401C296.104 87.7447 295.969 87.2397 295.98 86.725C295.987 86.2219 296.131 85.7439 296.412 85.291C296.697 84.8455 297.113 84.4673 297.66 84.1564ZM288.782 91.4456L289.809 93.2534L291.506 92.2892L291.998 93.1543L290.301 94.1185L291.328 95.9263L290.385 96.4619L289.358 94.6542L287.672 95.612L287.181 94.747L288.867 93.7891L287.839 91.9813L288.782 91.4456ZM277.333 95.7066C277.799 95.442 278.296 95.3108 278.826 95.3131C279.352 95.3271 279.872 95.5108 280.386 95.8644C280.9 96.2179 281.369 96.7681 281.793 97.5149C282.15 98.1433 282.405 98.781 282.558 99.428C282.707 100.087 282.737 100.725 282.648 101.343C282.551 101.965 282.325 102.539 281.968 103.064C281.611 103.59 281.104 104.039 280.446 104.413C280.379 104.451 280.307 104.487 280.229 104.522C280.148 104.568 280.075 104.604 280.012 104.63L279.495 103.721C279.558 103.695 279.627 103.661 279.701 103.619C279.779 103.584 279.852 103.548 279.918 103.51C280.724 103.052 281.249 102.426 281.492 101.633C281.732 100.851 281.668 99.997 281.299 99.0721C281.205 99.3894 281.042 99.7218 280.809 100.069C280.581 100.424 280.259 100.719 279.845 100.955C279.431 101.19 279.007 101.304 278.572 101.296C278.138 101.289 277.729 101.164 277.347 100.922C276.961 100.691 276.634 100.339 276.365 99.8655C276.059 99.3257 275.899 98.7858 275.885 98.2457C275.869 97.7172 275.984 97.2312 276.23 96.7878C276.477 96.3443 276.845 95.9839 277.333 95.7066ZM277.805 96.6413C277.361 96.8934 277.099 97.2577 277.018 97.7343C276.929 98.215 277.021 98.6957 277.294 99.1763C277.567 99.6569 277.917 99.9716 278.344 100.12C278.771 100.269 279.199 100.221 279.628 99.9778C279.946 99.7972 280.205 99.5473 280.405 99.2282C280.605 98.909 280.742 98.5571 280.817 98.1723L280.678 97.9283C280.269 97.2416 279.801 96.7885 279.275 96.5689C278.746 96.3609 278.256 96.385 277.805 96.6413ZM272.152 104.622L272.65 105.498L268.28 107.981L267.782 107.105L272.152 104.622ZM271.005 102.603L271.503 103.48L267.133 105.962L266.635 105.086L271.005 102.603ZM259.233 106.167L259.737 107.055L258.151 107.956L261.333 113.557L262.183 111.592L263.149 112.026L261.792 114.983L261.06 115.399L257.153 108.523L255.833 109.273L255.329 108.386L259.233 106.167ZM252.583 109.946L253.087 110.833L251.501 111.734L254.683 117.335L255.533 115.371L256.498 115.805L255.142 118.762L254.41 119.178L250.503 112.302L249.183 113.052L248.679 112.164L252.583 109.946Z" fill="black"/>
<path d="M349.086 117.22L349.59 118.107L348.004 119.009L351.187 124.609L352.036 122.645L353.002 123.079L351.645 126.036L350.913 126.452L347.006 119.576L345.686 120.326L345.182 119.438L349.086 117.22ZM340.641 121.842C341.506 121.351 342.364 121.328 343.214 121.774C344.068 122.228 344.857 123.091 345.579 124.362C346.306 125.641 346.638 126.759 346.574 127.714C346.504 128.674 346.039 129.397 345.182 129.885C344.316 130.376 343.459 130.399 342.609 129.953C341.759 129.507 340.97 128.644 340.243 127.365C339.516 126.086 339.189 124.966 339.259 124.007C339.323 123.051 339.784 122.33 340.641 121.842ZM341.147 122.758C340.814 122.947 340.584 123.205 340.457 123.532C340.326 123.87 340.326 124.3 340.457 124.823C340.58 125.35 340.858 125.994 341.291 126.755C341.87 127.776 342.456 128.47 343.047 128.838C343.63 129.211 344.173 129.255 344.676 128.969C345.009 128.78 345.24 128.516 345.371 128.178C345.498 127.851 345.5 127.425 345.377 126.898C345.251 126.383 344.969 125.741 344.532 124.972C343.952 123.952 343.371 123.255 342.787 122.882C342.196 122.514 341.65 122.473 341.147 122.758ZM334.519 129.928L335.036 130.837L331.265 132.98L330.748 132.071L334.519 129.928ZM321.92 132.656C322.403 133.506 322.776 134.292 323.039 135.013C323.299 135.746 323.473 136.439 323.561 137.093C323.642 137.752 323.648 138.399 323.578 139.035C323.509 139.671 323.386 140.323 323.208 140.991L326.946 138.867L327.463 139.777L322.538 142.575L322.085 141.776C322.313 140.991 322.463 140.265 322.534 139.599C322.61 138.94 322.602 138.289 322.511 137.646C322.424 137.011 322.238 136.339 321.952 135.631C321.671 134.93 321.287 134.15 320.8 133.293L321.92 132.656ZM313.8 144.327C314 144.213 314.216 144.189 314.448 144.252C314.68 144.316 314.852 144.448 314.966 144.648C315.096 144.877 315.132 145.096 315.075 145.304C315.017 145.513 314.874 145.683 314.645 145.813C314.453 145.922 314.241 145.945 314.009 145.881C313.769 145.821 313.593 145.692 313.48 145.492C313.354 145.27 313.321 145.049 313.382 144.829C313.446 144.616 313.586 144.449 313.8 144.327ZM314.569 141.264L315.086 142.173L311.315 144.316L310.798 143.407L314.569 141.264ZM311.217 139.78C311.416 139.666 311.632 139.641 311.864 139.705C312.096 139.769 312.269 139.901 312.382 140.1C312.512 140.33 312.549 140.549 312.491 140.757C312.434 140.966 312.29 141.135 312.061 141.266C311.869 141.375 311.657 141.398 311.425 141.334C311.186 141.274 311.009 141.144 310.896 140.945C310.77 140.723 310.737 140.502 310.798 140.282C310.863 140.069 311.002 139.901 311.217 139.78ZM301.184 144.262C301.665 143.989 302.118 143.815 302.545 143.739C302.975 143.67 303.369 143.657 303.725 143.699L303.743 144.789C303.448 144.751 303.13 144.751 302.789 144.788C302.448 144.826 302.082 144.955 301.69 145.178C301.202 145.455 300.891 145.803 300.757 146.222C300.616 146.644 300.654 147.048 300.873 147.432C301.028 147.706 301.243 147.912 301.517 148.049C301.795 148.195 302.129 148.249 302.52 148.213C302.903 148.181 303.338 148.027 303.826 147.75L304.447 147.397L304.907 148.206L304.33 148.534C303.894 148.782 303.573 149.052 303.368 149.345C303.155 149.642 303.04 149.937 303.021 150.232C303.002 150.526 303.06 150.791 303.195 151.028C303.392 151.375 303.685 151.581 304.073 151.644C304.454 151.711 304.836 151.636 305.221 151.417C305.568 151.22 305.845 150.984 306.051 150.711C306.255 150.448 306.401 150.199 306.491 149.962L307.349 150.516C307.211 150.79 307.009 151.096 306.741 151.434C306.478 151.779 306.113 152.084 305.647 152.349C305.159 152.626 304.695 152.773 304.254 152.788C303.813 152.804 303.42 152.715 303.074 152.52C302.725 152.336 302.454 152.075 302.261 151.735C302.013 151.298 301.916 150.869 301.97 150.447C302.016 150.03 302.184 149.612 302.475 149.192C301.908 149.28 301.396 149.223 300.94 149.023C300.481 148.834 300.121 148.51 299.86 148.052C299.642 147.667 299.528 147.243 299.519 146.779C299.506 146.326 299.633 145.878 299.898 145.433C300.157 144.993 300.585 144.603 301.184 144.262ZM295.504 153.461L296.002 154.337L291.632 156.82L291.135 155.944L295.504 153.461ZM294.357 151.443L294.855 152.319L290.485 154.802L289.988 153.926L294.357 151.443ZM282.585 155.007L283.089 155.894L281.503 156.795L284.686 162.396L285.535 160.431L286.501 160.866L285.144 163.823L284.412 164.239L280.505 157.362L279.185 158.112L278.681 157.225L282.585 155.007Z" fill="black"/>
<path d="M280.132 219.872C280.615 220.722 280.988 221.508 281.251 222.229C281.511 222.962 281.685 223.655 281.773 224.309C281.853 224.968 281.859 225.615 281.79 226.251C281.721 226.886 281.598 227.539 281.42 228.207L285.157 226.083L285.674 226.993L280.75 229.791L280.296 228.992C280.525 228.207 280.675 227.481 280.746 226.814C280.821 226.155 280.814 225.505 280.722 224.862C280.635 224.227 280.449 223.555 280.164 222.846C279.883 222.145 279.499 221.366 279.011 220.508L280.132 219.872ZM272.773 222.249C273.693 222.801 274.51 223.404 275.223 224.055C275.939 224.714 276.541 225.472 277.029 226.33C277.554 227.254 277.91 228.182 278.096 229.112C278.28 230.055 278.366 231.042 278.356 232.075L277.58 232.076C277.5 231.3 277.342 230.47 277.105 229.588C276.864 228.717 276.488 227.831 275.975 226.929C275.467 226.034 274.9 225.26 274.275 224.608C273.643 223.96 273.009 223.396 272.374 222.915L272.773 222.249ZM269.371 225.81C269.852 225.537 270.305 225.362 270.731 225.286C271.162 225.218 271.555 225.205 271.912 225.247L271.93 226.337C271.635 226.299 271.317 226.299 270.976 226.336C270.635 226.373 270.269 226.503 269.877 226.726C269.389 227.003 269.078 227.351 268.944 227.769C268.803 228.192 268.841 228.596 269.06 228.98C269.215 229.254 269.43 229.459 269.704 229.597C269.982 229.742 270.316 229.797 270.706 229.761C271.089 229.729 271.525 229.575 272.013 229.297L272.634 228.944L273.094 229.754L272.517 230.082C272.081 230.33 271.76 230.6 271.555 230.893C271.342 231.19 271.226 231.485 271.208 231.779C271.189 232.074 271.247 232.339 271.381 232.576C271.579 232.923 271.872 233.129 272.26 233.192C272.64 233.259 273.023 233.184 273.407 232.965C273.755 232.768 274.032 232.532 274.238 232.258C274.441 231.996 274.588 231.746 274.678 231.509L275.536 232.064C275.398 232.338 275.195 232.643 274.928 232.981C274.664 233.327 274.3 233.632 273.834 233.896C273.346 234.174 272.881 234.32 272.44 234.336C271.999 234.352 271.606 234.262 271.261 234.067C270.912 233.884 270.641 233.622 270.448 233.282C270.2 232.846 270.103 232.417 270.157 231.995C270.203 231.578 270.371 231.159 270.661 230.74C270.095 230.827 269.583 230.771 269.127 230.57C268.667 230.381 268.308 230.058 268.047 229.599C267.829 229.215 267.715 228.791 267.705 228.326C267.693 227.874 267.819 227.425 268.085 226.981C268.344 226.541 268.772 226.15 269.371 225.81ZM262.037 237.21C262.237 237.097 262.452 237.072 262.684 237.136C262.916 237.2 263.089 237.332 263.202 237.531C263.333 237.76 263.369 237.979 263.311 238.188C263.254 238.397 263.111 238.566 262.881 238.697C262.689 238.806 262.477 238.829 262.245 238.765C262.006 238.705 261.83 238.575 261.716 238.376C261.59 238.154 261.557 237.933 261.618 237.713C261.683 237.5 261.823 237.332 262.037 237.21ZM262.805 234.148L263.322 235.057L259.551 237.2L259.035 236.29L262.805 234.148ZM259.453 232.663C259.653 232.55 259.869 232.525 260.1 232.589C260.332 232.653 260.505 232.784 260.618 232.984C260.749 233.213 260.785 233.432 260.728 233.641C260.67 233.85 260.527 234.019 260.298 234.149C260.105 234.259 259.893 234.281 259.661 234.217C259.422 234.158 259.246 234.028 259.132 233.829C259.006 233.607 258.974 233.386 259.034 233.165C259.099 232.952 259.239 232.785 259.453 232.663ZM250.772 236.554L251.276 237.442L249.69 238.343L252.873 243.944L253.722 241.979L254.688 242.413L253.331 245.37L252.599 245.786L248.692 238.91L247.372 239.66L246.868 238.773L250.772 236.554ZM243.713 238.761L244.49 238.76C244.57 239.555 244.73 240.388 244.971 241.259C245.211 242.13 245.586 243.013 246.094 243.907C246.607 244.809 247.175 245.587 247.8 246.239C248.429 246.899 249.061 247.459 249.695 247.921L249.296 248.587C248.397 248.071 247.593 247.491 246.884 246.847C246.18 246.211 245.566 245.43 245.04 244.506C244.553 243.648 244.21 242.743 244.011 241.79C243.816 240.844 243.716 239.835 243.713 238.761ZM239.53 247.373L240.047 248.282L236.276 250.425L235.759 249.516L239.53 247.373ZM226.09 250.403C226.519 250.159 226.945 250.015 227.37 249.969C227.798 249.931 228.23 249.969 228.667 250.083L228.435 251.198C227.726 250.984 227.099 251.033 226.551 251.344C226.248 251.516 226.024 251.776 225.879 252.122C225.738 252.476 225.713 252.916 225.806 253.44C225.891 253.969 226.129 254.577 226.52 255.264C226.631 254.927 226.788 254.608 226.989 254.308C227.19 254.008 227.453 253.766 227.779 253.581C228.17 253.358 228.594 253.235 229.05 253.211C229.502 253.198 229.938 253.302 230.358 253.524C230.774 253.757 231.129 254.132 231.423 254.65C231.688 255.116 231.826 255.6 231.837 256.102C231.841 256.608 231.718 257.079 231.467 257.515C231.22 257.959 230.849 258.321 230.353 258.603C229.969 258.821 229.606 258.949 229.265 258.986C228.925 259.023 228.607 258.998 228.313 258.911C228.031 258.827 227.759 258.693 227.498 258.509C227.233 258.336 226.956 258.063 226.666 257.69C226.38 257.325 226.054 256.82 225.688 256.177C225.13 255.194 224.796 254.322 224.687 253.562C224.582 252.81 224.659 252.17 224.916 251.642C225.166 251.118 225.558 250.705 226.09 250.403ZM228.078 254.496C227.798 254.656 227.568 254.879 227.389 255.167C227.202 255.459 227.066 255.761 226.98 256.074L227.169 256.407C227.568 257.109 228.007 257.564 228.487 257.771C228.959 257.982 229.424 257.957 229.882 257.696C230.304 257.457 230.578 257.105 230.706 256.642C230.831 256.189 230.756 255.723 230.483 255.242C230.294 254.91 230.06 254.661 229.781 254.497C229.506 254.34 229.222 254.262 228.929 254.262C228.628 254.267 228.345 254.345 228.078 254.496ZM220.465 259.57L220.963 260.446L216.594 262.929L216.096 262.053L220.465 259.57ZM219.319 257.552L219.816 258.428L215.447 260.911L214.949 260.035L219.319 257.552ZM207.546 261.116L208.051 262.003L206.465 262.904L209.647 268.505L210.497 266.54L211.462 266.975L210.106 269.932L209.374 270.348L205.466 263.471L204.147 264.221L203.642 263.334L207.546 261.116ZM201.517 264.541C201.615 264.662 201.704 264.792 201.784 264.933C202.057 265.413 202.219 265.889 202.271 266.358C202.319 266.839 202.299 267.311 202.209 267.772C202.123 268.242 202.008 268.693 201.864 269.127C201.716 269.573 201.582 269.992 201.462 270.383C201.339 270.785 201.263 271.161 201.236 271.509C201.209 271.857 201.273 272.168 201.429 272.441C201.605 272.752 201.865 272.942 202.207 273.011C202.554 273.088 202.909 273.023 203.271 272.817C203.581 272.641 203.83 272.416 204.018 272.144C204.202 271.883 204.346 271.585 204.45 271.252L205.389 271.614C205.245 272.048 205.041 272.447 204.779 272.812C204.509 273.18 204.137 273.499 203.664 273.768C203.228 274.016 202.799 274.147 202.377 274.162C201.959 274.184 201.58 274.101 201.238 273.914C200.89 273.73 200.614 273.461 200.413 273.106C200.211 272.751 200.102 272.378 200.085 271.987C200.068 271.596 200.106 271.197 200.198 270.793C200.291 270.388 200.407 269.98 200.545 269.569C200.687 269.165 200.814 268.761 200.926 268.355C201.038 267.949 201.106 267.553 201.131 267.167C201.149 266.785 201.088 266.419 200.947 266.068L197.531 268.009L197.015 267.1L201.517 264.541Z" fill="black"/>
<path d="M369.951 168.623L370.89 170.275L374.206 168.391L374.66 169.19L375.405 175.897L374.332 176.022L373.636 169.918L371.407 171.185L372.661 173.392L371.663 173.959L370.409 171.752L369.488 172.275L368.972 171.366L369.892 170.843L368.953 169.19L369.951 168.623ZM364.456 169.941C365.376 170.494 366.193 171.096 366.906 171.747C367.622 172.406 368.224 173.164 368.712 174.022C369.237 174.946 369.593 175.874 369.779 176.805C369.963 177.747 370.049 178.735 370.039 179.767L369.262 179.768C369.183 178.992 369.025 178.162 368.788 177.28C368.547 176.409 368.171 175.523 367.658 174.621C367.15 173.726 366.583 172.953 365.958 172.3C365.326 171.652 364.692 171.088 364.057 170.608L364.456 169.941ZM360.932 173.572C361.383 173.315 361.799 173.143 362.178 173.054C362.563 172.973 362.94 172.949 363.312 172.983L363.275 174.133C362.984 174.102 362.684 174.107 362.374 174.146C362.068 174.193 361.756 174.307 361.438 174.487C360.942 174.769 360.623 175.136 360.479 175.589C360.34 176.05 360.396 176.502 360.649 176.946C360.909 177.404 361.28 177.687 361.762 177.795C362.241 177.914 362.772 177.808 363.356 177.476L364.731 176.695L366.949 180.599L363.112 182.779L362.602 181.881L365.496 180.236L364.299 178.129L363.744 178.444C363.168 178.771 362.619 178.951 362.099 178.982C361.572 179.018 361.1 178.919 360.684 178.686C360.26 178.457 359.918 178.114 359.658 177.655C359.376 177.16 359.241 176.655 359.252 176.14C359.259 175.637 359.403 175.159 359.684 174.706C359.969 174.261 360.385 173.883 360.932 173.572ZM349.29 180.231L352.598 181.535L353.162 178.06L354.225 178.278L353.528 181.828L356.8 182.991L356.408 184.109L353.312 182.816L352.845 186.075L351.743 185.865L352.389 182.534L348.901 181.303L349.29 180.231ZM343.56 183.619L344.064 184.506L342.478 185.407L345.66 191.008L346.51 189.044L347.476 189.478L346.119 192.435L345.387 192.851L341.48 185.975L340.16 186.725L339.656 185.837L343.56 183.619ZM336.5 185.826L337.277 185.824C337.358 186.62 337.518 187.453 337.758 188.324C337.999 189.195 338.373 190.077 338.882 190.972C339.394 191.874 339.963 192.651 340.588 193.303C341.217 193.963 341.849 194.524 342.483 194.985L342.084 195.652C341.184 195.136 340.38 194.556 339.672 193.912C338.968 193.275 338.353 192.495 337.828 191.571C337.341 190.713 336.998 189.808 336.798 188.855C336.603 187.909 336.504 186.899 336.5 185.826ZM333.203 195.299L333.701 196.175L329.332 198.658L328.834 197.782L333.203 195.299ZM332.056 193.28L332.554 194.156L328.185 196.639L327.687 195.763L332.056 193.28ZM320.905 196.491C321.003 196.612 321.092 196.742 321.172 196.883C321.445 197.363 321.607 197.838 321.659 198.308C321.707 198.789 321.687 199.261 321.597 199.722C321.511 200.192 321.396 200.643 321.252 201.077C321.104 201.523 320.97 201.942 320.85 202.333C320.727 202.735 320.651 203.111 320.624 203.459C320.597 203.807 320.661 204.118 320.817 204.391C320.993 204.702 321.253 204.892 321.595 204.961C321.942 205.038 322.297 204.973 322.659 204.767C322.969 204.591 323.218 204.366 323.406 204.094C323.59 203.832 323.734 203.535 323.838 203.202L324.777 203.564C324.633 203.998 324.429 204.397 324.167 204.762C323.897 205.13 323.525 205.449 323.052 205.718C322.616 205.966 322.187 206.097 321.765 206.112C321.347 206.134 320.968 206.051 320.626 205.864C320.278 205.68 320.002 205.411 319.801 205.056C319.599 204.701 319.49 204.328 319.473 203.937C319.456 203.546 319.494 203.147 319.586 202.743C319.679 202.338 319.795 201.93 319.933 201.519C320.075 201.115 320.202 200.71 320.314 200.305C320.426 199.899 320.494 199.503 320.519 199.117C320.537 198.735 320.476 198.369 320.335 198.018L316.919 199.959L316.403 199.05L320.905 196.491ZM311.84 201.467C312.705 200.975 313.562 200.952 314.412 201.399C315.267 201.852 316.055 202.715 316.778 203.986C317.505 205.266 317.836 206.383 317.773 207.338C317.702 208.298 317.238 209.022 316.38 209.509C315.515 210 314.657 210.023 313.807 209.577C312.957 209.131 312.168 208.268 311.442 206.989C310.715 205.71 310.387 204.591 310.458 203.631C310.521 202.675 310.982 201.954 311.84 201.467ZM312.345 202.382C312.013 202.571 311.782 202.829 311.655 203.156C311.525 203.494 311.525 203.925 311.655 204.447C311.778 204.974 312.056 205.618 312.489 206.379C313.069 207.4 313.654 208.094 314.245 208.463C314.828 208.835 315.371 208.879 315.874 208.593C316.207 208.404 316.439 208.14 316.569 207.802C316.697 207.476 316.699 207.049 316.575 206.522C316.449 206.007 316.167 205.365 315.73 204.596C315.151 203.576 314.569 202.879 313.986 202.507C313.395 202.138 312.848 202.097 312.345 202.382Z" fill="black"/>
<path d="M301.716 270.902C302.197 270.629 302.651 270.454 303.077 270.379C303.507 270.31 303.901 270.297 304.257 270.339L304.275 271.429C303.98 271.391 303.662 271.391 303.321 271.428C302.98 271.465 302.614 271.595 302.222 271.818C301.734 272.095 301.423 272.443 301.289 272.861C301.148 273.284 301.187 273.688 301.405 274.072C301.56 274.346 301.775 274.551 302.049 274.689C302.327 274.834 302.661 274.889 303.052 274.853C303.435 274.821 303.87 274.667 304.358 274.389L304.979 274.036L305.439 274.846L304.863 275.174C304.426 275.422 304.106 275.692 303.9 275.985C303.688 276.282 303.572 276.577 303.553 276.871C303.535 277.166 303.592 277.431 303.727 277.668C303.924 278.015 304.217 278.221 304.605 278.284C304.986 278.351 305.368 278.276 305.753 278.057C306.1 277.86 306.377 277.624 306.583 277.35C306.787 277.088 306.933 276.838 307.024 276.601L307.881 277.156C307.744 277.43 307.541 277.735 307.273 278.073C307.01 278.419 306.645 278.724 306.179 278.988C305.691 279.266 305.227 279.412 304.786 279.428C304.345 279.444 303.952 279.354 303.606 279.159C303.257 278.976 302.986 278.714 302.793 278.374C302.545 277.938 302.448 277.509 302.502 277.087C302.548 276.67 302.717 276.251 303.007 275.832C302.44 275.919 301.929 275.863 301.472 275.662C301.013 275.473 300.653 275.15 300.392 274.691C300.174 274.307 300.06 273.883 300.051 273.418C300.038 272.966 300.165 272.517 300.43 272.073C300.689 271.633 301.118 271.242 301.716 270.902ZM292.717 278.261L293.744 280.068L295.441 279.104L295.932 279.969L294.235 280.933L295.263 282.741L294.32 283.277L293.293 281.469L291.607 282.427L291.115 281.562L292.801 280.604L291.774 278.796L292.717 278.261ZM281.256 282.528C281.818 282.209 282.361 282.027 282.884 281.984C283.407 281.941 283.876 282.017 284.29 282.213C284.701 282.419 285.02 282.722 285.247 283.121C285.52 283.602 285.628 284.093 285.57 284.595C285.506 285.101 285.262 285.636 284.839 286.199C285.352 286.191 285.796 286.267 286.17 286.426C286.541 286.596 286.846 286.893 287.086 287.314C287.3 287.691 287.387 288.077 287.347 288.471C287.312 288.873 287.17 289.252 286.922 289.608C286.667 289.968 286.329 290.268 285.907 290.507C285.449 290.768 284.998 290.912 284.554 290.939C284.114 290.974 283.716 290.902 283.36 290.723C282.996 290.548 282.713 290.283 282.512 289.928C282.256 289.477 282.162 289.046 282.232 288.634C282.301 288.223 282.474 287.812 282.749 287.402C282.072 287.483 281.49 287.432 281.004 287.249C280.523 287.072 280.145 286.744 279.872 286.263C279.62 285.82 279.512 285.363 279.548 284.892C279.588 284.429 279.755 283.992 280.049 283.58C280.344 283.169 280.746 282.818 281.256 282.528ZM283.866 287.251C283.604 287.547 283.42 287.876 283.313 288.24C283.2 288.608 283.235 288.954 283.42 289.28C283.613 289.62 283.902 289.827 284.287 289.902C284.672 289.977 285.057 289.905 285.441 289.686C285.818 289.472 286.072 289.196 286.202 288.858C286.337 288.527 286.314 288.202 286.134 287.884C285.953 287.567 285.66 287.352 285.254 287.24C284.841 287.132 284.378 287.136 283.866 287.251ZM281.749 283.421C281.276 283.69 280.957 284.033 280.793 284.449C280.632 284.873 280.661 285.277 280.88 285.661C281.081 286.016 281.421 286.244 281.899 286.344C282.369 286.449 282.938 286.443 283.606 286.328C283.849 286.102 284.053 285.849 284.217 285.57C284.381 285.291 284.478 285.006 284.509 284.715C284.539 284.423 284.478 284.145 284.327 283.879C284.172 283.605 283.957 283.399 283.683 283.262C283.402 283.128 283.092 283.074 282.755 283.1C282.417 283.125 282.082 283.232 281.749 283.421ZM270.002 288.967L273.311 290.27L273.874 286.796L274.937 287.013L274.24 290.564L277.513 291.727L277.121 292.844L274.024 291.552L273.558 294.81L272.455 294.6L273.101 291.27L269.614 290.038L270.002 288.967ZM262.422 293.23C262.887 292.965 263.385 292.834 263.915 292.836C264.441 292.85 264.961 293.034 265.475 293.388C265.989 293.741 266.458 294.291 266.882 295.038C267.239 295.667 267.494 296.304 267.647 296.951C267.796 297.61 267.826 298.248 267.737 298.866C267.64 299.488 267.414 300.062 267.057 300.587C266.7 301.113 266.193 301.562 265.535 301.936C265.468 301.974 265.396 302.01 265.318 302.045C265.237 302.091 265.164 302.127 265.101 302.154L264.584 301.244C264.647 301.218 264.716 301.184 264.79 301.142C264.868 301.107 264.94 301.071 265.007 301.033C265.813 300.575 266.338 299.949 266.581 299.156C266.821 298.374 266.757 297.52 266.388 296.595C266.294 296.913 266.131 297.245 265.898 297.593C265.67 297.947 265.348 298.243 264.934 298.478C264.52 298.713 264.096 298.827 263.661 298.82C263.227 298.812 262.818 298.687 262.436 298.445C262.05 298.214 261.723 297.862 261.454 297.389C261.148 296.849 260.988 296.309 260.974 295.769C260.957 295.24 261.073 294.754 261.319 294.311C261.566 293.868 261.934 293.507 262.422 293.23ZM262.894 294.165C262.45 294.417 262.188 294.781 262.107 295.258C262.018 295.738 262.11 296.219 262.383 296.7C262.656 297.18 263.006 297.495 263.433 297.644C263.86 297.792 264.288 297.745 264.717 297.501C265.035 297.32 265.294 297.071 265.494 296.751C265.694 296.432 265.831 296.08 265.906 295.696L265.767 295.452C265.358 294.765 264.89 294.312 264.364 294.092C263.835 293.884 263.345 293.908 262.894 294.165ZM257.241 302.145L257.738 303.021L253.369 305.504L252.871 304.628L257.241 302.145ZM256.094 300.127L256.592 301.003L252.222 303.486L251.724 302.61L256.094 300.127ZM242.849 304.352C243.3 304.095 243.715 303.923 244.095 303.834C244.479 303.753 244.857 303.729 245.228 303.762L245.192 304.913C244.901 304.882 244.6 304.887 244.29 304.926C243.984 304.973 243.672 305.087 243.354 305.267C242.859 305.549 242.539 305.916 242.396 306.369C242.257 306.83 242.313 307.282 242.565 307.726C242.826 308.184 243.197 308.467 243.678 308.575C244.157 308.694 244.688 308.588 245.272 308.256L246.648 307.475L248.866 311.379L245.029 313.559L244.518 312.661L247.413 311.016L246.215 308.909L245.661 309.224C245.084 309.551 244.536 309.731 244.016 309.762C243.488 309.798 243.016 309.699 242.6 309.466C242.177 309.237 241.835 308.894 241.574 308.435C241.293 307.94 241.158 307.435 241.168 306.92C241.176 306.417 241.32 305.939 241.601 305.486C241.885 305.041 242.301 304.662 242.849 304.352ZM237.672 307.469L238.176 308.357L236.59 309.258L239.772 314.859L240.622 312.894L241.587 313.328L240.231 316.285L239.499 316.701L235.592 309.825L234.272 310.575L233.768 309.688L237.672 307.469Z" fill="black"/>
<path d="M311.827 284.079C312.119 286.313 312.439 288.691 312.785 291.212C313.139 293.774 313.57 296.407 314.077 299.109C314.57 301.73 315.079 304.327 315.604 306.899C316.096 309.52 316.614 312.051 317.158 314.493C317.25 314.984 317.094 315.395 316.69 315.725C316.293 316.097 315.808 316.336 315.235 316.444C314.743 316.536 314.253 316.522 313.764 316.402C313.275 316.282 312.907 316.012 312.658 315.592C311.999 312.536 311.428 309.718 310.943 307.138C310.425 304.607 309.936 302.113 309.474 299.656C309.013 297.199 308.633 294.727 308.336 292.239C308.005 289.8 307.615 287.16 307.166 284.319C307.158 283.599 307.328 283.037 307.676 282.633C308.024 282.228 308.464 281.976 308.997 281.876C309.529 281.776 310.1 281.881 310.709 282.19C311.277 282.508 311.631 283.035 311.769 283.772L311.827 284.079ZM293.492 315.122C293.351 315.276 293.186 315.413 292.997 315.533C292.815 315.694 292.602 315.798 292.356 315.844C291.235 315.97 289.969 315.89 288.559 315.603C287.156 315.358 285.813 314.868 284.531 314.134C283.207 313.408 282.026 312.421 280.986 311.175C279.946 309.929 279.25 308.364 278.896 306.48C278.481 304.269 278.499 302.337 278.952 300.683C279.371 299.078 280.086 297.693 281.097 296.528C282.074 295.412 283.241 294.514 284.597 293.836C285.961 293.198 287.36 292.744 288.793 292.475C289.981 292.252 291.289 292.218 292.717 292.374C294.112 292.578 295.468 293.023 296.783 293.709C298.058 294.402 299.191 295.355 300.182 296.568C301.181 297.822 301.857 299.391 302.211 301.275C302.534 302.995 302.486 304.657 302.066 306.262C301.614 307.916 300.996 309.367 300.213 310.616C299.39 311.873 298.482 312.913 297.492 313.735C296.502 314.557 295.618 315.041 294.84 315.187C294.389 315.271 293.94 315.25 293.492 315.122ZM292.443 311.567C293.111 311.06 293.767 310.492 294.412 309.862C295.057 309.232 295.621 308.511 296.104 307.7C296.596 306.929 296.961 306.055 297.202 305.077C297.401 304.107 297.385 303.008 297.154 301.779C296.947 300.673 296.545 299.774 295.948 299.08C295.351 298.387 294.679 297.856 293.932 297.488C293.143 297.127 292.337 296.897 291.513 296.797C290.696 296.739 289.961 296.771 289.305 296.894C288.527 297.04 287.752 297.313 286.979 297.713C286.165 298.12 285.481 298.651 284.925 299.307C284.337 300.011 283.923 300.852 283.682 301.829C283.401 302.815 283.383 303.963 283.63 305.273C283.883 306.625 284.357 307.68 285.051 308.44C285.712 309.249 286.464 309.871 287.309 310.306C288.154 310.74 289.037 311.041 289.959 311.207C290.88 311.373 291.708 311.493 292.443 311.567ZM264.253 320.614C264.113 320.767 263.948 320.904 263.758 321.025C263.576 321.186 263.363 321.29 263.117 321.336C261.996 321.462 260.73 321.381 259.32 321.095C257.917 320.85 256.575 320.36 255.292 319.626C253.968 318.899 252.787 317.913 251.747 316.667C250.708 315.421 250.011 313.856 249.657 311.972C249.242 309.761 249.261 307.828 249.713 306.175C250.132 304.57 250.847 303.185 251.858 302.02C252.835 300.903 254.002 300.006 255.359 299.327C256.723 298.689 258.121 298.236 259.555 297.967C260.742 297.744 262.05 297.71 263.478 297.866C264.873 298.07 266.229 298.515 267.545 299.201C268.82 299.894 269.952 300.847 270.943 302.06C271.942 303.314 272.618 304.883 272.972 306.766C273.295 308.486 273.247 310.149 272.828 311.754C272.375 313.407 271.757 314.859 270.975 316.108C270.151 317.365 269.244 318.404 268.253 319.226C267.263 320.048 266.379 320.532 265.601 320.679C265.15 320.763 264.701 320.741 264.253 320.614ZM263.204 317.059C263.872 316.552 264.528 315.983 265.173 315.353C265.818 314.724 266.382 314.003 266.866 313.191C267.357 312.421 267.723 311.547 267.963 310.569C268.162 309.599 268.146 308.499 267.916 307.271C267.708 306.165 267.306 305.266 266.709 304.572C266.113 303.879 265.441 303.348 264.693 302.979C263.905 302.619 263.098 302.389 262.274 302.289C261.458 302.23 260.722 302.263 260.067 302.386C259.289 302.532 258.513 302.805 257.74 303.204C256.926 303.611 256.242 304.143 255.687 304.798C255.098 305.502 254.684 306.343 254.443 307.321C254.162 308.307 254.145 309.455 254.391 310.765C254.645 312.116 255.118 313.172 255.812 313.932C256.473 314.741 257.226 315.362 258.07 315.797C258.915 316.232 259.798 316.533 260.72 316.699C261.641 316.865 262.469 316.985 263.204 317.059ZM236.249 294.077C236.553 293.893 236.869 293.77 237.197 293.708C237.811 293.593 238.419 293.669 239.021 293.938C239.622 294.207 240.016 294.726 240.204 295.496C240.009 296.042 239.734 296.835 239.379 297.877C238.99 298.968 238.526 300.221 237.986 301.636C237.454 303.093 236.867 304.708 236.226 306.482C235.584 308.256 234.879 310.148 234.112 312.157L229.393 324.617C228.542 326.855 227.716 329.002 226.915 331.061C226.074 333.126 225.265 335.144 224.49 337.112C224.416 337.168 224.256 337.22 224.011 337.266C223.314 337.397 222.564 337.241 221.761 336.798C220.916 336.363 220.428 335.798 220.297 335.102C221.778 331.474 223.259 327.847 224.74 324.22C226.187 320.641 227.602 317.111 228.983 313.629C230.323 310.156 231.617 306.775 232.865 303.488C234.113 300.202 235.241 297.064 236.249 294.077ZM243.9 331.432L243.286 331.547C242.467 331.701 241.588 331.76 240.649 331.724C239.676 331.737 238.754 331.571 237.884 331.226C237.014 330.881 236.248 330.304 235.588 329.495C234.894 328.735 234.416 327.659 234.155 326.267C233.978 325.325 233.993 324.389 234.2 323.46C234.415 322.572 234.767 321.743 235.259 320.972C235.758 320.242 236.382 319.616 237.132 319.094C237.881 318.572 238.727 318.222 239.669 318.045C240.365 317.914 241.064 317.91 241.765 318.033C242.474 318.196 243.117 318.457 243.693 318.816C244.277 319.215 244.79 319.691 245.233 320.243C245.635 320.804 245.905 321.452 246.044 322.19C246.182 322.927 246.227 323.618 246.179 324.263C246.097 324.956 245.976 325.552 245.815 326.048C245.661 326.586 245.489 327.021 245.297 327.354C245.113 327.727 244.946 327.971 244.798 328.083C245.056 328.332 245.22 328.64 245.29 329.008C245.536 330.319 245.073 331.127 243.9 331.432ZM241.887 327.485C241.782 327.378 241.707 327.201 241.661 326.956C241.591 326.587 241.704 326.057 241.998 325.366C242.259 324.723 242.339 324.136 242.239 323.604C242.162 323.194 241.905 322.84 241.467 322.54C240.989 322.249 240.545 322.141 240.135 322.218C239.644 322.311 239.274 322.486 239.026 322.745C238.736 323.011 238.537 323.303 238.427 323.62C238.276 323.945 238.187 324.259 238.158 324.561C238.138 324.904 238.147 325.178 238.186 325.383C238.301 325.997 238.492 326.448 238.758 326.738C238.983 327.034 239.255 327.238 239.572 327.348C239.897 327.499 240.268 327.556 240.686 327.52C241.07 327.533 241.47 327.521 241.887 327.485ZM223.96 311.266C223.346 311.381 222.536 311.47 221.53 311.531C220.532 311.634 219.52 311.549 218.493 311.275C217.474 311.043 216.557 310.558 215.74 309.821C214.89 309.133 214.323 308.031 214.038 306.516C213.838 305.451 213.886 304.467 214.183 303.563C214.446 302.708 214.835 301.957 215.349 301.309C215.871 300.702 216.478 300.207 217.169 299.823C217.811 299.405 218.419 299.143 218.992 299.035C219.811 298.881 220.616 298.879 221.407 299.027C222.198 299.175 222.923 299.42 223.58 299.763C224.246 300.147 224.797 300.595 225.232 301.107C225.675 301.659 225.958 302.263 226.081 302.918C226.142 303.246 226.191 303.618 226.227 304.036C226.263 304.453 226.279 304.874 226.274 305.299C226.269 305.724 226.215 306.115 226.113 306.474C226.018 306.873 225.884 307.174 225.71 307.376L225.126 307.994C225.329 308.168 225.461 308.419 225.522 308.747C225.63 309.32 225.538 309.846 225.246 310.325C224.955 310.804 224.526 311.117 223.96 311.266ZM221.917 307.834C221.812 307.727 221.736 307.55 221.69 307.304C221.628 306.977 221.699 306.561 221.901 306.056C222.062 305.56 222.104 305.107 222.027 304.697C221.904 304.042 221.644 303.561 221.247 303.254C220.809 302.955 220.324 302.855 219.792 302.955C218.973 303.109 218.463 303.438 218.26 303.942C218.025 304.495 217.942 304.956 218.011 305.324C218.25 306.594 218.756 307.368 219.529 307.647C220.261 307.933 221.057 307.996 221.917 307.834Z" fill="black"/>
<path d="M334 309.999C334 322.273 326.846 333.7 314.639 342.184C302.443 350.661 285.433 355.999 266.5 355.999C247.568 355.999 230.557 350.661 218.361 342.184C206.154 333.7 199 322.273 199 309.999C199 297.726 206.154 286.299 218.361 277.815C230.557 269.338 247.568 263.999 266.5 263.999C285.433 263.999 302.443 269.338 314.639 277.815C326.846 286.299 334 297.726 334 309.999Z" stroke="black" stroke-width="6"/>
<path d="M3.00024 -0.000610352L53.0002 -0.000610528L53.0002 39.4994L57.5002 77.9994L73.0002 82.9994L99.5002 93.9994L121 120.499L135.5 133.999L133.5 137.999L128 139.999L118.5 137.999L135.5 168.499L133.5 173.499L128 175.499L118.5 170.499L126 183.999L125 188.999L118.5 191.499L111 188.999L99.0002 190.999L90.0002 183.999L89.0002 188.999L83.0002 191.499L57.5002 170.499L28.0002 139.999L18.0002 109.999L9.00024 68.9994L3.00024 -0.000610352Z" fill="#D9D9D9"/>
<path d="M19.636 118.013L18.3019 118.291L18.3205 118.38L18.3509 118.467L19.636 118.013ZM60.2478 173.069L59.2923 174.041L59.3201 174.068L59.3494 174.094L60.2478 173.069ZM53.8204 140.184C53.2708 139.67 52.4084 139.699 51.8941 140.248C51.3799 140.798 51.4086 141.66 51.9582 142.175L53.8204 140.184ZM55.6875 143.797L56.6186 142.802L55.6875 143.797ZM78.6801 189.228L77.7818 190.253L78.6801 189.228ZM82.0315 190.998L81.6916 192.317L82.0315 190.998ZM89.6848 186.412L88.322 186.412L89.6848 186.412ZM88.0655 181.527L89.1584 180.713L88.0655 181.527ZM36.8029 150.018L37.7584 149.046L36.8029 150.018ZM83.5553 191.39L83.8952 190.07L83.5553 191.39ZM10.5195 74.2517L11.8537 73.9738L10.5195 74.2517ZM1.62793 1.4683L3.34608 30.6002L6.06697 30.4397L4.34882 1.30783L1.62793 1.4683ZM9.18533 74.5296L18.3019 118.291L20.9702 117.735L11.8537 73.9738L9.18533 74.5296ZM18.3509 118.467L22.3316 129.744L24.9018 128.837L20.9212 117.559L18.3509 118.467ZM35.8475 150.99L59.2923 174.041L61.2032 172.097L37.7584 149.046L35.8475 150.99ZM59.3494 174.094L77.7818 190.253L79.5785 188.203L61.1461 172.044L59.3494 174.094ZM81.6916 192.317L83.2155 192.71L83.8952 190.07L82.3713 189.678L81.6916 192.317ZM91.0476 186.639L91.0476 186.412L88.322 186.412L88.322 186.639L91.0476 186.639ZM89.1584 180.713L82.4163 171.662L80.2304 173.29L86.9726 182.341L89.1584 180.713ZM56.6186 142.802L53.8204 140.184L51.9582 142.175L54.7564 144.793L56.6186 142.802ZM82.4163 171.662C74.693 161.293 66.0595 151.635 56.6186 142.802L54.7564 144.793C64.0789 153.515 72.604 163.052 80.2304 173.29L82.4163 171.662ZM77.7818 190.253C78.9054 191.238 80.2446 191.945 81.6916 192.317L82.3713 189.678C81.3377 189.412 80.3811 188.907 79.5785 188.203L77.7818 190.253ZM91.0476 186.412C91.0476 184.358 90.3851 182.36 89.1584 180.713L86.9726 182.341C87.8487 183.518 88.322 184.945 88.322 186.412L91.0476 186.412ZM22.3316 129.744C25.1617 137.762 29.7843 145.029 35.8475 150.99L37.7584 149.046C31.991 143.376 27.5938 136.464 24.9018 128.837L22.3316 129.744ZM83.2155 192.71C87.1827 193.731 91.0476 190.735 91.0476 186.639L88.322 186.639C88.322 188.954 86.1375 190.648 83.8952 190.07L83.2155 192.71ZM3.34608 30.6002C4.21697 45.3663 6.16861 60.0487 9.18533 74.5296L11.8537 73.9738C8.86408 59.6232 6.93001 45.0729 6.06697 30.4397L3.34608 30.6002Z" fill="black"/>
<path d="M87.232 180.43L96.067 188.961C97.9347 190.765 100.432 191.768 103.029 191.757V191.757C105.642 191.747 108.147 190.709 110.003 188.869L111.586 187.299" stroke="black" stroke-width="2.72561"/>
<path d="M68.9002 129.55L81.3876 144.345L109.662 186.335C110.338 187.34 111.183 188.22 112.159 188.936L113.834 190.167C116.256 191.945 119.512 192.085 122.078 190.52L122.683 190.151C124.874 188.815 126.045 186.291 125.65 183.755V183.755C125.517 182.896 125.208 182.074 124.744 181.34L99.1766 140.883L81.2407 119.109" stroke="black" stroke-width="2.72561" stroke-linecap="round"/>
<path d="M83.2672 92.7699C82.7228 92.2502 81.8601 92.2703 81.3404 92.8148C80.8207 93.3592 80.8408 94.2219 81.3853 94.7415L83.2672 92.7699ZM134.175 166.214L132.987 166.882L134.175 166.214ZM130.224 175.294L129.903 173.97L130.224 175.294ZM130.131 175.317L129.81 173.992L130.131 175.317ZM114.156 167.026L123.704 175.056L125.459 172.97L115.911 164.94L114.156 167.026ZM130.452 176.641L130.545 176.619L129.903 173.97L129.81 173.992L130.452 176.641ZM135.363 165.546L110.332 121.021L107.957 122.357L132.987 166.882L135.363 165.546ZM103.071 111.673L83.2672 92.7699L81.3853 94.7415L101.189 113.645L103.071 111.673ZM110.332 121.021C108.388 117.563 105.941 114.413 103.071 111.673L101.189 113.645C103.864 116.198 106.145 119.134 107.957 122.357L110.332 121.021ZM136.188 167.773C136.031 166.992 135.753 166.24 135.363 165.546L132.987 166.882C133.237 167.326 133.415 167.807 133.515 168.307L136.188 167.773ZM130.545 176.619C134.494 175.661 136.984 171.758 136.188 167.773L133.515 168.307C134.025 170.858 132.431 173.357 129.903 173.97L130.545 176.619ZM123.704 175.056C125.573 176.628 128.079 177.216 130.452 176.641L129.81 173.992C128.279 174.363 126.664 173.984 125.459 172.97L123.704 175.056Z" fill="black"/>
<path d="M52.3442 -0.550415L53.479 43.6052L58.0681 79.3107L60.7408 79.3107C63.2924 79.3107 65.8166 79.8376 68.1552 80.8584L96.0592 93.0382C97.9709 93.8726 99.7094 95.0581 101.184 96.5331V96.5331C106.955 102.304 112.249 108.532 117.015 115.158L119.993 119.298C120.683 120.257 121.462 121.147 122.321 121.957L134.087 133.058C134.932 133.854 135.228 135.073 134.845 136.169V136.169C134.07 138.384 132.031 139.928 129.69 140.096V140.096C127.241 140.271 124.768 139.819 122.543 138.78L117.759 136.548" stroke="black" stroke-width="2.72561"/>
<path d="M31.3014 88.5583L34.8732 85.7804C38.9659 82.5975 43.8019 80.5094 48.9251 79.7131L53.287 79.035" stroke="black" stroke-width="1.63537" stroke-linecap="round"/>
<path d="M82.5986 189.425L76.034 182.204C75.1693 181.253 75.3108 179.764 76.3391 178.992L78.34 177.492C79.2168 176.834 80.4456 176.93 81.2103 177.715L89.4076 186.132" stroke="black" stroke-width="1.63537" stroke-linecap="round"/>
<path d="M117.214 188.607L111.729 180.709C111.01 179.674 111.317 178.245 112.398 177.596L117.214 174.706" stroke="black" stroke-width="1.63537" stroke-linecap="round"/>
<path d="M101.133 190.243L95.8464 184.003C95.0497 183.063 95.1902 181.649 96.1565 180.884L99.216 178.462C100.134 177.735 101.463 177.863 102.225 178.752L109.037 186.699" stroke="black" stroke-width="1.63537" stroke-linecap="round"/>
<path d="M129.479 175.524L120.058 163.276C119.267 162.248 119.543 160.761 120.651 160.085L123.381 158.42C124.318 157.848 125.533 158.062 126.219 158.918L130.569 164.349" stroke="black" stroke-width="1.63537" stroke-linecap="round"/>
<path d="M325.92 -127.866L281.735 -102.327L301.911 -67.4214L317.599 -31.1008L306.456 -18.7652L288.656 4.49099L283.193 38.8906L277.274 58.2267L281.085 60.7399L286.967 59.698L294.34 53.0783L294.896 88.7141L299.218 92.111L305.099 91.0691L310.941 81.7983L311.208 97.559L314.646 101.467L321.667 100.356L327.018 94.3158L338.644 89.9538L343.021 79.171L346.459 83.0786L353.038 82.2232L364.846 50.6408L375.336 8.62024L368.85 -22.9983L355.861 -63.8267L325.92 -127.866Z" fill="#D9D9D9"/>
<path d="M371.497 -15.0812L372.791 -15.5083L372.82 -15.4215L372.837 -15.3316L371.497 -15.0812ZM363.73 54.315L365.044 54.6782L365.034 54.7157L365.021 54.7526L363.73 54.315ZM352.64 21.9801C352.859 21.2599 353.62 20.8532 354.34 21.0717C355.06 21.2902 355.467 22.0512 355.249 22.7714L352.64 21.9801ZM355.682 78.0473L356.973 78.485L355.682 78.0473ZM353.667 81.2567L352.712 80.2842L353.667 81.2567ZM344.504 81.0931L343.324 81.7751L344.504 81.0931ZM343.462 76.0538L342.108 75.8958L343.462 76.0538ZM373.788 -2.82549L372.448 -2.5751L373.788 -2.82549ZM372.744 21.7186L371.431 21.3554L372.744 21.7186ZM352.398 82.5018L351.443 81.5292L352.398 82.5018ZM344.714 81.4557L343.534 82.1377L344.714 81.4557ZM340.206 -99.6149L341.424 -100.226L340.206 -99.6149ZM327.857 -127.256L341.424 -100.226L338.988 -99.0036L325.421 -126.034L327.857 -127.256ZM358.352 -59.2709L372.791 -15.5083L370.203 -14.6542L355.764 -58.4169L358.352 -59.2709ZM372.837 -15.3316L375.128 -3.07587L372.448 -2.5751L370.158 -14.8309L372.837 -15.3316ZM374.058 22.0819L365.044 54.6782L362.417 53.9517L371.431 21.3554L374.058 22.0819ZM365.021 54.7526L356.973 78.485L354.392 77.6097L362.44 53.8773L365.021 54.7526ZM354.621 82.2293L353.353 83.4744L351.443 81.5292L352.712 80.2842L354.621 82.2293ZM343.534 82.1377L343.324 81.7751L345.684 80.4111L345.894 80.7737L343.534 82.1377ZM342.108 75.8958L343.496 64.0011L346.203 64.3169L344.815 76.2117L342.108 75.8958ZM351.389 26.1052L352.64 21.9801L355.249 22.7714L353.997 26.8965L351.389 26.1052ZM343.496 64.0011C344.994 51.1594 347.635 38.4771 351.389 26.1052L353.997 26.8965C350.291 39.1132 347.682 51.6364 346.203 64.3169L343.496 64.0011ZM356.973 78.485C356.493 79.9 355.688 81.1826 354.621 82.2293L352.712 80.2842C353.474 79.5365 354.049 78.6204 354.392 77.6097L356.973 78.485ZM343.324 81.7751C342.297 79.9973 341.87 77.9354 342.108 75.8958L344.815 76.2117C344.645 77.6685 344.95 79.1413 345.684 80.4111L343.324 81.7751ZM375.128 -3.07587C376.69 5.2822 376.324 13.8866 374.058 22.0819L371.431 21.3554C373.586 13.5599 373.934 5.37527 372.448 -2.5751L375.128 -3.07587ZM353.353 83.4744C350.429 86.344 345.584 85.6844 343.534 82.1377L345.894 80.7737C347.052 82.7784 349.791 83.1512 351.443 81.5292L353.353 83.4744ZM341.424 -100.226C348.059 -87.0062 353.717 -73.3178 358.352 -59.2709L355.764 -58.4169C351.171 -72.3373 345.564 -85.9026 338.988 -99.0036L341.424 -100.226Z" fill="black"/>
<path d="M343.644 74.6029L340.194 86.6545C339.465 89.2021 337.77 91.3644 335.471 92.6811V92.6811C333.155 94.0067 330.412 94.3695 327.832 93.6912L325.631 93.1127" stroke="black" stroke-width="2.72561"/>
<path d="M333.856 20.2771L330.378 39.7295L326.84 91.2781C326.755 92.511 326.458 93.72 325.962 94.8518L325.11 96.7944C323.878 99.6034 321.072 101.39 318.005 101.318L317.283 101.301C314.664 101.239 312.34 99.6067 311.393 97.1642V97.1642C311.073 96.3372 310.925 95.4531 310.96 94.5668L312.889 45.756L317.618 17.354" stroke="black" stroke-width="2.72561" stroke-linecap="round"/>
<path d="M302.401 -4.87858C302.612 -5.60097 303.369 -6.01528 304.091 -5.80397C304.814 -5.59266 305.228 -4.83575 305.017 -4.11336L302.401 -4.87858ZM294.276 33.7673L295.639 33.751L294.276 33.7673ZM294.9 86.0181L296.263 86.0018L294.9 86.0181ZM303.03 92.024L303.414 93.3314L303.03 92.024ZM307.361 88.0102L306.08 87.5461L307.361 88.0102ZM303.124 91.9964L302.739 90.689L303.124 91.9964ZM312.979 76.501L308.643 88.4742L306.08 87.5461L310.416 75.5729L312.979 76.501ZM303.508 93.3037L303.414 93.3314L302.645 90.7167L302.739 90.689L303.508 93.3037ZM293.538 86.0343L292.913 33.7836L295.639 33.751L296.263 86.0018L293.538 86.0343ZM294.522 22.0562L302.401 -4.87858L305.017 -4.11336L297.138 22.8214L294.522 22.0562ZM292.913 33.7836C292.866 29.8164 293.408 25.8641 294.522 22.0562L297.138 22.8214C296.1 26.3703 295.594 30.0537 295.639 33.751L292.913 33.7836ZM293.944 88.4144C293.685 87.6474 293.547 86.8441 293.538 86.0343L296.263 86.0018C296.269 86.525 296.358 87.044 296.526 87.5396L293.944 88.4144ZM303.414 93.3314C299.45 94.4983 295.271 92.3285 293.944 88.4144L296.526 87.5396C297.383 90.0687 300.083 91.4707 302.645 90.7167L303.414 93.3314ZM308.643 88.4742C307.797 90.8093 305.891 92.6025 303.508 93.3037L302.739 90.689C304.289 90.2327 305.53 89.0657 306.08 87.5461L308.643 88.4742Z" fill="black"/>
<path d="M282.034 -103.148L303.585 -63.5488L317.767 -29.6521L315.336 -28.2469C313.127 -26.97 311.205 -25.2507 309.691 -23.1966L291.206 1.88375C289.943 3.59767 289.013 5.53319 288.462 7.59005V7.59005C286.31 15.6372 284.814 23.8454 283.986 32.1341L283.466 37.3514C283.348 38.5262 283.119 39.6871 282.781 40.8182L278.043 56.6724C277.703 57.8079 278.063 59.0368 278.962 59.8093V59.8093C280.779 61.3708 283.369 61.6942 285.523 60.6462V60.6462C287.776 59.5498 289.731 57.8873 291.167 55.8331L294.254 51.4169" stroke="black" stroke-width="2.72561"/>
<path d="M352.333 80.185L354.457 70.4024C354.729 69.1463 353.862 67.9281 352.586 67.775L349.962 67.4602C348.874 67.3297 347.858 68.0272 347.589 69.0897L344.634 80.7529" stroke="black" stroke-width="1.63537" stroke-linecap="round"/>
<path d="M321.326 97.1432L322.143 87.3148C322.248 86.0578 321.267 84.9747 320.006 84.954L314.226 84.8593" stroke="black" stroke-width="1.63537" stroke-linecap="round"/>
<path d="M336.373 90.3742L337.865 82.1143C338.085 80.9014 337.256 79.748 336.036 79.5691L332.006 78.978C330.847 78.8081 329.761 79.584 329.546 80.7354L327.578 91.2804" stroke="black" stroke-width="1.63537" stroke-linecap="round"/>
<path d="M303.805 91.8462L305.881 76.1611C306.052 74.8751 305.068 73.7258 303.771 73.6951L300.417 73.6157C299.321 73.5897 298.376 74.3825 298.21 75.467L297.134 82.5279" stroke="black" stroke-width="1.63537" stroke-linecap="round"/>
<rect x="315.198" y="28.7862" width="17.0541" height="5.5" transform="rotate(8.23045 315.198 28.7862)" fill="white" stroke="black" stroke-width="1.5"/>
<rect x="316.637" y="19.8496" width="17.2463" height="5.5" transform="rotate(8.23045 316.637 19.8496)" fill="white" stroke="black" stroke-width="1.5"/>
<rect x="313.637" y="37.8496" width="17.2463" height="5.5" transform="rotate(8.23045 313.637 37.8496)" fill="white" stroke="black" stroke-width="1.5"/>
<rect x="84.0568" y="122.172" width="19.5407" height="4.4872" transform="rotate(-40.126 84.0568 122.172)" fill="white" stroke="black" stroke-width="1.5"/>
<rect x="56.0568" y="143.65" width="19.5407" height="4.4872" transform="rotate(-40.126 56.0568 143.65)" fill="white" stroke="black" stroke-width="1.5"/>
</g>
<defs>
<clipPath id="clip0_4_88">
<rect width="430" height="391" fill="white"/>
</clipPath>
</defs>
</svg>
