<svg width="70" height="70" viewBox="0 0 70 70" fill="none" xmlns="http://www.w3.org/2000/svg">
<path d="M47.1199 23.3968C46.8685 23.2668 46.6238 23.1244 46.3866 22.97C45.697 22.5141 45.0647 21.9769 44.5033 21.3699C43.0988 19.7629 42.5743 18.1326 42.3811 16.9911H42.3888C42.2274 16.0437 42.2942 15.4307 42.3042 15.4307H35.9071V40.1671C35.9071 40.4992 35.9071 40.8274 35.8932 41.1518C35.8932 41.1921 35.8893 41.2294 35.887 41.2728C35.887 41.2907 35.887 41.3093 35.8831 41.3279V41.3419C35.8156 42.2294 35.5311 43.0868 35.0546 43.8386C34.578 44.5903 33.924 45.2135 33.1501 45.6532C32.3435 46.1121 31.4313 46.3528 30.5033 46.3516C27.5228 46.3516 25.1072 43.9212 25.1072 40.9198C25.1072 37.9183 27.5228 35.488 30.5033 35.488C31.0675 35.4874 31.6282 35.5762 32.1646 35.751L32.1724 29.2375C30.5439 29.0272 28.8895 29.1566 27.3135 29.6176C25.7376 30.0787 24.2743 30.8613 23.0159 31.9162C21.9133 32.8742 20.9864 34.0173 20.2767 35.294C20.0067 35.7596 18.9879 37.6304 18.8645 40.6668C18.7869 42.3902 19.3045 44.1757 19.5512 44.9137V44.9292C19.7064 45.3637 20.3078 46.8466 21.2878 48.0967C22.0781 49.0995 23.0118 49.9804 24.0588 50.711V50.6954L24.0743 50.711C27.1712 52.8154 30.6049 52.6773 30.6049 52.6773C31.1993 52.6532 33.1905 52.6773 35.4516 51.6057C37.9596 50.4176 39.3874 48.6477 39.3874 48.6477C40.2995 47.5901 41.0248 46.3848 41.5321 45.0836C42.111 43.5619 42.3042 41.7369 42.3042 41.0074V27.8842C42.3818 27.9308 43.4154 28.6144 43.4154 28.6144C43.4154 28.6144 44.9045 29.5689 47.2278 30.1904C48.8946 30.6327 51.1402 30.7258 51.1402 30.7258V24.3753C50.3534 24.4606 48.7557 24.2123 47.1199 23.3968Z" fill="black"/>
<circle cx="35" cy="35" r="33.5" stroke="black" stroke-width="3"/>
</svg>
