<svg width="71" height="70" viewBox="0 0 71 70" fill="none" xmlns="http://www.w3.org/2000/svg">
<path fill-rule="evenodd" clip-rule="evenodd" d="M48.44 20.3702C46.7182 18.6476 44.6727 17.2826 42.4212 16.3537C40.1698 15.4248 37.7569 14.9504 35.3213 14.9578C25.1001 14.9578 16.7795 23.2369 16.7753 33.4149C16.7708 36.6558 17.6251 39.84 19.2512 42.6434L16.6199 52.2045L26.4511 49.6379C29.1725 51.1122 32.2188 51.8838 35.3138 51.8827H35.3213C45.5417 51.8827 53.8615 43.6028 53.8665 33.4257C53.8727 30.9985 53.3961 28.5943 52.4645 26.3529C51.5329 24.1116 50.1648 22.0779 48.44 20.3702ZM35.3213 48.7675H35.3147C32.5556 48.7683 29.8467 48.0299 27.4696 46.6291L26.9068 46.2966L21.0728 47.8197L22.63 42.1587L22.2634 41.5767C20.7206 39.1342 19.9033 36.3038 19.9064 33.4149C19.9064 24.9571 26.8244 18.0756 35.3271 18.0756C39.406 18.0683 43.3207 19.6815 46.2102 22.5603C49.0998 25.439 50.7275 29.3477 50.7354 33.4265C50.7321 41.8852 43.8174 48.7675 35.3213 48.7675ZM43.7758 37.2784C43.3127 37.0473 41.0322 35.9315 40.6098 35.7777C40.1875 35.6239 39.8757 35.5466 39.5673 36.0088C39.2588 36.4711 38.3701 37.5054 38.0999 37.8171C37.8297 38.1289 37.5595 38.163 37.0964 37.9319C36.6333 37.7007 35.1393 37.2144 33.3692 35.643C31.9916 34.42 31.0621 32.9102 30.7919 32.4488C30.5217 31.9874 30.7628 31.7371 30.9947 31.5077C31.2034 31.3006 31.4578 30.9689 31.6898 30.6995C31.9217 30.4302 31.9991 30.2373 32.1529 29.9297C32.3067 29.622 32.2302 29.3527 32.1146 29.1224C31.9991 28.8921 31.0721 26.6215 30.6863 25.6978C30.3097 24.7983 29.9281 24.9205 29.6437 24.9064C29.3735 24.8931 29.0617 24.8897 28.7549 24.8897C28.5204 24.8958 28.2897 24.9502 28.0771 25.0495C27.8645 25.1488 27.6747 25.2908 27.5195 25.4667C27.0946 25.929 25.8974 27.0464 25.8974 29.3144C25.8974 31.5825 27.5602 33.7774 27.7897 34.085C28.0192 34.3926 31.0571 39.0509 35.7054 41.0488C36.5686 41.4184 37.4505 41.7426 38.3476 42.0198C39.4575 42.3707 40.4677 42.3216 41.2658 42.2028C42.1562 42.0706 44.0094 41.087 44.3944 40.0095C44.7793 38.932 44.7801 38.0092 44.6646 37.8171C44.549 37.6251 44.2397 37.5087 43.7758 37.2784Z" fill="black"/>
<circle cx="35.7162" cy="35" r="33.5753" stroke="black" stroke-width="2.84934"/>
</svg>
