<svg width="70" height="70" viewBox="0 0 70 70" fill="none" xmlns="http://www.w3.org/2000/svg">
<g clip-path="url(#clip0_37_230)">
<path d="M57.4109 26.1633C57.4109 22.2557 54.5367 19.1123 50.9851 19.1123C46.1745 18.8874 41.2683 18.8005 36.2544 18.8005H34.6914C29.6897 18.8005 24.7749 18.8874 19.9642 19.1131C16.4214 19.1131 13.5471 22.2739 13.5471 26.1815C13.33 29.272 13.238 32.3633 13.2432 35.4546C13.2345 38.5459 13.3329 41.6401 13.5384 44.7372C13.5384 48.6448 16.4127 51.8143 19.9555 51.8143C25.0093 52.0487 30.1934 52.1529 35.4643 52.1443C40.7438 52.1616 45.9134 52.0516 50.973 51.8143C54.5245 51.8143 57.3987 48.6448 57.3987 44.7372C57.6071 41.6372 57.7027 38.5459 57.694 35.4459C57.7137 32.3546 57.6193 29.2604 57.4109 26.1633ZM31.218 43.9731V26.91L43.8091 35.4372L31.218 43.9731Z" fill="black"/>
</g>
<circle cx="35" cy="35" r="33.5" stroke="black" stroke-width="3"/>
<defs>
<clipPath id="clip0_37_230">
<rect width="44.4595" height="44.4595" fill="white" transform="translate(13.2432 13.2432)"/>
</clipPath>
</defs>
</svg>
