<svg width="250" height="250" viewBox="0 0 250 250" fill="none" xmlns="http://www.w3.org/2000/svg">
<g clip-path="url(#clip0_125_415)">
<path d="M0 0V250H250V0H0ZM133.929 194.196C133.929 218.532 119.554 230.396 98.7444 230.396C79.9498 230.396 69.0402 220.664 63.5045 208.917L82.6339 197.338C86.3225 203.884 89.1239 209.42 97.1763 209.42C103.873 209.42 109.375 206.401 109.375 194.654V116.071H133.929V194.196ZM189.369 229.838C167.556 229.838 153.46 219.994 146.579 206.401L165.737 195.313C170.759 203.538 177.316 209.018 188.895 209.018C198.627 209.018 204.28 204.71 204.28 197.997C204.28 189.944 198.46 187.093 187.718 182.372L181.847 179.849C164.894 172.64 153.655 163.577 153.655 144.442C153.655 126.825 167.076 113.956 188.052 113.956C202.991 113.956 213.722 118.599 221.451 132.193L203.125 143.973C199.096 136.758 194.754 133.929 188.025 133.929C181.144 133.929 176.78 138.292 176.78 143.973C176.78 151.021 181.144 153.873 191.211 158.237L197.081 160.753C217.054 169.314 228.298 178.052 228.298 197.673C228.304 218.823 211.691 229.838 189.369 229.838Z" fill="black"/>
</g>
<defs>
<clipPath id="clip0_125_415">
<rect width="250" height="250" fill="white"/>
</clipPath>
</defs>
</svg>
